G04 EAGLE Gerber RS-274X export*
G75*
%MOMM*%
%FSLAX34Y34*%
%LPD*%
%INSolderpaste Top*%
%IPPOS*%
%AMOC8*
5,1,8,0,0,1.08239X$1,22.5*%
G01*
%ADD10R,2.000000X1.200000*%
%ADD11R,1.350000X0.600000*%
%ADD12R,1.000000X1.100000*%
%ADD13R,1.397000X0.647700*%
%ADD14R,1.100000X1.000000*%
%ADD15C,0.300000*%


D10*
X14050Y218500D03*
X14050Y162500D03*
D11*
X50800Y205500D03*
X50800Y195500D03*
X50800Y185500D03*
X50800Y175500D03*
D12*
X220980Y162950D03*
X220980Y179950D03*
D10*
X595550Y162500D03*
X595550Y218500D03*
D11*
X558800Y175500D03*
X558800Y185500D03*
X558800Y195500D03*
X558800Y205500D03*
D12*
X33020Y245500D03*
X33020Y262500D03*
X12700Y245500D03*
X12700Y262500D03*
D13*
X351300Y146050D03*
X351300Y158750D03*
X351300Y171450D03*
X351300Y184150D03*
X351300Y196850D03*
X351300Y209550D03*
X351300Y222250D03*
X351300Y234950D03*
X258300Y234950D03*
X258300Y222250D03*
X258300Y209550D03*
X258300Y196850D03*
X258300Y184150D03*
X258300Y171450D03*
X258300Y158750D03*
X258300Y146050D03*
D14*
X402200Y190500D03*
X385200Y190500D03*
X402200Y165100D03*
X385200Y165100D03*
D12*
X419100Y160900D03*
X419100Y143900D03*
X546100Y116450D03*
X546100Y99450D03*
D14*
X55000Y234950D03*
X72000Y234950D03*
D15*
X68770Y250500D02*
X68770Y257500D01*
X75770Y257500D01*
X75770Y250500D01*
X68770Y250500D01*
X68770Y253350D02*
X75770Y253350D01*
X75770Y256200D02*
X68770Y256200D01*
X51230Y257500D02*
X51230Y250500D01*
X51230Y257500D02*
X58230Y257500D01*
X58230Y250500D01*
X51230Y250500D01*
X51230Y253350D02*
X58230Y253350D01*
X58230Y256200D02*
X51230Y256200D01*
M02*
