G04 EAGLE Gerber RS-274X export*
G75*
%MOMM*%
%FSLAX34Y34*%
%LPD*%
%INSoldermask Bottom*%
%IPPOS*%
%AMOC8*
5,1,8,0,0,1.08239X$1,22.5*%
G01*
%ADD10C,3.505200*%
%ADD11R,0.863600X1.473200*%
%ADD12C,1.203200*%
%ADD13C,2.453200*%
%ADD14R,1.473200X0.863600*%
%ADD15C,2.082800*%

G36*
X547435Y86372D02*
X547435Y86372D01*
X547501Y86374D01*
X547544Y86392D01*
X547591Y86400D01*
X547648Y86434D01*
X547708Y86459D01*
X547743Y86490D01*
X547784Y86515D01*
X547826Y86566D01*
X547874Y86610D01*
X547896Y86652D01*
X547925Y86689D01*
X547946Y86751D01*
X547977Y86810D01*
X547985Y86864D01*
X547997Y86901D01*
X547996Y86941D01*
X548004Y86995D01*
X548004Y90805D01*
X547993Y90870D01*
X547991Y90936D01*
X547973Y90979D01*
X547965Y91026D01*
X547931Y91083D01*
X547906Y91143D01*
X547875Y91178D01*
X547850Y91219D01*
X547799Y91261D01*
X547755Y91309D01*
X547713Y91331D01*
X547676Y91360D01*
X547614Y91381D01*
X547555Y91412D01*
X547501Y91420D01*
X547464Y91432D01*
X547424Y91431D01*
X547370Y91439D01*
X544830Y91439D01*
X544765Y91428D01*
X544699Y91426D01*
X544656Y91408D01*
X544609Y91400D01*
X544552Y91366D01*
X544492Y91341D01*
X544457Y91310D01*
X544416Y91285D01*
X544375Y91234D01*
X544326Y91190D01*
X544304Y91148D01*
X544275Y91111D01*
X544254Y91049D01*
X544223Y90990D01*
X544215Y90936D01*
X544203Y90899D01*
X544203Y90895D01*
X544203Y90894D01*
X544204Y90859D01*
X544196Y90805D01*
X544196Y86995D01*
X544207Y86930D01*
X544209Y86864D01*
X544227Y86821D01*
X544235Y86774D01*
X544269Y86717D01*
X544294Y86657D01*
X544325Y86622D01*
X544350Y86581D01*
X544401Y86540D01*
X544445Y86491D01*
X544487Y86469D01*
X544524Y86440D01*
X544586Y86419D01*
X544645Y86388D01*
X544699Y86380D01*
X544736Y86368D01*
X544776Y86369D01*
X544830Y86361D01*
X547370Y86361D01*
X547435Y86372D01*
G37*
G36*
X103570Y252107D02*
X103570Y252107D01*
X103636Y252109D01*
X103679Y252127D01*
X103726Y252135D01*
X103783Y252169D01*
X103843Y252194D01*
X103878Y252225D01*
X103919Y252250D01*
X103961Y252301D01*
X104009Y252345D01*
X104031Y252387D01*
X104060Y252424D01*
X104081Y252486D01*
X104112Y252545D01*
X104120Y252599D01*
X104132Y252636D01*
X104131Y252676D01*
X104139Y252730D01*
X104139Y255270D01*
X104128Y255335D01*
X104126Y255401D01*
X104108Y255444D01*
X104100Y255491D01*
X104066Y255548D01*
X104041Y255608D01*
X104010Y255643D01*
X103985Y255684D01*
X103934Y255726D01*
X103890Y255774D01*
X103848Y255796D01*
X103811Y255825D01*
X103749Y255846D01*
X103690Y255877D01*
X103636Y255885D01*
X103599Y255897D01*
X103559Y255896D01*
X103505Y255904D01*
X99695Y255904D01*
X99630Y255893D01*
X99564Y255891D01*
X99521Y255873D01*
X99474Y255865D01*
X99417Y255831D01*
X99357Y255806D01*
X99322Y255775D01*
X99281Y255750D01*
X99240Y255699D01*
X99191Y255655D01*
X99169Y255613D01*
X99140Y255576D01*
X99119Y255514D01*
X99088Y255455D01*
X99080Y255401D01*
X99068Y255364D01*
X99068Y255361D01*
X99069Y255324D01*
X99061Y255270D01*
X99061Y252730D01*
X99072Y252665D01*
X99074Y252599D01*
X99092Y252556D01*
X99100Y252509D01*
X99134Y252452D01*
X99159Y252392D01*
X99190Y252357D01*
X99215Y252316D01*
X99266Y252275D01*
X99310Y252226D01*
X99352Y252204D01*
X99389Y252175D01*
X99451Y252154D01*
X99510Y252123D01*
X99564Y252115D01*
X99601Y252103D01*
X99641Y252104D01*
X99695Y252096D01*
X103505Y252096D01*
X103570Y252107D01*
G37*
G36*
X45150Y290207D02*
X45150Y290207D01*
X45216Y290209D01*
X45259Y290227D01*
X45306Y290235D01*
X45363Y290269D01*
X45423Y290294D01*
X45458Y290325D01*
X45499Y290350D01*
X45541Y290401D01*
X45589Y290445D01*
X45611Y290487D01*
X45640Y290524D01*
X45661Y290586D01*
X45692Y290645D01*
X45700Y290699D01*
X45712Y290736D01*
X45711Y290776D01*
X45719Y290830D01*
X45719Y293370D01*
X45708Y293435D01*
X45706Y293501D01*
X45688Y293544D01*
X45680Y293591D01*
X45646Y293648D01*
X45621Y293708D01*
X45590Y293743D01*
X45565Y293784D01*
X45514Y293826D01*
X45470Y293874D01*
X45428Y293896D01*
X45391Y293925D01*
X45329Y293946D01*
X45270Y293977D01*
X45216Y293985D01*
X45179Y293997D01*
X45139Y293996D01*
X45085Y294004D01*
X41275Y294004D01*
X41210Y293993D01*
X41144Y293991D01*
X41101Y293973D01*
X41054Y293965D01*
X40997Y293931D01*
X40937Y293906D01*
X40902Y293875D01*
X40861Y293850D01*
X40820Y293799D01*
X40771Y293755D01*
X40749Y293713D01*
X40720Y293676D01*
X40699Y293614D01*
X40668Y293555D01*
X40660Y293501D01*
X40648Y293464D01*
X40648Y293461D01*
X40649Y293424D01*
X40641Y293370D01*
X40641Y290830D01*
X40652Y290765D01*
X40654Y290699D01*
X40672Y290656D01*
X40680Y290609D01*
X40714Y290552D01*
X40739Y290492D01*
X40770Y290457D01*
X40795Y290416D01*
X40846Y290375D01*
X40890Y290326D01*
X40932Y290304D01*
X40969Y290275D01*
X41031Y290254D01*
X41090Y290223D01*
X41144Y290215D01*
X41181Y290203D01*
X41221Y290204D01*
X41275Y290196D01*
X45085Y290196D01*
X45150Y290207D01*
G37*
G36*
X34990Y290207D02*
X34990Y290207D01*
X35056Y290209D01*
X35099Y290227D01*
X35146Y290235D01*
X35203Y290269D01*
X35263Y290294D01*
X35298Y290325D01*
X35339Y290350D01*
X35381Y290401D01*
X35429Y290445D01*
X35451Y290487D01*
X35480Y290524D01*
X35501Y290586D01*
X35532Y290645D01*
X35540Y290699D01*
X35552Y290736D01*
X35551Y290776D01*
X35559Y290830D01*
X35559Y293370D01*
X35548Y293435D01*
X35546Y293501D01*
X35528Y293544D01*
X35520Y293591D01*
X35486Y293648D01*
X35461Y293708D01*
X35430Y293743D01*
X35405Y293784D01*
X35354Y293826D01*
X35310Y293874D01*
X35268Y293896D01*
X35231Y293925D01*
X35169Y293946D01*
X35110Y293977D01*
X35056Y293985D01*
X35019Y293997D01*
X34979Y293996D01*
X34925Y294004D01*
X31115Y294004D01*
X31050Y293993D01*
X30984Y293991D01*
X30941Y293973D01*
X30894Y293965D01*
X30837Y293931D01*
X30777Y293906D01*
X30742Y293875D01*
X30701Y293850D01*
X30660Y293799D01*
X30611Y293755D01*
X30589Y293713D01*
X30560Y293676D01*
X30539Y293614D01*
X30508Y293555D01*
X30500Y293501D01*
X30488Y293464D01*
X30488Y293461D01*
X30489Y293424D01*
X30481Y293370D01*
X30481Y290830D01*
X30492Y290765D01*
X30494Y290699D01*
X30512Y290656D01*
X30520Y290609D01*
X30554Y290552D01*
X30579Y290492D01*
X30610Y290457D01*
X30635Y290416D01*
X30686Y290375D01*
X30730Y290326D01*
X30772Y290304D01*
X30809Y290275D01*
X30871Y290254D01*
X30930Y290223D01*
X30984Y290215D01*
X31021Y290203D01*
X31061Y290204D01*
X31115Y290196D01*
X34925Y290196D01*
X34990Y290207D01*
G37*
G36*
X395670Y214007D02*
X395670Y214007D01*
X395736Y214009D01*
X395779Y214027D01*
X395826Y214035D01*
X395883Y214069D01*
X395943Y214094D01*
X395978Y214125D01*
X396019Y214150D01*
X396061Y214201D01*
X396109Y214245D01*
X396131Y214287D01*
X396160Y214324D01*
X396181Y214386D01*
X396212Y214445D01*
X396220Y214499D01*
X396232Y214536D01*
X396231Y214576D01*
X396239Y214630D01*
X396239Y217170D01*
X396228Y217235D01*
X396226Y217301D01*
X396208Y217344D01*
X396200Y217391D01*
X396166Y217448D01*
X396141Y217508D01*
X396110Y217543D01*
X396085Y217584D01*
X396034Y217626D01*
X395990Y217674D01*
X395948Y217696D01*
X395911Y217725D01*
X395849Y217746D01*
X395790Y217777D01*
X395736Y217785D01*
X395699Y217797D01*
X395659Y217796D01*
X395605Y217804D01*
X391795Y217804D01*
X391730Y217793D01*
X391664Y217791D01*
X391621Y217773D01*
X391574Y217765D01*
X391517Y217731D01*
X391457Y217706D01*
X391422Y217675D01*
X391381Y217650D01*
X391340Y217599D01*
X391291Y217555D01*
X391269Y217513D01*
X391240Y217476D01*
X391219Y217414D01*
X391188Y217355D01*
X391180Y217301D01*
X391168Y217264D01*
X391168Y217261D01*
X391169Y217224D01*
X391161Y217170D01*
X391161Y214630D01*
X391172Y214565D01*
X391174Y214499D01*
X391192Y214456D01*
X391200Y214409D01*
X391234Y214352D01*
X391259Y214292D01*
X391290Y214257D01*
X391315Y214216D01*
X391366Y214175D01*
X391410Y214126D01*
X391452Y214104D01*
X391489Y214075D01*
X391551Y214054D01*
X391610Y214023D01*
X391664Y214015D01*
X391701Y214003D01*
X391741Y214004D01*
X391795Y213996D01*
X395605Y213996D01*
X395670Y214007D01*
G37*
G36*
X395670Y188607D02*
X395670Y188607D01*
X395736Y188609D01*
X395779Y188627D01*
X395826Y188635D01*
X395883Y188669D01*
X395943Y188694D01*
X395978Y188725D01*
X396019Y188750D01*
X396061Y188801D01*
X396109Y188845D01*
X396131Y188887D01*
X396160Y188924D01*
X396181Y188986D01*
X396212Y189045D01*
X396220Y189099D01*
X396232Y189136D01*
X396231Y189176D01*
X396239Y189230D01*
X396239Y191770D01*
X396228Y191835D01*
X396226Y191901D01*
X396208Y191944D01*
X396200Y191991D01*
X396166Y192048D01*
X396141Y192108D01*
X396110Y192143D01*
X396085Y192184D01*
X396034Y192226D01*
X395990Y192274D01*
X395948Y192296D01*
X395911Y192325D01*
X395849Y192346D01*
X395790Y192377D01*
X395736Y192385D01*
X395699Y192397D01*
X395659Y192396D01*
X395605Y192404D01*
X391795Y192404D01*
X391730Y192393D01*
X391664Y192391D01*
X391621Y192373D01*
X391574Y192365D01*
X391517Y192331D01*
X391457Y192306D01*
X391422Y192275D01*
X391381Y192250D01*
X391340Y192199D01*
X391291Y192155D01*
X391269Y192113D01*
X391240Y192076D01*
X391219Y192014D01*
X391188Y191955D01*
X391180Y191901D01*
X391168Y191864D01*
X391168Y191861D01*
X391169Y191824D01*
X391161Y191770D01*
X391161Y189230D01*
X391172Y189165D01*
X391174Y189099D01*
X391192Y189056D01*
X391200Y189009D01*
X391234Y188952D01*
X391259Y188892D01*
X391290Y188857D01*
X391315Y188816D01*
X391366Y188775D01*
X391410Y188726D01*
X391452Y188704D01*
X391489Y188675D01*
X391551Y188654D01*
X391610Y188623D01*
X391664Y188615D01*
X391701Y188603D01*
X391741Y188604D01*
X391795Y188596D01*
X395605Y188596D01*
X395670Y188607D01*
G37*
G36*
X395670Y163207D02*
X395670Y163207D01*
X395736Y163209D01*
X395779Y163227D01*
X395826Y163235D01*
X395883Y163269D01*
X395943Y163294D01*
X395978Y163325D01*
X396019Y163350D01*
X396061Y163401D01*
X396109Y163445D01*
X396131Y163487D01*
X396160Y163524D01*
X396181Y163586D01*
X396212Y163645D01*
X396220Y163699D01*
X396232Y163736D01*
X396231Y163776D01*
X396239Y163830D01*
X396239Y166370D01*
X396228Y166435D01*
X396226Y166501D01*
X396208Y166544D01*
X396200Y166591D01*
X396166Y166648D01*
X396141Y166708D01*
X396110Y166743D01*
X396085Y166784D01*
X396034Y166826D01*
X395990Y166874D01*
X395948Y166896D01*
X395911Y166925D01*
X395849Y166946D01*
X395790Y166977D01*
X395736Y166985D01*
X395699Y166997D01*
X395659Y166996D01*
X395605Y167004D01*
X391795Y167004D01*
X391730Y166993D01*
X391664Y166991D01*
X391621Y166973D01*
X391574Y166965D01*
X391517Y166931D01*
X391457Y166906D01*
X391422Y166875D01*
X391381Y166850D01*
X391340Y166799D01*
X391291Y166755D01*
X391269Y166713D01*
X391240Y166676D01*
X391219Y166614D01*
X391188Y166555D01*
X391180Y166501D01*
X391168Y166464D01*
X391168Y166461D01*
X391169Y166424D01*
X391161Y166370D01*
X391161Y163830D01*
X391172Y163765D01*
X391174Y163699D01*
X391192Y163656D01*
X391200Y163609D01*
X391234Y163552D01*
X391259Y163492D01*
X391290Y163457D01*
X391315Y163416D01*
X391366Y163375D01*
X391410Y163326D01*
X391452Y163304D01*
X391489Y163275D01*
X391551Y163254D01*
X391610Y163223D01*
X391664Y163215D01*
X391701Y163203D01*
X391741Y163204D01*
X391795Y163196D01*
X395605Y163196D01*
X395670Y163207D01*
G37*
D10*
X25400Y25400D03*
X584200Y25400D03*
D11*
X48514Y292100D03*
X38100Y292100D03*
X27686Y292100D03*
D12*
X50800Y368300D03*
X558800Y12700D03*
D10*
X584200Y355600D03*
X25400Y355600D03*
D13*
X494100Y63500D03*
X444100Y63500D03*
X394100Y63500D03*
X344100Y63500D03*
X344100Y317500D03*
X394100Y317500D03*
X444100Y317500D03*
X494100Y317500D03*
D14*
X546100Y83693D03*
X546100Y94107D03*
D11*
X388493Y165100D03*
X398907Y165100D03*
X388493Y190500D03*
X398907Y190500D03*
X388493Y215900D03*
X398907Y215900D03*
X96393Y254000D03*
X106807Y254000D03*
D13*
X115500Y317500D03*
X165500Y317500D03*
X215500Y317500D03*
X265500Y317500D03*
X265500Y63500D03*
X215500Y63500D03*
X165500Y63500D03*
X115500Y63500D03*
D15*
X596900Y139700D03*
X596900Y241300D03*
X596900Y266700D03*
X596900Y292100D03*
X596900Y317500D03*
M02*
