M48
;GenerationSoftware,Autodesk,EAGLE,9.6.0*%
;CreationDate,2020-08-24T16:32:31Z*%
FMAT,2
ICI,OFF
METRIC,TZ,000.000
T4C0.381
T3C1.016
T2C1.500
T1C3.302
%
G90
M71
T1
X2540Y35560
X2540Y2540
X58420Y2540
X58420Y35560
T2
X21550Y6350
X49410Y6350
X44410Y6350
X39410Y6350
X34410Y6350
X34410Y31750
X39410Y31750
X44410Y31750
X49410Y31750
X11550Y31750
X16550Y31750
X21550Y31750
X26550Y31750
X26550Y6350
X16550Y6350
X11550Y6350
T3
X59690Y13970
X59690Y24130
X59690Y26670
X59690Y29210
X59690Y31750
T4
X6985Y18542
X53086Y19558
X6858Y17526
X18923Y21844
X51895Y20828
X54610Y5842
X8382Y24130
X7620Y20320
X53975Y17780
X54610Y13081
X23495Y17145
X52451Y14986
X6985Y12827
X37084Y25908
X20447Y16510
X36576Y22225
X27940Y15240
X30480Y17780
X46990Y16510
X55880Y22860
X45720Y21590
X6350Y21590
X7620Y27940
X58420Y17780
X37465Y15240
X4826Y27432
X1270Y27940
X28067Y17272
X52578Y11684
X37465Y17272
X37465Y19812
X24432Y16431
M30