M48
;GenerationSoftware,Autodesk,EAGLE,9.6.0*%
;CreationDate,2020-08-26T17:18:56Z*%
FMAT,2
ICI,OFF
METRIC,TZ,000.000
T4C0.381
T3C1.016
T2C1.500
T1C3.302
%
G90
M71
T1
X58420Y112776
X125476Y79756
X2540Y2540
X58420Y2540
X58420Y35560
X2540Y35560
X64008Y2540
X119888Y2540
X119888Y35560
X64008Y35560
X125476Y2540
X181356Y2540
X181356Y35560
X125476Y35560
X2540Y41148
X58420Y41148
X58420Y74168
X2540Y74168
X64008Y41148
X119888Y41148
X119888Y74168
X64008Y74168
X125476Y41148
X181356Y41148
X181356Y74168
X125476Y74168
X2540Y79756
X58420Y79756
X125476Y112776
X2540Y112776
X64008Y79756
X119888Y79756
X119888Y112776
X64008Y112776
X181356Y79756
X181356Y112776
T2
X26550Y44958
X49410Y6350
X44410Y6350
X39410Y6350
X34410Y6350
X34410Y31750
X39410Y31750
X44410Y31750
X49410Y31750
X11550Y31750
X16550Y31750
X21550Y31750
X26550Y31750
X26550Y6350
X21550Y6350
X16550Y6350
X11550Y6350
X167346Y83566
X162346Y83566
X157346Y83566
X157346Y108966
X162346Y108966
X110878Y6350
X105878Y6350
X100878Y6350
X95878Y6350
X95878Y31750
X100878Y31750
X105878Y31750
X110878Y31750
X73018Y31750
X78018Y31750
X83018Y31750
X88018Y31750
X88018Y6350
X83018Y6350
X78018Y6350
X73018Y6350
X167346Y108966
X172346Y108966
X134486Y108966
X139486Y108966
X144486Y108966
X172346Y6350
X167346Y6350
X162346Y6350
X157346Y6350
X157346Y31750
X162346Y31750
X167346Y31750
X172346Y31750
X134486Y31750
X139486Y31750
X144486Y31750
X149486Y31750
X149486Y6350
X144486Y6350
X139486Y6350
X134486Y6350
X149486Y108966
X149486Y83566
X144486Y83566
X139486Y83566
X134486Y83566
X49410Y44958
X44410Y44958
X39410Y44958
X34410Y44958
X34410Y70358
X39410Y70358
X44410Y70358
X49410Y70358
X11550Y70358
X16550Y70358
X21550Y70358
X26550Y70358
X83018Y83566
X21550Y44958
X16550Y44958
X11550Y44958
X110878Y44958
X105878Y44958
X100878Y44958
X95878Y44958
X95878Y70358
X100878Y70358
X105878Y70358
X110878Y70358
X73018Y70358
X78018Y70358
X83018Y70358
X88018Y70358
X88018Y44958
X83018Y44958
X78018Y44958
X73018Y44958
X172346Y44958
X167346Y44958
X162346Y44958
X157346Y44958
X157346Y70358
X162346Y70358
X167346Y70358
X172346Y70358
X134486Y70358
X139486Y70358
X144486Y70358
X149486Y70358
X149486Y44958
X144486Y44958
X139486Y44958
X134486Y44958
X49410Y83566
X44410Y83566
X39410Y83566
X34410Y83566
X34410Y108966
X39410Y108966
X44410Y108966
X49410Y108966
X11550Y108966
X16550Y108966
X21550Y108966
X26550Y108966
X26550Y83566
X21550Y83566
X16550Y83566
X11550Y83566
X110878Y83566
X105878Y83566
X100878Y83566
X95878Y83566
X95878Y108966
X100878Y108966
X105878Y108966
X110878Y108966
X73018Y108966
X78018Y108966
X83018Y108966
X88018Y108966
X88018Y83566
X78018Y83566
X73018Y83566
X172346Y83566
T3
X59690Y13970
X59690Y24130
X59690Y26670
X59690Y29210
X59690Y31750
X121158Y13970
X121158Y24130
X121158Y26670
X121158Y29210
X121158Y31750
X182626Y13970
X182626Y24130
X182626Y26670
X182626Y29210
X182626Y31750
X121158Y62738
X182626Y67818
X121158Y65278
X59690Y91186
X121158Y91186
X121158Y101346
X121158Y103886
X121158Y106426
X121158Y108966
X59690Y101346
X59690Y103886
X59690Y106426
X59690Y108966
X121158Y67818
X121158Y70358
X59690Y62738
X59690Y65278
X59690Y67818
X59690Y70358
X59690Y52578
X121158Y52578
X182626Y52578
X182626Y62738
X182626Y65278
X182626Y70358
X182626Y91186
X182626Y101346
X182626Y103886
X182626Y106426
X182626Y108966
T4
X115443Y94996
X116078Y90297
X113919Y92202
X68453Y90043
X98552Y103124
X81915Y93726
X80391Y99060
X98044Y99441
X89408Y92456
X91948Y94996
X108458Y93726
X117348Y100076
X107188Y98806
X67818Y98806
X69088Y105156
X119888Y94996
X66294Y104648
X62738Y105156
X89535Y94488
X114046Y88900
X98933Y92456
X98933Y94488
X98933Y97028
X85900Y93647
X68453Y95758
X114554Y96774
X68326Y94742
X84963Y94361
X113363Y98044
X116078Y83058
X69850Y101346
X130556Y20320
X176911Y94996
X177546Y90297
X175387Y92202
X129921Y90043
X160020Y103124
X143383Y93726
X141859Y99060
X159512Y99441
X150876Y92456
X153416Y94996
X169926Y93726
X178816Y100076
X168656Y98806
X129286Y98806
X130556Y105156
X181356Y94996
X127762Y104648
X124206Y105156
X151003Y94488
X175514Y88900
X160401Y92456
X160401Y94488
X160401Y97028
X147368Y93647
X129921Y95758
X176022Y96774
X129794Y94742
X146431Y94361
X174831Y98044
X177546Y83058
X131318Y101346
X7620Y20320
X53975Y17780
X54610Y13081
X52451Y14986
X6985Y12827
X37084Y25908
X20447Y16510
X18923Y21844
X36576Y22225
X27940Y15240
X30480Y17780
X46990Y16510
X55880Y22860
X45720Y21590
X6350Y21590
X7620Y27940
X58420Y17780
X4826Y27432
X1270Y27940
X28067Y17272
X52578Y11684
X37465Y15240
X37465Y17272
X37465Y19812
X24432Y16431
X6985Y18542
X53086Y19558
X6858Y17526
X23495Y17145
X51895Y20828
X54610Y5842
X8382Y24130
X130556Y97536
X69088Y20320
X115443Y17780
X116078Y13081
X113919Y14986
X68453Y12827
X98552Y25908
X81915Y16510
X80391Y21844
X98044Y22225
X89408Y15240
X91948Y17780
X108458Y16510
X117348Y22860
X107188Y21590
X67818Y21590
X69088Y27940
X119888Y17780
X66294Y27432
X62738Y27940
X89535Y17272
X114046Y11684
X98933Y15240
X98933Y17272
X98933Y19812
X85900Y16431
X68453Y18542
X114554Y19558
X68326Y17526
X84963Y17145
X113363Y20828
X116078Y5842
X69850Y24130
X176911Y17780
X177546Y13081
X175387Y14986
X129921Y12827
X160020Y25908
X143383Y16510
X141859Y21844
X159512Y22225
X150876Y15240
X153416Y17780
X169926Y16510
X178816Y22860
X168656Y21590
X129286Y21590
X130556Y27940
X181356Y17780
X127762Y27432
X124206Y27940
X151003Y17272
X175514Y11684
X160401Y15240
X160401Y17272
X160401Y19812
X147368Y16431
X129921Y18542
X176022Y19558
X129794Y17526
X146431Y17145
X174831Y20828
X177546Y5842
X131318Y24130
X7620Y58928
X53975Y56388
X54610Y51689
X52451Y53594
X6985Y51435
X37084Y64516
X20447Y55118
X18923Y60452
X36576Y60833
X27940Y53848
X30480Y56388
X46990Y55118
X55880Y61468
X45720Y60198
X6350Y60198
X7620Y66548
X58420Y56388
X4826Y66040
X1270Y66548
X28067Y55880
X52578Y50292
X37465Y53848
X37465Y55880
X37465Y58420
X24432Y55039
X6985Y57150
X53086Y58166
X6858Y56134
X23495Y55753
X51895Y59436
X54610Y44450
X8382Y62738
X69088Y58928
X115443Y56388
X116078Y51689
X113919Y53594
X68453Y51435
X98552Y64516
X81915Y55118
X80391Y60452
X98044Y60833
X89408Y53848
X91948Y56388
X108458Y55118
X117348Y61468
X107188Y60198
X67818Y60198
X69088Y66548
X119888Y56388
X66294Y66040
X62738Y66548
X89535Y55880
X114046Y50292
X98933Y53848
X98933Y55880
X98933Y58420
X85900Y55039
X68453Y57150
X114554Y58166
X68326Y56134
X84963Y55753
X113363Y59436
X116078Y44450
X69850Y62738
X7620Y97536
X130556Y58928
X176911Y56388
X177546Y51689
X175387Y53594
X129921Y51435
X160020Y64516
X143383Y55118
X141859Y60452
X159512Y60833
X150876Y53848
X153416Y56388
X169926Y55118
X178816Y61468
X168656Y60198
X129286Y60198
X130556Y66548
X181356Y56388
X127762Y66040
X124206Y66548
X151003Y55880
X175514Y50292
X160401Y53848
X160401Y55880
X160401Y58420
X147368Y55039
X129921Y57150
X176022Y58166
X129794Y56134
X146431Y55753
X174831Y59436
X177546Y44450
X131318Y62738
X53975Y94996
X54610Y90297
X52451Y92202
X6985Y90043
X37084Y103124
X20447Y93726
X18923Y99060
X36576Y99441
X27940Y92456
X30480Y94996
X46990Y93726
X55880Y100076
X45720Y98806
X6350Y98806
X7620Y105156
X58420Y94996
X4826Y104648
X1270Y105156
X28067Y94488
X52578Y88900
X37465Y92456
X37465Y94488
X37465Y97028
X24432Y93647
X6985Y95758
X53086Y96774
X6858Y94742
X23495Y94361
X51895Y98044
X54610Y83058
X8382Y101346
X69088Y97536
M30