G04 EAGLE Gerber RS-274X export*
G75*
%MOMM*%
%FSLAX34Y34*%
%LPD*%
%INSolderpaste Top*%
%IPPOS*%
%AMOC8*
5,1,8,0,0,1.08239X$1,22.5*%
G01*
%ADD10R,2.000000X1.200000*%
%ADD11R,1.350000X0.600000*%
%ADD12R,1.000000X1.100000*%
%ADD13R,1.397000X0.647700*%
%ADD14R,1.100000X1.000000*%
%ADD15C,0.300000*%


D10*
X14050Y218500D03*
X14050Y162500D03*
D11*
X50800Y205500D03*
X50800Y195500D03*
X50800Y185500D03*
X50800Y175500D03*
D12*
X220980Y162950D03*
X220980Y179950D03*
D10*
X595550Y162500D03*
X595550Y218500D03*
D11*
X558800Y175500D03*
X558800Y185500D03*
X558800Y195500D03*
X558800Y205500D03*
D12*
X33020Y245500D03*
X33020Y262500D03*
X12700Y245500D03*
X12700Y262500D03*
D13*
X351300Y146050D03*
X351300Y158750D03*
X351300Y171450D03*
X351300Y184150D03*
X351300Y196850D03*
X351300Y209550D03*
X351300Y222250D03*
X351300Y234950D03*
X258300Y234950D03*
X258300Y222250D03*
X258300Y209550D03*
X258300Y196850D03*
X258300Y184150D03*
X258300Y171450D03*
X258300Y158750D03*
X258300Y146050D03*
D14*
X402200Y190500D03*
X385200Y190500D03*
X402200Y165100D03*
X385200Y165100D03*
D12*
X419100Y160900D03*
X419100Y143900D03*
X546100Y116450D03*
X546100Y99450D03*
D14*
X55000Y234950D03*
X72000Y234950D03*
D15*
X68770Y250500D02*
X68770Y257500D01*
X75770Y257500D01*
X75770Y250500D01*
X68770Y250500D01*
X68770Y253350D02*
X75770Y253350D01*
X75770Y256200D02*
X68770Y256200D01*
X51230Y257500D02*
X51230Y250500D01*
X51230Y257500D02*
X58230Y257500D01*
X58230Y250500D01*
X51230Y250500D01*
X51230Y253350D02*
X58230Y253350D01*
X58230Y256200D02*
X51230Y256200D01*
D10*
X628730Y218500D03*
X628730Y162500D03*
D11*
X665480Y205500D03*
X665480Y195500D03*
X665480Y185500D03*
X665480Y175500D03*
D12*
X835660Y162950D03*
X835660Y179950D03*
D10*
X1210230Y162500D03*
X1210230Y218500D03*
D11*
X1173480Y175500D03*
X1173480Y185500D03*
X1173480Y195500D03*
X1173480Y205500D03*
D12*
X647700Y245500D03*
X647700Y262500D03*
X627380Y245500D03*
X627380Y262500D03*
D13*
X965980Y146050D03*
X965980Y158750D03*
X965980Y171450D03*
X965980Y184150D03*
X965980Y196850D03*
X965980Y209550D03*
X965980Y222250D03*
X965980Y234950D03*
X872980Y234950D03*
X872980Y222250D03*
X872980Y209550D03*
X872980Y196850D03*
X872980Y184150D03*
X872980Y171450D03*
X872980Y158750D03*
X872980Y146050D03*
D14*
X1016880Y190500D03*
X999880Y190500D03*
X1016880Y165100D03*
X999880Y165100D03*
D12*
X1033780Y160900D03*
X1033780Y143900D03*
X1160780Y116450D03*
X1160780Y99450D03*
D14*
X669680Y234950D03*
X686680Y234950D03*
D15*
X683450Y250500D02*
X683450Y257500D01*
X690450Y257500D01*
X690450Y250500D01*
X683450Y250500D01*
X683450Y253350D02*
X690450Y253350D01*
X690450Y256200D02*
X683450Y256200D01*
X665910Y257500D02*
X665910Y250500D01*
X665910Y257500D02*
X672910Y257500D01*
X672910Y250500D01*
X665910Y250500D01*
X665910Y253350D02*
X672910Y253350D01*
X672910Y256200D02*
X665910Y256200D01*
D10*
X1243410Y218500D03*
X1243410Y162500D03*
D11*
X1280160Y205500D03*
X1280160Y195500D03*
X1280160Y185500D03*
X1280160Y175500D03*
D12*
X1450340Y162950D03*
X1450340Y179950D03*
D10*
X1824910Y162500D03*
X1824910Y218500D03*
D11*
X1788160Y175500D03*
X1788160Y185500D03*
X1788160Y195500D03*
X1788160Y205500D03*
D12*
X1262380Y245500D03*
X1262380Y262500D03*
X1242060Y245500D03*
X1242060Y262500D03*
D13*
X1580660Y146050D03*
X1580660Y158750D03*
X1580660Y171450D03*
X1580660Y184150D03*
X1580660Y196850D03*
X1580660Y209550D03*
X1580660Y222250D03*
X1580660Y234950D03*
X1487660Y234950D03*
X1487660Y222250D03*
X1487660Y209550D03*
X1487660Y196850D03*
X1487660Y184150D03*
X1487660Y171450D03*
X1487660Y158750D03*
X1487660Y146050D03*
D14*
X1631560Y190500D03*
X1614560Y190500D03*
X1631560Y165100D03*
X1614560Y165100D03*
D12*
X1648460Y160900D03*
X1648460Y143900D03*
X1775460Y116450D03*
X1775460Y99450D03*
D14*
X1284360Y234950D03*
X1301360Y234950D03*
D15*
X1298130Y250500D02*
X1298130Y257500D01*
X1305130Y257500D01*
X1305130Y250500D01*
X1298130Y250500D01*
X1298130Y253350D02*
X1305130Y253350D01*
X1305130Y256200D02*
X1298130Y256200D01*
X1280590Y257500D02*
X1280590Y250500D01*
X1280590Y257500D02*
X1287590Y257500D01*
X1287590Y250500D01*
X1280590Y250500D01*
X1280590Y253350D02*
X1287590Y253350D01*
X1287590Y256200D02*
X1280590Y256200D01*
D10*
X14050Y604580D03*
X14050Y548580D03*
D11*
X50800Y591580D03*
X50800Y581580D03*
X50800Y571580D03*
X50800Y561580D03*
D12*
X220980Y549030D03*
X220980Y566030D03*
D10*
X595550Y548580D03*
X595550Y604580D03*
D11*
X558800Y561580D03*
X558800Y571580D03*
X558800Y581580D03*
X558800Y591580D03*
D12*
X33020Y631580D03*
X33020Y648580D03*
X12700Y631580D03*
X12700Y648580D03*
D13*
X351300Y532130D03*
X351300Y544830D03*
X351300Y557530D03*
X351300Y570230D03*
X351300Y582930D03*
X351300Y595630D03*
X351300Y608330D03*
X351300Y621030D03*
X258300Y621030D03*
X258300Y608330D03*
X258300Y595630D03*
X258300Y582930D03*
X258300Y570230D03*
X258300Y557530D03*
X258300Y544830D03*
X258300Y532130D03*
D14*
X402200Y576580D03*
X385200Y576580D03*
X402200Y551180D03*
X385200Y551180D03*
D12*
X419100Y546980D03*
X419100Y529980D03*
X546100Y502530D03*
X546100Y485530D03*
D14*
X55000Y621030D03*
X72000Y621030D03*
D15*
X68770Y636580D02*
X68770Y643580D01*
X75770Y643580D01*
X75770Y636580D01*
X68770Y636580D01*
X68770Y639430D02*
X75770Y639430D01*
X75770Y642280D02*
X68770Y642280D01*
X51230Y643580D02*
X51230Y636580D01*
X51230Y643580D02*
X58230Y643580D01*
X58230Y636580D01*
X51230Y636580D01*
X51230Y639430D02*
X58230Y639430D01*
X58230Y642280D02*
X51230Y642280D01*
D10*
X628730Y604580D03*
X628730Y548580D03*
D11*
X665480Y591580D03*
X665480Y581580D03*
X665480Y571580D03*
X665480Y561580D03*
D12*
X835660Y549030D03*
X835660Y566030D03*
D10*
X1210230Y548580D03*
X1210230Y604580D03*
D11*
X1173480Y561580D03*
X1173480Y571580D03*
X1173480Y581580D03*
X1173480Y591580D03*
D12*
X647700Y631580D03*
X647700Y648580D03*
X627380Y631580D03*
X627380Y648580D03*
D13*
X965980Y532130D03*
X965980Y544830D03*
X965980Y557530D03*
X965980Y570230D03*
X965980Y582930D03*
X965980Y595630D03*
X965980Y608330D03*
X965980Y621030D03*
X872980Y621030D03*
X872980Y608330D03*
X872980Y595630D03*
X872980Y582930D03*
X872980Y570230D03*
X872980Y557530D03*
X872980Y544830D03*
X872980Y532130D03*
D14*
X1016880Y576580D03*
X999880Y576580D03*
X1016880Y551180D03*
X999880Y551180D03*
D12*
X1033780Y546980D03*
X1033780Y529980D03*
X1160780Y502530D03*
X1160780Y485530D03*
D14*
X669680Y621030D03*
X686680Y621030D03*
D15*
X683450Y636580D02*
X683450Y643580D01*
X690450Y643580D01*
X690450Y636580D01*
X683450Y636580D01*
X683450Y639430D02*
X690450Y639430D01*
X690450Y642280D02*
X683450Y642280D01*
X665910Y643580D02*
X665910Y636580D01*
X665910Y643580D02*
X672910Y643580D01*
X672910Y636580D01*
X665910Y636580D01*
X665910Y639430D02*
X672910Y639430D01*
X672910Y642280D02*
X665910Y642280D01*
D10*
X1243410Y604580D03*
X1243410Y548580D03*
D11*
X1280160Y591580D03*
X1280160Y581580D03*
X1280160Y571580D03*
X1280160Y561580D03*
D12*
X1450340Y549030D03*
X1450340Y566030D03*
D10*
X1824910Y548580D03*
X1824910Y604580D03*
D11*
X1788160Y561580D03*
X1788160Y571580D03*
X1788160Y581580D03*
X1788160Y591580D03*
D12*
X1262380Y631580D03*
X1262380Y648580D03*
X1242060Y631580D03*
X1242060Y648580D03*
D13*
X1580660Y532130D03*
X1580660Y544830D03*
X1580660Y557530D03*
X1580660Y570230D03*
X1580660Y582930D03*
X1580660Y595630D03*
X1580660Y608330D03*
X1580660Y621030D03*
X1487660Y621030D03*
X1487660Y608330D03*
X1487660Y595630D03*
X1487660Y582930D03*
X1487660Y570230D03*
X1487660Y557530D03*
X1487660Y544830D03*
X1487660Y532130D03*
D14*
X1631560Y576580D03*
X1614560Y576580D03*
X1631560Y551180D03*
X1614560Y551180D03*
D12*
X1648460Y546980D03*
X1648460Y529980D03*
X1775460Y502530D03*
X1775460Y485530D03*
D14*
X1284360Y621030D03*
X1301360Y621030D03*
D15*
X1298130Y636580D02*
X1298130Y643580D01*
X1305130Y643580D01*
X1305130Y636580D01*
X1298130Y636580D01*
X1298130Y639430D02*
X1305130Y639430D01*
X1305130Y642280D02*
X1298130Y642280D01*
X1280590Y643580D02*
X1280590Y636580D01*
X1280590Y643580D02*
X1287590Y643580D01*
X1287590Y636580D01*
X1280590Y636580D01*
X1280590Y639430D02*
X1287590Y639430D01*
X1287590Y642280D02*
X1280590Y642280D01*
D10*
X14050Y990660D03*
X14050Y934660D03*
D11*
X50800Y977660D03*
X50800Y967660D03*
X50800Y957660D03*
X50800Y947660D03*
D12*
X220980Y935110D03*
X220980Y952110D03*
D10*
X595550Y934660D03*
X595550Y990660D03*
D11*
X558800Y947660D03*
X558800Y957660D03*
X558800Y967660D03*
X558800Y977660D03*
D12*
X33020Y1017660D03*
X33020Y1034660D03*
X12700Y1017660D03*
X12700Y1034660D03*
D13*
X351300Y918210D03*
X351300Y930910D03*
X351300Y943610D03*
X351300Y956310D03*
X351300Y969010D03*
X351300Y981710D03*
X351300Y994410D03*
X351300Y1007110D03*
X258300Y1007110D03*
X258300Y994410D03*
X258300Y981710D03*
X258300Y969010D03*
X258300Y956310D03*
X258300Y943610D03*
X258300Y930910D03*
X258300Y918210D03*
D14*
X402200Y962660D03*
X385200Y962660D03*
X402200Y937260D03*
X385200Y937260D03*
D12*
X419100Y933060D03*
X419100Y916060D03*
X546100Y888610D03*
X546100Y871610D03*
D14*
X55000Y1007110D03*
X72000Y1007110D03*
D15*
X68770Y1022660D02*
X68770Y1029660D01*
X75770Y1029660D01*
X75770Y1022660D01*
X68770Y1022660D01*
X68770Y1025510D02*
X75770Y1025510D01*
X75770Y1028360D02*
X68770Y1028360D01*
X51230Y1029660D02*
X51230Y1022660D01*
X51230Y1029660D02*
X58230Y1029660D01*
X58230Y1022660D01*
X51230Y1022660D01*
X51230Y1025510D02*
X58230Y1025510D01*
X58230Y1028360D02*
X51230Y1028360D01*
D10*
X628730Y990660D03*
X628730Y934660D03*
D11*
X665480Y977660D03*
X665480Y967660D03*
X665480Y957660D03*
X665480Y947660D03*
D12*
X835660Y935110D03*
X835660Y952110D03*
D10*
X1210230Y934660D03*
X1210230Y990660D03*
D11*
X1173480Y947660D03*
X1173480Y957660D03*
X1173480Y967660D03*
X1173480Y977660D03*
D12*
X647700Y1017660D03*
X647700Y1034660D03*
X627380Y1017660D03*
X627380Y1034660D03*
D13*
X965980Y918210D03*
X965980Y930910D03*
X965980Y943610D03*
X965980Y956310D03*
X965980Y969010D03*
X965980Y981710D03*
X965980Y994410D03*
X965980Y1007110D03*
X872980Y1007110D03*
X872980Y994410D03*
X872980Y981710D03*
X872980Y969010D03*
X872980Y956310D03*
X872980Y943610D03*
X872980Y930910D03*
X872980Y918210D03*
D14*
X1016880Y962660D03*
X999880Y962660D03*
X1016880Y937260D03*
X999880Y937260D03*
D12*
X1033780Y933060D03*
X1033780Y916060D03*
X1160780Y888610D03*
X1160780Y871610D03*
D14*
X669680Y1007110D03*
X686680Y1007110D03*
D15*
X683450Y1022660D02*
X683450Y1029660D01*
X690450Y1029660D01*
X690450Y1022660D01*
X683450Y1022660D01*
X683450Y1025510D02*
X690450Y1025510D01*
X690450Y1028360D02*
X683450Y1028360D01*
X665910Y1029660D02*
X665910Y1022660D01*
X665910Y1029660D02*
X672910Y1029660D01*
X672910Y1022660D01*
X665910Y1022660D01*
X665910Y1025510D02*
X672910Y1025510D01*
X672910Y1028360D02*
X665910Y1028360D01*
D10*
X1243410Y990660D03*
X1243410Y934660D03*
D11*
X1280160Y977660D03*
X1280160Y967660D03*
X1280160Y957660D03*
X1280160Y947660D03*
D12*
X1450340Y935110D03*
X1450340Y952110D03*
D10*
X1824910Y934660D03*
X1824910Y990660D03*
D11*
X1788160Y947660D03*
X1788160Y957660D03*
X1788160Y967660D03*
X1788160Y977660D03*
D12*
X1262380Y1017660D03*
X1262380Y1034660D03*
X1242060Y1017660D03*
X1242060Y1034660D03*
D13*
X1580660Y918210D03*
X1580660Y930910D03*
X1580660Y943610D03*
X1580660Y956310D03*
X1580660Y969010D03*
X1580660Y981710D03*
X1580660Y994410D03*
X1580660Y1007110D03*
X1487660Y1007110D03*
X1487660Y994410D03*
X1487660Y981710D03*
X1487660Y969010D03*
X1487660Y956310D03*
X1487660Y943610D03*
X1487660Y930910D03*
X1487660Y918210D03*
D14*
X1631560Y962660D03*
X1614560Y962660D03*
X1631560Y937260D03*
X1614560Y937260D03*
D12*
X1648460Y933060D03*
X1648460Y916060D03*
X1775460Y888610D03*
X1775460Y871610D03*
D14*
X1284360Y1007110D03*
X1301360Y1007110D03*
D15*
X1298130Y1022660D02*
X1298130Y1029660D01*
X1305130Y1029660D01*
X1305130Y1022660D01*
X1298130Y1022660D01*
X1298130Y1025510D02*
X1305130Y1025510D01*
X1305130Y1028360D02*
X1298130Y1028360D01*
X1280590Y1029660D02*
X1280590Y1022660D01*
X1280590Y1029660D02*
X1287590Y1029660D01*
X1287590Y1022660D01*
X1280590Y1022660D01*
X1280590Y1025510D02*
X1287590Y1025510D01*
X1287590Y1028360D02*
X1280590Y1028360D01*
M02*
