G04 EAGLE Gerber RS-274X export*
G75*
%MOMM*%
%FSLAX34Y34*%
%LPD*%
%INBottom Copper*%
%IPPOS*%
%AMOC8*
5,1,8,0,0,1.08239X$1,22.5*%
G01*
%ADD10C,0.279400*%
%ADD11R,0.660400X1.270000*%
%ADD12C,1.000000*%
%ADD13C,2.250000*%
%ADD14R,1.270000X0.660400*%
%ADD15C,1.879600*%
%ADD16C,0.736600*%
%ADD17C,0.304800*%
%ADD18C,0.203200*%
%ADD19C,0.609600*%

G36*
X379718Y4073D02*
X379718Y4073D01*
X379776Y4071D01*
X379858Y4093D01*
X379941Y4105D01*
X379995Y4128D01*
X380051Y4143D01*
X380124Y4186D01*
X380201Y4221D01*
X380245Y4259D01*
X380296Y4288D01*
X380353Y4350D01*
X380418Y4404D01*
X380450Y4453D01*
X380490Y4496D01*
X380528Y4571D01*
X380575Y4641D01*
X380593Y4697D01*
X380619Y4749D01*
X380631Y4817D01*
X380661Y4912D01*
X380664Y5012D01*
X380675Y5080D01*
X380675Y18278D01*
X382848Y20450D01*
X382848Y20451D01*
X382878Y20480D01*
X384149Y21752D01*
X385779Y23382D01*
X394462Y23382D01*
X396036Y21807D01*
X397363Y20480D01*
X399566Y18278D01*
X399566Y9398D01*
X399574Y9340D01*
X399572Y9282D01*
X399594Y9200D01*
X399605Y9116D01*
X399629Y9063D01*
X399644Y9007D01*
X399687Y8934D01*
X399722Y8857D01*
X399759Y8812D01*
X399789Y8762D01*
X399851Y8704D01*
X399905Y8640D01*
X399954Y8608D01*
X399997Y8568D01*
X400072Y8529D01*
X400142Y8482D01*
X400198Y8465D01*
X400250Y8438D01*
X400318Y8427D01*
X400413Y8397D01*
X400513Y8394D01*
X400581Y8383D01*
X401031Y8383D01*
X401089Y8391D01*
X401147Y8389D01*
X401229Y8411D01*
X401312Y8423D01*
X401366Y8446D01*
X401422Y8461D01*
X401495Y8504D01*
X401572Y8539D01*
X401616Y8577D01*
X401667Y8606D01*
X401724Y8668D01*
X401789Y8722D01*
X401821Y8771D01*
X401861Y8814D01*
X401900Y8889D01*
X401946Y8959D01*
X401964Y9015D01*
X401991Y9067D01*
X402002Y9135D01*
X402032Y9230D01*
X402035Y9330D01*
X402046Y9398D01*
X402046Y20777D01*
X404650Y23382D01*
X408333Y23382D01*
X413976Y17739D01*
X414006Y17716D01*
X414031Y17688D01*
X414119Y17631D01*
X414203Y17568D01*
X414238Y17555D01*
X414270Y17534D01*
X414371Y17504D01*
X414469Y17467D01*
X414506Y17464D01*
X414543Y17453D01*
X414648Y17452D01*
X414752Y17443D01*
X414789Y17451D01*
X414827Y17450D01*
X414902Y17473D01*
X415031Y17499D01*
X415095Y17533D01*
X415148Y17549D01*
X417523Y18736D01*
X421017Y17571D01*
X421955Y15694D01*
X422012Y15612D01*
X422061Y15526D01*
X422092Y15496D01*
X422117Y15460D01*
X422194Y15397D01*
X422266Y15328D01*
X422303Y15307D01*
X422337Y15280D01*
X422429Y15241D01*
X422516Y15194D01*
X422559Y15185D01*
X422598Y15168D01*
X422697Y15156D01*
X422795Y15135D01*
X422837Y15138D01*
X422880Y15133D01*
X422979Y15149D01*
X423078Y15156D01*
X423119Y15171D01*
X423161Y15177D01*
X423251Y15220D01*
X423345Y15254D01*
X423379Y15280D01*
X423419Y15298D01*
X423493Y15364D01*
X423574Y15423D01*
X423596Y15454D01*
X423632Y15485D01*
X423730Y15637D01*
X423771Y15694D01*
X424710Y17571D01*
X428204Y18736D01*
X431498Y17089D01*
X432663Y13595D01*
X428632Y5534D01*
X428630Y5526D01*
X428625Y5519D01*
X428584Y5391D01*
X428542Y5264D01*
X428542Y5256D01*
X428539Y5248D01*
X428536Y5113D01*
X428530Y4980D01*
X428532Y4972D01*
X428532Y4964D01*
X428566Y4834D01*
X428597Y4704D01*
X428602Y4697D01*
X428604Y4689D01*
X428672Y4574D01*
X428738Y4457D01*
X428745Y4451D01*
X428749Y4444D01*
X428847Y4352D01*
X428943Y4259D01*
X428950Y4256D01*
X428956Y4250D01*
X429076Y4189D01*
X429193Y4126D01*
X429202Y4124D01*
X429209Y4120D01*
X429261Y4112D01*
X429472Y4067D01*
X429510Y4070D01*
X429540Y4065D01*
X553602Y4065D01*
X553631Y4069D01*
X553660Y4066D01*
X553771Y4089D01*
X553883Y4105D01*
X553910Y4117D01*
X553939Y4122D01*
X554039Y4175D01*
X554143Y4221D01*
X554165Y4240D01*
X554191Y4253D01*
X554273Y4331D01*
X554360Y4404D01*
X554376Y4429D01*
X554397Y4449D01*
X554454Y4547D01*
X554517Y4641D01*
X554526Y4669D01*
X554541Y4694D01*
X554569Y4804D01*
X554603Y4912D01*
X554604Y4942D01*
X554611Y4970D01*
X554607Y5083D01*
X554610Y5196D01*
X554603Y5225D01*
X554602Y5254D01*
X554567Y5362D01*
X554538Y5471D01*
X554523Y5497D01*
X554514Y5525D01*
X554469Y5588D01*
X554393Y5716D01*
X554348Y5759D01*
X554320Y5798D01*
X551977Y8141D01*
X550751Y11099D01*
X550751Y14301D01*
X551977Y17259D01*
X554241Y19523D01*
X557199Y20749D01*
X560401Y20749D01*
X560486Y20713D01*
X560545Y20698D01*
X560601Y20674D01*
X560682Y20663D01*
X560761Y20643D01*
X560822Y20644D01*
X560883Y20636D01*
X560964Y20648D01*
X561046Y20651D01*
X561104Y20669D01*
X561164Y20678D01*
X561239Y20712D01*
X561316Y20737D01*
X561367Y20771D01*
X561423Y20797D01*
X561485Y20850D01*
X561552Y20896D01*
X561592Y20942D01*
X561638Y20982D01*
X561683Y21051D01*
X561735Y21113D01*
X561760Y21169D01*
X561794Y21220D01*
X561818Y21298D01*
X561851Y21373D01*
X561859Y21434D01*
X561877Y21492D01*
X561877Y21559D01*
X561890Y21655D01*
X561875Y21757D01*
X561874Y21828D01*
X561245Y25400D01*
X562629Y33251D01*
X566615Y40155D01*
X572722Y45280D01*
X580214Y48007D01*
X588186Y48007D01*
X595678Y45280D01*
X601785Y40156D01*
X603641Y36941D01*
X603653Y36926D01*
X603661Y36908D01*
X603740Y36814D01*
X603816Y36717D01*
X603832Y36706D01*
X603845Y36691D01*
X603947Y36622D01*
X604046Y36551D01*
X604065Y36544D01*
X604081Y36533D01*
X604199Y36496D01*
X604314Y36454D01*
X604334Y36453D01*
X604352Y36447D01*
X604475Y36444D01*
X604598Y36436D01*
X604617Y36441D01*
X604636Y36440D01*
X604755Y36471D01*
X604875Y36498D01*
X604893Y36507D01*
X604911Y36512D01*
X605017Y36574D01*
X605125Y36633D01*
X605139Y36647D01*
X605156Y36657D01*
X605240Y36747D01*
X605327Y36833D01*
X605337Y36850D01*
X605350Y36864D01*
X605406Y36974D01*
X605466Y37081D01*
X605471Y37100D01*
X605480Y37118D01*
X605492Y37190D01*
X605531Y37358D01*
X605529Y37409D01*
X605535Y37449D01*
X605535Y128285D01*
X605519Y128399D01*
X605509Y128513D01*
X605499Y128539D01*
X605495Y128567D01*
X605448Y128672D01*
X605407Y128779D01*
X605391Y128801D01*
X605379Y128826D01*
X605305Y128914D01*
X605236Y129005D01*
X605213Y129022D01*
X605196Y129043D01*
X605100Y129107D01*
X605008Y129176D01*
X604982Y129185D01*
X604959Y129201D01*
X604849Y129235D01*
X604742Y129276D01*
X604714Y129278D01*
X604688Y129286D01*
X604573Y129289D01*
X604459Y129299D01*
X604434Y129293D01*
X604404Y129294D01*
X604147Y129227D01*
X604131Y129223D01*
X599376Y127253D01*
X594424Y127253D01*
X589849Y129148D01*
X586348Y132649D01*
X584453Y137224D01*
X584453Y142176D01*
X586348Y146751D01*
X589849Y150252D01*
X594424Y152147D01*
X599376Y152147D01*
X604131Y150177D01*
X604243Y150148D01*
X604352Y150114D01*
X604380Y150113D01*
X604407Y150106D01*
X604521Y150109D01*
X604636Y150106D01*
X604663Y150113D01*
X604691Y150114D01*
X604800Y150149D01*
X604911Y150178D01*
X604935Y150192D01*
X604962Y150201D01*
X605057Y150265D01*
X605156Y150323D01*
X605175Y150344D01*
X605198Y150359D01*
X605272Y150447D01*
X605350Y150531D01*
X605363Y150555D01*
X605381Y150577D01*
X605427Y150681D01*
X605480Y150784D01*
X605484Y150808D01*
X605496Y150836D01*
X605533Y151100D01*
X605535Y151115D01*
X605535Y230824D01*
X605522Y230915D01*
X605519Y231007D01*
X605503Y231056D01*
X605495Y231106D01*
X605458Y231190D01*
X605429Y231277D01*
X605400Y231319D01*
X605379Y231365D01*
X605320Y231435D01*
X605268Y231511D01*
X605228Y231543D01*
X605196Y231582D01*
X605119Y231633D01*
X605048Y231692D01*
X605001Y231712D01*
X604959Y231740D01*
X604871Y231768D01*
X604787Y231804D01*
X604736Y231810D01*
X604688Y231826D01*
X604596Y231828D01*
X604505Y231839D01*
X604454Y231832D01*
X604404Y231833D01*
X604315Y231810D01*
X604224Y231795D01*
X604184Y231775D01*
X604129Y231761D01*
X603992Y231680D01*
X603923Y231646D01*
X603157Y231089D01*
X601483Y230236D01*
X599696Y229655D01*
X598931Y229534D01*
X598931Y240284D01*
X598923Y240342D01*
X598925Y240400D01*
X598903Y240482D01*
X598891Y240565D01*
X598867Y240619D01*
X598853Y240675D01*
X598810Y240748D01*
X598775Y240825D01*
X598737Y240869D01*
X598707Y240920D01*
X598646Y240977D01*
X598591Y241042D01*
X598543Y241074D01*
X598500Y241114D01*
X598425Y241153D01*
X598355Y241199D01*
X598299Y241217D01*
X598247Y241244D01*
X598179Y241255D01*
X598084Y241285D01*
X597984Y241288D01*
X597916Y241299D01*
X596899Y241299D01*
X596899Y242316D01*
X596891Y242374D01*
X596892Y242432D01*
X596871Y242514D01*
X596859Y242597D01*
X596835Y242651D01*
X596821Y242707D01*
X596778Y242780D01*
X596743Y242857D01*
X596705Y242902D01*
X596675Y242952D01*
X596614Y243010D01*
X596559Y243074D01*
X596511Y243106D01*
X596468Y243146D01*
X596393Y243185D01*
X596323Y243231D01*
X596267Y243249D01*
X596215Y243276D01*
X596147Y243287D01*
X596052Y243317D01*
X595952Y243320D01*
X595884Y243331D01*
X585134Y243331D01*
X585255Y244096D01*
X585836Y245883D01*
X586689Y247557D01*
X587794Y249078D01*
X589122Y250406D01*
X590643Y251511D01*
X592317Y252364D01*
X593437Y252728D01*
X593499Y252758D01*
X593565Y252779D01*
X593626Y252820D01*
X593692Y252853D01*
X593743Y252899D01*
X593801Y252938D01*
X593848Y252994D01*
X593903Y253043D01*
X593939Y253102D01*
X593984Y253155D01*
X594014Y253222D01*
X594053Y253285D01*
X594071Y253352D01*
X594099Y253415D01*
X594109Y253488D01*
X594129Y253559D01*
X594129Y253628D01*
X594138Y253697D01*
X594128Y253769D01*
X594127Y253843D01*
X594107Y253910D01*
X594098Y253978D01*
X594067Y254045D01*
X594046Y254116D01*
X594009Y254174D01*
X593980Y254237D01*
X593933Y254293D01*
X593893Y254355D01*
X593841Y254401D01*
X593796Y254453D01*
X593743Y254486D01*
X593679Y254543D01*
X593575Y254592D01*
X593511Y254631D01*
X589849Y256148D01*
X586348Y259649D01*
X586213Y259977D01*
X586212Y259978D01*
X586211Y259979D01*
X586141Y260098D01*
X586068Y260221D01*
X586067Y260222D01*
X586066Y260224D01*
X585962Y260321D01*
X585861Y260417D01*
X585860Y260417D01*
X585859Y260418D01*
X585733Y260483D01*
X585609Y260547D01*
X585607Y260547D01*
X585606Y260548D01*
X585591Y260550D01*
X585330Y260602D01*
X585299Y260599D01*
X585275Y260603D01*
X501212Y260603D01*
X501154Y260595D01*
X501096Y260597D01*
X501014Y260575D01*
X500930Y260563D01*
X500877Y260540D01*
X500821Y260525D01*
X500748Y260482D01*
X500671Y260447D01*
X500626Y260409D01*
X500576Y260380D01*
X500518Y260318D01*
X500454Y260264D01*
X500422Y260215D01*
X500382Y260172D01*
X500343Y260097D01*
X500296Y260027D01*
X500279Y259971D01*
X500252Y259919D01*
X500241Y259851D01*
X500211Y259756D01*
X500208Y259656D01*
X500197Y259588D01*
X500197Y249682D01*
X500205Y249624D01*
X500203Y249566D01*
X500225Y249484D01*
X500237Y249400D01*
X500260Y249347D01*
X500275Y249291D01*
X500318Y249218D01*
X500353Y249141D01*
X500391Y249096D01*
X500420Y249046D01*
X500482Y248988D01*
X500536Y248924D01*
X500585Y248892D01*
X500628Y248852D01*
X500703Y248813D01*
X500773Y248766D01*
X500829Y248749D01*
X500881Y248722D01*
X500949Y248711D01*
X501044Y248681D01*
X501144Y248678D01*
X501212Y248667D01*
X505403Y248667D01*
X507644Y247739D01*
X544919Y210464D01*
X545847Y208223D01*
X545847Y180874D01*
X545851Y180843D01*
X545849Y180813D01*
X545866Y180736D01*
X545887Y180592D01*
X545913Y180534D01*
X545924Y180485D01*
X546482Y179139D01*
X546482Y176461D01*
X545457Y173987D01*
X543563Y172093D01*
X541089Y171068D01*
X538411Y171068D01*
X535937Y172093D01*
X535100Y172930D01*
X535030Y172982D01*
X534966Y173042D01*
X534917Y173068D01*
X534873Y173101D01*
X534791Y173132D01*
X534713Y173172D01*
X534666Y173180D01*
X534607Y173202D01*
X534459Y173214D01*
X534382Y173227D01*
X406273Y173227D01*
X406215Y173219D01*
X406157Y173221D01*
X406075Y173199D01*
X405991Y173187D01*
X405938Y173164D01*
X405882Y173149D01*
X405809Y173106D01*
X405732Y173071D01*
X405687Y173033D01*
X405637Y173004D01*
X405579Y172942D01*
X405515Y172888D01*
X405483Y172839D01*
X405443Y172796D01*
X405404Y172721D01*
X405357Y172651D01*
X405340Y172595D01*
X405313Y172543D01*
X405302Y172475D01*
X405272Y172380D01*
X405269Y172280D01*
X405258Y172212D01*
X405258Y157487D01*
X403472Y155701D01*
X394333Y155701D01*
X394331Y155703D01*
X394258Y155746D01*
X394191Y155796D01*
X394136Y155817D01*
X394086Y155847D01*
X394004Y155868D01*
X393925Y155898D01*
X393867Y155903D01*
X393810Y155917D01*
X393726Y155914D01*
X393642Y155921D01*
X393584Y155910D01*
X393526Y155908D01*
X393446Y155882D01*
X393363Y155865D01*
X393311Y155838D01*
X393255Y155820D01*
X393199Y155780D01*
X393111Y155734D01*
X393076Y155701D01*
X383928Y155701D01*
X382142Y157487D01*
X382142Y158043D01*
X382138Y158072D01*
X382141Y158101D01*
X382118Y158212D01*
X382102Y158324D01*
X382090Y158351D01*
X382085Y158380D01*
X382033Y158480D01*
X381986Y158584D01*
X381967Y158606D01*
X381954Y158632D01*
X381876Y158714D01*
X381803Y158801D01*
X381778Y158817D01*
X381758Y158838D01*
X381660Y158896D01*
X381566Y158958D01*
X381538Y158967D01*
X381513Y158982D01*
X381403Y159010D01*
X381295Y159044D01*
X381265Y159045D01*
X381237Y159052D01*
X381124Y159049D01*
X381011Y159051D01*
X380982Y159044D01*
X380953Y159043D01*
X380845Y159008D01*
X380736Y158980D01*
X380710Y158965D01*
X380682Y158956D01*
X380619Y158910D01*
X380491Y158834D01*
X380448Y158789D01*
X380409Y158761D01*
X379827Y158179D01*
X379792Y158132D01*
X379750Y158092D01*
X379707Y158019D01*
X379656Y157952D01*
X379635Y157897D01*
X379606Y157846D01*
X379585Y157765D01*
X379555Y157686D01*
X379550Y157628D01*
X379536Y157571D01*
X379538Y157487D01*
X379531Y157403D01*
X379543Y157345D01*
X379545Y157287D01*
X379571Y157207D01*
X379587Y157124D01*
X379614Y157072D01*
X379632Y157016D01*
X379672Y156960D01*
X379718Y156872D01*
X379787Y156799D01*
X379827Y156743D01*
X380357Y156213D01*
X381382Y153739D01*
X381382Y151061D01*
X380357Y148587D01*
X378463Y146693D01*
X375989Y145668D01*
X373311Y145668D01*
X370837Y146693D01*
X368943Y148587D01*
X367918Y151061D01*
X367918Y153739D01*
X368943Y156213D01*
X370288Y157558D01*
X370340Y157628D01*
X370400Y157692D01*
X370426Y157741D01*
X370459Y157785D01*
X370490Y157867D01*
X370530Y157945D01*
X370538Y157992D01*
X370560Y158051D01*
X370572Y158199D01*
X370585Y158276D01*
X370585Y160434D01*
X374407Y164255D01*
X374424Y164279D01*
X374447Y164298D01*
X374510Y164392D01*
X374578Y164482D01*
X374588Y164510D01*
X374604Y164534D01*
X374639Y164642D01*
X374679Y164748D01*
X374681Y164777D01*
X374690Y164805D01*
X374693Y164919D01*
X374702Y165031D01*
X374697Y165060D01*
X374697Y165089D01*
X374669Y165199D01*
X374647Y165310D01*
X374633Y165336D01*
X374626Y165364D01*
X374568Y165462D01*
X374516Y165562D01*
X374495Y165584D01*
X374480Y165609D01*
X374398Y165686D01*
X374320Y165768D01*
X374294Y165783D01*
X374273Y165803D01*
X374172Y165855D01*
X374074Y165912D01*
X374046Y165919D01*
X374020Y165933D01*
X373943Y165946D01*
X373799Y165982D01*
X373736Y165980D01*
X373689Y165988D01*
X373311Y165988D01*
X370837Y167013D01*
X368943Y168907D01*
X367918Y171381D01*
X367918Y174059D01*
X368943Y176533D01*
X370288Y177878D01*
X370340Y177948D01*
X370400Y178012D01*
X370426Y178061D01*
X370459Y178105D01*
X370490Y178187D01*
X370530Y178265D01*
X370538Y178312D01*
X370560Y178371D01*
X370572Y178519D01*
X370585Y178596D01*
X370585Y187104D01*
X373339Y189857D01*
X373408Y189949D01*
X373482Y190037D01*
X373493Y190062D01*
X373510Y190084D01*
X373551Y190192D01*
X373597Y190297D01*
X373601Y190324D01*
X373611Y190350D01*
X373620Y190464D01*
X373636Y190578D01*
X373632Y190606D01*
X373635Y190633D01*
X373612Y190746D01*
X373596Y190860D01*
X373584Y190885D01*
X373579Y190912D01*
X373526Y191014D01*
X373478Y191119D01*
X373460Y191140D01*
X373448Y191164D01*
X373369Y191248D01*
X373294Y191335D01*
X373273Y191348D01*
X373252Y191371D01*
X373023Y191505D01*
X373010Y191513D01*
X370837Y192413D01*
X368943Y194307D01*
X367918Y196781D01*
X367918Y199459D01*
X368943Y201933D01*
X370288Y203278D01*
X370340Y203348D01*
X370400Y203412D01*
X370426Y203461D01*
X370459Y203505D01*
X370490Y203587D01*
X370530Y203665D01*
X370538Y203712D01*
X370560Y203771D01*
X370571Y203899D01*
X370571Y203901D01*
X370571Y203909D01*
X370572Y203919D01*
X370585Y203996D01*
X370585Y213774D01*
X376776Y219965D01*
X381127Y219965D01*
X381185Y219973D01*
X381243Y219971D01*
X381325Y219993D01*
X381409Y220005D01*
X381462Y220028D01*
X381518Y220043D01*
X381591Y220086D01*
X381668Y220121D01*
X381713Y220159D01*
X381763Y220188D01*
X381821Y220250D01*
X381885Y220304D01*
X381917Y220353D01*
X381957Y220396D01*
X381996Y220471D01*
X382043Y220541D01*
X382060Y220597D01*
X382087Y220649D01*
X382098Y220717D01*
X382128Y220812D01*
X382131Y220912D01*
X382142Y220980D01*
X382142Y223513D01*
X383718Y225088D01*
X383735Y225112D01*
X383758Y225131D01*
X383820Y225225D01*
X383888Y225315D01*
X383899Y225343D01*
X383915Y225367D01*
X383949Y225475D01*
X383990Y225581D01*
X383992Y225610D01*
X384001Y225638D01*
X384004Y225752D01*
X384013Y225864D01*
X384008Y225893D01*
X384008Y225922D01*
X383980Y226032D01*
X383957Y226143D01*
X383944Y226169D01*
X383936Y226197D01*
X383879Y226295D01*
X383826Y226395D01*
X383806Y226417D01*
X383791Y226442D01*
X383709Y226519D01*
X383631Y226601D01*
X383605Y226616D01*
X383584Y226636D01*
X383483Y226688D01*
X383385Y226745D01*
X383357Y226752D01*
X383331Y226766D01*
X383253Y226779D01*
X383110Y226815D01*
X383047Y226813D01*
X383000Y226821D01*
X324662Y226821D01*
X324575Y226809D01*
X324488Y226806D01*
X324435Y226789D01*
X324380Y226781D01*
X324301Y226746D01*
X324217Y226719D01*
X324178Y226691D01*
X324121Y226665D01*
X324008Y226569D01*
X323944Y226524D01*
X278775Y181355D01*
X249402Y181355D01*
X249344Y181347D01*
X249286Y181349D01*
X249204Y181327D01*
X249120Y181315D01*
X249067Y181292D01*
X249010Y181277D01*
X248938Y181234D01*
X248861Y181199D01*
X248816Y181161D01*
X248766Y181132D01*
X248708Y181070D01*
X248644Y181016D01*
X248612Y180967D01*
X248572Y180924D01*
X248533Y180849D01*
X248486Y180779D01*
X248469Y180723D01*
X248442Y180671D01*
X248431Y180603D01*
X248401Y180508D01*
X248398Y180408D01*
X248387Y180340D01*
X248387Y170188D01*
X248399Y170101D01*
X248402Y170014D01*
X248419Y169961D01*
X248426Y169906D01*
X248462Y169827D01*
X248489Y169743D01*
X248517Y169704D01*
X248543Y169647D01*
X248639Y169534D01*
X248684Y169470D01*
X250029Y168125D01*
X251054Y165651D01*
X251054Y162973D01*
X250029Y160499D01*
X248135Y158605D01*
X245661Y157580D01*
X242983Y157580D01*
X240509Y158605D01*
X238615Y160499D01*
X237590Y162973D01*
X237590Y163738D01*
X237574Y163852D01*
X237564Y163966D01*
X237554Y163992D01*
X237550Y164019D01*
X237503Y164124D01*
X237462Y164231D01*
X237445Y164253D01*
X237434Y164279D01*
X237360Y164366D01*
X237290Y164458D01*
X237268Y164475D01*
X237250Y164496D01*
X237155Y164559D01*
X237063Y164628D01*
X237037Y164638D01*
X237014Y164653D01*
X236904Y164688D01*
X236797Y164729D01*
X236769Y164731D01*
X236743Y164739D01*
X236628Y164742D01*
X236513Y164751D01*
X236489Y164746D01*
X236459Y164746D01*
X236351Y164718D01*
X233611Y164718D01*
X231137Y165743D01*
X229243Y167637D01*
X228218Y170111D01*
X228218Y170180D01*
X228210Y170238D01*
X228212Y170296D01*
X228190Y170378D01*
X228178Y170462D01*
X228155Y170515D01*
X228140Y170571D01*
X228097Y170644D01*
X228062Y170721D01*
X228024Y170766D01*
X227995Y170816D01*
X227933Y170874D01*
X227879Y170938D01*
X227830Y170970D01*
X227787Y171010D01*
X227712Y171049D01*
X227642Y171096D01*
X227586Y171113D01*
X227534Y171140D01*
X227466Y171151D01*
X227371Y171181D01*
X227271Y171184D01*
X227203Y171195D01*
X74456Y171195D01*
X74369Y171183D01*
X74282Y171180D01*
X74229Y171163D01*
X74174Y171155D01*
X74095Y171120D01*
X74011Y171093D01*
X73972Y171065D01*
X73915Y171039D01*
X73802Y170943D01*
X73738Y170898D01*
X72393Y169553D01*
X69919Y168528D01*
X67241Y168528D01*
X64767Y169553D01*
X62873Y171447D01*
X61848Y173921D01*
X61848Y175823D01*
X61836Y175909D01*
X61833Y175997D01*
X61816Y176049D01*
X61808Y176104D01*
X61773Y176184D01*
X61746Y176267D01*
X61718Y176307D01*
X61692Y176364D01*
X61596Y176477D01*
X61551Y176541D01*
X58165Y179926D01*
X58165Y190914D01*
X66614Y199362D01*
X68984Y199362D01*
X69098Y199378D01*
X69212Y199388D01*
X69238Y199398D01*
X69265Y199402D01*
X69370Y199449D01*
X69477Y199490D01*
X69500Y199507D01*
X69525Y199518D01*
X69612Y199592D01*
X69704Y199662D01*
X69721Y199684D01*
X69742Y199702D01*
X69805Y199797D01*
X69874Y199889D01*
X69884Y199915D01*
X69899Y199938D01*
X69934Y200048D01*
X69975Y200155D01*
X69977Y200183D01*
X69985Y200209D01*
X69988Y200324D01*
X69997Y200439D01*
X69992Y200463D01*
X69993Y200494D01*
X69925Y200751D01*
X69922Y200766D01*
X69468Y201861D01*
X69468Y204539D01*
X70493Y207013D01*
X71330Y207850D01*
X71382Y207920D01*
X71442Y207984D01*
X71468Y208033D01*
X71501Y208077D01*
X71532Y208159D01*
X71572Y208237D01*
X71580Y208284D01*
X71602Y208343D01*
X71614Y208491D01*
X71627Y208568D01*
X71627Y227555D01*
X71615Y227642D01*
X71612Y227729D01*
X71595Y227782D01*
X71587Y227837D01*
X71552Y227917D01*
X71525Y228000D01*
X71497Y228039D01*
X71471Y228096D01*
X71375Y228210D01*
X71330Y228273D01*
X32892Y266711D01*
X32892Y281686D01*
X32884Y281744D01*
X32886Y281802D01*
X32864Y281884D01*
X32852Y281968D01*
X32829Y282021D01*
X32814Y282077D01*
X32771Y282150D01*
X32736Y282227D01*
X32698Y282272D01*
X32669Y282322D01*
X32607Y282380D01*
X32553Y282444D01*
X32504Y282476D01*
X32461Y282516D01*
X32386Y282555D01*
X32316Y282602D01*
X32260Y282619D01*
X32208Y282646D01*
X32140Y282657D01*
X32045Y282687D01*
X31945Y282690D01*
X31877Y282701D01*
X23121Y282701D01*
X21335Y284487D01*
X21335Y286186D01*
X21331Y286215D01*
X21334Y286244D01*
X21311Y286355D01*
X21295Y286467D01*
X21283Y286494D01*
X21278Y286523D01*
X21226Y286623D01*
X21179Y286727D01*
X21160Y286749D01*
X21147Y286775D01*
X21069Y286857D01*
X20996Y286944D01*
X20971Y286960D01*
X20951Y286981D01*
X20853Y287039D01*
X20759Y287101D01*
X20731Y287110D01*
X20706Y287125D01*
X20596Y287153D01*
X20488Y287187D01*
X20458Y287188D01*
X20430Y287195D01*
X20317Y287192D01*
X20204Y287194D01*
X20175Y287187D01*
X20146Y287186D01*
X20038Y287151D01*
X19929Y287123D01*
X19903Y287108D01*
X19875Y287099D01*
X19812Y287053D01*
X19684Y286977D01*
X19641Y286932D01*
X19602Y286904D01*
X17877Y285179D01*
X17842Y285132D01*
X17800Y285092D01*
X17757Y285019D01*
X17706Y284952D01*
X17685Y284897D01*
X17656Y284846D01*
X17635Y284765D01*
X17605Y284686D01*
X17600Y284628D01*
X17586Y284571D01*
X17588Y284487D01*
X17581Y284403D01*
X17593Y284345D01*
X17595Y284287D01*
X17621Y284207D01*
X17637Y284124D01*
X17664Y284072D01*
X17682Y284016D01*
X17722Y283960D01*
X17768Y283872D01*
X17837Y283799D01*
X17877Y283743D01*
X18407Y283213D01*
X19432Y280739D01*
X19432Y278061D01*
X18407Y275587D01*
X16513Y273693D01*
X14039Y272668D01*
X11361Y272668D01*
X8887Y273693D01*
X6993Y275587D01*
X6018Y277941D01*
X5974Y278015D01*
X5939Y278093D01*
X5902Y278137D01*
X5873Y278186D01*
X5811Y278245D01*
X5755Y278310D01*
X5708Y278342D01*
X5667Y278381D01*
X5590Y278420D01*
X5519Y278468D01*
X5465Y278485D01*
X5414Y278511D01*
X5330Y278528D01*
X5248Y278554D01*
X5191Y278555D01*
X5135Y278566D01*
X5050Y278559D01*
X4964Y278561D01*
X4909Y278547D01*
X4852Y278542D01*
X4772Y278511D01*
X4689Y278489D01*
X4640Y278460D01*
X4587Y278440D01*
X4518Y278388D01*
X4444Y278344D01*
X4405Y278303D01*
X4360Y278268D01*
X4308Y278199D01*
X4250Y278137D01*
X4224Y278086D01*
X4190Y278041D01*
X4159Y277960D01*
X4120Y277884D01*
X4112Y277835D01*
X4089Y277775D01*
X4078Y277630D01*
X4065Y277553D01*
X4065Y37449D01*
X4067Y37429D01*
X4065Y37410D01*
X4087Y37289D01*
X4105Y37167D01*
X4113Y37149D01*
X4116Y37130D01*
X4171Y37020D01*
X4221Y36908D01*
X4233Y36893D01*
X4242Y36875D01*
X4325Y36784D01*
X4404Y36691D01*
X4421Y36680D01*
X4434Y36665D01*
X4539Y36601D01*
X4641Y36533D01*
X4660Y36527D01*
X4676Y36517D01*
X4795Y36484D01*
X4912Y36447D01*
X4932Y36447D01*
X4951Y36442D01*
X5073Y36443D01*
X5196Y36440D01*
X5215Y36445D01*
X5235Y36445D01*
X5353Y36481D01*
X5471Y36512D01*
X5488Y36522D01*
X5507Y36528D01*
X5610Y36594D01*
X5716Y36657D01*
X5729Y36671D01*
X5746Y36682D01*
X5792Y36739D01*
X5910Y36864D01*
X5934Y36910D01*
X5959Y36941D01*
X7815Y40156D01*
X13922Y45280D01*
X21414Y48007D01*
X29386Y48007D01*
X36878Y45280D01*
X42985Y40156D01*
X46971Y33251D01*
X48355Y25400D01*
X46971Y17549D01*
X42985Y10645D01*
X37280Y5858D01*
X37231Y5803D01*
X37175Y5755D01*
X37136Y5698D01*
X37090Y5646D01*
X37058Y5580D01*
X37017Y5519D01*
X36996Y5453D01*
X36966Y5390D01*
X36954Y5318D01*
X36932Y5248D01*
X36930Y5179D01*
X36918Y5110D01*
X36926Y5037D01*
X36924Y4964D01*
X36942Y4897D01*
X36949Y4828D01*
X36977Y4760D01*
X36996Y4689D01*
X37031Y4629D01*
X37058Y4565D01*
X37104Y4507D01*
X37141Y4444D01*
X37192Y4397D01*
X37235Y4343D01*
X37295Y4300D01*
X37349Y4250D01*
X37410Y4218D01*
X37467Y4178D01*
X37536Y4154D01*
X37602Y4120D01*
X37660Y4110D01*
X37735Y4084D01*
X37857Y4077D01*
X37933Y4065D01*
X379660Y4065D01*
X379718Y4073D01*
G37*
G36*
X110548Y209305D02*
X110548Y209305D01*
X110606Y209303D01*
X110688Y209325D01*
X110772Y209337D01*
X110825Y209360D01*
X110881Y209375D01*
X110954Y209418D01*
X111031Y209453D01*
X111076Y209491D01*
X111126Y209520D01*
X111184Y209582D01*
X111248Y209636D01*
X111280Y209685D01*
X111320Y209728D01*
X111359Y209803D01*
X111406Y209873D01*
X111423Y209929D01*
X111450Y209981D01*
X111461Y210049D01*
X111491Y210144D01*
X111494Y210244D01*
X111505Y210312D01*
X111505Y243586D01*
X111497Y243644D01*
X111499Y243702D01*
X111477Y243784D01*
X111465Y243868D01*
X111442Y243921D01*
X111427Y243977D01*
X111384Y244050D01*
X111349Y244127D01*
X111311Y244172D01*
X111282Y244222D01*
X111220Y244280D01*
X111166Y244344D01*
X111117Y244376D01*
X111074Y244416D01*
X110999Y244455D01*
X110929Y244502D01*
X110873Y244519D01*
X110821Y244546D01*
X110753Y244557D01*
X110658Y244587D01*
X110558Y244590D01*
X110490Y244601D01*
X102233Y244601D01*
X102231Y244603D01*
X102158Y244646D01*
X102091Y244696D01*
X102036Y244717D01*
X101986Y244747D01*
X101904Y244768D01*
X101825Y244798D01*
X101767Y244803D01*
X101710Y244817D01*
X101626Y244814D01*
X101542Y244821D01*
X101484Y244810D01*
X101426Y244808D01*
X101346Y244782D01*
X101263Y244765D01*
X101211Y244738D01*
X101155Y244720D01*
X101099Y244680D01*
X101011Y244634D01*
X100976Y244601D01*
X91440Y244601D01*
X91382Y244593D01*
X91324Y244595D01*
X91242Y244573D01*
X91158Y244561D01*
X91105Y244538D01*
X91049Y244523D01*
X90976Y244480D01*
X90899Y244445D01*
X90854Y244407D01*
X90804Y244378D01*
X90746Y244316D01*
X90682Y244262D01*
X90650Y244213D01*
X90610Y244170D01*
X90571Y244095D01*
X90524Y244025D01*
X90507Y243969D01*
X90480Y243917D01*
X90469Y243849D01*
X90439Y243754D01*
X90436Y243654D01*
X90425Y243586D01*
X90425Y243148D01*
X90429Y243117D01*
X90427Y243086D01*
X90444Y243010D01*
X90465Y242866D01*
X90491Y242807D01*
X90502Y242759D01*
X90552Y242639D01*
X90552Y239961D01*
X89527Y237487D01*
X87633Y235593D01*
X85159Y234568D01*
X82481Y234568D01*
X80007Y235593D01*
X78113Y237487D01*
X77088Y239961D01*
X77088Y242639D01*
X78113Y245113D01*
X80007Y247007D01*
X81669Y247695D01*
X81670Y247696D01*
X81671Y247696D01*
X81792Y247768D01*
X81913Y247840D01*
X81914Y247841D01*
X81916Y247842D01*
X82013Y247946D01*
X82109Y248046D01*
X82109Y248048D01*
X82110Y248049D01*
X82175Y248175D01*
X82239Y248299D01*
X82239Y248301D01*
X82240Y248302D01*
X82242Y248317D01*
X82294Y248578D01*
X82291Y248609D01*
X82295Y248633D01*
X82295Y251874D01*
X88486Y258065D01*
X89027Y258065D01*
X89085Y258073D01*
X89143Y258071D01*
X89225Y258093D01*
X89309Y258105D01*
X89362Y258128D01*
X89418Y258143D01*
X89491Y258186D01*
X89568Y258221D01*
X89613Y258259D01*
X89663Y258288D01*
X89721Y258350D01*
X89785Y258404D01*
X89817Y258453D01*
X89857Y258496D01*
X89896Y258571D01*
X89943Y258641D01*
X89960Y258697D01*
X89987Y258749D01*
X89998Y258817D01*
X90028Y258912D01*
X90031Y259012D01*
X90042Y259080D01*
X90042Y261613D01*
X91828Y263399D01*
X100967Y263399D01*
X100969Y263397D01*
X101042Y263354D01*
X101109Y263304D01*
X101164Y263283D01*
X101214Y263253D01*
X101296Y263232D01*
X101375Y263202D01*
X101433Y263197D01*
X101490Y263183D01*
X101574Y263186D01*
X101658Y263179D01*
X101716Y263190D01*
X101774Y263192D01*
X101854Y263218D01*
X101937Y263235D01*
X101989Y263262D01*
X102045Y263280D01*
X102101Y263320D01*
X102189Y263366D01*
X102224Y263399D01*
X110490Y263399D01*
X110548Y263407D01*
X110606Y263405D01*
X110688Y263427D01*
X110772Y263439D01*
X110825Y263462D01*
X110881Y263477D01*
X110954Y263520D01*
X111031Y263555D01*
X111076Y263593D01*
X111126Y263622D01*
X111184Y263684D01*
X111248Y263738D01*
X111280Y263787D01*
X111320Y263830D01*
X111359Y263905D01*
X111406Y263975D01*
X111423Y264031D01*
X111450Y264083D01*
X111461Y264151D01*
X111491Y264246D01*
X111494Y264346D01*
X111505Y264414D01*
X111505Y302999D01*
X111505Y303001D01*
X111505Y303003D01*
X111485Y303141D01*
X111465Y303281D01*
X111465Y303282D01*
X111465Y303284D01*
X111409Y303407D01*
X111349Y303540D01*
X111348Y303542D01*
X111347Y303543D01*
X111256Y303650D01*
X111166Y303757D01*
X111164Y303758D01*
X111163Y303759D01*
X111150Y303768D01*
X110929Y303915D01*
X110900Y303924D01*
X110879Y303937D01*
X107400Y305378D01*
X103378Y309400D01*
X101201Y314656D01*
X101201Y320344D01*
X103378Y325600D01*
X107400Y329622D01*
X112656Y331799D01*
X118344Y331799D01*
X123600Y329622D01*
X127622Y325600D01*
X129799Y320344D01*
X129799Y314656D01*
X127622Y309400D01*
X123600Y305378D01*
X120261Y303995D01*
X120260Y303995D01*
X120259Y303994D01*
X120140Y303924D01*
X120017Y303851D01*
X120016Y303850D01*
X120014Y303849D01*
X119917Y303745D01*
X119821Y303644D01*
X119821Y303643D01*
X119820Y303642D01*
X119754Y303514D01*
X119691Y303391D01*
X119691Y303390D01*
X119690Y303389D01*
X119688Y303374D01*
X119636Y303113D01*
X119639Y303082D01*
X119635Y303057D01*
X119635Y210312D01*
X119643Y210254D01*
X119641Y210196D01*
X119663Y210114D01*
X119675Y210030D01*
X119698Y209977D01*
X119713Y209921D01*
X119756Y209848D01*
X119791Y209771D01*
X119829Y209726D01*
X119858Y209676D01*
X119920Y209618D01*
X119974Y209554D01*
X120023Y209522D01*
X120066Y209482D01*
X120141Y209443D01*
X120211Y209396D01*
X120267Y209379D01*
X120319Y209352D01*
X120387Y209341D01*
X120482Y209311D01*
X120582Y209308D01*
X120650Y209297D01*
X276454Y209297D01*
X276541Y209309D01*
X276628Y209312D01*
X276681Y209329D01*
X276736Y209337D01*
X276815Y209372D01*
X276899Y209399D01*
X276938Y209427D01*
X276995Y209453D01*
X277108Y209549D01*
X277172Y209594D01*
X315316Y247739D01*
X317557Y248667D01*
X486988Y248667D01*
X487046Y248675D01*
X487104Y248673D01*
X487186Y248695D01*
X487270Y248707D01*
X487323Y248730D01*
X487379Y248745D01*
X487452Y248788D01*
X487529Y248823D01*
X487574Y248861D01*
X487624Y248890D01*
X487682Y248952D01*
X487746Y249006D01*
X487778Y249055D01*
X487818Y249098D01*
X487857Y249173D01*
X487904Y249243D01*
X487921Y249299D01*
X487948Y249351D01*
X487959Y249419D01*
X487989Y249514D01*
X487992Y249614D01*
X488003Y249682D01*
X488003Y303870D01*
X488003Y303872D01*
X488003Y303873D01*
X487984Y304007D01*
X487963Y304152D01*
X487963Y304153D01*
X487963Y304155D01*
X487906Y304281D01*
X487847Y304411D01*
X487846Y304412D01*
X487845Y304414D01*
X487755Y304520D01*
X487664Y304628D01*
X487662Y304629D01*
X487661Y304630D01*
X487648Y304638D01*
X487427Y304786D01*
X487398Y304795D01*
X487377Y304808D01*
X486000Y305378D01*
X481978Y309400D01*
X479801Y314656D01*
X479801Y320344D01*
X481978Y325600D01*
X486000Y329622D01*
X491256Y331799D01*
X496944Y331799D01*
X502200Y329622D01*
X506222Y325600D01*
X508399Y320344D01*
X508399Y314656D01*
X506222Y309400D01*
X502200Y305378D01*
X500823Y304808D01*
X500822Y304807D01*
X500821Y304807D01*
X500702Y304737D01*
X500579Y304664D01*
X500578Y304662D01*
X500576Y304662D01*
X500479Y304558D01*
X500383Y304457D01*
X500383Y304456D01*
X500382Y304454D01*
X500317Y304329D01*
X500253Y304204D01*
X500253Y304203D01*
X500252Y304201D01*
X500250Y304186D01*
X500198Y303925D01*
X500201Y303895D01*
X500197Y303870D01*
X500197Y273812D01*
X500205Y273754D01*
X500203Y273696D01*
X500225Y273614D01*
X500237Y273530D01*
X500260Y273477D01*
X500275Y273421D01*
X500318Y273348D01*
X500353Y273271D01*
X500391Y273226D01*
X500420Y273176D01*
X500482Y273118D01*
X500536Y273054D01*
X500585Y273022D01*
X500628Y272982D01*
X500703Y272943D01*
X500773Y272896D01*
X500829Y272879D01*
X500881Y272852D01*
X500949Y272841D01*
X501044Y272811D01*
X501144Y272808D01*
X501212Y272797D01*
X585275Y272797D01*
X585276Y272797D01*
X585278Y272797D01*
X585418Y272817D01*
X585556Y272837D01*
X585558Y272837D01*
X585559Y272837D01*
X585685Y272894D01*
X585816Y272953D01*
X585817Y272954D01*
X585818Y272955D01*
X585925Y273046D01*
X586033Y273136D01*
X586034Y273138D01*
X586035Y273139D01*
X586043Y273152D01*
X586190Y273373D01*
X586199Y273402D01*
X586213Y273423D01*
X586348Y273751D01*
X589849Y277252D01*
X592771Y278462D01*
X592796Y278477D01*
X592824Y278486D01*
X592919Y278549D01*
X593016Y278607D01*
X593036Y278628D01*
X593061Y278644D01*
X593133Y278731D01*
X593211Y278813D01*
X593225Y278839D01*
X593243Y278862D01*
X593289Y278965D01*
X593341Y279066D01*
X593347Y279095D01*
X593359Y279122D01*
X593375Y279234D01*
X593396Y279345D01*
X593394Y279374D01*
X593398Y279403D01*
X593382Y279515D01*
X593372Y279628D01*
X593361Y279655D01*
X593357Y279684D01*
X593311Y279788D01*
X593270Y279893D01*
X593252Y279917D01*
X593240Y279944D01*
X593167Y280030D01*
X593098Y280120D01*
X593075Y280138D01*
X593056Y280160D01*
X592989Y280202D01*
X592871Y280290D01*
X592812Y280312D01*
X592771Y280338D01*
X589849Y281548D01*
X586348Y285049D01*
X584453Y289624D01*
X584453Y294576D01*
X586348Y299151D01*
X589849Y302652D01*
X592771Y303862D01*
X592796Y303877D01*
X592824Y303886D01*
X592919Y303949D01*
X593016Y304007D01*
X593036Y304028D01*
X593061Y304044D01*
X593133Y304131D01*
X593211Y304213D01*
X593225Y304239D01*
X593243Y304262D01*
X593289Y304365D01*
X593341Y304466D01*
X593347Y304495D01*
X593359Y304522D01*
X593375Y304634D01*
X593396Y304745D01*
X593394Y304774D01*
X593398Y304803D01*
X593382Y304915D01*
X593372Y305028D01*
X593361Y305055D01*
X593357Y305084D01*
X593311Y305188D01*
X593270Y305293D01*
X593252Y305317D01*
X593240Y305344D01*
X593167Y305430D01*
X593098Y305520D01*
X593075Y305538D01*
X593056Y305560D01*
X592989Y305602D01*
X592871Y305690D01*
X592812Y305712D01*
X592771Y305738D01*
X589849Y306948D01*
X586348Y310449D01*
X584453Y315024D01*
X584453Y319976D01*
X586348Y324551D01*
X589849Y328052D01*
X594424Y329947D01*
X599376Y329947D01*
X604131Y327977D01*
X604243Y327948D01*
X604352Y327914D01*
X604380Y327913D01*
X604407Y327906D01*
X604521Y327909D01*
X604636Y327906D01*
X604663Y327913D01*
X604691Y327914D01*
X604800Y327949D01*
X604911Y327978D01*
X604935Y327992D01*
X604962Y328001D01*
X605057Y328065D01*
X605156Y328123D01*
X605175Y328144D01*
X605198Y328159D01*
X605272Y328247D01*
X605350Y328331D01*
X605363Y328355D01*
X605381Y328377D01*
X605427Y328481D01*
X605480Y328584D01*
X605484Y328608D01*
X605496Y328636D01*
X605511Y328746D01*
X605521Y328777D01*
X605523Y328826D01*
X605533Y328900D01*
X605535Y328915D01*
X605535Y343551D01*
X605533Y343571D01*
X605535Y343590D01*
X605513Y343711D01*
X605495Y343833D01*
X605487Y343851D01*
X605484Y343870D01*
X605429Y343980D01*
X605379Y344092D01*
X605367Y344107D01*
X605358Y344125D01*
X605275Y344216D01*
X605196Y344309D01*
X605179Y344320D01*
X605166Y344335D01*
X605061Y344399D01*
X604959Y344467D01*
X604940Y344473D01*
X604924Y344483D01*
X604805Y344516D01*
X604688Y344553D01*
X604668Y344553D01*
X604649Y344558D01*
X604527Y344557D01*
X604404Y344560D01*
X604385Y344555D01*
X604365Y344555D01*
X604247Y344519D01*
X604129Y344488D01*
X604112Y344478D01*
X604093Y344472D01*
X603990Y344406D01*
X603884Y344343D01*
X603871Y344329D01*
X603854Y344318D01*
X603808Y344261D01*
X603690Y344136D01*
X603666Y344090D01*
X603641Y344059D01*
X601785Y340844D01*
X595678Y335720D01*
X588186Y332993D01*
X580214Y332993D01*
X572722Y335720D01*
X566615Y340844D01*
X562629Y347749D01*
X561245Y355600D01*
X562629Y363451D01*
X566615Y370355D01*
X572320Y375142D01*
X572369Y375197D01*
X572425Y375245D01*
X572464Y375302D01*
X572510Y375354D01*
X572542Y375420D01*
X572583Y375481D01*
X572604Y375547D01*
X572634Y375610D01*
X572646Y375682D01*
X572668Y375752D01*
X572670Y375821D01*
X572682Y375890D01*
X572674Y375963D01*
X572676Y376036D01*
X572658Y376103D01*
X572651Y376172D01*
X572623Y376240D01*
X572604Y376311D01*
X572569Y376371D01*
X572542Y376435D01*
X572496Y376493D01*
X572459Y376556D01*
X572408Y376603D01*
X572365Y376657D01*
X572305Y376700D01*
X572251Y376750D01*
X572190Y376782D01*
X572133Y376822D01*
X572064Y376846D01*
X571998Y376880D01*
X571940Y376890D01*
X571865Y376916D01*
X571743Y376923D01*
X571667Y376935D01*
X55998Y376935D01*
X55969Y376931D01*
X55940Y376934D01*
X55829Y376911D01*
X55717Y376895D01*
X55690Y376883D01*
X55661Y376878D01*
X55561Y376825D01*
X55457Y376779D01*
X55435Y376760D01*
X55409Y376747D01*
X55327Y376669D01*
X55240Y376596D01*
X55224Y376571D01*
X55203Y376551D01*
X55146Y376453D01*
X55083Y376359D01*
X55074Y376331D01*
X55059Y376306D01*
X55031Y376196D01*
X54997Y376088D01*
X54996Y376058D01*
X54989Y376030D01*
X54993Y375917D01*
X54990Y375804D01*
X54997Y375775D01*
X54998Y375746D01*
X55033Y375638D01*
X55062Y375529D01*
X55077Y375503D01*
X55086Y375475D01*
X55131Y375412D01*
X55207Y375284D01*
X55252Y375241D01*
X55280Y375202D01*
X57623Y372859D01*
X58849Y369901D01*
X58849Y366699D01*
X57623Y363741D01*
X55359Y361477D01*
X52401Y360251D01*
X49199Y360251D01*
X49114Y360286D01*
X49055Y360302D01*
X48999Y360326D01*
X48918Y360337D01*
X48839Y360357D01*
X48778Y360356D01*
X48717Y360364D01*
X48636Y360352D01*
X48555Y360349D01*
X48496Y360331D01*
X48436Y360322D01*
X48362Y360288D01*
X48284Y360263D01*
X48233Y360229D01*
X48177Y360203D01*
X48116Y360150D01*
X48048Y360104D01*
X48008Y360058D01*
X47962Y360018D01*
X47917Y359949D01*
X47865Y359887D01*
X47840Y359831D01*
X47806Y359780D01*
X47782Y359702D01*
X47749Y359627D01*
X47741Y359566D01*
X47723Y359508D01*
X47723Y359441D01*
X47710Y359345D01*
X47725Y359243D01*
X47726Y359172D01*
X48355Y355600D01*
X46971Y347749D01*
X42985Y340845D01*
X36878Y335720D01*
X29386Y332993D01*
X21414Y332993D01*
X13922Y335720D01*
X7815Y340844D01*
X5959Y344059D01*
X5947Y344074D01*
X5939Y344092D01*
X5860Y344186D01*
X5784Y344283D01*
X5768Y344294D01*
X5755Y344309D01*
X5653Y344378D01*
X5554Y344449D01*
X5535Y344456D01*
X5519Y344467D01*
X5401Y344504D01*
X5286Y344546D01*
X5266Y344547D01*
X5248Y344553D01*
X5125Y344556D01*
X5002Y344564D01*
X4983Y344559D01*
X4964Y344560D01*
X4845Y344529D01*
X4725Y344502D01*
X4707Y344493D01*
X4689Y344488D01*
X4583Y344426D01*
X4475Y344367D01*
X4461Y344353D01*
X4444Y344343D01*
X4360Y344253D01*
X4273Y344167D01*
X4263Y344150D01*
X4250Y344136D01*
X4194Y344026D01*
X4134Y343919D01*
X4129Y343900D01*
X4120Y343882D01*
X4108Y343810D01*
X4069Y343642D01*
X4071Y343591D01*
X4065Y343551D01*
X4065Y281247D01*
X4077Y281162D01*
X4079Y281076D01*
X4097Y281022D01*
X4105Y280966D01*
X4140Y280888D01*
X4166Y280806D01*
X4198Y280758D01*
X4221Y280707D01*
X4276Y280641D01*
X4324Y280570D01*
X4368Y280533D01*
X4404Y280490D01*
X4476Y280442D01*
X4542Y280387D01*
X4594Y280363D01*
X4641Y280332D01*
X4723Y280306D01*
X4802Y280271D01*
X4858Y280263D01*
X4912Y280246D01*
X4998Y280244D01*
X5083Y280232D01*
X5139Y280240D01*
X5196Y280239D01*
X5279Y280261D01*
X5364Y280273D01*
X5416Y280296D01*
X5471Y280311D01*
X5545Y280355D01*
X5624Y280390D01*
X5667Y280427D01*
X5716Y280456D01*
X5775Y280519D01*
X5840Y280574D01*
X5866Y280616D01*
X5910Y280663D01*
X5976Y280792D01*
X6018Y280859D01*
X6993Y283213D01*
X8338Y284558D01*
X8390Y284628D01*
X8450Y284692D01*
X8476Y284741D01*
X8509Y284785D01*
X8531Y284843D01*
X8536Y284850D01*
X8542Y284872D01*
X8580Y284945D01*
X8588Y284992D01*
X8610Y285051D01*
X8614Y285098D01*
X8621Y285121D01*
X8623Y285205D01*
X8635Y285276D01*
X8635Y287434D01*
X17366Y296165D01*
X20320Y296165D01*
X20378Y296173D01*
X20436Y296171D01*
X20518Y296193D01*
X20602Y296205D01*
X20655Y296228D01*
X20711Y296243D01*
X20784Y296286D01*
X20861Y296321D01*
X20906Y296359D01*
X20956Y296388D01*
X21014Y296450D01*
X21078Y296504D01*
X21110Y296553D01*
X21150Y296596D01*
X21189Y296671D01*
X21236Y296741D01*
X21253Y296797D01*
X21280Y296849D01*
X21291Y296917D01*
X21321Y297012D01*
X21324Y297112D01*
X21335Y297180D01*
X21335Y299713D01*
X23121Y301499D01*
X32260Y301499D01*
X32262Y301497D01*
X32335Y301454D01*
X32402Y301404D01*
X32457Y301383D01*
X32507Y301353D01*
X32589Y301332D01*
X32668Y301302D01*
X32726Y301297D01*
X32783Y301283D01*
X32867Y301286D01*
X32951Y301279D01*
X33009Y301290D01*
X33067Y301292D01*
X33147Y301318D01*
X33230Y301335D01*
X33282Y301362D01*
X33338Y301380D01*
X33394Y301420D01*
X33482Y301466D01*
X33517Y301499D01*
X42674Y301499D01*
X42676Y301497D01*
X42749Y301454D01*
X42816Y301404D01*
X42871Y301383D01*
X42921Y301353D01*
X43003Y301332D01*
X43082Y301302D01*
X43140Y301297D01*
X43197Y301283D01*
X43281Y301286D01*
X43365Y301279D01*
X43423Y301290D01*
X43481Y301292D01*
X43561Y301318D01*
X43644Y301335D01*
X43696Y301362D01*
X43752Y301380D01*
X43808Y301420D01*
X43896Y301466D01*
X43931Y301499D01*
X53079Y301499D01*
X54865Y299713D01*
X54865Y284487D01*
X52876Y282499D01*
X52824Y282429D01*
X52764Y282365D01*
X52738Y282315D01*
X52705Y282271D01*
X52674Y282190D01*
X52634Y282112D01*
X52626Y282064D01*
X52604Y282006D01*
X52592Y281858D01*
X52579Y281781D01*
X52579Y279942D01*
X52591Y279855D01*
X52594Y279768D01*
X52611Y279715D01*
X52619Y279660D01*
X52654Y279581D01*
X52681Y279497D01*
X52709Y279458D01*
X52735Y279401D01*
X52831Y279288D01*
X52876Y279224D01*
X53967Y278133D01*
X54992Y275659D01*
X54992Y272981D01*
X53967Y270507D01*
X52073Y268613D01*
X49599Y267588D01*
X47400Y267588D01*
X47370Y267584D01*
X47341Y267587D01*
X47230Y267564D01*
X47118Y267548D01*
X47091Y267536D01*
X47063Y267531D01*
X46962Y267479D01*
X46859Y267432D01*
X46836Y267413D01*
X46810Y267400D01*
X46728Y267322D01*
X46642Y267249D01*
X46625Y267224D01*
X46604Y267204D01*
X46547Y267106D01*
X46484Y267012D01*
X46475Y266984D01*
X46460Y266959D01*
X46433Y266849D01*
X46398Y266741D01*
X46398Y266711D01*
X46390Y266683D01*
X46394Y266570D01*
X46391Y266457D01*
X46398Y266428D01*
X46399Y266399D01*
X46434Y266291D01*
X46463Y266182D01*
X46478Y266156D01*
X46487Y266128D01*
X46532Y266065D01*
X46608Y265937D01*
X46654Y265894D01*
X46682Y265855D01*
X80773Y231764D01*
X80773Y210312D01*
X80781Y210254D01*
X80779Y210196D01*
X80801Y210114D01*
X80813Y210030D01*
X80836Y209977D01*
X80851Y209921D01*
X80894Y209848D01*
X80929Y209771D01*
X80967Y209726D01*
X80996Y209676D01*
X81058Y209618D01*
X81112Y209554D01*
X81161Y209522D01*
X81204Y209482D01*
X81279Y209443D01*
X81349Y209396D01*
X81405Y209379D01*
X81457Y209352D01*
X81525Y209341D01*
X81620Y209311D01*
X81720Y209308D01*
X81788Y209297D01*
X110490Y209297D01*
X110548Y209305D01*
G37*
%LPC*%
G36*
X491256Y49201D02*
X491256Y49201D01*
X486000Y51378D01*
X481978Y55400D01*
X479801Y60656D01*
X479801Y66344D01*
X481978Y71600D01*
X486000Y75622D01*
X490609Y77531D01*
X490610Y77531D01*
X490611Y77532D01*
X490729Y77602D01*
X490853Y77675D01*
X490854Y77676D01*
X490856Y77677D01*
X490953Y77781D01*
X491049Y77882D01*
X491049Y77883D01*
X491050Y77884D01*
X491115Y78010D01*
X491179Y78135D01*
X491179Y78136D01*
X491180Y78138D01*
X491182Y78152D01*
X491234Y78413D01*
X491231Y78444D01*
X491235Y78469D01*
X491235Y106045D01*
X491227Y106103D01*
X491229Y106161D01*
X491207Y106243D01*
X491195Y106327D01*
X491172Y106380D01*
X491157Y106436D01*
X491114Y106509D01*
X491079Y106586D01*
X491041Y106631D01*
X491012Y106681D01*
X490950Y106739D01*
X490896Y106803D01*
X490847Y106835D01*
X490804Y106875D01*
X490729Y106914D01*
X490659Y106961D01*
X490603Y106978D01*
X490551Y107005D01*
X490483Y107016D01*
X490388Y107046D01*
X490288Y107049D01*
X490220Y107060D01*
X340581Y107060D01*
X281951Y165691D01*
X281881Y165743D01*
X281817Y165803D01*
X281768Y165829D01*
X281723Y165862D01*
X281642Y165893D01*
X281564Y165933D01*
X281516Y165941D01*
X281458Y165963D01*
X281310Y165975D01*
X281233Y165988D01*
X279331Y165988D01*
X276857Y167013D01*
X274963Y168907D01*
X273938Y171381D01*
X273938Y174059D01*
X274963Y176533D01*
X276857Y178427D01*
X279211Y179402D01*
X279285Y179446D01*
X279305Y179455D01*
X279323Y179452D01*
X282009Y179452D01*
X284483Y178427D01*
X286377Y176533D01*
X287402Y174059D01*
X287402Y172157D01*
X287414Y172071D01*
X287417Y171983D01*
X287434Y171931D01*
X287442Y171876D01*
X287477Y171796D01*
X287504Y171713D01*
X287532Y171673D01*
X287558Y171616D01*
X287654Y171503D01*
X287699Y171439D01*
X343651Y115487D01*
X343721Y115435D01*
X343785Y115375D01*
X343834Y115349D01*
X343879Y115316D01*
X343960Y115285D01*
X344038Y115245D01*
X344086Y115237D01*
X344144Y115215D01*
X344292Y115203D01*
X344369Y115190D01*
X517961Y115190D01*
X518047Y115202D01*
X518135Y115205D01*
X518187Y115222D01*
X518242Y115230D01*
X518322Y115265D01*
X518405Y115292D01*
X518445Y115320D01*
X518502Y115346D01*
X518615Y115442D01*
X518679Y115487D01*
X518751Y115559D01*
X518803Y115629D01*
X518863Y115693D01*
X518889Y115742D01*
X518922Y115787D01*
X518953Y115868D01*
X518993Y115946D01*
X519001Y115994D01*
X519023Y116052D01*
X519035Y116200D01*
X519048Y116277D01*
X519048Y118179D01*
X520073Y120653D01*
X521967Y122547D01*
X524441Y123572D01*
X527119Y123572D01*
X529593Y122547D01*
X531487Y120653D01*
X532512Y118179D01*
X532512Y115501D01*
X531487Y113027D01*
X529593Y111133D01*
X527119Y110108D01*
X525217Y110108D01*
X525131Y110096D01*
X525043Y110093D01*
X524991Y110076D01*
X524936Y110068D01*
X524856Y110033D01*
X524773Y110006D01*
X524733Y109978D01*
X524676Y109952D01*
X524563Y109856D01*
X524499Y109811D01*
X521749Y107060D01*
X500380Y107060D01*
X500322Y107052D01*
X500264Y107054D01*
X500182Y107032D01*
X500098Y107020D01*
X500045Y106997D01*
X499989Y106982D01*
X499916Y106939D01*
X499839Y106904D01*
X499794Y106866D01*
X499744Y106837D01*
X499686Y106775D01*
X499622Y106721D01*
X499590Y106672D01*
X499550Y106629D01*
X499511Y106554D01*
X499464Y106484D01*
X499447Y106428D01*
X499420Y106376D01*
X499409Y106308D01*
X499379Y106213D01*
X499376Y106113D01*
X499365Y106045D01*
X499365Y77474D01*
X499365Y77473D01*
X499365Y77471D01*
X499385Y77331D01*
X499405Y77193D01*
X499405Y77192D01*
X499405Y77190D01*
X499462Y77064D01*
X499521Y76934D01*
X499522Y76932D01*
X499523Y76931D01*
X499614Y76823D01*
X499704Y76717D01*
X499706Y76716D01*
X499707Y76714D01*
X499720Y76706D01*
X499941Y76559D01*
X499970Y76550D01*
X499991Y76537D01*
X502200Y75622D01*
X506222Y71600D01*
X508399Y66344D01*
X508399Y60656D01*
X506222Y55400D01*
X502200Y51378D01*
X496944Y49201D01*
X491256Y49201D01*
G37*
%LPD*%
G36*
X513161Y212357D02*
X513161Y212357D01*
X513248Y212360D01*
X513301Y212377D01*
X513356Y212385D01*
X513435Y212420D01*
X513519Y212447D01*
X513558Y212475D01*
X513615Y212501D01*
X513728Y212597D01*
X513792Y212642D01*
X515137Y213987D01*
X517611Y215012D01*
X520289Y215012D01*
X520417Y214959D01*
X520500Y214937D01*
X520580Y214907D01*
X520637Y214902D01*
X520692Y214888D01*
X520778Y214890D01*
X520864Y214883D01*
X520919Y214894D01*
X520976Y214896D01*
X521058Y214922D01*
X521142Y214939D01*
X521193Y214965D01*
X521247Y214983D01*
X521318Y215030D01*
X521395Y215070D01*
X521436Y215109D01*
X521483Y215141D01*
X521539Y215207D01*
X521601Y215266D01*
X521630Y215315D01*
X521666Y215358D01*
X521701Y215437D01*
X521745Y215511D01*
X521759Y215566D01*
X521782Y215618D01*
X521794Y215703D01*
X521815Y215787D01*
X521813Y215843D01*
X521821Y215900D01*
X521808Y215985D01*
X521806Y216071D01*
X521788Y216125D01*
X521780Y216181D01*
X521745Y216260D01*
X521718Y216341D01*
X521689Y216382D01*
X521663Y216440D01*
X521569Y216551D01*
X521523Y216615D01*
X501962Y236176D01*
X501892Y236228D01*
X501828Y236288D01*
X501779Y236314D01*
X501735Y236347D01*
X501653Y236378D01*
X501575Y236418D01*
X501528Y236426D01*
X501469Y236448D01*
X501321Y236460D01*
X501244Y236473D01*
X414346Y236473D01*
X414317Y236469D01*
X414288Y236472D01*
X414177Y236449D01*
X414065Y236433D01*
X414038Y236421D01*
X414009Y236416D01*
X413909Y236364D01*
X413805Y236317D01*
X413783Y236298D01*
X413757Y236285D01*
X413675Y236207D01*
X413588Y236134D01*
X413572Y236109D01*
X413551Y236089D01*
X413493Y235991D01*
X413431Y235897D01*
X413422Y235869D01*
X413407Y235844D01*
X413379Y235734D01*
X413345Y235626D01*
X413344Y235596D01*
X413337Y235568D01*
X413340Y235455D01*
X413338Y235342D01*
X413345Y235313D01*
X413346Y235284D01*
X413381Y235176D01*
X413409Y235067D01*
X413424Y235041D01*
X413433Y235013D01*
X413479Y234950D01*
X413555Y234822D01*
X413600Y234779D01*
X413628Y234740D01*
X435726Y212642D01*
X435796Y212590D01*
X435860Y212530D01*
X435909Y212504D01*
X435954Y212471D01*
X436035Y212440D01*
X436113Y212400D01*
X436161Y212392D01*
X436219Y212370D01*
X436367Y212358D01*
X436444Y212345D01*
X513074Y212345D01*
X513161Y212357D01*
G37*
%LPC*%
G36*
X544761Y51688D02*
X544761Y51688D01*
X542287Y52713D01*
X540393Y54607D01*
X539368Y57081D01*
X539368Y59759D01*
X540393Y62233D01*
X541230Y63070D01*
X541282Y63140D01*
X541342Y63204D01*
X541368Y63253D01*
X541401Y63297D01*
X541432Y63379D01*
X541472Y63457D01*
X541480Y63504D01*
X541502Y63563D01*
X541514Y63711D01*
X541527Y63788D01*
X541527Y76327D01*
X541519Y76385D01*
X541521Y76443D01*
X541499Y76525D01*
X541487Y76609D01*
X541464Y76662D01*
X541449Y76718D01*
X541406Y76791D01*
X541371Y76868D01*
X541333Y76913D01*
X541304Y76963D01*
X541242Y77021D01*
X541188Y77085D01*
X541139Y77117D01*
X541096Y77157D01*
X541021Y77196D01*
X540951Y77243D01*
X540895Y77260D01*
X540843Y77287D01*
X540775Y77298D01*
X540680Y77328D01*
X540580Y77331D01*
X540512Y77342D01*
X538487Y77342D01*
X536701Y79128D01*
X536701Y88267D01*
X536703Y88269D01*
X536746Y88342D01*
X536796Y88409D01*
X536817Y88464D01*
X536847Y88514D01*
X536868Y88596D01*
X536898Y88675D01*
X536903Y88733D01*
X536917Y88790D01*
X536914Y88874D01*
X536921Y88958D01*
X536910Y89016D01*
X536908Y89074D01*
X536882Y89154D01*
X536865Y89237D01*
X536838Y89289D01*
X536820Y89345D01*
X536780Y89401D01*
X536734Y89489D01*
X536701Y89524D01*
X536701Y98672D01*
X538487Y100458D01*
X540512Y100458D01*
X540570Y100466D01*
X540628Y100464D01*
X540710Y100486D01*
X540794Y100498D01*
X540847Y100521D01*
X540903Y100536D01*
X540976Y100579D01*
X541053Y100614D01*
X541098Y100652D01*
X541148Y100681D01*
X541206Y100743D01*
X541270Y100797D01*
X541302Y100846D01*
X541342Y100889D01*
X541381Y100964D01*
X541428Y101034D01*
X541445Y101090D01*
X541472Y101142D01*
X541483Y101210D01*
X541513Y101305D01*
X541516Y101405D01*
X541527Y101473D01*
X541527Y125442D01*
X541515Y125529D01*
X541512Y125616D01*
X541495Y125669D01*
X541487Y125724D01*
X541452Y125803D01*
X541425Y125887D01*
X541397Y125926D01*
X541371Y125983D01*
X541275Y126096D01*
X541230Y126160D01*
X540393Y126997D01*
X539368Y129471D01*
X539368Y132149D01*
X540393Y134623D01*
X542287Y136517D01*
X544761Y137542D01*
X547439Y137542D01*
X549913Y136517D01*
X551807Y134623D01*
X552832Y132149D01*
X552832Y129471D01*
X551807Y126997D01*
X550970Y126160D01*
X550918Y126090D01*
X550858Y126026D01*
X550832Y125977D01*
X550799Y125933D01*
X550768Y125851D01*
X550728Y125773D01*
X550720Y125726D01*
X550698Y125667D01*
X550686Y125519D01*
X550673Y125442D01*
X550673Y101473D01*
X550680Y101424D01*
X550679Y101412D01*
X550681Y101407D01*
X550679Y101357D01*
X550701Y101275D01*
X550713Y101191D01*
X550736Y101138D01*
X550751Y101082D01*
X550794Y101009D01*
X550829Y100932D01*
X550867Y100887D01*
X550896Y100837D01*
X550958Y100779D01*
X551012Y100715D01*
X551061Y100683D01*
X551104Y100643D01*
X551179Y100604D01*
X551249Y100557D01*
X551305Y100540D01*
X551357Y100513D01*
X551425Y100502D01*
X551520Y100472D01*
X551620Y100469D01*
X551688Y100458D01*
X553713Y100458D01*
X555499Y98672D01*
X555499Y89533D01*
X555497Y89531D01*
X555454Y89458D01*
X555404Y89391D01*
X555383Y89336D01*
X555353Y89286D01*
X555332Y89204D01*
X555302Y89125D01*
X555297Y89067D01*
X555283Y89010D01*
X555286Y88926D01*
X555279Y88842D01*
X555290Y88784D01*
X555292Y88726D01*
X555318Y88646D01*
X555335Y88563D01*
X555362Y88511D01*
X555380Y88455D01*
X555420Y88399D01*
X555466Y88311D01*
X555499Y88276D01*
X555499Y79128D01*
X553713Y77342D01*
X551688Y77342D01*
X551630Y77334D01*
X551572Y77336D01*
X551490Y77314D01*
X551406Y77302D01*
X551353Y77279D01*
X551297Y77264D01*
X551224Y77221D01*
X551147Y77186D01*
X551102Y77148D01*
X551052Y77119D01*
X550994Y77057D01*
X550930Y77003D01*
X550898Y76954D01*
X550858Y76911D01*
X550819Y76836D01*
X550772Y76766D01*
X550755Y76710D01*
X550728Y76658D01*
X550717Y76590D01*
X550687Y76495D01*
X550684Y76395D01*
X550673Y76327D01*
X550673Y63788D01*
X550685Y63701D01*
X550688Y63614D01*
X550705Y63561D01*
X550713Y63506D01*
X550748Y63427D01*
X550775Y63343D01*
X550803Y63304D01*
X550829Y63247D01*
X550925Y63134D01*
X550970Y63070D01*
X551807Y62233D01*
X552832Y59759D01*
X552832Y57081D01*
X551807Y54607D01*
X549913Y52713D01*
X547439Y51688D01*
X544761Y51688D01*
G37*
%LPD*%
%LPC*%
G36*
X391256Y303201D02*
X391256Y303201D01*
X386000Y305378D01*
X381978Y309400D01*
X379801Y314656D01*
X379801Y320344D01*
X381978Y325600D01*
X386000Y329622D01*
X391256Y331799D01*
X396944Y331799D01*
X402200Y329622D01*
X406222Y325600D01*
X408399Y320344D01*
X408399Y314656D01*
X406222Y309400D01*
X402200Y305378D01*
X396944Y303201D01*
X391256Y303201D01*
G37*
%LPD*%
%LPC*%
G36*
X441256Y303201D02*
X441256Y303201D01*
X436000Y305378D01*
X431978Y309400D01*
X429801Y314656D01*
X429801Y320344D01*
X431978Y325600D01*
X436000Y329622D01*
X441256Y331799D01*
X446944Y331799D01*
X452200Y329622D01*
X456222Y325600D01*
X458399Y320344D01*
X458399Y314656D01*
X456222Y309400D01*
X452200Y305378D01*
X446944Y303201D01*
X441256Y303201D01*
G37*
%LPD*%
%LPC*%
G36*
X162656Y303201D02*
X162656Y303201D01*
X157400Y305378D01*
X153378Y309400D01*
X151201Y314656D01*
X151201Y320344D01*
X153378Y325600D01*
X157400Y329622D01*
X162656Y331799D01*
X168344Y331799D01*
X173600Y329622D01*
X177622Y325600D01*
X179799Y320344D01*
X179799Y314656D01*
X177622Y309400D01*
X173600Y305378D01*
X168344Y303201D01*
X162656Y303201D01*
G37*
%LPD*%
%LPC*%
G36*
X212656Y303201D02*
X212656Y303201D01*
X207400Y305378D01*
X203378Y309400D01*
X201201Y314656D01*
X201201Y320344D01*
X203378Y325600D01*
X207400Y329622D01*
X212656Y331799D01*
X218344Y331799D01*
X223600Y329622D01*
X227622Y325600D01*
X229799Y320344D01*
X229799Y314656D01*
X227622Y309400D01*
X223600Y305378D01*
X218344Y303201D01*
X212656Y303201D01*
G37*
%LPD*%
%LPC*%
G36*
X112656Y49201D02*
X112656Y49201D01*
X107400Y51378D01*
X103378Y55400D01*
X101201Y60656D01*
X101201Y66344D01*
X103378Y71600D01*
X107400Y75622D01*
X112656Y77799D01*
X118344Y77799D01*
X123600Y75622D01*
X127622Y71600D01*
X129799Y66344D01*
X129799Y60656D01*
X127622Y55400D01*
X123600Y51378D01*
X118344Y49201D01*
X112656Y49201D01*
G37*
%LPD*%
%LPC*%
G36*
X162656Y49201D02*
X162656Y49201D01*
X157400Y51378D01*
X153378Y55400D01*
X151201Y60656D01*
X151201Y66344D01*
X153378Y71600D01*
X157400Y75622D01*
X162656Y77799D01*
X168344Y77799D01*
X173600Y75622D01*
X177622Y71600D01*
X179799Y66344D01*
X179799Y60656D01*
X177622Y55400D01*
X173600Y51378D01*
X168344Y49201D01*
X162656Y49201D01*
G37*
%LPD*%
%LPC*%
G36*
X212656Y49201D02*
X212656Y49201D01*
X207400Y51378D01*
X203378Y55400D01*
X201201Y60656D01*
X201201Y66344D01*
X203378Y71600D01*
X207400Y75622D01*
X212656Y77799D01*
X218344Y77799D01*
X223600Y75622D01*
X227622Y71600D01*
X229799Y66344D01*
X229799Y60656D01*
X227622Y55400D01*
X223600Y51378D01*
X218344Y49201D01*
X212656Y49201D01*
G37*
%LPD*%
%LPC*%
G36*
X391256Y49201D02*
X391256Y49201D01*
X386000Y51378D01*
X381978Y55400D01*
X379801Y60656D01*
X379801Y66344D01*
X381978Y71600D01*
X386000Y75622D01*
X391256Y77799D01*
X396944Y77799D01*
X402200Y75622D01*
X406222Y71600D01*
X408399Y66344D01*
X408399Y60656D01*
X406222Y55400D01*
X402200Y51378D01*
X396944Y49201D01*
X391256Y49201D01*
G37*
%LPD*%
%LPC*%
G36*
X441256Y49201D02*
X441256Y49201D01*
X436000Y51378D01*
X431978Y55400D01*
X429801Y60656D01*
X429801Y66344D01*
X431978Y71600D01*
X436000Y75622D01*
X441256Y77799D01*
X446944Y77799D01*
X452200Y75622D01*
X456222Y71600D01*
X458399Y66344D01*
X458399Y60656D01*
X456222Y55400D01*
X452200Y51378D01*
X446944Y49201D01*
X441256Y49201D01*
G37*
%LPD*%
%LPC*%
G36*
X346131Y319531D02*
X346131Y319531D01*
X346131Y331141D01*
X347329Y330951D01*
X349394Y330280D01*
X351328Y329295D01*
X353084Y328019D01*
X354619Y326484D01*
X355895Y324728D01*
X356880Y322794D01*
X357551Y320729D01*
X357741Y319531D01*
X346131Y319531D01*
G37*
%LPD*%
%LPC*%
G36*
X267531Y319531D02*
X267531Y319531D01*
X267531Y331141D01*
X268729Y330951D01*
X270794Y330280D01*
X272728Y329295D01*
X274484Y328019D01*
X276019Y326484D01*
X277295Y324728D01*
X278280Y322794D01*
X278951Y320729D01*
X279141Y319531D01*
X267531Y319531D01*
G37*
%LPD*%
%LPC*%
G36*
X267531Y65531D02*
X267531Y65531D01*
X267531Y77141D01*
X268729Y76951D01*
X270794Y76280D01*
X272728Y75295D01*
X274484Y74019D01*
X276019Y72484D01*
X277295Y70728D01*
X278280Y68794D01*
X278951Y66729D01*
X279141Y65531D01*
X267531Y65531D01*
G37*
%LPD*%
%LPC*%
G36*
X346131Y65531D02*
X346131Y65531D01*
X346131Y77141D01*
X347329Y76951D01*
X349394Y76280D01*
X351328Y75295D01*
X353084Y74019D01*
X354619Y72484D01*
X355895Y70728D01*
X356880Y68794D01*
X357551Y66729D01*
X357741Y65531D01*
X346131Y65531D01*
G37*
%LPD*%
%LPC*%
G36*
X346131Y315469D02*
X346131Y315469D01*
X357741Y315469D01*
X357551Y314271D01*
X356880Y312206D01*
X355895Y310272D01*
X354619Y308516D01*
X353084Y306981D01*
X351328Y305705D01*
X349394Y304720D01*
X347329Y304049D01*
X346131Y303859D01*
X346131Y315469D01*
G37*
%LPD*%
%LPC*%
G36*
X267531Y315469D02*
X267531Y315469D01*
X279141Y315469D01*
X278951Y314271D01*
X278280Y312206D01*
X277295Y310272D01*
X276019Y308516D01*
X274484Y306981D01*
X272728Y305705D01*
X270794Y304720D01*
X268729Y304049D01*
X267531Y303859D01*
X267531Y315469D01*
G37*
%LPD*%
%LPC*%
G36*
X346131Y61469D02*
X346131Y61469D01*
X357741Y61469D01*
X357551Y60271D01*
X356880Y58206D01*
X355895Y56272D01*
X354619Y54516D01*
X353084Y52981D01*
X351328Y51705D01*
X349394Y50720D01*
X347329Y50049D01*
X346131Y49859D01*
X346131Y61469D01*
G37*
%LPD*%
%LPC*%
G36*
X330459Y319531D02*
X330459Y319531D01*
X330649Y320729D01*
X331320Y322794D01*
X332305Y324728D01*
X333581Y326484D01*
X335116Y328019D01*
X336872Y329295D01*
X338806Y330280D01*
X340871Y330951D01*
X342069Y331141D01*
X342069Y319531D01*
X330459Y319531D01*
G37*
%LPD*%
%LPC*%
G36*
X251859Y319531D02*
X251859Y319531D01*
X252049Y320729D01*
X252720Y322794D01*
X253705Y324728D01*
X254981Y326484D01*
X256516Y328019D01*
X258272Y329295D01*
X260206Y330280D01*
X262271Y330951D01*
X263469Y331141D01*
X263469Y319531D01*
X251859Y319531D01*
G37*
%LPD*%
%LPC*%
G36*
X251859Y65531D02*
X251859Y65531D01*
X252049Y66729D01*
X252720Y68794D01*
X253705Y70728D01*
X254981Y72484D01*
X256516Y74019D01*
X258272Y75295D01*
X260206Y76280D01*
X262271Y76951D01*
X263469Y77141D01*
X263469Y65531D01*
X251859Y65531D01*
G37*
%LPD*%
%LPC*%
G36*
X330459Y65531D02*
X330459Y65531D01*
X330649Y66729D01*
X331320Y68794D01*
X332305Y70728D01*
X333581Y72484D01*
X335116Y74019D01*
X336872Y75295D01*
X338806Y76280D01*
X340871Y76951D01*
X342069Y77141D01*
X342069Y65531D01*
X330459Y65531D01*
G37*
%LPD*%
%LPC*%
G36*
X267531Y61469D02*
X267531Y61469D01*
X279141Y61469D01*
X278951Y60271D01*
X278280Y58206D01*
X277295Y56272D01*
X276019Y54516D01*
X274484Y52981D01*
X272728Y51705D01*
X270794Y50720D01*
X268729Y50049D01*
X267531Y49859D01*
X267531Y61469D01*
G37*
%LPD*%
%LPC*%
G36*
X262271Y304049D02*
X262271Y304049D01*
X260206Y304720D01*
X258272Y305705D01*
X256516Y306981D01*
X254981Y308516D01*
X253705Y310272D01*
X252720Y312206D01*
X252049Y314271D01*
X251859Y315469D01*
X263469Y315469D01*
X263469Y303859D01*
X262271Y304049D01*
G37*
%LPD*%
%LPC*%
G36*
X340871Y304049D02*
X340871Y304049D01*
X338806Y304720D01*
X336872Y305705D01*
X335116Y306981D01*
X333581Y308516D01*
X332305Y310272D01*
X331320Y312206D01*
X330649Y314271D01*
X330459Y315469D01*
X342069Y315469D01*
X342069Y303859D01*
X340871Y304049D01*
G37*
%LPD*%
%LPC*%
G36*
X340871Y50049D02*
X340871Y50049D01*
X338806Y50720D01*
X336872Y51705D01*
X335116Y52981D01*
X333581Y54516D01*
X332305Y56272D01*
X331320Y58206D01*
X330649Y60271D01*
X330459Y61469D01*
X342069Y61469D01*
X342069Y49859D01*
X340871Y50049D01*
G37*
%LPD*%
%LPC*%
G36*
X262271Y50049D02*
X262271Y50049D01*
X260206Y50720D01*
X258272Y51705D01*
X256516Y52981D01*
X254981Y54516D01*
X253705Y56272D01*
X252720Y58206D01*
X252049Y60271D01*
X251859Y61469D01*
X263469Y61469D01*
X263469Y49859D01*
X262271Y50049D01*
G37*
%LPD*%
%LPC*%
G36*
X594104Y229655D02*
X594104Y229655D01*
X592317Y230236D01*
X590643Y231089D01*
X589122Y232194D01*
X587794Y233522D01*
X586689Y235043D01*
X585836Y236717D01*
X585255Y238504D01*
X585134Y239269D01*
X594869Y239269D01*
X594869Y229534D01*
X594104Y229655D01*
G37*
%LPD*%
G36*
X45167Y290779D02*
X45167Y290779D01*
X45190Y290783D01*
X45197Y290798D01*
X45206Y290804D01*
X45204Y290814D01*
X45211Y290830D01*
X45211Y293370D01*
X45199Y293389D01*
X45196Y293411D01*
X45180Y293418D01*
X45174Y293427D01*
X45164Y293426D01*
X45149Y293433D01*
X31052Y293433D01*
X31033Y293421D01*
X31010Y293417D01*
X31003Y293402D01*
X30994Y293396D01*
X30996Y293386D01*
X30989Y293370D01*
X30989Y290830D01*
X31001Y290811D01*
X31004Y290789D01*
X31020Y290782D01*
X31026Y290773D01*
X31036Y290774D01*
X31052Y290767D01*
X45149Y290767D01*
X45167Y290779D01*
G37*
G36*
X395560Y189179D02*
X395560Y189179D01*
X395583Y189183D01*
X395590Y189198D01*
X395599Y189204D01*
X395597Y189214D01*
X395604Y189230D01*
X395604Y191770D01*
X395592Y191789D01*
X395589Y191811D01*
X395573Y191818D01*
X395567Y191827D01*
X395557Y191826D01*
X395542Y191833D01*
X386715Y191833D01*
X386696Y191821D01*
X386674Y191817D01*
X386667Y191802D01*
X386658Y191796D01*
X386659Y191786D01*
X386652Y191770D01*
X386652Y189230D01*
X386664Y189211D01*
X386668Y189189D01*
X386683Y189182D01*
X386689Y189173D01*
X386699Y189174D01*
X386715Y189167D01*
X395542Y189167D01*
X395560Y189179D01*
G37*
G36*
X395560Y163779D02*
X395560Y163779D01*
X395583Y163783D01*
X395590Y163798D01*
X395599Y163804D01*
X395597Y163814D01*
X395604Y163830D01*
X395604Y166370D01*
X395592Y166389D01*
X395589Y166411D01*
X395573Y166418D01*
X395567Y166427D01*
X395557Y166426D01*
X395542Y166433D01*
X386715Y166433D01*
X386696Y166421D01*
X386674Y166417D01*
X386667Y166402D01*
X386658Y166396D01*
X386659Y166386D01*
X386652Y166370D01*
X386652Y163830D01*
X386664Y163811D01*
X386668Y163789D01*
X386683Y163782D01*
X386689Y163773D01*
X386699Y163774D01*
X386715Y163767D01*
X395542Y163767D01*
X395560Y163779D01*
G37*
G36*
X103460Y252679D02*
X103460Y252679D01*
X103483Y252683D01*
X103490Y252698D01*
X103499Y252704D01*
X103497Y252714D01*
X103504Y252730D01*
X103504Y255270D01*
X103492Y255289D01*
X103489Y255311D01*
X103473Y255318D01*
X103467Y255327D01*
X103457Y255326D01*
X103442Y255333D01*
X94615Y255333D01*
X94596Y255321D01*
X94574Y255317D01*
X94567Y255302D01*
X94558Y255296D01*
X94559Y255286D01*
X94552Y255270D01*
X94552Y252730D01*
X94564Y252711D01*
X94568Y252689D01*
X94583Y252682D01*
X94589Y252673D01*
X94599Y252674D01*
X94615Y252667D01*
X103442Y252667D01*
X103460Y252679D01*
G37*
G36*
X547389Y81864D02*
X547389Y81864D01*
X547411Y81868D01*
X547418Y81883D01*
X547427Y81889D01*
X547426Y81899D01*
X547433Y81915D01*
X547433Y90742D01*
X547421Y90760D01*
X547417Y90783D01*
X547402Y90790D01*
X547396Y90799D01*
X547386Y90797D01*
X547370Y90804D01*
X544830Y90804D01*
X544811Y90792D01*
X544789Y90789D01*
X544782Y90773D01*
X544773Y90767D01*
X544774Y90757D01*
X544767Y90742D01*
X544767Y81915D01*
X544779Y81896D01*
X544783Y81874D01*
X544798Y81867D01*
X544804Y81858D01*
X544814Y81859D01*
X544830Y81852D01*
X547370Y81852D01*
X547389Y81864D01*
G37*
G36*
X395560Y214579D02*
X395560Y214579D01*
X395583Y214583D01*
X395590Y214598D01*
X395599Y214604D01*
X395597Y214614D01*
X395604Y214630D01*
X395604Y217170D01*
X395592Y217189D01*
X395589Y217211D01*
X395573Y217218D01*
X395567Y217227D01*
X395557Y217226D01*
X395542Y217233D01*
X386715Y217233D01*
X386696Y217221D01*
X386674Y217217D01*
X386667Y217202D01*
X386658Y217196D01*
X386659Y217186D01*
X386652Y217170D01*
X386652Y214630D01*
X386664Y214611D01*
X386668Y214589D01*
X386683Y214582D01*
X386689Y214573D01*
X386699Y214574D01*
X386715Y214567D01*
X395542Y214567D01*
X395560Y214579D01*
G37*
%LPC*%
G36*
X265499Y317499D02*
X265499Y317499D01*
X265499Y317501D01*
X265501Y317501D01*
X265501Y317499D01*
X265499Y317499D01*
G37*
%LPD*%
%LPC*%
G36*
X344099Y317499D02*
X344099Y317499D01*
X344099Y317501D01*
X344101Y317501D01*
X344101Y317499D01*
X344099Y317499D01*
G37*
%LPD*%
%LPC*%
G36*
X344099Y63499D02*
X344099Y63499D01*
X344099Y63501D01*
X344101Y63501D01*
X344101Y63499D01*
X344099Y63499D01*
G37*
%LPD*%
%LPC*%
G36*
X265499Y63499D02*
X265499Y63499D01*
X265499Y63501D01*
X265501Y63501D01*
X265501Y63499D01*
X265499Y63499D01*
G37*
%LPD*%
D10*
X427863Y13936D02*
X422863Y3937D01*
X417864Y13936D01*
X411491Y13936D02*
X406492Y18936D01*
X406492Y3937D01*
X411491Y3937D02*
X401492Y3937D01*
X395120Y6437D02*
X395120Y16436D01*
X392620Y18936D01*
X387620Y18936D01*
X385121Y16436D01*
X385121Y6437D01*
X387620Y3937D01*
X392620Y3937D01*
X395120Y6437D01*
X385121Y16436D01*
D11*
X48514Y292100D03*
X38100Y292100D03*
X27686Y292100D03*
D12*
X50800Y368300D03*
X558800Y12700D03*
D13*
X494100Y63500D03*
X444100Y63500D03*
X394100Y63500D03*
X344100Y63500D03*
X344100Y317500D03*
X394100Y317500D03*
X444100Y317500D03*
X494100Y317500D03*
D14*
X546100Y83693D03*
X546100Y94107D03*
D11*
X388493Y165100D03*
X398907Y165100D03*
X388493Y190500D03*
X398907Y190500D03*
X388493Y215900D03*
X398907Y215900D03*
X96393Y254000D03*
X106807Y254000D03*
D13*
X115500Y317500D03*
X165500Y317500D03*
X215500Y317500D03*
X265500Y317500D03*
X265500Y63500D03*
X215500Y63500D03*
X165500Y63500D03*
X115500Y63500D03*
D15*
X596900Y139700D03*
X596900Y241300D03*
X596900Y266700D03*
X596900Y292100D03*
X596900Y317500D03*
D16*
X76200Y203200D03*
D17*
X76200Y228600D01*
D18*
X76200Y229870D01*
D17*
X37465Y268605D01*
D16*
X539750Y177800D03*
D18*
X38100Y292100D02*
X37465Y291465D01*
D17*
X37465Y268605D01*
X398780Y177800D02*
X539750Y177800D01*
D18*
X398907Y190500D02*
X398907Y215900D01*
D19*
X115570Y203200D02*
X76200Y203200D01*
X115570Y203200D02*
X279400Y203200D01*
X318770Y242570D02*
X494030Y242570D01*
X504190Y242570D01*
X318770Y242570D02*
X279400Y203200D01*
X539750Y207010D02*
X539750Y177800D01*
X539750Y207010D02*
X504190Y242570D01*
D16*
X546100Y130810D03*
D17*
X546100Y94107D01*
D18*
X115570Y254000D02*
X106807Y254000D01*
X398780Y190373D02*
X398780Y177800D01*
D17*
X398780Y165227D02*
X398907Y165100D01*
D18*
X398780Y165227D02*
X398780Y177800D01*
X115570Y317430D02*
X115500Y317500D01*
X115570Y317430D02*
X115570Y254000D01*
D19*
X494100Y266700D02*
X494100Y317500D01*
X494100Y266700D02*
X494100Y242640D01*
D18*
X494030Y242570D01*
X115570Y254000D02*
X115570Y203200D01*
X398780Y190373D02*
X398907Y190500D01*
D19*
X494100Y266700D02*
X596900Y266700D01*
D16*
X524510Y149860D03*
X69850Y128270D03*
X370840Y259080D03*
X204470Y165100D03*
X189230Y218440D03*
X365760Y222250D03*
X279400Y152400D03*
X304800Y177800D03*
X469900Y165100D03*
X558800Y228600D03*
X457200Y215900D03*
X63500Y215900D03*
X76200Y279400D03*
X584200Y177800D03*
X48260Y274320D03*
D18*
X48514Y274574D02*
X48514Y292100D01*
X48514Y274574D02*
X48260Y274320D01*
D16*
X12700Y279400D03*
D18*
X12700Y285750D01*
X19050Y292100D01*
X27686Y292100D01*
D16*
X280670Y172720D03*
D18*
X342265Y111125D01*
D16*
X525780Y116840D03*
D18*
X520065Y111125D01*
X495300Y111125D02*
X342265Y111125D01*
X495300Y111125D02*
X520065Y111125D01*
X495300Y64700D02*
X494100Y63500D01*
X495300Y64700D02*
X495300Y111125D01*
D16*
X374650Y152400D03*
D18*
X374650Y158750D01*
X381000Y165100D02*
X388493Y165100D01*
X381000Y165100D02*
X374650Y158750D01*
D16*
X374650Y172720D03*
D18*
X374650Y185420D02*
X379730Y190500D01*
X374650Y185420D02*
X374650Y172720D01*
X379730Y190500D02*
X388493Y190500D01*
D16*
X374650Y198120D03*
D18*
X374650Y212090D02*
X378460Y215900D01*
X374650Y212090D02*
X374650Y198120D01*
X378460Y215900D02*
X388493Y215900D01*
D16*
X244322Y164312D03*
D18*
X244322Y184632D01*
X243534Y185420D01*
D16*
X69850Y185420D03*
D18*
X243534Y185420D01*
X277092Y185420D01*
X410210Y200660D02*
X410210Y222250D01*
X410210Y200660D02*
X415290Y195580D01*
X530860Y195580D01*
D16*
X530860Y195580D03*
D18*
X322558Y230886D02*
X277092Y185420D01*
X322558Y230886D02*
X401574Y230886D01*
X410210Y222250D01*
D16*
X68580Y175260D03*
D18*
X231140Y175260D01*
X234950Y171450D01*
D16*
X234950Y171450D03*
X518950Y208280D03*
D18*
X434340Y208280D01*
X406908Y235712D01*
X321085Y235712D01*
X280670Y195297D01*
X68297Y195297D02*
X62230Y189230D01*
X68297Y195297D02*
X280670Y195297D01*
X62230Y189230D02*
X62230Y181610D01*
X68580Y175260D01*
D16*
X546100Y58420D03*
D17*
X546100Y83693D01*
D16*
X83820Y241300D03*
D18*
X86360Y243840D01*
X86360Y250190D01*
X90170Y254000D01*
X96393Y254000D01*
M02*
