G04 EAGLE Gerber RS-274X export*
G75*
%MOMM*%
%FSLAX34Y34*%
%LPD*%
%INSilkscreen Bottom*%
%IPPOS*%
%AMOC8*
5,1,8,0,0,1.08239X$1,22.5*%
G01*
%ADD10C,0.203200*%
%ADD11R,0.280000X0.070000*%
%ADD12R,0.420000X0.070000*%
%ADD13R,0.490000X0.070000*%
%ADD14R,0.630000X0.070000*%
%ADD15R,0.070000X0.070000*%
%ADD16R,0.770000X0.080000*%
%ADD17R,0.420000X0.080000*%
%ADD18R,0.910000X0.080000*%
%ADD19R,0.980000X0.080000*%
%ADD20R,0.350000X0.080000*%
%ADD21R,0.840000X0.080000*%
%ADD22R,1.050000X0.070000*%
%ADD23R,1.190000X0.070000*%
%ADD24R,0.980000X0.070000*%
%ADD25R,1.190000X0.060000*%
%ADD26R,0.420000X0.060000*%
%ADD27R,1.260000X0.060000*%
%ADD28R,0.490000X0.060000*%
%ADD29R,1.330000X0.080000*%
%ADD30R,0.490000X0.080000*%
%ADD31R,1.400000X0.080000*%
%ADD32R,1.470000X0.070000*%
%ADD33R,0.140000X0.070000*%
%ADD34R,1.400000X0.070000*%
%ADD35R,1.540000X0.070000*%
%ADD36R,1.610000X0.070000*%
%ADD37R,0.560000X0.060000*%
%ADD38R,0.630000X0.060000*%
%ADD39R,0.280000X0.060000*%
%ADD40R,0.560000X0.080000*%
%ADD41R,0.280000X0.080000*%
%ADD42R,0.070000X0.080000*%
%ADD43R,0.560000X0.070000*%
%ADD44R,0.840000X0.070000*%
%ADD45R,0.700000X0.070000*%
%ADD46R,1.120000X0.070000*%
%ADD47R,0.350000X0.070000*%
%ADD48R,1.680000X0.080000*%
%ADD49R,0.140000X0.080000*%
%ADD50R,1.330000X0.070000*%
%ADD51R,1.260000X0.070000*%
%ADD52R,0.770000X0.070000*%
%ADD53R,1.820000X0.070000*%
%ADD54R,1.750000X0.060000*%
%ADD55R,1.050000X0.060000*%
%ADD56R,1.330000X0.060000*%
%ADD57R,1.680000X0.070000*%
%ADD58R,0.700000X0.060000*%
%ADD59R,0.350000X0.060000*%
%ADD60R,0.210000X0.070000*%
%ADD61R,3.280000X0.040000*%
%ADD62R,3.400000X0.040000*%
%ADD63R,3.480000X0.040000*%
%ADD64R,3.560000X0.040000*%
%ADD65R,3.600000X0.040000*%
%ADD66R,3.640000X0.040000*%
%ADD67R,3.680000X0.040000*%
%ADD68R,0.720000X0.040000*%
%ADD69R,0.840000X0.040000*%
%ADD70R,1.800000X0.040000*%
%ADD71R,0.600000X0.040000*%
%ADD72R,0.280000X0.040000*%
%ADD73R,1.240000X0.040000*%
%ADD74R,0.560000X0.040000*%
%ADD75R,0.440000X0.040000*%
%ADD76R,0.160000X0.040000*%
%ADD77R,0.520000X0.040000*%
%ADD78R,0.320000X0.040000*%
%ADD79R,0.120000X0.040000*%
%ADD80R,0.080000X0.040000*%
%ADD81R,0.480000X0.040000*%
%ADD82R,1.280000X0.040000*%
%ADD83R,0.240000X0.040000*%
%ADD84R,0.400000X0.040000*%
%ADD85R,0.200000X0.040000*%
%ADD86R,1.320000X0.040000*%
%ADD87R,0.680000X0.040000*%
%ADD88R,0.920000X0.040000*%
%ADD89R,0.360000X0.040000*%
%ADD90R,0.760000X0.040000*%
%ADD91R,0.640000X0.040000*%
%ADD92R,3.720000X0.040000*%
%ADD93R,3.800000X0.040000*%
%ADD94R,3.840000X0.040000*%
%ADD95R,3.880000X0.040000*%
%ADD96R,3.920000X0.040000*%
%ADD97R,3.040000X0.040000*%
%ADD98R,0.800000X0.040000*%
%ADD99R,1.160000X0.040000*%
%ADD100R,1.120000X0.040000*%
%ADD101R,1.080000X0.040000*%
%ADD102R,1.040000X0.040000*%
%ADD103R,1.000000X0.040000*%
%ADD104R,0.960000X0.040000*%
%ADD105R,0.880000X0.040000*%
%ADD106R,2.800000X0.040000*%
%ADD107R,0.040000X0.040000*%
%ADD108R,3.240000X0.040000*%
%ADD109R,3.200000X0.040000*%
%ADD110R,3.160000X0.040000*%
%ADD111R,3.120000X0.040000*%
%ADD112R,2.840000X0.040000*%
%ADD113R,2.760000X0.040000*%
%ADD114R,2.720000X0.040000*%
%ADD115R,3.080000X0.040000*%
%ADD116R,2.440000X0.040000*%
%ADD117R,2.680000X0.040000*%
%ADD118R,3.000000X0.040000*%
%ADD119R,1.440000X0.040000*%
%ADD120R,1.480000X0.040000*%
%ADD121R,1.520000X0.040000*%

G36*
X450905Y209054D02*
X450905Y209054D01*
X450908Y209051D01*
X451508Y209151D01*
X451511Y209155D01*
X451514Y209153D01*
X452214Y209353D01*
X452215Y209354D01*
X452216Y209353D01*
X452815Y209553D01*
X453514Y209753D01*
X453520Y209762D01*
X453527Y209759D01*
X454127Y210159D01*
X454128Y210162D01*
X454131Y210162D01*
X455131Y210962D01*
X455132Y210966D01*
X455135Y210965D01*
X455635Y211465D01*
X455635Y211469D01*
X455638Y211469D01*
X456038Y211969D01*
X456039Y211973D01*
X456041Y211973D01*
X456441Y212573D01*
X456441Y212580D01*
X456445Y212583D01*
X456445Y212584D01*
X456447Y212584D01*
X456646Y213182D01*
X456945Y213881D01*
X456945Y213884D01*
X456947Y213884D01*
X457147Y214484D01*
X457145Y214491D01*
X457149Y214493D01*
X457249Y215193D01*
X457246Y215198D01*
X457249Y215200D01*
X457249Y216500D01*
X457246Y216504D01*
X457249Y216507D01*
X457149Y217207D01*
X457145Y217211D01*
X457147Y217214D01*
X456947Y217914D01*
X456946Y217915D01*
X456947Y217916D01*
X456747Y218516D01*
X456742Y218519D01*
X456744Y218522D01*
X456444Y219122D01*
X456440Y219124D01*
X456441Y219127D01*
X456041Y219727D01*
X456038Y219728D01*
X456038Y219731D01*
X455238Y220731D01*
X455234Y220732D01*
X455235Y220735D01*
X454735Y221235D01*
X454728Y221236D01*
X454727Y221241D01*
X454127Y221641D01*
X454123Y221641D01*
X454122Y221644D01*
X452922Y222244D01*
X452917Y222243D01*
X452916Y222247D01*
X452316Y222447D01*
X452314Y222446D01*
X452314Y222447D01*
X451614Y222647D01*
X451609Y222646D01*
X451607Y222649D01*
X450907Y222749D01*
X450902Y222746D01*
X450900Y222749D01*
X406400Y222749D01*
X406353Y222713D01*
X406355Y222710D01*
X406351Y222708D01*
X406251Y222108D01*
X406254Y222103D01*
X406251Y222100D01*
X406251Y209200D01*
X406287Y209153D01*
X406289Y209154D01*
X406290Y209152D01*
X406790Y209052D01*
X406797Y209055D01*
X406800Y209051D01*
X450900Y209051D01*
X450905Y209054D01*
G37*
G36*
X450507Y158256D02*
X450507Y158256D01*
X450516Y158253D01*
X450520Y158266D01*
X450547Y158287D01*
X450533Y158305D01*
X450534Y158308D01*
X450560Y158272D01*
X450601Y158259D01*
X450608Y158251D01*
X451208Y158351D01*
X451907Y158451D01*
X451912Y158456D01*
X451916Y158453D01*
X452515Y158653D01*
X453214Y158853D01*
X453218Y158858D01*
X453222Y158856D01*
X453822Y159156D01*
X453825Y159163D01*
X453831Y159162D01*
X454329Y159560D01*
X454927Y159959D01*
X454930Y159966D01*
X454935Y159965D01*
X455435Y160465D01*
X455435Y160469D01*
X455438Y160469D01*
X456238Y161469D01*
X456239Y161477D01*
X456244Y161478D01*
X456544Y162078D01*
X456544Y162080D01*
X456545Y162081D01*
X456845Y162781D01*
X456845Y162784D01*
X456847Y162784D01*
X457047Y163384D01*
X457045Y163391D01*
X457049Y163393D01*
X457149Y164092D01*
X457249Y164692D01*
X457246Y164697D01*
X457249Y164700D01*
X457249Y165400D01*
X457246Y165404D01*
X457249Y165407D01*
X457049Y166807D01*
X457044Y166812D01*
X457047Y166816D01*
X456847Y167416D01*
X456842Y167419D01*
X456844Y167422D01*
X456244Y168622D01*
X456240Y168624D01*
X456241Y168627D01*
X455841Y169227D01*
X455838Y169228D01*
X455838Y169231D01*
X455438Y169731D01*
X455434Y169732D01*
X455435Y169735D01*
X454935Y170235D01*
X454931Y170235D01*
X454931Y170238D01*
X454431Y170638D01*
X454427Y170639D01*
X454427Y170641D01*
X453827Y171041D01*
X453823Y171041D01*
X453822Y171044D01*
X453222Y171344D01*
X453217Y171343D01*
X453216Y171347D01*
X452616Y171547D01*
X452614Y171546D01*
X452614Y171547D01*
X451914Y171747D01*
X451909Y171746D01*
X451907Y171749D01*
X451208Y171849D01*
X450608Y171949D01*
X450603Y171946D01*
X450600Y171949D01*
X407000Y171949D01*
X406995Y171946D01*
X406992Y171949D01*
X406392Y171849D01*
X406355Y171810D01*
X406353Y171808D01*
X406353Y171807D01*
X406351Y171805D01*
X406354Y171803D01*
X406351Y171800D01*
X406351Y158900D01*
X406354Y158895D01*
X406351Y158892D01*
X406451Y158292D01*
X406495Y158251D01*
X406498Y158254D01*
X406500Y158251D01*
X450500Y158251D01*
X450507Y158256D01*
G37*
G36*
X447864Y183654D02*
X447864Y183654D01*
X447867Y183651D01*
X448567Y183751D01*
X448568Y183752D01*
X448568Y183751D01*
X449168Y183851D01*
X449867Y183951D01*
X449872Y183956D01*
X449876Y183953D01*
X450476Y184153D01*
X450479Y184158D01*
X450482Y184156D01*
X451082Y184456D01*
X451084Y184460D01*
X451087Y184459D01*
X452287Y185259D01*
X452290Y185266D01*
X452295Y185265D01*
X452795Y185765D01*
X452795Y185769D01*
X452798Y185769D01*
X453598Y186769D01*
X453599Y186777D01*
X453604Y186778D01*
X454204Y187978D01*
X454203Y187985D01*
X454207Y187986D01*
X454231Y188070D01*
X454245Y188119D01*
X454287Y188267D01*
X454288Y188267D01*
X454287Y188267D01*
X454330Y188415D01*
X454344Y188464D01*
X454386Y188612D01*
X454407Y188685D01*
X454607Y189284D01*
X454605Y189291D01*
X454609Y189293D01*
X454709Y189993D01*
X454706Y189998D01*
X454709Y190000D01*
X454709Y190700D01*
X454706Y190705D01*
X454709Y190708D01*
X454609Y191308D01*
X454509Y192007D01*
X454505Y192011D01*
X454507Y192014D01*
X454307Y192714D01*
X454306Y192715D01*
X454307Y192716D01*
X454107Y193316D01*
X454102Y193319D01*
X454104Y193322D01*
X453804Y193922D01*
X453800Y193924D01*
X453801Y193927D01*
X453401Y194527D01*
X453398Y194528D01*
X453398Y194531D01*
X452998Y195031D01*
X452994Y195032D01*
X452995Y195035D01*
X452495Y195535D01*
X452491Y195535D01*
X452491Y195538D01*
X451491Y196338D01*
X451483Y196339D01*
X451482Y196344D01*
X450882Y196644D01*
X450880Y196644D01*
X450879Y196645D01*
X450179Y196945D01*
X450176Y196945D01*
X450176Y196947D01*
X449576Y197147D01*
X449571Y197145D01*
X449569Y197145D01*
X449567Y197149D01*
X448167Y197349D01*
X448162Y197346D01*
X448160Y197349D01*
X406560Y197349D01*
X406513Y197313D01*
X406516Y197309D01*
X406513Y197306D01*
X406515Y197303D01*
X406511Y197300D01*
X406511Y183700D01*
X406547Y183653D01*
X406554Y183658D01*
X406560Y183651D01*
X447860Y183651D01*
X447864Y183654D01*
G37*
G36*
X150684Y247154D02*
X150684Y247154D01*
X150687Y247151D01*
X151387Y247251D01*
X151388Y247252D01*
X151388Y247251D01*
X151988Y247351D01*
X152687Y247451D01*
X152692Y247456D01*
X152696Y247453D01*
X153296Y247653D01*
X153299Y247658D01*
X153302Y247656D01*
X153902Y247956D01*
X153904Y247960D01*
X153907Y247959D01*
X155107Y248759D01*
X155110Y248766D01*
X155115Y248765D01*
X156015Y249665D01*
X156016Y249672D01*
X156021Y249673D01*
X156421Y250273D01*
X156421Y250277D01*
X156424Y250278D01*
X157024Y251478D01*
X157023Y251483D01*
X157027Y251484D01*
X157227Y252084D01*
X157226Y252086D01*
X157227Y252086D01*
X157263Y252210D01*
X157277Y252259D01*
X157319Y252407D01*
X157361Y252555D01*
X157375Y252604D01*
X157417Y252752D01*
X157418Y252752D01*
X157417Y252752D01*
X157427Y252786D01*
X157426Y252791D01*
X157429Y252793D01*
X157529Y253493D01*
X157526Y253498D01*
X157529Y253500D01*
X157529Y254800D01*
X157523Y254808D01*
X157527Y254814D01*
X157328Y255511D01*
X157229Y256108D01*
X157222Y256114D01*
X157225Y256119D01*
X156925Y256819D01*
X156923Y256821D01*
X156924Y256822D01*
X156624Y257422D01*
X156617Y257425D01*
X156618Y257431D01*
X156220Y257929D01*
X155821Y258527D01*
X155814Y258530D01*
X155815Y258535D01*
X155315Y259035D01*
X155311Y259035D01*
X155311Y259038D01*
X154311Y259838D01*
X154303Y259839D01*
X154302Y259844D01*
X153102Y260444D01*
X153095Y260443D01*
X153094Y260447D01*
X152394Y260647D01*
X152389Y260646D01*
X152387Y260649D01*
X151688Y260749D01*
X151088Y260849D01*
X151083Y260846D01*
X151080Y260849D01*
X114180Y260849D01*
X114171Y260842D01*
X114162Y260836D01*
X114150Y260839D01*
X113750Y260539D01*
X113745Y260520D01*
X113733Y260511D01*
X113737Y260505D01*
X113731Y260500D01*
X113731Y247600D01*
X113744Y247582D01*
X113741Y247570D01*
X114041Y247170D01*
X114072Y247162D01*
X114080Y247151D01*
X150680Y247151D01*
X150684Y247154D01*
G37*
G36*
X585525Y82054D02*
X585525Y82054D01*
X585528Y82051D01*
X586128Y82151D01*
X586131Y82155D01*
X586134Y82153D01*
X586834Y82353D01*
X586835Y82354D01*
X586836Y82353D01*
X588036Y82753D01*
X588041Y82761D01*
X588047Y82759D01*
X589247Y83559D01*
X589248Y83562D01*
X589251Y83562D01*
X589751Y83962D01*
X589752Y83966D01*
X589755Y83965D01*
X590255Y84465D01*
X590255Y84469D01*
X590258Y84469D01*
X590658Y84969D01*
X590659Y84977D01*
X590664Y84978D01*
X591564Y86778D01*
X591563Y86785D01*
X591567Y86786D01*
X591589Y86864D01*
X591590Y86864D01*
X591589Y86864D01*
X591632Y87012D01*
X591646Y87061D01*
X591688Y87209D01*
X591730Y87356D01*
X591744Y87406D01*
X591767Y87486D01*
X591766Y87491D01*
X591769Y87493D01*
X591869Y88193D01*
X591866Y88198D01*
X591869Y88200D01*
X591869Y89500D01*
X591866Y89504D01*
X591869Y89507D01*
X591769Y90207D01*
X591764Y90212D01*
X591767Y90216D01*
X591567Y90815D01*
X591367Y91514D01*
X591362Y91518D01*
X591364Y91522D01*
X590764Y92722D01*
X590757Y92725D01*
X590758Y92731D01*
X590358Y93231D01*
X590354Y93232D01*
X590355Y93235D01*
X589355Y94235D01*
X589351Y94235D01*
X589351Y94238D01*
X588851Y94638D01*
X588843Y94639D01*
X588842Y94644D01*
X587642Y95244D01*
X587635Y95243D01*
X587634Y95247D01*
X586935Y95447D01*
X586336Y95647D01*
X586327Y95644D01*
X586324Y95644D01*
X586320Y95649D01*
X585624Y95649D01*
X585028Y95749D01*
X585023Y95746D01*
X585020Y95749D01*
X555920Y95749D01*
X555873Y95713D01*
X555875Y95710D01*
X555871Y95708D01*
X555771Y95108D01*
X555774Y95103D01*
X555771Y95100D01*
X555771Y82300D01*
X555803Y82257D01*
X555804Y82253D01*
X556404Y82053D01*
X556415Y82057D01*
X556420Y82051D01*
X585520Y82051D01*
X585525Y82054D01*
G37*
G36*
X71186Y15108D02*
X71186Y15108D01*
X71252Y15113D01*
X71270Y15124D01*
X71291Y15129D01*
X71376Y15189D01*
X71400Y15203D01*
X71403Y15208D01*
X71408Y15212D01*
X73608Y17512D01*
X73616Y17525D01*
X73629Y17535D01*
X73660Y17599D01*
X73696Y17661D01*
X73697Y17677D01*
X73704Y17691D01*
X73703Y17762D01*
X73709Y17833D01*
X73703Y17848D01*
X73702Y17864D01*
X73645Y17989D01*
X73643Y17993D01*
X73643Y17994D01*
X71775Y20609D01*
X71777Y20620D01*
X71786Y20633D01*
X71797Y20691D01*
X71806Y20712D01*
X71806Y20734D01*
X71812Y20767D01*
X71813Y20772D01*
X71813Y20773D01*
X71813Y20774D01*
X71813Y20784D01*
X71846Y20849D01*
X71902Y20906D01*
X71913Y20924D01*
X71925Y20933D01*
X71933Y20951D01*
X71973Y21004D01*
X72046Y21149D01*
X72102Y21206D01*
X72142Y21270D01*
X72186Y21333D01*
X72188Y21345D01*
X72193Y21353D01*
X72197Y21388D01*
X72213Y21474D01*
X72213Y21523D01*
X72242Y21570D01*
X72286Y21633D01*
X72288Y21645D01*
X72293Y21653D01*
X72297Y21688D01*
X72313Y21774D01*
X72313Y21884D01*
X72346Y21949D01*
X72402Y22006D01*
X72442Y22070D01*
X72486Y22133D01*
X72488Y22145D01*
X72493Y22153D01*
X72497Y22188D01*
X72503Y22221D01*
X72506Y22229D01*
X72506Y22237D01*
X72513Y22274D01*
X72513Y22323D01*
X72542Y22370D01*
X72586Y22433D01*
X72588Y22445D01*
X72593Y22453D01*
X72597Y22488D01*
X72613Y22574D01*
X72613Y22684D01*
X72642Y22742D01*
X75898Y23300D01*
X75916Y23307D01*
X75935Y23308D01*
X75995Y23341D01*
X76057Y23367D01*
X76070Y23382D01*
X76087Y23391D01*
X76126Y23447D01*
X76170Y23498D01*
X76175Y23517D01*
X76186Y23533D01*
X76208Y23644D01*
X76213Y23666D01*
X76212Y23670D01*
X76213Y23674D01*
X76213Y26874D01*
X76209Y26893D01*
X76211Y26912D01*
X76200Y26946D01*
X76199Y26952D01*
X76194Y26963D01*
X76189Y26976D01*
X76174Y27042D01*
X76161Y27057D01*
X76155Y27075D01*
X76107Y27123D01*
X76064Y27176D01*
X76046Y27183D01*
X76032Y27197D01*
X75926Y27237D01*
X75906Y27246D01*
X75902Y27246D01*
X75898Y27248D01*
X72686Y27798D01*
X72675Y27837D01*
X72674Y27842D01*
X72673Y27843D01*
X72613Y27963D01*
X72613Y27974D01*
X72610Y27989D01*
X72612Y28005D01*
X72592Y28075D01*
X72592Y28090D01*
X72584Y28104D01*
X72575Y28137D01*
X72574Y28142D01*
X72573Y28143D01*
X72513Y28263D01*
X72513Y28274D01*
X72510Y28289D01*
X72512Y28305D01*
X72475Y28437D01*
X72474Y28442D01*
X72473Y28443D01*
X72313Y28763D01*
X72313Y28774D01*
X72310Y28789D01*
X72312Y28805D01*
X72275Y28937D01*
X72274Y28942D01*
X72273Y28943D01*
X72173Y29143D01*
X72150Y29171D01*
X72113Y29225D01*
X72113Y29274D01*
X72096Y29348D01*
X72082Y29423D01*
X72076Y29433D01*
X72074Y29442D01*
X72051Y29470D01*
X72002Y29542D01*
X71946Y29598D01*
X71873Y29743D01*
X71850Y29771D01*
X71813Y29825D01*
X71813Y29874D01*
X71796Y29948D01*
X71792Y29970D01*
X73646Y32658D01*
X73652Y32674D01*
X73664Y32687D01*
X73684Y32754D01*
X73709Y32819D01*
X73708Y32837D01*
X73713Y32853D01*
X73700Y32922D01*
X73694Y32992D01*
X73685Y33006D01*
X73682Y33023D01*
X73611Y33129D01*
X73604Y33140D01*
X73603Y33140D01*
X73602Y33142D01*
X71402Y35342D01*
X71388Y35351D01*
X71377Y35365D01*
X71315Y35396D01*
X71255Y35433D01*
X71238Y35435D01*
X71223Y35442D01*
X71153Y35443D01*
X71083Y35449D01*
X71067Y35443D01*
X71050Y35443D01*
X70932Y35392D01*
X70921Y35388D01*
X70920Y35387D01*
X70919Y35386D01*
X68220Y33524D01*
X68202Y33542D01*
X68137Y33582D01*
X68075Y33626D01*
X68063Y33628D01*
X68055Y33633D01*
X68020Y33636D01*
X67934Y33653D01*
X67884Y33653D01*
X67872Y33661D01*
X67804Y33713D01*
X67659Y33785D01*
X67602Y33842D01*
X67537Y33882D01*
X67475Y33926D01*
X67463Y33928D01*
X67455Y33933D01*
X67420Y33936D01*
X67334Y33953D01*
X67284Y33953D01*
X67272Y33961D01*
X67204Y34013D01*
X67004Y34113D01*
X66988Y34117D01*
X66975Y34126D01*
X66841Y34152D01*
X66835Y34153D01*
X66834Y34153D01*
X66824Y34153D01*
X66704Y34213D01*
X66688Y34217D01*
X66675Y34226D01*
X66541Y34252D01*
X66535Y34253D01*
X66534Y34253D01*
X66484Y34253D01*
X66437Y34282D01*
X66375Y34326D01*
X66363Y34328D01*
X66355Y34333D01*
X66320Y34336D01*
X66234Y34353D01*
X66124Y34353D01*
X66066Y34382D01*
X65508Y37638D01*
X65500Y37656D01*
X65499Y37675D01*
X65467Y37734D01*
X65440Y37797D01*
X65426Y37810D01*
X65416Y37827D01*
X65361Y37866D01*
X65309Y37910D01*
X65290Y37915D01*
X65275Y37926D01*
X65164Y37947D01*
X65142Y37953D01*
X65138Y37952D01*
X65134Y37953D01*
X61934Y37953D01*
X61915Y37949D01*
X61896Y37951D01*
X61832Y37929D01*
X61766Y37913D01*
X61751Y37901D01*
X61732Y37895D01*
X61685Y37847D01*
X61632Y37803D01*
X61624Y37786D01*
X61611Y37772D01*
X61571Y37666D01*
X61562Y37645D01*
X61562Y37642D01*
X61560Y37638D01*
X61010Y34426D01*
X60971Y34415D01*
X60966Y34413D01*
X60965Y34413D01*
X60964Y34413D01*
X60844Y34353D01*
X60834Y34353D01*
X60818Y34349D01*
X60802Y34352D01*
X60671Y34315D01*
X60666Y34313D01*
X60665Y34313D01*
X60664Y34313D01*
X60544Y34253D01*
X60534Y34253D01*
X60518Y34249D01*
X60502Y34252D01*
X60371Y34215D01*
X60366Y34213D01*
X60365Y34213D01*
X60364Y34213D01*
X60244Y34153D01*
X60134Y34153D01*
X60060Y34136D01*
X59984Y34122D01*
X59975Y34116D01*
X59966Y34113D01*
X59938Y34091D01*
X59866Y34042D01*
X59809Y33985D01*
X59744Y33953D01*
X59734Y33953D01*
X59718Y33949D01*
X59702Y33952D01*
X59571Y33915D01*
X59566Y33913D01*
X59565Y33913D01*
X59564Y33913D01*
X59364Y33813D01*
X59337Y33790D01*
X59266Y33742D01*
X59209Y33685D01*
X59144Y33653D01*
X59134Y33653D01*
X59118Y33649D01*
X59102Y33652D01*
X58971Y33615D01*
X58966Y33613D01*
X58965Y33613D01*
X58964Y33613D01*
X58823Y33542D01*
X56149Y35386D01*
X56137Y35391D01*
X56128Y35400D01*
X56057Y35422D01*
X55988Y35449D01*
X55975Y35448D01*
X55963Y35452D01*
X55890Y35440D01*
X55816Y35434D01*
X55805Y35427D01*
X55792Y35425D01*
X55672Y35348D01*
X53372Y33148D01*
X53358Y33126D01*
X53338Y33110D01*
X53311Y33054D01*
X53277Y33003D01*
X53274Y32977D01*
X53263Y32954D01*
X53264Y32892D01*
X53257Y32831D01*
X53266Y32807D01*
X53266Y32781D01*
X53304Y32701D01*
X53315Y32668D01*
X53322Y32662D01*
X53327Y32651D01*
X55262Y29978D01*
X55222Y29898D01*
X55166Y29842D01*
X55126Y29777D01*
X55082Y29714D01*
X55080Y29703D01*
X55075Y29695D01*
X55071Y29660D01*
X55055Y29574D01*
X55055Y29524D01*
X55047Y29511D01*
X54995Y29443D01*
X54922Y29298D01*
X54866Y29242D01*
X54826Y29177D01*
X54782Y29114D01*
X54780Y29103D01*
X54775Y29095D01*
X54771Y29060D01*
X54755Y28974D01*
X54755Y28924D01*
X54726Y28877D01*
X54682Y28814D01*
X54680Y28803D01*
X54675Y28795D01*
X54671Y28760D01*
X54655Y28674D01*
X54655Y28563D01*
X54622Y28498D01*
X54566Y28442D01*
X54526Y28377D01*
X54482Y28314D01*
X54480Y28303D01*
X54475Y28295D01*
X54471Y28260D01*
X54455Y28174D01*
X54455Y28124D01*
X54426Y28077D01*
X54382Y28014D01*
X54380Y28003D01*
X54375Y27995D01*
X54371Y27960D01*
X54355Y27874D01*
X54355Y27795D01*
X51072Y27248D01*
X51053Y27240D01*
X51033Y27239D01*
X50974Y27207D01*
X50912Y27181D01*
X50899Y27166D01*
X50881Y27156D01*
X50843Y27101D01*
X50799Y27051D01*
X50793Y27031D01*
X50782Y27014D01*
X50766Y26933D01*
X50762Y26923D01*
X50762Y26911D01*
X50761Y26908D01*
X50755Y26883D01*
X50756Y26879D01*
X50755Y26874D01*
X50755Y23674D01*
X50759Y23655D01*
X50757Y23636D01*
X50779Y23571D01*
X50794Y23505D01*
X50807Y23490D01*
X50813Y23472D01*
X50861Y23424D01*
X50904Y23372D01*
X50922Y23364D01*
X50936Y23350D01*
X51042Y23310D01*
X51062Y23301D01*
X51066Y23301D01*
X51070Y23300D01*
X54358Y22736D01*
X54393Y22611D01*
X54394Y22605D01*
X54395Y22605D01*
X54395Y22604D01*
X54455Y22484D01*
X54455Y22474D01*
X54458Y22458D01*
X54456Y22442D01*
X54493Y22311D01*
X54494Y22305D01*
X54495Y22305D01*
X54495Y22304D01*
X54555Y22184D01*
X54555Y22174D01*
X54558Y22158D01*
X54556Y22142D01*
X54593Y22011D01*
X54594Y22005D01*
X54595Y22005D01*
X54595Y22004D01*
X54755Y21684D01*
X54755Y21674D01*
X54758Y21658D01*
X54756Y21642D01*
X54793Y21511D01*
X54794Y21505D01*
X54795Y21505D01*
X54795Y21504D01*
X54895Y21304D01*
X54918Y21276D01*
X54966Y21206D01*
X55022Y21149D01*
X55055Y21084D01*
X55055Y21074D01*
X55058Y21058D01*
X55056Y21042D01*
X55093Y20911D01*
X55094Y20905D01*
X55095Y20905D01*
X55095Y20904D01*
X55195Y20704D01*
X55218Y20676D01*
X55266Y20606D01*
X55276Y20595D01*
X53331Y18001D01*
X53321Y17979D01*
X53304Y17960D01*
X53286Y17900D01*
X53261Y17843D01*
X53262Y17818D01*
X53255Y17794D01*
X53266Y17733D01*
X53269Y17670D01*
X53281Y17648D01*
X53286Y17624D01*
X53337Y17549D01*
X53353Y17519D01*
X53360Y17514D01*
X53366Y17506D01*
X55666Y15206D01*
X55680Y15197D01*
X55691Y15183D01*
X55753Y15151D01*
X55813Y15114D01*
X55830Y15113D01*
X55845Y15105D01*
X55916Y15105D01*
X55985Y15098D01*
X56001Y15104D01*
X56018Y15104D01*
X56136Y15156D01*
X56147Y15160D01*
X56148Y15161D01*
X56149Y15161D01*
X58848Y17023D01*
X58866Y17006D01*
X58931Y16965D01*
X58993Y16921D01*
X59005Y16919D01*
X59013Y16914D01*
X59048Y16911D01*
X59063Y16908D01*
X59066Y16906D01*
X59131Y16865D01*
X59193Y16821D01*
X59205Y16819D01*
X59213Y16814D01*
X59248Y16811D01*
X59334Y16794D01*
X59384Y16794D01*
X59431Y16765D01*
X59493Y16721D01*
X59505Y16719D01*
X59513Y16714D01*
X59548Y16711D01*
X59563Y16708D01*
X59566Y16706D01*
X59631Y16665D01*
X59693Y16621D01*
X59705Y16619D01*
X59713Y16614D01*
X59748Y16611D01*
X59763Y16608D01*
X59766Y16606D01*
X59831Y16565D01*
X59893Y16521D01*
X59905Y16519D01*
X59913Y16514D01*
X59948Y16511D01*
X59977Y16505D01*
X60004Y16472D01*
X60023Y16464D01*
X60038Y16449D01*
X60101Y16429D01*
X60162Y16401D01*
X60183Y16402D01*
X60202Y16396D01*
X60268Y16406D01*
X60335Y16408D01*
X60353Y16418D01*
X60373Y16421D01*
X60428Y16459D01*
X60487Y16491D01*
X60499Y16508D01*
X60515Y16520D01*
X60572Y16612D01*
X60586Y16633D01*
X60587Y16638D01*
X60590Y16642D01*
X62590Y22042D01*
X62594Y22073D01*
X62606Y22101D01*
X62604Y22157D01*
X62611Y22214D01*
X62601Y22243D01*
X62600Y22274D01*
X62573Y22324D01*
X62554Y22377D01*
X62532Y22399D01*
X62517Y22426D01*
X62457Y22472D01*
X62430Y22498D01*
X62417Y22502D01*
X62404Y22513D01*
X61859Y22785D01*
X61702Y22942D01*
X61672Y22961D01*
X61604Y23013D01*
X61459Y23085D01*
X61146Y23398D01*
X61073Y23543D01*
X61050Y23571D01*
X61002Y23642D01*
X60846Y23798D01*
X60785Y23919D01*
X60694Y24194D01*
X60682Y24213D01*
X60673Y24243D01*
X60613Y24363D01*
X60613Y24474D01*
X60605Y24509D01*
X60594Y24594D01*
X60513Y24835D01*
X60513Y25612D01*
X60594Y25854D01*
X60597Y25890D01*
X60613Y25974D01*
X60613Y26159D01*
X60750Y26363D01*
X60763Y26398D01*
X60794Y26454D01*
X60878Y26706D01*
X61229Y27232D01*
X61576Y27579D01*
X62102Y27930D01*
X62354Y28014D01*
X62372Y28025D01*
X62386Y28028D01*
X62399Y28039D01*
X62444Y28058D01*
X62649Y28194D01*
X62834Y28194D01*
X62869Y28203D01*
X62954Y28214D01*
X63196Y28294D01*
X63787Y28294D01*
X64142Y28206D01*
X64178Y28205D01*
X64234Y28194D01*
X64419Y28194D01*
X64624Y28058D01*
X64659Y28045D01*
X64708Y28017D01*
X64710Y28016D01*
X64711Y28016D01*
X64714Y28014D01*
X64966Y27930D01*
X65193Y27779D01*
X65366Y27606D01*
X65392Y27589D01*
X65424Y27558D01*
X65693Y27379D01*
X65839Y27232D01*
X66190Y26706D01*
X66555Y25612D01*
X66555Y25135D01*
X66474Y24894D01*
X66471Y24858D01*
X66455Y24774D01*
X66455Y24563D01*
X66295Y24243D01*
X66289Y24221D01*
X66274Y24194D01*
X66183Y23919D01*
X66022Y23598D01*
X65866Y23442D01*
X65847Y23411D01*
X65795Y23343D01*
X65722Y23198D01*
X65609Y23085D01*
X65464Y23013D01*
X65437Y22990D01*
X65366Y22942D01*
X65209Y22785D01*
X64888Y22625D01*
X64614Y22533D01*
X64565Y22503D01*
X64512Y22481D01*
X64492Y22459D01*
X64467Y22443D01*
X64436Y22394D01*
X64399Y22351D01*
X64391Y22322D01*
X64375Y22296D01*
X64369Y22239D01*
X64355Y22183D01*
X64361Y22149D01*
X64358Y22124D01*
X64370Y22092D01*
X64378Y22042D01*
X66378Y16642D01*
X66404Y16604D01*
X66420Y16561D01*
X66451Y16533D01*
X66474Y16498D01*
X66514Y16475D01*
X66547Y16444D01*
X66587Y16432D01*
X66624Y16411D01*
X66669Y16408D01*
X66713Y16395D01*
X66754Y16402D01*
X66796Y16400D01*
X66839Y16417D01*
X66884Y16425D01*
X66925Y16453D01*
X66956Y16466D01*
X66973Y16486D01*
X66986Y16494D01*
X67034Y16494D01*
X67108Y16512D01*
X67184Y16525D01*
X67193Y16532D01*
X67202Y16534D01*
X67230Y16557D01*
X67302Y16606D01*
X67309Y16612D01*
X67384Y16625D01*
X67393Y16632D01*
X67402Y16634D01*
X67430Y16657D01*
X67502Y16706D01*
X67509Y16712D01*
X67584Y16725D01*
X67593Y16732D01*
X67602Y16734D01*
X67630Y16757D01*
X67702Y16806D01*
X67709Y16812D01*
X67784Y16825D01*
X67793Y16832D01*
X67802Y16834D01*
X67830Y16857D01*
X67902Y16906D01*
X67909Y16912D01*
X67984Y16925D01*
X67993Y16932D01*
X68002Y16934D01*
X68030Y16957D01*
X68102Y17006D01*
X68109Y17012D01*
X68184Y17025D01*
X68193Y17032D01*
X68202Y17034D01*
X68203Y17034D01*
X70919Y15161D01*
X70939Y15154D01*
X70955Y15140D01*
X71018Y15122D01*
X71080Y15098D01*
X71101Y15100D01*
X71122Y15095D01*
X71186Y15108D01*
G37*
G36*
X295940Y239491D02*
X295940Y239491D01*
X295991Y239493D01*
X296023Y239511D01*
X296059Y239519D01*
X296098Y239552D01*
X296143Y239576D01*
X296164Y239606D01*
X296192Y239629D01*
X296213Y239676D01*
X296243Y239718D01*
X296251Y239760D01*
X296263Y239788D01*
X296262Y239818D01*
X296270Y239860D01*
X296270Y252660D01*
X296266Y252678D01*
X296268Y252702D01*
X296068Y254502D01*
X296057Y254533D01*
X296051Y254580D01*
X295851Y255180D01*
X295838Y255200D01*
X295830Y255230D01*
X295530Y255830D01*
X295522Y255840D01*
X295516Y255856D01*
X295216Y256356D01*
X295202Y256370D01*
X295193Y256389D01*
X295116Y256459D01*
X295095Y256480D01*
X295090Y256482D01*
X295086Y256486D01*
X294602Y256776D01*
X294218Y257064D01*
X294183Y257079D01*
X294131Y257113D01*
X293131Y257513D01*
X293098Y257518D01*
X293053Y257535D01*
X292453Y257635D01*
X292426Y257633D01*
X292390Y257640D01*
X291590Y257640D01*
X291554Y257632D01*
X291498Y257629D01*
X291143Y257540D01*
X290990Y257540D01*
X290975Y257537D01*
X290960Y257539D01*
X290828Y257502D01*
X290821Y257501D01*
X290821Y257500D01*
X290820Y257500D01*
X290620Y257400D01*
X290601Y257384D01*
X290577Y257375D01*
X290535Y257329D01*
X290487Y257289D01*
X290477Y257267D01*
X290460Y257248D01*
X290442Y257188D01*
X290416Y257131D01*
X290418Y257106D01*
X290410Y257082D01*
X290421Y257020D01*
X290424Y256958D01*
X290436Y256936D01*
X290440Y256911D01*
X290489Y256838D01*
X290507Y256806D01*
X290515Y256801D01*
X290521Y256791D01*
X290621Y256691D01*
X290653Y256671D01*
X290720Y256620D01*
X291120Y256420D01*
X291143Y256414D01*
X291170Y256399D01*
X291385Y256328D01*
X291695Y256018D01*
X291845Y255792D01*
X291910Y255598D01*
X291910Y255422D01*
X291838Y255206D01*
X291678Y254885D01*
X291448Y254656D01*
X291212Y254498D01*
X290781Y254326D01*
X290352Y254240D01*
X289637Y254240D01*
X288946Y254413D01*
X288450Y254744D01*
X288129Y255145D01*
X287970Y255622D01*
X287970Y256182D01*
X288216Y256755D01*
X288876Y257509D01*
X289674Y258407D01*
X289675Y258409D01*
X289676Y258410D01*
X290376Y259210D01*
X290392Y259239D01*
X290422Y259275D01*
X290922Y260175D01*
X290933Y260213D01*
X290961Y260278D01*
X291161Y261178D01*
X291161Y261211D01*
X291170Y261260D01*
X291170Y262060D01*
X291162Y262097D01*
X291151Y262180D01*
X290851Y263080D01*
X290830Y263114D01*
X290799Y263181D01*
X290299Y263881D01*
X290273Y263904D01*
X290243Y263944D01*
X289343Y264744D01*
X289312Y264761D01*
X289272Y264794D01*
X288172Y265394D01*
X288136Y265404D01*
X288058Y265434D01*
X286958Y265634D01*
X286929Y265633D01*
X286890Y265640D01*
X285890Y265640D01*
X285853Y265632D01*
X285770Y265621D01*
X284870Y265321D01*
X284864Y265317D01*
X284857Y265316D01*
X284057Y265016D01*
X284042Y265006D01*
X284020Y265000D01*
X283854Y264917D01*
X283420Y264700D01*
X283398Y264682D01*
X283362Y264664D01*
X282962Y264364D01*
X282947Y264346D01*
X282921Y264329D01*
X282821Y264229D01*
X282808Y264207D01*
X282788Y264191D01*
X282762Y264134D01*
X282730Y264082D01*
X282727Y264056D01*
X282717Y264032D01*
X282719Y263971D01*
X282713Y263909D01*
X282722Y263885D01*
X282723Y263859D01*
X282753Y263805D01*
X282775Y263747D01*
X282794Y263730D01*
X282806Y263707D01*
X282857Y263672D01*
X282902Y263630D01*
X282927Y263622D01*
X282948Y263607D01*
X283032Y263591D01*
X283068Y263580D01*
X283078Y263582D01*
X283090Y263580D01*
X283390Y263580D01*
X283427Y263588D01*
X283510Y263599D01*
X283752Y263680D01*
X283943Y263680D01*
X284298Y263591D01*
X284306Y263591D01*
X284315Y263587D01*
X284766Y263497D01*
X285089Y263335D01*
X285410Y263095D01*
X285545Y262892D01*
X285629Y262640D01*
X285642Y262620D01*
X285650Y262590D01*
X285738Y262414D01*
X285789Y262260D01*
X285729Y262080D01*
X285728Y262067D01*
X285721Y262052D01*
X285637Y261716D01*
X285474Y261471D01*
X285466Y261451D01*
X285450Y261430D01*
X285278Y261085D01*
X285048Y260856D01*
X284779Y260676D01*
X284772Y260669D01*
X284762Y260664D01*
X284370Y260371D01*
X284099Y260190D01*
X283667Y259974D01*
X283400Y259840D01*
X282852Y259840D01*
X282659Y259905D01*
X282510Y260004D01*
X282370Y260422D01*
X282370Y261160D01*
X282358Y261210D01*
X282358Y261231D01*
X282357Y261255D01*
X282356Y261262D01*
X282339Y261294D01*
X282331Y261329D01*
X282298Y261369D01*
X282273Y261414D01*
X282243Y261435D01*
X282221Y261462D01*
X282173Y261484D01*
X282131Y261513D01*
X282095Y261519D01*
X282062Y261533D01*
X282011Y261531D01*
X281960Y261539D01*
X281919Y261528D01*
X281889Y261527D01*
X281862Y261512D01*
X281820Y261500D01*
X281809Y261495D01*
X281049Y261115D01*
X281020Y261100D01*
X281016Y261097D01*
X280906Y261013D01*
X280106Y260113D01*
X280091Y260085D01*
X280062Y260052D01*
X279362Y258852D01*
X279353Y258823D01*
X279332Y258788D01*
X278832Y257388D01*
X278829Y257362D01*
X278816Y257330D01*
X278516Y255730D01*
X278518Y255694D01*
X278510Y255639D01*
X278610Y253839D01*
X278620Y253807D01*
X278624Y253758D01*
X279124Y251958D01*
X279141Y251927D01*
X279158Y251875D01*
X280158Y250075D01*
X280175Y250057D01*
X280190Y250027D01*
X280890Y249127D01*
X280897Y249121D01*
X280901Y249113D01*
X280911Y249107D01*
X280921Y249091D01*
X281721Y248291D01*
X281731Y248285D01*
X281740Y248274D01*
X282540Y247574D01*
X282565Y247560D01*
X282594Y247534D01*
X283594Y246934D01*
X283619Y246926D01*
X283649Y246907D01*
X284649Y246507D01*
X284668Y246504D01*
X284690Y246493D01*
X285790Y246193D01*
X285807Y246193D01*
X285828Y246185D01*
X287028Y245985D01*
X287054Y245987D01*
X287090Y245980D01*
X288959Y245980D01*
X289456Y245897D01*
X289872Y245647D01*
X290822Y244887D01*
X291298Y244317D01*
X291310Y244307D01*
X291321Y244291D01*
X292599Y243013D01*
X293081Y242339D01*
X293101Y242321D01*
X293121Y242291D01*
X293709Y241703D01*
X294198Y241117D01*
X294210Y241107D01*
X294221Y241091D01*
X294702Y240610D01*
X294986Y240232D01*
X295004Y240217D01*
X295021Y240191D01*
X295295Y239918D01*
X295474Y239649D01*
X295493Y239631D01*
X295506Y239607D01*
X295556Y239572D01*
X295600Y239531D01*
X295626Y239523D01*
X295648Y239507D01*
X295729Y239492D01*
X295766Y239481D01*
X295777Y239482D01*
X295790Y239480D01*
X295890Y239480D01*
X295940Y239491D01*
G37*
G36*
X341629Y213991D02*
X341629Y213991D01*
X341691Y213993D01*
X341713Y214006D01*
X341739Y214010D01*
X341810Y214058D01*
X341843Y214076D01*
X341849Y214084D01*
X341859Y214091D01*
X342744Y214976D01*
X344228Y216163D01*
X344239Y216178D01*
X344259Y216191D01*
X345144Y217076D01*
X345628Y217463D01*
X345634Y217471D01*
X345643Y217476D01*
X345687Y217539D01*
X345735Y217599D01*
X345737Y217609D01*
X345743Y217618D01*
X345758Y217699D01*
X345763Y217710D01*
X345763Y217722D01*
X345770Y217760D01*
X345770Y236260D01*
X345769Y236264D01*
X345770Y236269D01*
X345750Y236349D01*
X345731Y236429D01*
X345728Y236432D01*
X345727Y236437D01*
X345673Y236499D01*
X345621Y236562D01*
X345616Y236564D01*
X345614Y236568D01*
X345482Y236629D01*
X345082Y236729D01*
X345074Y236729D01*
X345065Y236733D01*
X344565Y236833D01*
X344533Y236832D01*
X344490Y236840D01*
X344037Y236840D01*
X343682Y236929D01*
X343674Y236929D01*
X343665Y236933D01*
X343173Y237031D01*
X342782Y237129D01*
X342774Y237129D01*
X342765Y237133D01*
X341765Y237333D01*
X341763Y237333D01*
X341762Y237333D01*
X341678Y237330D01*
X341591Y237327D01*
X341590Y237327D01*
X341589Y237327D01*
X341515Y237286D01*
X341439Y237245D01*
X341438Y237244D01*
X341437Y237244D01*
X341389Y237175D01*
X341338Y237104D01*
X341338Y237103D01*
X341337Y237102D01*
X341310Y236960D01*
X341310Y236178D01*
X341159Y236329D01*
X341143Y236339D01*
X341128Y236357D01*
X340628Y236757D01*
X340607Y236767D01*
X340586Y236786D01*
X339586Y237386D01*
X339573Y237390D01*
X339453Y237435D01*
X338253Y237635D01*
X338226Y237633D01*
X338190Y237640D01*
X337490Y237640D01*
X337479Y237638D01*
X337465Y237639D01*
X335965Y237539D01*
X335928Y237528D01*
X335862Y237518D01*
X334462Y237018D01*
X334433Y236999D01*
X334386Y236981D01*
X333286Y236281D01*
X333259Y236253D01*
X333207Y236214D01*
X332307Y235214D01*
X332294Y235191D01*
X332269Y235164D01*
X331569Y234064D01*
X331557Y234028D01*
X331527Y233972D01*
X331127Y232672D01*
X331126Y232657D01*
X331118Y232640D01*
X330818Y231240D01*
X330819Y231216D01*
X330811Y231185D01*
X330711Y229685D01*
X330714Y229663D01*
X330711Y229633D01*
X330811Y228233D01*
X330818Y228209D01*
X330820Y228175D01*
X331120Y226875D01*
X331132Y226850D01*
X331139Y226814D01*
X331639Y225614D01*
X331649Y225599D01*
X331656Y225578D01*
X332256Y224478D01*
X332282Y224449D01*
X332321Y224391D01*
X333221Y223491D01*
X333243Y223478D01*
X333266Y223452D01*
X334366Y222652D01*
X334402Y222637D01*
X334470Y222599D01*
X335670Y222199D01*
X335700Y222196D01*
X335740Y222183D01*
X337240Y221983D01*
X337279Y221987D01*
X337353Y221985D01*
X339153Y222285D01*
X339189Y222300D01*
X339260Y222320D01*
X339390Y222385D01*
X339860Y222620D01*
X339870Y222628D01*
X339886Y222634D01*
X340886Y223234D01*
X340906Y223254D01*
X340987Y223322D01*
X341210Y223601D01*
X341210Y214360D01*
X341216Y214335D01*
X341213Y214309D01*
X341235Y214252D01*
X341249Y214191D01*
X341266Y214171D01*
X341275Y214147D01*
X341320Y214105D01*
X341359Y214058D01*
X341383Y214047D01*
X341402Y214030D01*
X341461Y214012D01*
X341518Y213987D01*
X341543Y213988D01*
X341568Y213980D01*
X341629Y213991D01*
G37*
G36*
X325620Y221987D02*
X325620Y221987D01*
X325665Y221987D01*
X326128Y222080D01*
X326590Y222080D01*
X326626Y222088D01*
X326682Y222091D01*
X327082Y222191D01*
X327102Y222201D01*
X327131Y222207D01*
X327631Y222407D01*
X327643Y222415D01*
X327660Y222420D01*
X328060Y222620D01*
X328076Y222633D01*
X328101Y222644D01*
X328381Y222831D01*
X328760Y223020D01*
X328789Y223044D01*
X328859Y223091D01*
X329159Y223391D01*
X329175Y223418D01*
X329206Y223449D01*
X329401Y223740D01*
X329694Y224132D01*
X329698Y224141D01*
X329706Y224149D01*
X329906Y224449D01*
X329907Y224450D01*
X329908Y224451D01*
X329963Y224585D01*
X330053Y225036D01*
X330230Y225390D01*
X330234Y225405D01*
X330243Y225418D01*
X330269Y225552D01*
X330270Y225559D01*
X330270Y225560D01*
X330270Y226022D01*
X330363Y226485D01*
X330363Y226495D01*
X330364Y226628D01*
X330164Y227728D01*
X330155Y227750D01*
X330151Y227780D01*
X329851Y228680D01*
X329834Y228707D01*
X329820Y228749D01*
X329420Y229449D01*
X329397Y229473D01*
X329337Y229549D01*
X328637Y230149D01*
X328611Y230163D01*
X328579Y230190D01*
X327879Y230590D01*
X327853Y230598D01*
X327824Y230616D01*
X327024Y230916D01*
X327005Y230919D01*
X326982Y230929D01*
X326182Y231129D01*
X326160Y231129D01*
X326132Y231138D01*
X325232Y231238D01*
X323438Y231437D01*
X322769Y231533D01*
X322103Y231723D01*
X321550Y231908D01*
X321150Y232148D01*
X320970Y232387D01*
X320970Y233270D01*
X321203Y233735D01*
X321259Y233791D01*
X321279Y233823D01*
X321330Y233890D01*
X321373Y233977D01*
X321780Y234180D01*
X321890Y234180D01*
X321905Y234183D01*
X321920Y234181D01*
X322052Y234218D01*
X322059Y234219D01*
X322059Y234220D01*
X322060Y234220D01*
X322180Y234280D01*
X323800Y234280D01*
X324665Y233848D01*
X324978Y233535D01*
X325038Y233414D01*
X325129Y233140D01*
X325142Y233120D01*
X325150Y233090D01*
X325210Y232970D01*
X325210Y232560D01*
X325221Y232510D01*
X325223Y232459D01*
X325241Y232427D01*
X325249Y232391D01*
X325282Y232352D01*
X325306Y232307D01*
X325336Y232286D01*
X325359Y232258D01*
X325406Y232237D01*
X325448Y232207D01*
X325490Y232199D01*
X325518Y232187D01*
X325548Y232188D01*
X325590Y232180D01*
X329490Y232180D01*
X329570Y232198D01*
X329650Y232215D01*
X329654Y232218D01*
X329659Y232219D01*
X329722Y232272D01*
X329786Y232322D01*
X329788Y232326D01*
X329792Y232329D01*
X329826Y232404D01*
X329861Y232478D01*
X329861Y232483D01*
X329863Y232488D01*
X329862Y232515D01*
X329865Y232623D01*
X329665Y233823D01*
X329655Y233846D01*
X329655Y233848D01*
X329654Y233868D01*
X329652Y233873D01*
X329651Y233880D01*
X329451Y234480D01*
X329431Y234512D01*
X329394Y234588D01*
X329106Y234972D01*
X328816Y235456D01*
X328804Y235468D01*
X328794Y235488D01*
X328494Y235888D01*
X328469Y235909D01*
X328462Y235922D01*
X328447Y235933D01*
X328418Y235964D01*
X328018Y236264D01*
X328002Y236271D01*
X327986Y236286D01*
X326986Y236886D01*
X326961Y236894D01*
X326931Y236913D01*
X326431Y237113D01*
X326402Y237117D01*
X326365Y237133D01*
X325888Y237228D01*
X325310Y237421D01*
X325285Y237423D01*
X325253Y237435D01*
X324659Y237534D01*
X324165Y237633D01*
X324133Y237632D01*
X324090Y237640D01*
X321790Y237640D01*
X321760Y237633D01*
X321715Y237633D01*
X321252Y237540D01*
X320690Y237540D01*
X320660Y237533D01*
X320615Y237533D01*
X320115Y237433D01*
X320089Y237421D01*
X320049Y237413D01*
X319581Y237226D01*
X319115Y237133D01*
X319089Y237121D01*
X319049Y237113D01*
X318549Y236913D01*
X318518Y236891D01*
X318462Y236864D01*
X317262Y235964D01*
X317237Y235934D01*
X317186Y235888D01*
X316886Y235488D01*
X316874Y235462D01*
X316850Y235430D01*
X316650Y235030D01*
X316647Y235016D01*
X316637Y235001D01*
X316437Y234501D01*
X316433Y234472D01*
X316417Y234435D01*
X316317Y233935D01*
X316318Y233903D01*
X316310Y233860D01*
X316310Y225250D01*
X316250Y225130D01*
X316246Y225115D01*
X316237Y225102D01*
X316211Y224968D01*
X316210Y224962D01*
X316210Y224961D01*
X316210Y224960D01*
X316210Y224150D01*
X316150Y224030D01*
X316146Y224015D01*
X316137Y224002D01*
X316128Y223956D01*
X316127Y223953D01*
X316127Y223951D01*
X316111Y223868D01*
X316110Y223862D01*
X316110Y223861D01*
X316110Y223860D01*
X316110Y223750D01*
X316050Y223630D01*
X316046Y223615D01*
X316037Y223602D01*
X316011Y223468D01*
X316010Y223462D01*
X316010Y223461D01*
X316010Y223460D01*
X316010Y223250D01*
X315978Y223185D01*
X315921Y223129D01*
X315881Y223064D01*
X315837Y223002D01*
X315835Y222990D01*
X315830Y222982D01*
X315826Y222945D01*
X315810Y222860D01*
X315810Y222760D01*
X315821Y222710D01*
X315823Y222659D01*
X315841Y222627D01*
X315849Y222591D01*
X315882Y222552D01*
X315906Y222507D01*
X315936Y222486D01*
X315959Y222458D01*
X316006Y222437D01*
X316048Y222407D01*
X316090Y222399D01*
X316118Y222387D01*
X316148Y222388D01*
X316190Y222380D01*
X320090Y222380D01*
X320140Y222391D01*
X320191Y222393D01*
X320223Y222411D01*
X320259Y222419D01*
X320298Y222452D01*
X320343Y222476D01*
X320364Y222506D01*
X320392Y222529D01*
X320413Y222576D01*
X320443Y222618D01*
X320451Y222660D01*
X320463Y222688D01*
X320463Y222698D01*
X320499Y222756D01*
X320543Y222818D01*
X320545Y222830D01*
X320550Y222838D01*
X320554Y222875D01*
X320556Y222889D01*
X320559Y222891D01*
X320599Y222956D01*
X320643Y223018D01*
X320645Y223030D01*
X320650Y223038D01*
X320654Y223075D01*
X320670Y223160D01*
X320670Y223309D01*
X320683Y223330D01*
X320821Y223191D01*
X320848Y223175D01*
X320879Y223144D01*
X321179Y222944D01*
X321215Y222930D01*
X321270Y222899D01*
X321522Y222815D01*
X321779Y222644D01*
X321815Y222630D01*
X321870Y222599D01*
X323070Y222199D01*
X323107Y222196D01*
X323190Y222180D01*
X323428Y222180D01*
X323670Y222099D01*
X323707Y222096D01*
X323790Y222080D01*
X324128Y222080D01*
X324370Y221999D01*
X324407Y221996D01*
X324490Y221980D01*
X325590Y221980D01*
X325620Y221987D01*
G37*
G36*
X294622Y222387D02*
X294622Y222387D01*
X294656Y222385D01*
X294706Y222407D01*
X294759Y222419D01*
X294784Y222440D01*
X294815Y222453D01*
X294862Y222505D01*
X294892Y222529D01*
X294899Y222545D01*
X294913Y222560D01*
X298569Y228466D01*
X299610Y227495D01*
X299610Y222760D01*
X299621Y222710D01*
X299623Y222659D01*
X299641Y222627D01*
X299649Y222591D01*
X299682Y222552D01*
X299706Y222507D01*
X299736Y222486D01*
X299759Y222458D01*
X299806Y222437D01*
X299848Y222407D01*
X299890Y222399D01*
X299918Y222387D01*
X299948Y222388D01*
X299990Y222380D01*
X303890Y222380D01*
X303940Y222391D01*
X303991Y222393D01*
X304023Y222411D01*
X304059Y222419D01*
X304098Y222452D01*
X304143Y222476D01*
X304164Y222506D01*
X304192Y222529D01*
X304213Y222576D01*
X304243Y222618D01*
X304251Y222660D01*
X304263Y222688D01*
X304262Y222718D01*
X304270Y222760D01*
X304270Y240160D01*
X304260Y240203D01*
X304260Y240248D01*
X304241Y240287D01*
X304231Y240329D01*
X304202Y240363D01*
X304182Y240403D01*
X304143Y240436D01*
X304121Y240462D01*
X304097Y240473D01*
X304070Y240495D01*
X300170Y242595D01*
X300115Y242610D01*
X300062Y242633D01*
X300032Y242632D01*
X300003Y242640D01*
X299947Y242629D01*
X299889Y242627D01*
X299863Y242612D01*
X299833Y242606D01*
X299788Y242571D01*
X299737Y242544D01*
X299720Y242519D01*
X299696Y242501D01*
X299670Y242449D01*
X299637Y242402D01*
X299631Y242368D01*
X299619Y242345D01*
X299620Y242310D01*
X299610Y242260D01*
X299610Y232805D01*
X295364Y237223D01*
X295297Y237267D01*
X295232Y237313D01*
X295224Y237314D01*
X295219Y237318D01*
X295186Y237322D01*
X295090Y237340D01*
X290490Y237340D01*
X290463Y237334D01*
X290436Y237336D01*
X290380Y237314D01*
X290321Y237301D01*
X290300Y237283D01*
X290274Y237273D01*
X290234Y237229D01*
X290188Y237191D01*
X290176Y237165D01*
X290158Y237145D01*
X290141Y237087D01*
X290117Y237032D01*
X290118Y237005D01*
X290110Y236978D01*
X290121Y236919D01*
X290123Y236859D01*
X290137Y236835D01*
X290142Y236808D01*
X290188Y236741D01*
X290206Y236707D01*
X290216Y236700D01*
X290224Y236689D01*
X295301Y231707D01*
X289572Y222968D01*
X289547Y222899D01*
X289517Y222832D01*
X289517Y222819D01*
X289513Y222806D01*
X289521Y222733D01*
X289523Y222659D01*
X289530Y222647D01*
X289531Y222634D01*
X289571Y222572D01*
X289606Y222507D01*
X289617Y222499D01*
X289625Y222488D01*
X289688Y222450D01*
X289748Y222407D01*
X289763Y222404D01*
X289773Y222398D01*
X289812Y222395D01*
X289890Y222380D01*
X294590Y222380D01*
X294622Y222387D01*
G37*
G36*
X255140Y222391D02*
X255140Y222391D01*
X255191Y222393D01*
X255223Y222411D01*
X255259Y222419D01*
X255298Y222452D01*
X255343Y222476D01*
X255364Y222506D01*
X255392Y222529D01*
X255413Y222576D01*
X255443Y222618D01*
X255451Y222660D01*
X255463Y222688D01*
X255462Y222718D01*
X255470Y222760D01*
X255470Y230736D01*
X255567Y231509D01*
X255666Y232203D01*
X255753Y232726D01*
X256006Y233148D01*
X256250Y233472D01*
X256629Y233700D01*
X257059Y233786D01*
X257598Y233876D01*
X258335Y233784D01*
X258856Y233697D01*
X259236Y233469D01*
X259577Y233042D01*
X259851Y232587D01*
X260118Y231962D01*
X260210Y231139D01*
X260210Y222760D01*
X260221Y222710D01*
X260223Y222659D01*
X260241Y222627D01*
X260249Y222591D01*
X260282Y222552D01*
X260306Y222507D01*
X260336Y222486D01*
X260359Y222458D01*
X260406Y222437D01*
X260448Y222407D01*
X260490Y222399D01*
X260518Y222387D01*
X260548Y222388D01*
X260590Y222380D01*
X264490Y222380D01*
X264540Y222391D01*
X264591Y222393D01*
X264623Y222411D01*
X264659Y222419D01*
X264698Y222452D01*
X264743Y222476D01*
X264764Y222506D01*
X264792Y222529D01*
X264813Y222576D01*
X264843Y222618D01*
X264851Y222660D01*
X264863Y222688D01*
X264862Y222718D01*
X264870Y222760D01*
X264870Y236960D01*
X264859Y237010D01*
X264857Y237061D01*
X264839Y237093D01*
X264831Y237129D01*
X264798Y237168D01*
X264774Y237213D01*
X264744Y237234D01*
X264721Y237262D01*
X264674Y237283D01*
X264632Y237313D01*
X264590Y237321D01*
X264562Y237333D01*
X264532Y237332D01*
X264490Y237340D01*
X260790Y237340D01*
X260740Y237329D01*
X260689Y237327D01*
X260657Y237309D01*
X260621Y237301D01*
X260582Y237268D01*
X260537Y237244D01*
X260516Y237214D01*
X260488Y237191D01*
X260467Y237144D01*
X260437Y237102D01*
X260429Y237060D01*
X260417Y237032D01*
X260418Y237002D01*
X260410Y236960D01*
X260410Y235978D01*
X260159Y236229D01*
X260143Y236239D01*
X260128Y236257D01*
X259628Y236657D01*
X259614Y236663D01*
X259601Y236676D01*
X259001Y237076D01*
X258965Y237090D01*
X258910Y237121D01*
X257710Y237521D01*
X257685Y237523D01*
X257653Y237535D01*
X257053Y237635D01*
X257026Y237633D01*
X256990Y237640D01*
X256390Y237640D01*
X256378Y237637D01*
X256363Y237639D01*
X254963Y237539D01*
X254933Y237530D01*
X254890Y237527D01*
X253790Y237227D01*
X253758Y237210D01*
X253705Y237192D01*
X252805Y236692D01*
X252777Y236666D01*
X252721Y236629D01*
X252021Y235929D01*
X252003Y235899D01*
X251968Y235862D01*
X251468Y235062D01*
X251455Y235025D01*
X251426Y234969D01*
X251126Y233969D01*
X251125Y233950D01*
X251116Y233928D01*
X250916Y232828D01*
X250917Y232811D01*
X250911Y232789D01*
X250811Y231489D01*
X250813Y231476D01*
X250810Y231460D01*
X250810Y222760D01*
X250821Y222710D01*
X250823Y222659D01*
X250841Y222627D01*
X250849Y222591D01*
X250882Y222552D01*
X250906Y222507D01*
X250936Y222486D01*
X250959Y222458D01*
X251006Y222437D01*
X251048Y222407D01*
X251090Y222399D01*
X251118Y222387D01*
X251148Y222388D01*
X251190Y222380D01*
X255090Y222380D01*
X255140Y222391D01*
G37*
G36*
X276117Y222081D02*
X276117Y222081D01*
X276154Y222092D01*
X276220Y222103D01*
X277320Y222503D01*
X277342Y222517D01*
X277375Y222528D01*
X278275Y223028D01*
X278298Y223049D01*
X278337Y223071D01*
X279037Y223671D01*
X279054Y223694D01*
X279122Y223775D01*
X279622Y224675D01*
X279632Y224708D01*
X279654Y224751D01*
X279954Y225751D01*
X279955Y225770D01*
X279964Y225792D01*
X280164Y226892D01*
X280163Y226921D01*
X280170Y226960D01*
X280170Y236960D01*
X280159Y237010D01*
X280157Y237061D01*
X280139Y237093D01*
X280131Y237129D01*
X280098Y237168D01*
X280074Y237213D01*
X280044Y237234D01*
X280021Y237262D01*
X279974Y237283D01*
X279932Y237313D01*
X279890Y237321D01*
X279862Y237333D01*
X279832Y237332D01*
X279790Y237340D01*
X275990Y237340D01*
X275940Y237329D01*
X275889Y237327D01*
X275857Y237309D01*
X275821Y237301D01*
X275782Y237268D01*
X275737Y237244D01*
X275716Y237214D01*
X275688Y237191D01*
X275667Y237144D01*
X275637Y237102D01*
X275629Y237060D01*
X275617Y237032D01*
X275618Y237002D01*
X275610Y236960D01*
X275610Y228984D01*
X275414Y227415D01*
X275330Y226914D01*
X274831Y226248D01*
X274451Y226020D01*
X274021Y225934D01*
X273482Y225844D01*
X272745Y225936D01*
X272224Y226023D01*
X271826Y226262D01*
X271503Y226585D01*
X271235Y227120D01*
X270961Y227760D01*
X270870Y228484D01*
X270870Y236960D01*
X270859Y237010D01*
X270857Y237061D01*
X270839Y237093D01*
X270831Y237129D01*
X270798Y237168D01*
X270774Y237213D01*
X270744Y237234D01*
X270721Y237262D01*
X270674Y237283D01*
X270632Y237313D01*
X270590Y237321D01*
X270562Y237333D01*
X270532Y237332D01*
X270490Y237340D01*
X266590Y237340D01*
X266540Y237329D01*
X266489Y237327D01*
X266457Y237309D01*
X266421Y237301D01*
X266382Y237268D01*
X266337Y237244D01*
X266316Y237214D01*
X266288Y237191D01*
X266267Y237144D01*
X266237Y237102D01*
X266229Y237060D01*
X266217Y237032D01*
X266218Y237002D01*
X266210Y236960D01*
X266210Y222760D01*
X266221Y222710D01*
X266223Y222659D01*
X266241Y222627D01*
X266249Y222591D01*
X266282Y222552D01*
X266306Y222507D01*
X266336Y222486D01*
X266359Y222458D01*
X266406Y222437D01*
X266448Y222407D01*
X266490Y222399D01*
X266518Y222387D01*
X266548Y222388D01*
X266590Y222380D01*
X270290Y222380D01*
X270340Y222391D01*
X270391Y222393D01*
X270423Y222411D01*
X270459Y222419D01*
X270498Y222452D01*
X270543Y222476D01*
X270564Y222506D01*
X270592Y222529D01*
X270613Y222576D01*
X270643Y222618D01*
X270651Y222660D01*
X270663Y222688D01*
X270662Y222718D01*
X270670Y222760D01*
X270670Y223701D01*
X270893Y223422D01*
X270920Y223401D01*
X270952Y223363D01*
X271452Y222963D01*
X271482Y222949D01*
X271520Y222920D01*
X272120Y222620D01*
X272134Y222617D01*
X272149Y222607D01*
X272649Y222407D01*
X272659Y222405D01*
X272670Y222399D01*
X273270Y222199D01*
X273299Y222197D01*
X273336Y222184D01*
X274033Y222084D01*
X274628Y221985D01*
X274663Y221987D01*
X274717Y221981D01*
X276117Y222081D01*
G37*
G36*
X354722Y222081D02*
X354722Y222081D01*
X354735Y222085D01*
X354753Y222085D01*
X355953Y222285D01*
X355968Y222292D01*
X355990Y222293D01*
X357090Y222593D01*
X357118Y222608D01*
X357160Y222620D01*
X357480Y222780D01*
X358160Y223120D01*
X358189Y223144D01*
X358240Y223174D01*
X359040Y223874D01*
X359058Y223899D01*
X359090Y223927D01*
X359790Y224827D01*
X359806Y224862D01*
X359843Y224919D01*
X360243Y225919D01*
X360248Y225953D01*
X360266Y226002D01*
X360466Y227302D01*
X360460Y227382D01*
X360457Y227461D01*
X360453Y227467D01*
X360452Y227475D01*
X360412Y227543D01*
X360374Y227613D01*
X360368Y227617D01*
X360364Y227624D01*
X360297Y227667D01*
X360232Y227713D01*
X360224Y227714D01*
X360218Y227718D01*
X360185Y227722D01*
X360090Y227740D01*
X356390Y227740D01*
X356340Y227729D01*
X356289Y227727D01*
X356257Y227709D01*
X356221Y227701D01*
X356182Y227668D01*
X356137Y227644D01*
X356116Y227614D01*
X356088Y227591D01*
X356067Y227544D01*
X356037Y227502D01*
X356029Y227460D01*
X356017Y227432D01*
X356018Y227402D01*
X356010Y227360D01*
X356010Y226833D01*
X355856Y226448D01*
X355618Y226132D01*
X354936Y225620D01*
X354428Y225535D01*
X354422Y225533D01*
X354415Y225533D01*
X353921Y225434D01*
X353406Y225348D01*
X353082Y225429D01*
X353046Y225429D01*
X352990Y225440D01*
X352637Y225440D01*
X352323Y225519D01*
X351991Y225685D01*
X351640Y225948D01*
X351433Y226154D01*
X351282Y226760D01*
X351349Y227027D01*
X351490Y227310D01*
X351802Y227544D01*
X352250Y227812D01*
X352796Y227995D01*
X354373Y228389D01*
X355365Y228587D01*
X355368Y228589D01*
X355373Y228589D01*
X356273Y228789D01*
X356293Y228799D01*
X356324Y228804D01*
X357124Y229104D01*
X357130Y229108D01*
X357140Y229111D01*
X357840Y229411D01*
X357855Y229422D01*
X357879Y229430D01*
X358579Y229830D01*
X358587Y229838D01*
X358601Y229844D01*
X359201Y230244D01*
X359202Y230245D01*
X359205Y230246D01*
X359306Y230349D01*
X359706Y230949D01*
X359717Y230977D01*
X359740Y231010D01*
X360040Y231710D01*
X360046Y231749D01*
X360052Y231768D01*
X360064Y231794D01*
X360064Y231804D01*
X360068Y231818D01*
X360168Y232718D01*
X360164Y232749D01*
X360169Y232792D01*
X360069Y233992D01*
X360057Y234029D01*
X360043Y234101D01*
X359643Y235101D01*
X359623Y235130D01*
X359576Y235210D01*
X358876Y236010D01*
X358857Y236024D01*
X358837Y236049D01*
X358137Y236649D01*
X358105Y236666D01*
X358060Y236700D01*
X357060Y237200D01*
X357023Y237209D01*
X356965Y237233D01*
X355965Y237433D01*
X355962Y237433D01*
X355958Y237434D01*
X354858Y237634D01*
X354829Y237633D01*
X354790Y237640D01*
X352490Y237640D01*
X352462Y237634D01*
X352422Y237634D01*
X351322Y237434D01*
X351305Y237427D01*
X351281Y237424D01*
X350281Y237124D01*
X350262Y237114D01*
X350236Y237107D01*
X349336Y236707D01*
X349308Y236687D01*
X349262Y236664D01*
X348462Y236064D01*
X348437Y236034D01*
X348386Y235988D01*
X347786Y235188D01*
X347774Y235162D01*
X347750Y235130D01*
X347250Y234130D01*
X347241Y234092D01*
X347215Y234023D01*
X347015Y232823D01*
X347020Y232741D01*
X347023Y232659D01*
X347026Y232655D01*
X347026Y232650D01*
X347067Y232579D01*
X347106Y232507D01*
X347110Y232504D01*
X347113Y232500D01*
X347181Y232454D01*
X347248Y232407D01*
X347253Y232406D01*
X347257Y232404D01*
X347285Y232400D01*
X347390Y232380D01*
X351090Y232380D01*
X351103Y232383D01*
X351117Y232381D01*
X351187Y232402D01*
X351259Y232419D01*
X351269Y232428D01*
X351282Y232432D01*
X351336Y232483D01*
X351392Y232529D01*
X351398Y232542D01*
X351408Y232551D01*
X351463Y232685D01*
X351556Y233151D01*
X351728Y233582D01*
X351864Y233786D01*
X352081Y233931D01*
X352446Y234113D01*
X352863Y234280D01*
X354428Y234280D01*
X354670Y234199D01*
X354683Y234198D01*
X354698Y234191D01*
X355084Y234095D01*
X355246Y234041D01*
X355510Y233645D01*
X355510Y233407D01*
X355440Y233127D01*
X355218Y232832D01*
X354889Y232585D01*
X354344Y232312D01*
X353805Y232133D01*
X353043Y232037D01*
X353024Y232030D01*
X352998Y232029D01*
X350602Y231430D01*
X349708Y231231D01*
X349672Y231214D01*
X349601Y231190D01*
X348201Y230390D01*
X348181Y230371D01*
X348147Y230352D01*
X347547Y229852D01*
X347523Y229821D01*
X347518Y229816D01*
X347517Y229815D01*
X347474Y229771D01*
X347074Y229171D01*
X347063Y229143D01*
X347041Y229110D01*
X346741Y228410D01*
X346734Y228371D01*
X346712Y228302D01*
X346612Y227402D01*
X346617Y227364D01*
X346614Y227302D01*
X346814Y226002D01*
X346826Y225973D01*
X346833Y225930D01*
X347233Y224830D01*
X347254Y224797D01*
X347286Y224732D01*
X347886Y223932D01*
X347911Y223911D01*
X347940Y223874D01*
X348740Y223174D01*
X348773Y223156D01*
X348820Y223120D01*
X349820Y222620D01*
X349850Y222613D01*
X349890Y222593D01*
X350990Y222293D01*
X351007Y222293D01*
X351028Y222285D01*
X352228Y222085D01*
X352242Y222086D01*
X352258Y222081D01*
X353458Y221981D01*
X353485Y221985D01*
X353522Y221981D01*
X354722Y222081D01*
G37*
G36*
X287540Y222391D02*
X287540Y222391D01*
X287591Y222393D01*
X287623Y222411D01*
X287659Y222419D01*
X287698Y222452D01*
X287743Y222476D01*
X287764Y222506D01*
X287792Y222529D01*
X287813Y222576D01*
X287843Y222618D01*
X287851Y222660D01*
X287863Y222688D01*
X287862Y222718D01*
X287870Y222760D01*
X287870Y233980D01*
X291390Y233980D01*
X291441Y233992D01*
X291494Y233994D01*
X291524Y234011D01*
X291559Y234019D01*
X291599Y234053D01*
X291645Y234078D01*
X291665Y234107D01*
X291692Y234129D01*
X291714Y234177D01*
X291744Y234221D01*
X291749Y234255D01*
X291763Y234288D01*
X291761Y234340D01*
X291769Y234392D01*
X291758Y234425D01*
X291757Y234461D01*
X291732Y234507D01*
X291715Y234557D01*
X291688Y234587D01*
X291674Y234613D01*
X291648Y234631D01*
X291618Y234664D01*
X291240Y234948D01*
X289659Y236529D01*
X289639Y236541D01*
X289618Y236564D01*
X289262Y236832D01*
X288994Y237188D01*
X288982Y237199D01*
X288974Y237213D01*
X288916Y237254D01*
X288861Y237299D01*
X288846Y237303D01*
X288832Y237313D01*
X288705Y237337D01*
X288693Y237340D01*
X288692Y237340D01*
X288690Y237340D01*
X287870Y237340D01*
X287870Y238960D01*
X287864Y238986D01*
X287846Y239094D01*
X287546Y239894D01*
X287542Y239900D01*
X287540Y239910D01*
X287240Y240610D01*
X287216Y240641D01*
X287182Y240703D01*
X286682Y241303D01*
X286652Y241326D01*
X286611Y241369D01*
X285911Y241869D01*
X285887Y241879D01*
X285860Y241900D01*
X285060Y242300D01*
X285033Y242307D01*
X284999Y242324D01*
X283999Y242624D01*
X283960Y242627D01*
X283890Y242640D01*
X280990Y242640D01*
X280975Y242637D01*
X280960Y242639D01*
X280828Y242602D01*
X280821Y242601D01*
X280821Y242600D01*
X280820Y242600D01*
X280620Y242500D01*
X280581Y242468D01*
X280537Y242444D01*
X280516Y242413D01*
X280487Y242389D01*
X280466Y242343D01*
X280437Y242302D01*
X280429Y242259D01*
X280416Y242231D01*
X280417Y242215D01*
X280418Y242201D01*
X280410Y242160D01*
X280410Y239360D01*
X280421Y239310D01*
X280423Y239259D01*
X280441Y239227D01*
X280449Y239191D01*
X280482Y239152D01*
X280506Y239107D01*
X280536Y239086D01*
X280559Y239058D01*
X280606Y239037D01*
X280648Y239007D01*
X280690Y238999D01*
X280718Y238987D01*
X280748Y238988D01*
X280790Y238980D01*
X282443Y238980D01*
X282757Y238901D01*
X283030Y238765D01*
X283161Y238569D01*
X283210Y238470D01*
X283210Y238160D01*
X283218Y238124D01*
X283221Y238068D01*
X283310Y237713D01*
X283310Y237340D01*
X280990Y237340D01*
X280940Y237329D01*
X280889Y237327D01*
X280857Y237309D01*
X280821Y237301D01*
X280782Y237268D01*
X280737Y237244D01*
X280716Y237214D01*
X280688Y237191D01*
X280667Y237144D01*
X280637Y237102D01*
X280629Y237060D01*
X280617Y237032D01*
X280618Y237002D01*
X280610Y236960D01*
X280610Y234360D01*
X280621Y234310D01*
X280623Y234259D01*
X280641Y234227D01*
X280649Y234191D01*
X280682Y234152D01*
X280706Y234107D01*
X280736Y234086D01*
X280759Y234058D01*
X280806Y234037D01*
X280848Y234007D01*
X280890Y233999D01*
X280918Y233987D01*
X280948Y233988D01*
X280990Y233980D01*
X283310Y233980D01*
X283310Y222760D01*
X283321Y222710D01*
X283323Y222659D01*
X283341Y222627D01*
X283349Y222591D01*
X283382Y222552D01*
X283406Y222507D01*
X283436Y222486D01*
X283459Y222458D01*
X283506Y222437D01*
X283548Y222407D01*
X283590Y222399D01*
X283618Y222387D01*
X283648Y222388D01*
X283690Y222380D01*
X287490Y222380D01*
X287540Y222391D01*
G37*
G36*
X314540Y222391D02*
X314540Y222391D01*
X314591Y222393D01*
X314623Y222411D01*
X314659Y222419D01*
X314698Y222452D01*
X314743Y222476D01*
X314764Y222506D01*
X314792Y222529D01*
X314813Y222576D01*
X314843Y222618D01*
X314851Y222660D01*
X314863Y222688D01*
X314862Y222718D01*
X314870Y222760D01*
X314870Y236260D01*
X314867Y236273D01*
X314869Y236287D01*
X314848Y236357D01*
X314831Y236429D01*
X314822Y236439D01*
X314818Y236452D01*
X314767Y236506D01*
X314721Y236562D01*
X314708Y236568D01*
X314699Y236578D01*
X314565Y236633D01*
X314073Y236731D01*
X313682Y236829D01*
X313646Y236829D01*
X313590Y236840D01*
X313128Y236840D01*
X312673Y236931D01*
X312282Y237029D01*
X312274Y237029D01*
X312265Y237033D01*
X311273Y237231D01*
X310882Y237329D01*
X310872Y237329D01*
X310862Y237333D01*
X310786Y237330D01*
X310709Y237332D01*
X310700Y237327D01*
X310689Y237327D01*
X310622Y237290D01*
X310553Y237257D01*
X310546Y237249D01*
X310537Y237244D01*
X310493Y237181D01*
X310445Y237121D01*
X310443Y237111D01*
X310437Y237102D01*
X310410Y236960D01*
X310410Y235544D01*
X310287Y235698D01*
X310284Y235700D01*
X310282Y235703D01*
X309782Y236303D01*
X309767Y236315D01*
X309763Y236322D01*
X309749Y236331D01*
X309728Y236357D01*
X309228Y236757D01*
X309204Y236768D01*
X309179Y236790D01*
X308479Y237190D01*
X308449Y237199D01*
X308410Y237221D01*
X307810Y237421D01*
X307803Y237421D01*
X307794Y237426D01*
X307094Y237626D01*
X307056Y237628D01*
X306990Y237640D01*
X305590Y237640D01*
X305516Y237623D01*
X305441Y237610D01*
X305431Y237603D01*
X305421Y237601D01*
X305392Y237577D01*
X305321Y237529D01*
X305320Y237528D01*
X305289Y237527D01*
X305257Y237509D01*
X305221Y237501D01*
X305182Y237468D01*
X305137Y237444D01*
X305116Y237414D01*
X305088Y237391D01*
X305067Y237344D01*
X305037Y237302D01*
X305029Y237260D01*
X305017Y237232D01*
X305018Y237202D01*
X305010Y237160D01*
X305010Y233560D01*
X305021Y233510D01*
X305023Y233459D01*
X305041Y233427D01*
X305049Y233391D01*
X305082Y233352D01*
X305106Y233307D01*
X305136Y233286D01*
X305159Y233258D01*
X305206Y233237D01*
X305248Y233207D01*
X305290Y233199D01*
X305318Y233187D01*
X305348Y233188D01*
X305390Y233180D01*
X305490Y233180D01*
X305505Y233183D01*
X305520Y233181D01*
X305652Y233218D01*
X305659Y233219D01*
X305659Y233220D01*
X305660Y233220D01*
X305780Y233280D01*
X306771Y233280D01*
X307725Y233184D01*
X308447Y233004D01*
X309042Y232664D01*
X309476Y232142D01*
X309837Y231511D01*
X310021Y230866D01*
X310210Y230018D01*
X310210Y222760D01*
X310221Y222710D01*
X310223Y222659D01*
X310241Y222627D01*
X310249Y222591D01*
X310282Y222552D01*
X310306Y222507D01*
X310336Y222486D01*
X310359Y222458D01*
X310406Y222437D01*
X310448Y222407D01*
X310490Y222399D01*
X310518Y222387D01*
X310548Y222388D01*
X310590Y222380D01*
X314490Y222380D01*
X314540Y222391D01*
G37*
%LPC*%
G36*
X572728Y84249D02*
X572728Y84249D01*
X572153Y84441D01*
X571869Y84914D01*
X571869Y92297D01*
X571967Y92983D01*
X572253Y93459D01*
X572825Y93650D01*
X573507Y93552D01*
X573976Y93365D01*
X574071Y92796D01*
X574071Y88700D01*
X574075Y88694D01*
X574072Y88690D01*
X574172Y88190D01*
X574181Y88182D01*
X574181Y88170D01*
X574195Y88170D01*
X574216Y88151D01*
X574222Y88158D01*
X574225Y88158D01*
X574242Y88170D01*
X574259Y88170D01*
X575459Y89770D01*
X575459Y89771D01*
X575460Y89771D01*
X577958Y93168D01*
X578343Y93554D01*
X579020Y93650D01*
X579697Y93554D01*
X580071Y93180D01*
X580071Y92500D01*
X580107Y92453D01*
X580115Y92459D01*
X580122Y92451D01*
X582222Y92551D01*
X582268Y92589D01*
X582263Y92595D01*
X582269Y92600D01*
X582269Y93180D01*
X582643Y93553D01*
X583420Y93650D01*
X584187Y93554D01*
X584174Y93517D01*
X584184Y93483D01*
X584181Y93470D01*
X584471Y93084D01*
X584471Y84909D01*
X584283Y84440D01*
X583712Y84249D01*
X582834Y84249D01*
X582365Y84531D01*
X582269Y85104D01*
X582269Y92500D01*
X582233Y92547D01*
X582225Y92541D01*
X582218Y92549D01*
X580118Y92449D01*
X580072Y92411D01*
X580075Y92408D01*
X580073Y92407D01*
X580075Y92403D01*
X580071Y92400D01*
X580071Y85004D01*
X579976Y84437D01*
X579412Y84249D01*
X578536Y84249D01*
X578162Y84530D01*
X577969Y85108D01*
X577969Y89200D01*
X577962Y89209D01*
X577967Y89216D01*
X577867Y89516D01*
X577859Y89521D01*
X577859Y89530D01*
X577846Y89530D01*
X577818Y89549D01*
X577807Y89534D01*
X577801Y89530D01*
X577780Y89529D01*
X574086Y84537D01*
X573606Y84249D01*
X572728Y84249D01*
G37*
%LPD*%
%LPC*%
G36*
X131898Y249349D02*
X131898Y249349D01*
X131319Y249831D01*
X131025Y250419D01*
X128827Y256816D01*
X128627Y257416D01*
X128578Y257449D01*
X128575Y257445D01*
X128571Y257448D01*
X128590Y257452D01*
X128629Y257497D01*
X128622Y257503D01*
X128628Y257510D01*
X128533Y257987D01*
X128910Y258459D01*
X129882Y258848D01*
X130445Y258660D01*
X130734Y258081D01*
X130933Y257484D01*
X130934Y257484D01*
X130933Y257484D01*
X132033Y254284D01*
X132233Y253684D01*
X132247Y253675D01*
X132252Y253659D01*
X132264Y253663D01*
X132278Y253654D01*
X132280Y253652D01*
X132281Y253652D01*
X132282Y253651D01*
X132286Y253656D01*
X132321Y253682D01*
X132327Y253684D01*
X133823Y258173D01*
X134303Y258654D01*
X134970Y258749D01*
X135447Y258462D01*
X135836Y257976D01*
X137133Y254084D01*
X137141Y254079D01*
X137139Y254073D01*
X137339Y253773D01*
X137349Y253769D01*
X137353Y253759D01*
X137366Y253763D01*
X137395Y253753D01*
X137403Y253777D01*
X137427Y253785D01*
X138923Y258374D01*
X139300Y258751D01*
X139970Y258751D01*
X140649Y258460D01*
X141028Y257986D01*
X140932Y257412D01*
X140733Y256816D01*
X140752Y256759D01*
X140760Y256762D01*
X140762Y256754D01*
X140788Y256744D01*
X140740Y256728D01*
X140743Y256719D01*
X140734Y256716D01*
X138535Y250419D01*
X138239Y249829D01*
X137760Y249349D01*
X137094Y249349D01*
X136616Y249636D01*
X136325Y250121D01*
X135026Y253816D01*
X135013Y253825D01*
X135015Y253835D01*
X134715Y254135D01*
X134709Y254136D01*
X134708Y254141D01*
X134697Y254137D01*
X134690Y254138D01*
X134685Y254144D01*
X134678Y254144D01*
X134673Y254141D01*
X134656Y254143D01*
X134653Y254125D01*
X134646Y254120D01*
X134633Y254116D01*
X133335Y250221D01*
X133043Y249735D01*
X132465Y249349D01*
X131898Y249349D01*
G37*
%LPD*%
%LPC*%
G36*
X412012Y211249D02*
X412012Y211249D01*
X411445Y211533D01*
X411350Y212200D01*
X411447Y212880D01*
X411826Y213354D01*
X412503Y213451D01*
X414900Y213451D01*
X414919Y213465D01*
X414941Y213472D01*
X414938Y213480D01*
X414947Y213487D01*
X414927Y213514D01*
X414916Y213547D01*
X414321Y213745D01*
X413829Y214040D01*
X413233Y214537D01*
X412737Y215033D01*
X412342Y215527D01*
X412046Y216118D01*
X411849Y216807D01*
X411849Y218090D01*
X412144Y218778D01*
X412442Y219274D01*
X412837Y219866D01*
X413327Y220258D01*
X413919Y220554D01*
X414508Y220751D01*
X415992Y220751D01*
X416581Y220554D01*
X417173Y220258D01*
X417663Y219866D01*
X418059Y219273D01*
X418453Y218682D01*
X418551Y218092D01*
X418651Y217397D01*
X418651Y216716D01*
X418373Y216346D01*
X417600Y216250D01*
X416827Y216346D01*
X416547Y216720D01*
X416449Y217407D01*
X416444Y217412D01*
X416447Y217416D01*
X416247Y218016D01*
X416233Y218025D01*
X416235Y218035D01*
X415735Y218535D01*
X415708Y218539D01*
X415700Y218549D01*
X415000Y218549D01*
X414987Y218540D01*
X414978Y218544D01*
X414378Y218244D01*
X414368Y218224D01*
X414356Y218222D01*
X414056Y217622D01*
X414059Y217606D01*
X414051Y217600D01*
X414051Y217000D01*
X414063Y216984D01*
X414059Y216973D01*
X414459Y216373D01*
X414466Y216370D01*
X414465Y216365D01*
X414865Y215965D01*
X414869Y215965D01*
X414868Y215962D01*
X415468Y215462D01*
X415475Y215462D01*
X415476Y215457D01*
X417272Y214459D01*
X417767Y214063D01*
X418259Y213571D01*
X418553Y212985D01*
X418651Y212392D01*
X418695Y212351D01*
X418699Y212355D01*
X418703Y212351D01*
X418722Y212352D01*
X418695Y212349D01*
X418651Y212308D01*
X418652Y212308D01*
X418651Y212308D01*
X418555Y211727D01*
X418080Y211347D01*
X417397Y211249D01*
X412012Y211249D01*
G37*
%LPD*%
%LPC*%
G36*
X414408Y160449D02*
X414408Y160449D01*
X413819Y160646D01*
X413227Y160942D01*
X412735Y161335D01*
X412342Y161827D01*
X412046Y162419D01*
X411648Y163611D01*
X411549Y164303D01*
X411549Y165797D01*
X411649Y166492D01*
X411748Y167089D01*
X411766Y167152D01*
X411808Y167299D01*
X411822Y167349D01*
X411864Y167496D01*
X411865Y167496D01*
X411864Y167496D01*
X411907Y167644D01*
X411921Y167693D01*
X411947Y167785D01*
X412145Y168378D01*
X412538Y168969D01*
X413033Y169463D01*
X413524Y169856D01*
X414111Y170052D01*
X414803Y170151D01*
X415497Y170151D01*
X416185Y170052D01*
X416778Y169756D01*
X417365Y169462D01*
X417658Y168975D01*
X417957Y168477D01*
X418254Y167882D01*
X418452Y167189D01*
X418551Y166592D01*
X418627Y166062D01*
X416443Y165854D01*
X416349Y166606D01*
X416345Y166610D01*
X416347Y166614D01*
X416147Y167314D01*
X416137Y167321D01*
X416139Y167330D01*
X415839Y167730D01*
X415821Y167735D01*
X415818Y167746D01*
X415318Y167946D01*
X415305Y167942D01*
X415300Y167949D01*
X414800Y167949D01*
X414787Y167940D01*
X414778Y167944D01*
X414378Y167744D01*
X414369Y167727D01*
X414358Y167725D01*
X414058Y167225D01*
X414059Y167216D01*
X414053Y167214D01*
X413853Y166514D01*
X413855Y166508D01*
X413851Y166505D01*
X413751Y165605D01*
X413753Y165603D01*
X413753Y165602D01*
X413751Y165600D01*
X413751Y164600D01*
X413754Y164596D01*
X413751Y164594D01*
X413851Y163794D01*
X413860Y163785D01*
X413856Y163778D01*
X414156Y163178D01*
X414166Y163173D01*
X414165Y163165D01*
X414565Y162765D01*
X414584Y162763D01*
X414588Y162752D01*
X414988Y162652D01*
X414996Y162656D01*
X415000Y162651D01*
X415300Y162651D01*
X415307Y162656D01*
X415312Y162652D01*
X415712Y162752D01*
X415724Y162767D01*
X415735Y162765D01*
X416135Y163165D01*
X416137Y163183D01*
X416147Y163186D01*
X416347Y163886D01*
X416345Y163892D01*
X416349Y163894D01*
X416449Y164694D01*
X416447Y164698D01*
X416449Y164700D01*
X416449Y165656D01*
X418648Y165918D01*
X418651Y165897D01*
X418651Y164404D01*
X418551Y163808D01*
X418552Y163807D01*
X418551Y163807D01*
X418452Y163111D01*
X418254Y162519D01*
X417958Y161927D01*
X417563Y161433D01*
X417071Y160941D01*
X416482Y160646D01*
X415793Y160449D01*
X414408Y160449D01*
G37*
%LPD*%
%LPC*%
G36*
X446498Y185849D02*
X446498Y185849D01*
X443803Y189925D01*
X443204Y191122D01*
X443184Y191132D01*
X443182Y191144D01*
X442782Y191344D01*
X442724Y191333D01*
X442725Y191324D01*
X442716Y191322D01*
X442116Y190122D01*
X442117Y190118D01*
X442114Y190116D01*
X442118Y190110D01*
X442126Y190069D01*
X442125Y190065D01*
X442425Y189765D01*
X442450Y189762D01*
X442453Y189758D01*
X442455Y189758D01*
X442460Y189751D01*
X443726Y189751D01*
X444389Y187949D01*
X441160Y187949D01*
X441127Y187924D01*
X441116Y187922D01*
X440223Y186137D01*
X439652Y185851D01*
X439077Y185947D01*
X438399Y186334D01*
X438206Y186818D01*
X438178Y186835D01*
X438173Y186848D01*
X438156Y186852D01*
X438160Y186852D01*
X438177Y186865D01*
X438203Y186876D01*
X438200Y186882D01*
X438207Y186884D01*
X438406Y187482D01*
X441604Y194178D01*
X441901Y194771D01*
X442384Y195254D01*
X442956Y195349D01*
X443533Y195157D01*
X444019Y194671D01*
X447215Y187980D01*
X447512Y187286D01*
X447608Y186714D01*
X447227Y186238D01*
X446547Y185849D01*
X446498Y185849D01*
G37*
%LPD*%
%LPC*%
G36*
X429985Y186442D02*
X429985Y186442D01*
X429982Y186442D01*
X429982Y186444D01*
X429389Y186741D01*
X428401Y187729D01*
X428104Y188322D01*
X427806Y188918D01*
X427609Y189607D01*
X427609Y190200D01*
X427606Y190204D01*
X427609Y190207D01*
X427509Y190907D01*
X427469Y190947D01*
X427562Y190951D01*
X427608Y190989D01*
X427603Y190995D01*
X427609Y191000D01*
X427609Y191593D01*
X427616Y191616D01*
X427658Y191764D01*
X427700Y191911D01*
X427714Y191961D01*
X427756Y192108D01*
X427757Y192108D01*
X427756Y192108D01*
X427799Y192256D01*
X427806Y192282D01*
X428102Y192873D01*
X428498Y193369D01*
X428895Y193865D01*
X429489Y194360D01*
X429983Y194657D01*
X430578Y194954D01*
X431271Y195152D01*
X431864Y195251D01*
X435146Y195251D01*
X435615Y194970D01*
X435711Y194396D01*
X435711Y187563D01*
X433418Y188136D01*
X433508Y188590D01*
X433505Y188597D01*
X433509Y188600D01*
X433509Y192700D01*
X433490Y192726D01*
X433490Y192739D01*
X433090Y193039D01*
X433068Y193039D01*
X433060Y193049D01*
X431760Y193049D01*
X431749Y193041D01*
X431741Y193045D01*
X431041Y192745D01*
X431036Y192737D01*
X431029Y192738D01*
X430529Y192338D01*
X430527Y192331D01*
X430522Y192331D01*
X430122Y191831D01*
X430121Y191823D01*
X430116Y191822D01*
X429816Y191222D01*
X429818Y191211D01*
X429811Y191207D01*
X429711Y190507D01*
X429716Y190498D01*
X429711Y190493D01*
X429811Y189793D01*
X429819Y189785D01*
X429816Y189778D01*
X430116Y189178D01*
X430123Y189175D01*
X430122Y189169D01*
X430522Y188669D01*
X430529Y188667D01*
X430529Y188662D01*
X431029Y188262D01*
X431033Y188261D01*
X431033Y188259D01*
X431298Y188082D01*
X430438Y186171D01*
X429985Y186442D01*
G37*
%LPD*%
%LPC*%
G36*
X337560Y225834D02*
X337560Y225834D01*
X336867Y226008D01*
X336363Y226428D01*
X336019Y226857D01*
X335743Y227502D01*
X335462Y228252D01*
X335370Y228984D01*
X335370Y230636D01*
X335462Y231368D01*
X335743Y232118D01*
X336018Y232759D01*
X336447Y233274D01*
X336972Y233624D01*
X337588Y233888D01*
X338387Y233977D01*
X339098Y233888D01*
X339800Y233625D01*
X340222Y233287D01*
X340662Y232759D01*
X340937Y232118D01*
X341218Y231368D01*
X341310Y230636D01*
X341310Y229007D01*
X340928Y227482D01*
X340669Y226877D01*
X340233Y226441D01*
X339708Y226004D01*
X339116Y225834D01*
X338293Y225743D01*
X337560Y225834D01*
G37*
%LPD*%
%LPC*%
G36*
X432227Y161142D02*
X432227Y161142D01*
X431733Y161537D01*
X431238Y162031D01*
X430843Y162625D01*
X430247Y163815D01*
X430149Y164408D01*
X430050Y165100D01*
X430149Y165793D01*
X430248Y166489D01*
X430446Y167081D01*
X430741Y167671D01*
X432229Y169159D01*
X432819Y169454D01*
X433415Y169653D01*
X434107Y169851D01*
X436798Y169851D01*
X437878Y169753D01*
X438251Y169380D01*
X438251Y162276D01*
X436049Y162838D01*
X436049Y167500D01*
X436013Y167547D01*
X436010Y167545D01*
X436008Y167549D01*
X435408Y167649D01*
X435403Y167646D01*
X435400Y167649D01*
X434700Y167649D01*
X434696Y167646D01*
X434693Y167649D01*
X433993Y167549D01*
X433985Y167541D01*
X433978Y167544D01*
X433378Y167244D01*
X433375Y167237D01*
X433369Y167238D01*
X432869Y166838D01*
X432866Y166824D01*
X432856Y166822D01*
X432556Y166222D01*
X432557Y166217D01*
X432553Y166216D01*
X432353Y165616D01*
X432357Y165605D01*
X432353Y165602D01*
X432351Y165600D01*
X432351Y164900D01*
X432354Y164896D01*
X432351Y164893D01*
X432451Y164193D01*
X432462Y164182D01*
X432459Y164173D01*
X432859Y163573D01*
X432862Y163572D01*
X432862Y163569D01*
X433262Y163069D01*
X433269Y163067D01*
X433269Y163062D01*
X433737Y162687D01*
X432779Y160866D01*
X432227Y161142D01*
G37*
%LPD*%
%LPC*%
G36*
X441812Y211249D02*
X441812Y211249D01*
X441035Y211638D01*
X440752Y212110D01*
X440847Y212685D01*
X441144Y213278D01*
X441144Y213279D01*
X444343Y219976D01*
X444732Y220559D01*
X445305Y220750D01*
X445977Y220654D01*
X446459Y220171D01*
X449954Y212882D01*
X450148Y212302D01*
X449960Y211832D01*
X449281Y211347D01*
X448803Y211267D01*
X446149Y215215D01*
X446149Y215700D01*
X446140Y215713D01*
X446144Y215722D01*
X445544Y216922D01*
X445507Y216941D01*
X445500Y216949D01*
X445400Y216949D01*
X445367Y216924D01*
X445356Y216922D01*
X444756Y215722D01*
X444757Y215716D01*
X444753Y215713D01*
X444758Y215706D01*
X444751Y215700D01*
X444751Y215212D01*
X443760Y213329D01*
X443365Y212935D01*
X443363Y212922D01*
X443355Y212921D01*
X442759Y211629D01*
X442380Y211249D01*
X441812Y211249D01*
G37*
%LPD*%
%LPC*%
G36*
X431533Y212537D02*
X431533Y212537D01*
X431041Y213029D01*
X430446Y214219D01*
X430248Y214811D01*
X430149Y215507D01*
X430050Y216200D01*
X430148Y216889D01*
X430347Y217484D01*
X430545Y218078D01*
X430940Y218671D01*
X431337Y219167D01*
X431831Y219662D01*
X432425Y220057D01*
X433019Y220354D01*
X433611Y220552D01*
X434303Y220651D01*
X437492Y220651D01*
X438063Y220461D01*
X438251Y219991D01*
X438251Y213388D01*
X436049Y213938D01*
X436049Y217900D01*
X436041Y217911D01*
X436046Y217918D01*
X435846Y218418D01*
X435805Y218443D01*
X435800Y218449D01*
X434400Y218449D01*
X434391Y218442D01*
X434384Y218447D01*
X433784Y218247D01*
X433781Y218242D01*
X433778Y218244D01*
X433178Y217944D01*
X433170Y217928D01*
X433159Y217927D01*
X432759Y217327D01*
X432759Y217326D01*
X432758Y217325D01*
X432458Y216825D01*
X432459Y216816D01*
X432453Y216814D01*
X432253Y216114D01*
X432255Y216108D01*
X432254Y216107D01*
X432257Y216102D01*
X432258Y216100D01*
X432251Y216093D01*
X432351Y215393D01*
X432356Y215388D01*
X432353Y215384D01*
X432553Y214784D01*
X432561Y214779D01*
X432559Y214773D01*
X432959Y214173D01*
X432969Y214169D01*
X432969Y214162D01*
X433429Y213794D01*
X431994Y212168D01*
X431533Y212537D01*
G37*
%LPD*%
%LPC*%
G36*
X441326Y160644D02*
X441326Y160644D01*
X440845Y161124D01*
X440751Y161595D01*
X441045Y162280D01*
X444244Y168978D01*
X444539Y169568D01*
X445017Y169951D01*
X445685Y169951D01*
X446263Y169565D01*
X446557Y169077D01*
X449855Y162380D01*
X450151Y161690D01*
X450151Y161223D01*
X449574Y160742D01*
X449097Y160538D01*
X446243Y164624D01*
X445745Y165819D01*
X445705Y165842D01*
X445700Y165849D01*
X445200Y165849D01*
X445163Y165821D01*
X445155Y165819D01*
X444655Y164619D01*
X444655Y164618D01*
X444654Y164617D01*
X444655Y164616D01*
X444656Y164615D01*
X444653Y164614D01*
X444059Y162537D01*
X443582Y162346D01*
X443569Y162324D01*
X443556Y162322D01*
X442958Y161127D01*
X442571Y160642D01*
X441999Y160452D01*
X441326Y160644D01*
G37*
%LPD*%
%LPC*%
G36*
X124303Y249447D02*
X124303Y249447D01*
X123926Y249823D01*
X123829Y250503D01*
X123829Y251800D01*
X123800Y251838D01*
X123798Y251846D01*
X123298Y252046D01*
X123285Y252042D01*
X123280Y252049D01*
X121880Y252049D01*
X121847Y252024D01*
X121836Y252022D01*
X121436Y251222D01*
X121436Y251220D01*
X121435Y251220D01*
X120741Y249634D01*
X120270Y249351D01*
X119596Y249447D01*
X118919Y249834D01*
X118732Y250303D01*
X118742Y250339D01*
X118784Y250486D01*
X118785Y250486D01*
X118784Y250486D01*
X118827Y250634D01*
X118841Y250683D01*
X118883Y250831D01*
X118925Y250979D01*
X118927Y250984D01*
X119125Y251480D01*
X119724Y252678D01*
X119720Y252700D01*
X119724Y252703D01*
X119723Y252704D01*
X119728Y252710D01*
X119628Y253210D01*
X119616Y253221D01*
X119618Y253231D01*
X119222Y253727D01*
X118928Y254315D01*
X118829Y255003D01*
X118829Y255697D01*
X118928Y256389D01*
X119125Y256978D01*
X119491Y257527D01*
X121223Y256084D01*
X121033Y255516D01*
X121038Y255500D01*
X121031Y255493D01*
X121131Y254793D01*
X121150Y254775D01*
X121149Y254762D01*
X121649Y254362D01*
X121667Y254361D01*
X121672Y254351D01*
X122272Y254251D01*
X122277Y254254D01*
X122280Y254251D01*
X123680Y254251D01*
X123713Y254276D01*
X123724Y254278D01*
X123824Y254478D01*
X123821Y254494D01*
X123829Y254500D01*
X123829Y256459D01*
X126031Y256872D01*
X126031Y250014D01*
X125748Y249542D01*
X125076Y249350D01*
X124303Y249447D01*
G37*
%LPD*%
%LPC*%
G36*
X426132Y160642D02*
X426132Y160642D01*
X425847Y161117D01*
X425749Y161704D01*
X425749Y163100D01*
X425713Y163147D01*
X425706Y163142D01*
X425700Y163149D01*
X423700Y163149D01*
X423665Y163123D01*
X423655Y163120D01*
X422655Y160920D01*
X422656Y160917D01*
X422653Y160916D01*
X422561Y160639D01*
X421999Y160452D01*
X421321Y160645D01*
X420744Y161030D01*
X420651Y161497D01*
X421046Y162681D01*
X421644Y163878D01*
X421640Y163900D01*
X421642Y163901D01*
X421639Y163904D01*
X421639Y163907D01*
X421646Y163918D01*
X421446Y164418D01*
X421437Y164424D01*
X421438Y164431D01*
X421043Y164926D01*
X420748Y165614D01*
X420649Y166204D01*
X420649Y166893D01*
X420653Y166905D01*
X420695Y167053D01*
X420737Y167201D01*
X420751Y167250D01*
X420793Y167398D01*
X420794Y167398D01*
X420793Y167398D01*
X420836Y167546D01*
X420846Y167582D01*
X421143Y168175D01*
X421537Y168766D01*
X422029Y169160D01*
X422583Y169529D01*
X423635Y167616D01*
X423073Y167241D01*
X423065Y167218D01*
X423053Y167214D01*
X422853Y166514D01*
X422860Y166494D01*
X422853Y166484D01*
X423053Y165884D01*
X423070Y165873D01*
X423069Y165862D01*
X423569Y165462D01*
X423588Y165461D01*
X423593Y165451D01*
X424293Y165351D01*
X424298Y165354D01*
X424300Y165351D01*
X425600Y165351D01*
X425643Y165383D01*
X425647Y165384D01*
X425734Y165646D01*
X427951Y165336D01*
X427951Y161603D01*
X427853Y160920D01*
X427573Y160546D01*
X426804Y160450D01*
X426132Y160642D01*
G37*
%LPD*%
%LPC*%
G36*
X425939Y211536D02*
X425939Y211536D01*
X425749Y212009D01*
X425749Y213400D01*
X425741Y213411D01*
X425746Y213418D01*
X425546Y213918D01*
X425505Y213943D01*
X425500Y213949D01*
X424100Y213949D01*
X424084Y213937D01*
X424073Y213941D01*
X423473Y213541D01*
X423466Y213522D01*
X423455Y213519D01*
X422658Y211628D01*
X422376Y211346D01*
X421806Y211251D01*
X421128Y211542D01*
X420649Y212020D01*
X420649Y212491D01*
X420846Y212982D01*
X420846Y212983D01*
X421146Y213781D01*
X421645Y214880D01*
X421636Y214920D01*
X421638Y214931D01*
X421240Y215428D01*
X420946Y215920D01*
X420748Y216610D01*
X420650Y217300D01*
X420748Y217989D01*
X420946Y218581D01*
X421242Y219173D01*
X421634Y219663D01*
X422188Y220033D01*
X422663Y219375D01*
X423340Y218303D01*
X422962Y217831D01*
X422961Y217812D01*
X422951Y217807D01*
X422851Y217107D01*
X422861Y217089D01*
X422856Y217078D01*
X423156Y216478D01*
X423176Y216468D01*
X423178Y216456D01*
X423778Y216156D01*
X423794Y216159D01*
X423800Y216151D01*
X425200Y216151D01*
X425221Y216167D01*
X425235Y216165D01*
X425718Y216648D01*
X427951Y216389D01*
X427951Y212204D01*
X427855Y211631D01*
X427384Y211348D01*
X426509Y211251D01*
X425939Y211536D01*
G37*
%LPD*%
%LPC*%
G36*
X419173Y185849D02*
X419173Y185849D01*
X418490Y186240D01*
X418113Y186617D01*
X418208Y187188D01*
X418406Y187783D01*
X418906Y189082D01*
X419106Y189582D01*
X419094Y189626D01*
X419095Y189635D01*
X418599Y190131D01*
X418307Y190617D01*
X418209Y191307D01*
X418110Y192000D01*
X418208Y192689D01*
X418405Y193278D01*
X418800Y193871D01*
X419164Y194326D01*
X420698Y192792D01*
X420418Y192325D01*
X420420Y192307D01*
X420411Y192300D01*
X420411Y191500D01*
X420422Y191485D01*
X420418Y191475D01*
X420718Y190975D01*
X420742Y190965D01*
X420746Y190953D01*
X421446Y190753D01*
X421456Y190756D01*
X421460Y190751D01*
X423160Y190751D01*
X423161Y190751D01*
X425411Y190803D01*
X425411Y186708D01*
X425221Y186137D01*
X424751Y185949D01*
X423869Y185949D01*
X423400Y186137D01*
X423209Y186708D01*
X423209Y188100D01*
X423196Y188118D01*
X423199Y188130D01*
X422899Y188530D01*
X422868Y188539D01*
X422860Y188549D01*
X421460Y188549D01*
X421439Y188533D01*
X421425Y188535D01*
X420925Y188035D01*
X420923Y188022D01*
X420915Y188020D01*
X420119Y186228D01*
X419740Y185849D01*
X419173Y185849D01*
G37*
%LPD*%
%LPC*%
G36*
X565228Y84249D02*
X565228Y84249D01*
X564659Y84439D01*
X564469Y85008D01*
X564469Y91800D01*
X564433Y91847D01*
X564426Y91842D01*
X564420Y91849D01*
X561634Y91849D01*
X561165Y92130D01*
X561070Y92799D01*
X561164Y93367D01*
X561732Y93651D01*
X569506Y93651D01*
X569975Y93370D01*
X570070Y92701D01*
X569976Y92133D01*
X569408Y91849D01*
X566720Y91849D01*
X566673Y91813D01*
X566678Y91806D01*
X566671Y91800D01*
X566671Y85008D01*
X566481Y84439D01*
X565912Y84249D01*
X565228Y84249D01*
G37*
%LPD*%
%LPC*%
G36*
X412280Y185849D02*
X412280Y185849D01*
X411906Y186224D01*
X411809Y186804D01*
X411809Y194297D01*
X411905Y194970D01*
X412374Y195251D01*
X413048Y195251D01*
X413634Y194958D01*
X414028Y194662D01*
X416021Y192769D01*
X416318Y192275D01*
X416345Y192264D01*
X416351Y192252D01*
X416367Y192249D01*
X416366Y192249D01*
X416327Y192226D01*
X416318Y192225D01*
X416020Y191729D01*
X415533Y191145D01*
X415065Y191051D01*
X414379Y191345D01*
X414355Y191339D01*
X414344Y191347D01*
X414044Y191247D01*
X414014Y191203D01*
X414011Y191200D01*
X414011Y186416D01*
X413730Y186042D01*
X413152Y185849D01*
X412280Y185849D01*
G37*
%LPD*%
%LPC*%
G36*
X148589Y249349D02*
X148589Y249349D01*
X148120Y249537D01*
X147929Y250108D01*
X147929Y251500D01*
X147916Y251518D01*
X147919Y251530D01*
X147619Y251930D01*
X147588Y251939D01*
X147580Y251949D01*
X146283Y251949D01*
X145588Y252049D01*
X145047Y252139D01*
X145811Y254241D01*
X146168Y254152D01*
X146176Y254156D01*
X146180Y254151D01*
X147480Y254151D01*
X147498Y254164D01*
X147510Y254161D01*
X147910Y254461D01*
X147919Y254492D01*
X147929Y254500D01*
X147929Y255900D01*
X147926Y255905D01*
X147929Y255908D01*
X147832Y256489D01*
X149328Y258707D01*
X149753Y258654D01*
X150033Y258281D01*
X150131Y257597D01*
X150131Y250208D01*
X149939Y249633D01*
X149466Y249349D01*
X148589Y249349D01*
G37*
%LPD*%
%LPC*%
G36*
X144405Y252543D02*
X144405Y252543D01*
X143814Y252937D01*
X143422Y253427D01*
X143126Y254019D01*
X142928Y254611D01*
X142829Y255303D01*
X142829Y255990D01*
X143125Y256679D01*
X143421Y257271D01*
X143913Y257763D01*
X144409Y258160D01*
X144998Y258553D01*
X145687Y258651D01*
X145688Y258652D01*
X145688Y258651D01*
X146284Y258751D01*
X148977Y258751D01*
X149218Y258721D01*
X147754Y256549D01*
X146480Y256549D01*
X146476Y256546D01*
X146473Y256549D01*
X145773Y256449D01*
X145760Y256436D01*
X145749Y256438D01*
X145249Y256038D01*
X145244Y256018D01*
X145233Y256014D01*
X145033Y255314D01*
X145040Y255294D01*
X145033Y255284D01*
X145233Y254684D01*
X145250Y254673D01*
X145249Y254662D01*
X145721Y254284D01*
X144953Y252268D01*
X144405Y252543D01*
G37*
%LPD*%
%LPC*%
G36*
X423209Y192800D02*
X423209Y192800D01*
X423190Y192826D01*
X423190Y192839D01*
X422790Y193139D01*
X422768Y193139D01*
X422760Y193149D01*
X421460Y193149D01*
X421449Y193141D01*
X421441Y193145D01*
X420771Y192858D01*
X419237Y194392D01*
X419785Y194757D01*
X420379Y195054D01*
X420971Y195252D01*
X421663Y195351D01*
X424354Y195351D01*
X425131Y195156D01*
X425411Y194784D01*
X425411Y190952D01*
X423209Y190852D01*
X423209Y192800D01*
G37*
%LPD*%
%LPC*%
G36*
X425749Y216744D02*
X425749Y216744D01*
X425749Y218100D01*
X425736Y218118D01*
X425739Y218130D01*
X425439Y218530D01*
X425408Y218539D01*
X425400Y218549D01*
X424100Y218549D01*
X424091Y218542D01*
X424084Y218547D01*
X423519Y218358D01*
X422744Y219431D01*
X422271Y220180D01*
X422819Y220454D01*
X423411Y220652D01*
X424103Y220751D01*
X426797Y220751D01*
X427573Y220654D01*
X427853Y220280D01*
X427951Y219696D01*
X427951Y216488D01*
X425749Y216744D01*
G37*
%LPD*%
%LPC*%
G36*
X425749Y165743D02*
X425749Y165743D01*
X425749Y167700D01*
X425713Y167747D01*
X425706Y167742D01*
X425700Y167749D01*
X424300Y167749D01*
X424295Y167746D01*
X424292Y167749D01*
X423726Y167654D01*
X422668Y169579D01*
X423215Y169853D01*
X423804Y169951D01*
X426497Y169951D01*
X427288Y169852D01*
X427761Y169663D01*
X427951Y169092D01*
X427951Y165436D01*
X425749Y165743D01*
G37*
%LPD*%
%LPC*%
G36*
X323728Y225340D02*
X323728Y225340D01*
X323265Y225433D01*
X323233Y225432D01*
X323190Y225440D01*
X322780Y225440D01*
X322460Y225600D01*
X322427Y225608D01*
X322382Y225629D01*
X322046Y225713D01*
X321832Y225856D01*
X321686Y226002D01*
X321506Y226271D01*
X321484Y226292D01*
X321459Y226329D01*
X321322Y226465D01*
X321151Y226980D01*
X321138Y227000D01*
X321130Y227030D01*
X321042Y227206D01*
X320970Y227422D01*
X320970Y229045D01*
X321220Y228920D01*
X321235Y228916D01*
X321248Y228907D01*
X321382Y228881D01*
X321389Y228880D01*
X321390Y228880D01*
X321500Y228880D01*
X321620Y228820D01*
X321635Y228816D01*
X321648Y228807D01*
X321782Y228781D01*
X321789Y228780D01*
X321790Y228780D01*
X322100Y228780D01*
X322220Y228720D01*
X322235Y228716D01*
X322248Y228707D01*
X322382Y228681D01*
X322389Y228680D01*
X322390Y228680D01*
X322528Y228680D01*
X322770Y228599D01*
X322807Y228596D01*
X322890Y228580D01*
X323228Y228580D01*
X323470Y228499D01*
X323507Y228496D01*
X323590Y228480D01*
X323900Y228480D01*
X324020Y228420D01*
X324035Y228416D01*
X324048Y228407D01*
X324182Y228381D01*
X324189Y228380D01*
X324190Y228380D01*
X324328Y228380D01*
X324544Y228308D01*
X324665Y228248D01*
X324721Y228191D01*
X324753Y228171D01*
X324820Y228120D01*
X325165Y227948D01*
X325221Y227891D01*
X325253Y227871D01*
X325320Y227820D01*
X325407Y227777D01*
X325610Y227370D01*
X325610Y227260D01*
X325613Y227245D01*
X325611Y227230D01*
X325648Y227098D01*
X325649Y227091D01*
X325650Y227091D01*
X325650Y227090D01*
X325710Y226970D01*
X325710Y226622D01*
X325629Y226380D01*
X325626Y226343D01*
X325610Y226260D01*
X325610Y226150D01*
X325578Y226085D01*
X325521Y226029D01*
X325513Y226015D01*
X325510Y226013D01*
X325507Y226005D01*
X325501Y225997D01*
X325450Y225930D01*
X325407Y225843D01*
X325320Y225800D01*
X325291Y225776D01*
X325221Y225729D01*
X325165Y225673D01*
X324900Y225540D01*
X324790Y225540D01*
X324775Y225537D01*
X324760Y225539D01*
X324628Y225502D01*
X324621Y225501D01*
X324621Y225500D01*
X324620Y225500D01*
X324500Y225440D01*
X324390Y225440D01*
X324375Y225437D01*
X324360Y225439D01*
X324228Y225402D01*
X324221Y225401D01*
X324221Y225400D01*
X324220Y225400D01*
X324145Y225363D01*
X324100Y225340D01*
X323728Y225340D01*
G37*
%LPD*%
%LPC*%
G36*
X433808Y211249D02*
X433808Y211249D01*
X433219Y211446D01*
X432078Y212016D01*
X433516Y213743D01*
X434384Y213453D01*
X434395Y213457D01*
X434400Y213451D01*
X435700Y213451D01*
X435726Y213470D01*
X435739Y213470D01*
X436020Y213844D01*
X438251Y213287D01*
X438251Y211716D01*
X437973Y211346D01*
X437297Y211249D01*
X433808Y211249D01*
G37*
%LPD*%
%LPC*%
G36*
X119560Y257601D02*
X119560Y257601D01*
X120009Y257960D01*
X120605Y258357D01*
X121198Y258654D01*
X121887Y258851D01*
X125272Y258851D01*
X125841Y258661D01*
X126031Y258092D01*
X126031Y257019D01*
X123779Y256550D01*
X123188Y256649D01*
X123183Y256646D01*
X123180Y256649D01*
X122480Y256649D01*
X122475Y256646D01*
X122472Y256649D01*
X121872Y256549D01*
X121865Y256541D01*
X121858Y256544D01*
X121286Y256258D01*
X119560Y257601D01*
G37*
%LPD*%
%LPC*%
G36*
X434103Y160449D02*
X434103Y160449D01*
X433415Y160548D01*
X432867Y160822D01*
X433830Y162651D01*
X435500Y162651D01*
X435506Y162655D01*
X435510Y162652D01*
X435999Y162750D01*
X438251Y162175D01*
X438251Y161208D01*
X438061Y160637D01*
X437591Y160449D01*
X434103Y160449D01*
G37*
%LPD*%
%LPC*%
G36*
X431863Y185849D02*
X431863Y185849D01*
X431171Y185948D01*
X430625Y186130D01*
X431393Y188051D01*
X433353Y188051D01*
X435711Y187412D01*
X435711Y186903D01*
X435614Y186223D01*
X435337Y185947D01*
X434557Y185849D01*
X431863Y185849D01*
G37*
%LPD*%
%LPC*%
G36*
X448331Y160545D02*
X448331Y160545D01*
X448044Y161023D01*
X447445Y162321D01*
X447420Y162334D01*
X447416Y162347D01*
X446816Y162547D01*
X446805Y162543D01*
X446800Y162549D01*
X444166Y162549D01*
X444734Y164441D01*
X445088Y164352D01*
X445096Y164356D01*
X445100Y164351D01*
X445800Y164351D01*
X445809Y164358D01*
X445814Y164358D01*
X445816Y164359D01*
X445822Y164356D01*
X446184Y164537D01*
X448955Y160477D01*
X448894Y160451D01*
X448331Y160545D01*
G37*
%LPD*%
%LPC*%
G36*
X448137Y211537D02*
X448137Y211537D01*
X447244Y213322D01*
X447207Y213341D01*
X447200Y213349D01*
X443978Y213349D01*
X444831Y215151D01*
X446074Y215151D01*
X448688Y211261D01*
X448137Y211537D01*
G37*
%LPD*%
%LPC*%
G36*
X445980Y185849D02*
X445980Y185849D01*
X445601Y186229D01*
X445005Y187521D01*
X444994Y187527D01*
X444995Y187535D01*
X444602Y187928D01*
X444003Y189351D01*
X446356Y185849D01*
X445980Y185849D01*
G37*
%LPD*%
%LPC*%
G36*
X438151Y186853D02*
X438151Y186853D01*
X438153Y186854D01*
X438155Y186852D01*
X438151Y186853D01*
G37*
%LPD*%
%LPC*%
G36*
X427461Y190946D02*
X427461Y190946D01*
X427464Y190946D01*
X427462Y190945D01*
X427461Y190946D01*
G37*
%LPD*%
D10*
X25400Y281940D02*
X50800Y281940D01*
X25400Y302260D02*
X25267Y302258D01*
X25134Y302252D01*
X25002Y302243D01*
X24869Y302229D01*
X24737Y302212D01*
X24606Y302191D01*
X24475Y302166D01*
X24346Y302137D01*
X24217Y302104D01*
X24089Y302068D01*
X23962Y302028D01*
X23836Y301984D01*
X23712Y301937D01*
X23589Y301886D01*
X23468Y301832D01*
X23348Y301774D01*
X23230Y301712D01*
X23114Y301647D01*
X23000Y301579D01*
X22888Y301508D01*
X22778Y301433D01*
X22670Y301355D01*
X22564Y301274D01*
X22461Y301190D01*
X22361Y301103D01*
X22263Y301014D01*
X22167Y300921D01*
X22074Y300825D01*
X21985Y300727D01*
X21898Y300627D01*
X21814Y300524D01*
X21733Y300418D01*
X21655Y300310D01*
X21580Y300200D01*
X21509Y300088D01*
X21441Y299974D01*
X21376Y299858D01*
X21314Y299740D01*
X21256Y299620D01*
X21202Y299499D01*
X21151Y299376D01*
X21104Y299252D01*
X21060Y299126D01*
X21020Y298999D01*
X20984Y298871D01*
X20951Y298742D01*
X20922Y298613D01*
X20897Y298482D01*
X20876Y298351D01*
X20859Y298219D01*
X20845Y298086D01*
X20836Y297954D01*
X20830Y297821D01*
X20828Y297688D01*
X50800Y302260D02*
X50933Y302258D01*
X51066Y302252D01*
X51198Y302243D01*
X51331Y302229D01*
X51463Y302212D01*
X51594Y302191D01*
X51725Y302166D01*
X51854Y302137D01*
X51983Y302104D01*
X52111Y302068D01*
X52238Y302028D01*
X52364Y301984D01*
X52488Y301937D01*
X52611Y301886D01*
X52732Y301832D01*
X52852Y301774D01*
X52970Y301712D01*
X53086Y301647D01*
X53200Y301579D01*
X53312Y301508D01*
X53422Y301433D01*
X53530Y301355D01*
X53636Y301274D01*
X53739Y301190D01*
X53839Y301103D01*
X53937Y301014D01*
X54033Y300921D01*
X54126Y300825D01*
X54215Y300727D01*
X54302Y300627D01*
X54386Y300524D01*
X54467Y300418D01*
X54545Y300310D01*
X54620Y300200D01*
X54691Y300088D01*
X54759Y299974D01*
X54824Y299858D01*
X54886Y299740D01*
X54944Y299620D01*
X54998Y299499D01*
X55049Y299376D01*
X55096Y299252D01*
X55140Y299126D01*
X55180Y298999D01*
X55216Y298871D01*
X55249Y298742D01*
X55278Y298613D01*
X55303Y298482D01*
X55324Y298351D01*
X55341Y298219D01*
X55355Y298086D01*
X55364Y297954D01*
X55370Y297821D01*
X55372Y297688D01*
X55372Y286512D02*
X55370Y286379D01*
X55364Y286246D01*
X55355Y286114D01*
X55341Y285981D01*
X55324Y285849D01*
X55303Y285718D01*
X55278Y285587D01*
X55249Y285458D01*
X55216Y285329D01*
X55180Y285201D01*
X55140Y285074D01*
X55096Y284948D01*
X55049Y284824D01*
X54998Y284701D01*
X54944Y284580D01*
X54886Y284460D01*
X54824Y284342D01*
X54759Y284226D01*
X54691Y284112D01*
X54620Y284000D01*
X54545Y283890D01*
X54467Y283782D01*
X54386Y283676D01*
X54302Y283573D01*
X54215Y283473D01*
X54126Y283375D01*
X54033Y283279D01*
X53937Y283186D01*
X53839Y283097D01*
X53739Y283010D01*
X53636Y282926D01*
X53530Y282845D01*
X53422Y282767D01*
X53312Y282692D01*
X53200Y282621D01*
X53086Y282553D01*
X52970Y282488D01*
X52852Y282426D01*
X52732Y282368D01*
X52611Y282314D01*
X52488Y282263D01*
X52364Y282216D01*
X52238Y282172D01*
X52111Y282132D01*
X51983Y282096D01*
X51854Y282063D01*
X51725Y282034D01*
X51594Y282009D01*
X51463Y281988D01*
X51331Y281971D01*
X51198Y281957D01*
X51066Y281948D01*
X50933Y281942D01*
X50800Y281940D01*
X25400Y281940D02*
X25267Y281942D01*
X25134Y281948D01*
X25002Y281957D01*
X24869Y281971D01*
X24737Y281988D01*
X24606Y282009D01*
X24475Y282034D01*
X24346Y282063D01*
X24217Y282096D01*
X24089Y282132D01*
X23962Y282172D01*
X23836Y282216D01*
X23712Y282263D01*
X23589Y282314D01*
X23468Y282368D01*
X23348Y282426D01*
X23230Y282488D01*
X23114Y282553D01*
X23000Y282621D01*
X22888Y282692D01*
X22778Y282767D01*
X22670Y282845D01*
X22564Y282926D01*
X22461Y283010D01*
X22361Y283097D01*
X22263Y283186D01*
X22167Y283279D01*
X22074Y283375D01*
X21985Y283473D01*
X21898Y283573D01*
X21814Y283676D01*
X21733Y283782D01*
X21655Y283890D01*
X21580Y284000D01*
X21509Y284112D01*
X21441Y284226D01*
X21376Y284342D01*
X21314Y284460D01*
X21256Y284580D01*
X21202Y284701D01*
X21151Y284824D01*
X21104Y284948D01*
X21060Y285074D01*
X21020Y285201D01*
X20984Y285329D01*
X20951Y285458D01*
X20922Y285587D01*
X20897Y285718D01*
X20876Y285849D01*
X20859Y285981D01*
X20845Y286114D01*
X20836Y286246D01*
X20830Y286379D01*
X20828Y286512D01*
X20828Y297688D01*
X55372Y297688D02*
X55372Y286512D01*
X50800Y302260D02*
X25400Y302260D01*
D11*
X328550Y213050D03*
X322250Y213050D03*
D12*
X362150Y212350D03*
X328550Y212350D03*
X322250Y212350D03*
D13*
X289700Y212350D03*
D14*
X275700Y212350D03*
D15*
X262400Y212350D03*
D12*
X249450Y212350D03*
D16*
X361800Y211600D03*
D17*
X328550Y211600D03*
X322250Y211600D03*
D18*
X289700Y211600D03*
D19*
X275350Y211600D03*
D20*
X262400Y211600D03*
D21*
X249450Y211600D03*
D22*
X361800Y210850D03*
D12*
X328550Y210850D03*
X322250Y210850D03*
D22*
X289700Y210850D03*
D23*
X275000Y210850D03*
D13*
X262400Y210850D03*
D24*
X249450Y210850D03*
D25*
X361800Y210200D03*
D26*
X328550Y210200D03*
X322250Y210200D03*
D27*
X289350Y210200D03*
X274650Y210200D03*
D28*
X262400Y210200D03*
D27*
X249450Y210200D03*
D29*
X361800Y209500D03*
D17*
X328550Y209500D03*
X322250Y209500D03*
D29*
X289700Y209500D03*
X274300Y209500D03*
D30*
X262400Y209500D03*
D31*
X249450Y209500D03*
D32*
X361800Y208750D03*
D33*
X328550Y208750D03*
X322250Y208750D03*
D34*
X290050Y208750D03*
X273950Y208750D03*
D13*
X262400Y208750D03*
D35*
X249450Y208750D03*
D36*
X361800Y208050D03*
D34*
X290750Y208050D03*
X273950Y208050D03*
D13*
X262400Y208050D03*
D35*
X249450Y208050D03*
D37*
X367050Y207400D03*
D38*
X356900Y207400D03*
X295300Y207400D03*
D39*
X285850Y207400D03*
D28*
X278500Y207400D03*
D37*
X269050Y207400D03*
D28*
X262400Y207400D03*
D38*
X254700Y207400D03*
X244200Y207400D03*
D40*
X367750Y206700D03*
X355850Y206700D03*
D20*
X349200Y206700D03*
D41*
X341850Y206700D03*
X334850Y206700D03*
D20*
X328900Y206700D03*
X322600Y206700D03*
D40*
X311750Y206700D03*
X295650Y206700D03*
D42*
X285500Y206700D03*
D30*
X278500Y206700D03*
X268700Y206700D03*
X262400Y206700D03*
D40*
X255050Y206700D03*
X243850Y206700D03*
D13*
X368100Y205950D03*
D43*
X355850Y205950D03*
D12*
X349550Y205950D03*
X341850Y205950D03*
X334850Y205950D03*
X328550Y205950D03*
X322250Y205950D03*
D44*
X311750Y205950D03*
D13*
X296000Y205950D03*
X278500Y205950D03*
X268700Y205950D03*
X262400Y205950D03*
D43*
X255750Y205950D03*
X243150Y205950D03*
D13*
X368800Y205250D03*
X355500Y205250D03*
X349200Y205250D03*
X342200Y205250D03*
X334500Y205250D03*
D12*
X328550Y205250D03*
X322250Y205250D03*
D24*
X311750Y205250D03*
D13*
X296700Y205250D03*
X278500Y205250D03*
X268700Y205250D03*
X262400Y205250D03*
X256100Y205250D03*
X242800Y205250D03*
X368800Y204550D03*
X355500Y204550D03*
X349200Y204550D03*
X342200Y204550D03*
D43*
X334850Y204550D03*
D12*
X328550Y204550D03*
X322250Y204550D03*
D22*
X312100Y204550D03*
D13*
X296700Y204550D03*
D45*
X286550Y204550D03*
D13*
X278500Y204550D03*
X268700Y204550D03*
X262400Y204550D03*
X256100Y204550D03*
X242800Y204550D03*
X368800Y203850D03*
D12*
X355150Y203850D03*
D13*
X349200Y203850D03*
D43*
X341850Y203850D03*
D13*
X335200Y203850D03*
D12*
X328550Y203850D03*
X322250Y203850D03*
D22*
X312100Y203850D03*
D13*
X296700Y203850D03*
D44*
X286550Y203850D03*
D13*
X278500Y203850D03*
D43*
X269050Y203850D03*
D13*
X262400Y203850D03*
X256100Y203850D03*
X242800Y203850D03*
X368800Y203150D03*
X354800Y203150D03*
X348500Y203150D03*
D14*
X342200Y203150D03*
D13*
X335200Y203150D03*
D12*
X328550Y203150D03*
X322250Y203150D03*
D46*
X312450Y203150D03*
D13*
X296700Y203150D03*
D44*
X286550Y203150D03*
D34*
X273950Y203150D03*
D13*
X262400Y203150D03*
X256100Y203150D03*
X242800Y203150D03*
X368800Y202450D03*
X354800Y202450D03*
X348500Y202450D03*
D23*
X339400Y202450D03*
D12*
X328550Y202450D03*
X322250Y202450D03*
D43*
X315250Y202450D03*
D47*
X309300Y202450D03*
D13*
X296700Y202450D03*
D44*
X286550Y202450D03*
D34*
X273950Y202450D03*
D13*
X262400Y202450D03*
X256100Y202450D03*
X242800Y202450D03*
D30*
X368800Y201800D03*
D17*
X355150Y201800D03*
D48*
X341850Y201800D03*
D17*
X328550Y201800D03*
X322250Y201800D03*
D40*
X315950Y201800D03*
D49*
X308950Y201800D03*
D30*
X296700Y201800D03*
D21*
X286550Y201800D03*
D31*
X273950Y201800D03*
D30*
X262400Y201800D03*
X256100Y201800D03*
X242800Y201800D03*
D13*
X368800Y201050D03*
X355500Y201050D03*
D36*
X342200Y201050D03*
D12*
X328550Y201050D03*
X322250Y201050D03*
D13*
X316300Y201050D03*
X296700Y201050D03*
D45*
X285850Y201050D03*
D50*
X274300Y201050D03*
D13*
X262400Y201050D03*
X256100Y201050D03*
X242800Y201050D03*
D43*
X368450Y200350D03*
D13*
X355500Y200350D03*
D35*
X341850Y200350D03*
D12*
X328550Y200350D03*
X322250Y200350D03*
D13*
X316300Y200350D03*
X296000Y200350D03*
X284800Y200350D03*
D51*
X274650Y200350D03*
D13*
X262400Y200350D03*
X256100Y200350D03*
X242800Y200350D03*
X368100Y199650D03*
D43*
X355850Y199650D03*
D35*
X341850Y199650D03*
D12*
X328550Y199650D03*
X322250Y199650D03*
D13*
X316300Y199650D03*
D43*
X295650Y199650D03*
D13*
X284800Y199650D03*
D46*
X275350Y199650D03*
D13*
X262400Y199650D03*
D43*
X255750Y199650D03*
D13*
X243500Y199650D03*
D43*
X367750Y198950D03*
X356550Y198950D03*
D32*
X342200Y198950D03*
D12*
X328550Y198950D03*
X322250Y198950D03*
D43*
X315950Y198950D03*
D33*
X308950Y198950D03*
D14*
X295300Y198950D03*
D13*
X284800Y198950D03*
D24*
X276050Y198950D03*
D13*
X262400Y198950D03*
D43*
X255050Y198950D03*
X243850Y198950D03*
D14*
X366700Y198250D03*
D52*
X356900Y198250D03*
D14*
X345700Y198250D03*
D45*
X338350Y198250D03*
D12*
X328550Y198250D03*
X322250Y198250D03*
D43*
X315250Y198250D03*
D47*
X309300Y198250D03*
D45*
X294250Y198250D03*
D43*
X285150Y198250D03*
D13*
X278500Y198250D03*
X262400Y198250D03*
D45*
X254350Y198250D03*
X244550Y198250D03*
D53*
X360750Y197550D03*
D14*
X345700Y197550D03*
D43*
X338350Y197550D03*
D12*
X328550Y197550D03*
X322250Y197550D03*
D46*
X312450Y197550D03*
D35*
X290050Y197550D03*
D13*
X278500Y197550D03*
X262400Y197550D03*
D35*
X249450Y197550D03*
D53*
X360050Y196850D03*
D43*
X345350Y196850D03*
X338350Y196850D03*
D12*
X328550Y196850D03*
X322250Y196850D03*
D22*
X312100Y196850D03*
D32*
X289700Y196850D03*
D13*
X278500Y196850D03*
X262400Y196850D03*
D34*
X249450Y196850D03*
D54*
X359700Y196200D03*
D28*
X345700Y196200D03*
D37*
X338350Y196200D03*
D26*
X328550Y196200D03*
X322250Y196200D03*
D55*
X312100Y196200D03*
D56*
X289700Y196200D03*
D28*
X278500Y196200D03*
X262400Y196200D03*
D27*
X249450Y196200D03*
D57*
X359350Y195450D03*
D13*
X345700Y195450D03*
D12*
X338350Y195450D03*
X328550Y195450D03*
X322250Y195450D03*
D24*
X311750Y195450D03*
D51*
X289350Y195450D03*
D13*
X278500Y195450D03*
X262400Y195450D03*
D46*
X249450Y195450D03*
D24*
X362150Y194750D03*
D12*
X353750Y194750D03*
D47*
X345700Y194750D03*
D12*
X338350Y194750D03*
X328550Y194750D03*
X322250Y194750D03*
D52*
X311400Y194750D03*
D24*
X289350Y194750D03*
D13*
X278500Y194750D03*
X262400Y194750D03*
D24*
X249450Y194750D03*
D58*
X362150Y194100D03*
D39*
X353750Y194100D03*
X345350Y194100D03*
X338350Y194100D03*
D59*
X328900Y194100D03*
X322600Y194100D03*
D37*
X311750Y194100D03*
D58*
X289350Y194100D03*
D59*
X278500Y194100D03*
X262400Y194100D03*
D58*
X249450Y194100D03*
D60*
X361800Y193350D03*
D33*
X289350Y193350D03*
D11*
X249450Y193350D03*
D61*
X573160Y325500D03*
D62*
X572560Y325100D03*
D63*
X572160Y324700D03*
D64*
X571760Y324300D03*
D65*
X571560Y323900D03*
D66*
X571360Y323500D03*
D67*
X571160Y323100D03*
D68*
X585960Y322700D03*
D69*
X576160Y322700D03*
D70*
X561360Y322700D03*
D71*
X586560Y322300D03*
X576160Y322300D03*
D72*
X567760Y322300D03*
D73*
X558160Y322300D03*
D74*
X586760Y321900D03*
D75*
X576160Y321900D03*
D76*
X567560Y321900D03*
D73*
X558160Y321900D03*
D77*
X586960Y321500D03*
D78*
X576360Y321500D03*
D79*
X567360Y321500D03*
D73*
X557760Y321500D03*
D77*
X586960Y321100D03*
D72*
X576560Y321100D03*
D80*
X567160Y321100D03*
D73*
X557760Y321100D03*
D81*
X587160Y320700D03*
D72*
X576960Y320700D03*
D80*
X567160Y320700D03*
D82*
X557560Y320700D03*
D81*
X587160Y320300D03*
D76*
X581160Y320300D03*
D83*
X577160Y320300D03*
D79*
X567360Y320300D03*
D82*
X557560Y320300D03*
D81*
X587160Y319900D03*
D83*
X581160Y319900D03*
D72*
X577360Y319900D03*
X571360Y319900D03*
D76*
X567560Y319900D03*
D82*
X557560Y319900D03*
D81*
X587160Y319500D03*
D71*
X579360Y319500D03*
D84*
X571160Y319500D03*
D85*
X567760Y319500D03*
D86*
X557360Y319500D03*
D81*
X587160Y319100D03*
D74*
X579160Y319100D03*
D87*
X570160Y319100D03*
D86*
X557360Y319100D03*
D81*
X587160Y318700D03*
X578760Y318700D03*
D68*
X570360Y318700D03*
D86*
X557360Y318700D03*
D81*
X587160Y318300D03*
D72*
X578160Y318300D03*
D68*
X570360Y318300D03*
D86*
X557360Y318300D03*
D77*
X586960Y317900D03*
D85*
X577760Y317900D03*
D68*
X570360Y317900D03*
D86*
X557360Y317900D03*
D74*
X586760Y317500D03*
D79*
X577360Y317500D03*
D68*
X570360Y317500D03*
D86*
X557360Y317500D03*
D71*
X586560Y317100D03*
D79*
X577360Y317100D03*
D68*
X570360Y317100D03*
D86*
X557360Y317100D03*
D87*
X586160Y316700D03*
D80*
X577160Y316700D03*
D68*
X570360Y316700D03*
D86*
X557360Y316700D03*
D69*
X585360Y316300D03*
D79*
X576960Y316300D03*
D68*
X570360Y316300D03*
D86*
X557360Y316300D03*
D88*
X584960Y315900D03*
D79*
X576960Y315900D03*
D68*
X570360Y315900D03*
D86*
X557360Y315900D03*
D77*
X586960Y315500D03*
D78*
X581560Y315500D03*
D79*
X576960Y315500D03*
D87*
X570160Y315500D03*
D86*
X557360Y315500D03*
D81*
X587160Y315100D03*
D72*
X581360Y315100D03*
D76*
X576760Y315100D03*
D89*
X571360Y315100D03*
D76*
X567560Y315100D03*
D82*
X557560Y315100D03*
D81*
X587160Y314700D03*
D83*
X581160Y314700D03*
D76*
X576760Y314700D03*
D85*
X571360Y314700D03*
D79*
X567360Y314700D03*
D82*
X557560Y314700D03*
D75*
X587360Y314300D03*
D85*
X576560Y314300D03*
D79*
X567360Y314300D03*
D82*
X557560Y314300D03*
D81*
X587160Y313900D03*
D85*
X576560Y313900D03*
D80*
X567160Y313900D03*
D90*
X555360Y313900D03*
D81*
X587160Y313500D03*
D72*
X576560Y313500D03*
D80*
X567160Y313500D03*
D90*
X555360Y313500D03*
D77*
X586960Y313100D03*
D84*
X576360Y313100D03*
D79*
X567360Y313100D03*
D68*
X555560Y313100D03*
D71*
X586560Y312700D03*
D81*
X576360Y312700D03*
D83*
X567560Y312700D03*
D68*
X555560Y312700D03*
D91*
X586360Y312300D03*
X576360Y312300D03*
D78*
X567960Y312300D03*
D68*
X555960Y312300D03*
D67*
X571160Y311900D03*
D66*
X571360Y311500D03*
D65*
X571560Y311100D03*
D64*
X571760Y310700D03*
D63*
X572160Y310300D03*
D62*
X572560Y309900D03*
D61*
X573160Y309500D03*
D64*
X570490Y300100D03*
D67*
X569890Y299700D03*
D92*
X569690Y299300D03*
D93*
X569290Y298900D03*
D94*
X569090Y298500D03*
D95*
X568890Y298100D03*
D96*
X568690Y297700D03*
D68*
X584690Y297300D03*
D97*
X563890Y297300D03*
D91*
X585090Y296900D03*
D72*
X576490Y296900D03*
D98*
X565490Y296900D03*
D99*
X554090Y296900D03*
D74*
X585490Y296500D03*
D85*
X576090Y296500D03*
D87*
X565290Y296500D03*
D100*
X553890Y296500D03*
D77*
X585690Y296100D03*
D76*
X575890Y296100D03*
D74*
X565090Y296100D03*
D99*
X553690Y296100D03*
D77*
X585690Y295700D03*
D76*
X575890Y295700D03*
D77*
X564890Y295700D03*
D99*
X553290Y295700D03*
D81*
X585890Y295300D03*
D76*
X575890Y295300D03*
D75*
X564890Y295300D03*
D99*
X553290Y295300D03*
D81*
X585890Y294900D03*
D76*
X579890Y294900D03*
D85*
X576090Y294900D03*
D84*
X564690Y294900D03*
D100*
X553090Y294900D03*
D81*
X585890Y294500D03*
D83*
X579890Y294500D03*
X576290Y294500D03*
X571490Y294500D03*
D84*
X564690Y294500D03*
D99*
X552890Y294500D03*
D81*
X585890Y294100D03*
D71*
X578090Y294100D03*
D78*
X571090Y294100D03*
X564690Y294100D03*
D99*
X552890Y294100D03*
D81*
X585890Y293700D03*
D74*
X577890Y293700D03*
D89*
X570890Y293700D03*
D78*
X564690Y293700D03*
D100*
X552690Y293700D03*
D81*
X585890Y293300D03*
X577490Y293300D03*
D84*
X570690Y293300D03*
D83*
X564690Y293300D03*
D100*
X552690Y293300D03*
D77*
X585690Y292900D03*
D78*
X576690Y292900D03*
D84*
X570690Y292900D03*
D83*
X564690Y292900D03*
D101*
X552490Y292900D03*
D77*
X585690Y292500D03*
D85*
X576090Y292500D03*
D75*
X570490Y292500D03*
D85*
X564890Y292500D03*
D80*
X560690Y292500D03*
D101*
X552490Y292500D03*
D74*
X585490Y292100D03*
D76*
X575890Y292100D03*
D75*
X570490Y292100D03*
D85*
X564890Y292100D03*
D80*
X560690Y292100D03*
D102*
X552290Y292100D03*
D71*
X585290Y291700D03*
D79*
X575690Y291700D03*
D75*
X570490Y291700D03*
D76*
X565090Y291700D03*
D79*
X560890Y291700D03*
D102*
X552290Y291700D03*
D68*
X584690Y291300D03*
D79*
X575690Y291300D03*
D84*
X570690Y291300D03*
D76*
X565090Y291300D03*
X560690Y291300D03*
D103*
X552090Y291300D03*
D69*
X584090Y290900D03*
D79*
X575690Y290900D03*
D84*
X570690Y290900D03*
D79*
X565290Y290900D03*
D103*
X552090Y290900D03*
D104*
X583490Y290500D03*
D79*
X575690Y290500D03*
D84*
X570690Y290500D03*
D76*
X565490Y290500D03*
D104*
X551890Y290500D03*
D77*
X585690Y290100D03*
D78*
X580290Y290100D03*
D80*
X575490Y290100D03*
D89*
X570890Y290100D03*
D79*
X565690Y290100D03*
D104*
X551890Y290100D03*
D81*
X585890Y289700D03*
D72*
X580090Y289700D03*
D79*
X575690Y289700D03*
D78*
X571090Y289700D03*
D79*
X565690Y289700D03*
D88*
X551690Y289700D03*
D81*
X585890Y289300D03*
D83*
X579890Y289300D03*
D79*
X575690Y289300D03*
D76*
X571490Y289300D03*
D79*
X566090Y289300D03*
D105*
X551890Y289300D03*
D81*
X585890Y288900D03*
D79*
X575690Y288900D03*
D76*
X566290Y288900D03*
D84*
X560690Y288900D03*
D69*
X551690Y288900D03*
D81*
X585890Y288500D03*
D79*
X575690Y288500D03*
D76*
X566690Y288500D03*
D75*
X560890Y288500D03*
D69*
X551690Y288500D03*
D77*
X585690Y288100D03*
D76*
X575890Y288100D03*
X566690Y288100D03*
D81*
X560690Y288100D03*
D90*
X551690Y288100D03*
D77*
X585690Y287700D03*
D85*
X576090Y287700D03*
D83*
X567090Y287700D03*
D77*
X560890Y287700D03*
D68*
X551890Y287700D03*
D71*
X585290Y287300D03*
D83*
X576290Y287300D03*
D72*
X567290Y287300D03*
D74*
X560690Y287300D03*
D68*
X551890Y287300D03*
D87*
X584890Y286900D03*
D89*
X576490Y286900D03*
D75*
X567690Y286900D03*
D71*
X560890Y286900D03*
D90*
X552490Y286900D03*
D96*
X568690Y286500D03*
D95*
X568890Y286100D03*
D94*
X569090Y285700D03*
D93*
X569290Y285300D03*
D92*
X569690Y284900D03*
D67*
X569890Y284500D03*
D64*
X570490Y284100D03*
D95*
X570160Y249300D03*
X570160Y248900D03*
X570160Y248500D03*
X570160Y248100D03*
X570160Y247700D03*
X570160Y247300D03*
X570160Y246900D03*
D69*
X585360Y246500D03*
D106*
X564760Y246500D03*
D90*
X585760Y246100D03*
D78*
X575960Y246100D03*
D81*
X569960Y246100D03*
D76*
X564760Y246100D03*
D90*
X554560Y246100D03*
D87*
X586160Y245700D03*
D85*
X575760Y245700D03*
D84*
X569960Y245700D03*
D79*
X564960Y245700D03*
D87*
X554160Y245700D03*
D91*
X586360Y245300D03*
D76*
X575560Y245300D03*
D89*
X569760Y245300D03*
D79*
X564960Y245300D03*
D91*
X553960Y245300D03*
D74*
X586760Y244900D03*
D76*
X575560Y244900D03*
D89*
X569760Y244900D03*
D79*
X564960Y244900D03*
D71*
X553760Y244900D03*
D74*
X586760Y244500D03*
D76*
X575560Y244500D03*
D78*
X569560Y244500D03*
D79*
X564960Y244500D03*
D74*
X553560Y244500D03*
D77*
X586960Y244100D03*
D76*
X575560Y244100D03*
D72*
X569360Y244100D03*
D79*
X564960Y244100D03*
D77*
X553360Y244100D03*
D81*
X587160Y243700D03*
D72*
X579760Y243700D03*
D85*
X575760Y243700D03*
D83*
X569160Y243700D03*
D79*
X564960Y243700D03*
D83*
X560360Y243700D03*
D81*
X553160Y243700D03*
X587160Y243300D03*
D68*
X578360Y243300D03*
D83*
X569160Y243300D03*
D79*
X564960Y243300D03*
D72*
X560160Y243300D03*
D81*
X553160Y243300D03*
X587160Y242900D03*
D90*
X578560Y242900D03*
D85*
X568960Y242900D03*
D79*
X564960Y242900D03*
D78*
X559960Y242900D03*
D75*
X552960Y242900D03*
X587360Y242500D03*
D90*
X578560Y242500D03*
D76*
X568760Y242500D03*
D79*
X564960Y242500D03*
D89*
X559760Y242500D03*
D75*
X552960Y242500D03*
X587360Y242100D03*
D72*
X581360Y242100D03*
D76*
X575560Y242100D03*
D79*
X568560Y242100D03*
X564960Y242100D03*
D84*
X559560Y242100D03*
D75*
X552960Y242100D03*
X587360Y241700D03*
D83*
X581560Y241700D03*
D79*
X575360Y241700D03*
X568560Y241700D03*
X564960Y241700D03*
D84*
X559560Y241700D03*
D75*
X552960Y241700D03*
X587360Y241300D03*
D83*
X581560Y241300D03*
D79*
X575360Y241300D03*
D107*
X571760Y241300D03*
D80*
X568360Y241300D03*
D79*
X564960Y241300D03*
D84*
X559560Y241300D03*
D75*
X552960Y241300D03*
X587360Y240900D03*
D83*
X581560Y240900D03*
D79*
X575360Y240900D03*
D80*
X571560Y240900D03*
D107*
X568160Y240900D03*
D79*
X564960Y240900D03*
D84*
X559560Y240900D03*
D75*
X552960Y240900D03*
X587360Y240500D03*
D83*
X581560Y240500D03*
D79*
X575360Y240500D03*
D80*
X571560Y240500D03*
D79*
X564960Y240500D03*
D84*
X559560Y240500D03*
D75*
X552960Y240500D03*
X587360Y240100D03*
D84*
X580360Y240100D03*
D79*
X575360Y240100D03*
X571360Y240100D03*
X564960Y240100D03*
D89*
X559760Y240100D03*
D75*
X552960Y240100D03*
D81*
X587160Y239700D03*
D84*
X580360Y239700D03*
D79*
X575360Y239700D03*
D76*
X571160Y239700D03*
D79*
X564960Y239700D03*
D89*
X559760Y239700D03*
D75*
X552960Y239700D03*
D81*
X587160Y239300D03*
D89*
X580160Y239300D03*
D79*
X575360Y239300D03*
D85*
X570960Y239300D03*
D79*
X564960Y239300D03*
D78*
X559960Y239300D03*
D81*
X553160Y239300D03*
X587160Y238900D03*
D78*
X579960Y238900D03*
D79*
X575360Y238900D03*
D85*
X570960Y238900D03*
D79*
X564960Y238900D03*
D72*
X560160Y238900D03*
D81*
X553160Y238900D03*
D77*
X586960Y238500D03*
D85*
X579760Y238500D03*
D79*
X575360Y238500D03*
D83*
X570760Y238500D03*
D79*
X564960Y238500D03*
D76*
X560760Y238500D03*
D77*
X553360Y238500D03*
X586960Y238100D03*
D79*
X575360Y238100D03*
D72*
X570560Y238100D03*
D79*
X564960Y238100D03*
D77*
X553360Y238100D03*
D74*
X586760Y237700D03*
D79*
X575360Y237700D03*
D78*
X570360Y237700D03*
D79*
X564960Y237700D03*
D74*
X553560Y237700D03*
D71*
X586560Y237300D03*
D79*
X575360Y237300D03*
D78*
X570360Y237300D03*
D79*
X564960Y237300D03*
D71*
X553760Y237300D03*
D91*
X586360Y236900D03*
D76*
X575560Y236900D03*
D89*
X570160Y236900D03*
D79*
X564960Y236900D03*
D91*
X553960Y236900D03*
D68*
X585960Y236500D03*
D83*
X575560Y236500D03*
D75*
X570160Y236500D03*
D76*
X564760Y236500D03*
D68*
X554360Y236500D03*
D98*
X585560Y236100D03*
D78*
X575960Y236100D03*
D81*
X569960Y236100D03*
D85*
X564960Y236100D03*
D69*
X554960Y236100D03*
D95*
X570160Y235700D03*
X570160Y235300D03*
X570160Y234900D03*
X570160Y234500D03*
X570160Y234100D03*
X570160Y233700D03*
X570160Y233300D03*
D66*
X569690Y274700D03*
X569690Y274300D03*
X569690Y273900D03*
X569690Y273500D03*
X569690Y273100D03*
X569690Y272700D03*
X569690Y272300D03*
D68*
X584290Y271900D03*
D70*
X569690Y271900D03*
D68*
X555090Y271900D03*
D71*
X584890Y271500D03*
D72*
X576090Y271500D03*
D71*
X569690Y271500D03*
D72*
X563290Y271500D03*
D71*
X554490Y271500D03*
D74*
X585090Y271100D03*
D85*
X576090Y271100D03*
D71*
X569690Y271100D03*
D85*
X563290Y271100D03*
D74*
X554290Y271100D03*
D77*
X585290Y270700D03*
D76*
X575890Y270700D03*
D77*
X569690Y270700D03*
D76*
X563490Y270700D03*
D77*
X554090Y270700D03*
D81*
X585490Y270300D03*
D79*
X575690Y270300D03*
D77*
X569690Y270300D03*
D79*
X563690Y270300D03*
D81*
X553890Y270300D03*
X585490Y269900D03*
D76*
X575490Y269900D03*
D81*
X569490Y269900D03*
D76*
X563890Y269900D03*
D81*
X553890Y269900D03*
X585490Y269500D03*
D80*
X579490Y269500D03*
D79*
X575290Y269500D03*
D75*
X569690Y269500D03*
D76*
X563890Y269500D03*
D80*
X559490Y269500D03*
D75*
X553690Y269500D03*
D81*
X585490Y269100D03*
D85*
X579690Y269100D03*
D76*
X575090Y269100D03*
D84*
X569490Y269100D03*
D85*
X564090Y269100D03*
X559690Y269100D03*
D75*
X553690Y269100D03*
D81*
X585490Y268700D03*
D72*
X579690Y268700D03*
D76*
X575090Y268700D03*
D89*
X569690Y268700D03*
D85*
X564090Y268700D03*
D72*
X559690Y268700D03*
D75*
X553690Y268700D03*
D74*
X585090Y268300D03*
D72*
X580090Y268300D03*
D85*
X574890Y268300D03*
D78*
X569490Y268300D03*
X563890Y268300D03*
D72*
X560090Y268300D03*
D75*
X553690Y268300D03*
D68*
X584290Y267900D03*
D83*
X575090Y267900D03*
D72*
X569690Y267900D03*
D81*
X563090Y267900D03*
X553890Y267900D03*
D68*
X584290Y267500D03*
D72*
X574890Y267500D03*
X569690Y267500D03*
D77*
X563290Y267500D03*
D81*
X553890Y267500D03*
D68*
X584290Y267100D03*
D78*
X575090Y267100D03*
D85*
X569690Y267100D03*
D77*
X563290Y267100D03*
X554090Y267100D03*
D68*
X584290Y266700D03*
D84*
X575090Y266700D03*
D85*
X569690Y266700D03*
D74*
X563490Y266700D03*
X554290Y266700D03*
D68*
X584290Y266300D03*
D78*
X574690Y266300D03*
D79*
X569690Y266300D03*
D74*
X563490Y266300D03*
D81*
X553890Y266300D03*
D68*
X584290Y265900D03*
D89*
X574490Y265900D03*
D79*
X569690Y265900D03*
D71*
X563690Y265900D03*
D81*
X553890Y265900D03*
D105*
X583490Y265500D03*
D78*
X574290Y265500D03*
D107*
X569690Y265500D03*
D90*
X562890Y265500D03*
D75*
X553690Y265500D03*
D81*
X585490Y265100D03*
D78*
X579890Y265100D03*
D89*
X574090Y265100D03*
D107*
X569690Y265100D03*
D84*
X565090Y265100D03*
D78*
X559890Y265100D03*
D75*
X553690Y265100D03*
X585690Y264700D03*
D72*
X579690Y264700D03*
D89*
X574090Y264700D03*
X565290Y264700D03*
D72*
X559690Y264700D03*
D75*
X553690Y264700D03*
X585690Y264300D03*
D72*
X579690Y264300D03*
D84*
X573890Y264300D03*
X565490Y264300D03*
D72*
X559690Y264300D03*
D75*
X553690Y264300D03*
X585690Y263900D03*
D85*
X579690Y263900D03*
D84*
X573890Y263900D03*
X565490Y263900D03*
D85*
X559690Y263900D03*
D75*
X553690Y263900D03*
X585690Y263500D03*
X573690Y263500D03*
X565690Y263500D03*
X553690Y263500D03*
X585690Y263100D03*
X573690Y263100D03*
X565690Y263100D03*
X553690Y263100D03*
D81*
X585490Y262700D03*
D77*
X573690Y262700D03*
X565690Y262700D03*
D81*
X553890Y262700D03*
D77*
X585290Y262300D03*
D74*
X573890Y262300D03*
X565490Y262300D03*
D77*
X554090Y262300D03*
D74*
X585090Y261900D03*
D91*
X573890Y261900D03*
X565490Y261900D03*
D74*
X554290Y261900D03*
D91*
X584690Y261500D03*
D90*
X574090Y261500D03*
X565290Y261500D03*
D91*
X554690Y261500D03*
D66*
X569690Y261100D03*
X569690Y260700D03*
X569690Y260300D03*
X569690Y259900D03*
X569690Y259500D03*
X569690Y259100D03*
X569690Y258700D03*
D108*
X572630Y147700D03*
D109*
X572830Y147300D03*
D110*
X573030Y146900D03*
D111*
X573230Y146500D03*
D75*
X586630Y146100D03*
D68*
X561630Y146100D03*
D84*
X586830Y145700D03*
D91*
X561630Y145700D03*
D84*
X586830Y145300D03*
D74*
X561630Y145300D03*
D84*
X586830Y144900D03*
D77*
X561830Y144900D03*
D84*
X586830Y144500D03*
D77*
X562230Y144500D03*
D75*
X586630Y144100D03*
D77*
X562630Y144100D03*
D112*
X574630Y143700D03*
D106*
X574830Y143300D03*
D113*
X575030Y142900D03*
D114*
X575230Y142500D03*
D81*
X586430Y142100D03*
D76*
X581630Y142100D03*
D84*
X577630Y142100D03*
D79*
X573430Y142100D03*
D72*
X563430Y142100D03*
D75*
X586630Y141700D03*
D79*
X581830Y141700D03*
D89*
X577430Y141700D03*
D80*
X573230Y141700D03*
D85*
X563430Y141700D03*
D75*
X586630Y141300D03*
D79*
X581830Y141300D03*
D78*
X577230Y141300D03*
D80*
X573230Y141300D03*
D76*
X563630Y141300D03*
D75*
X586630Y140900D03*
D79*
X581830Y140900D03*
D72*
X577030Y140900D03*
D80*
X573230Y140900D03*
D79*
X563830Y140900D03*
D75*
X586630Y140500D03*
D79*
X581830Y140500D03*
D72*
X577030Y140500D03*
D89*
X571830Y140500D03*
D75*
X565430Y140500D03*
X586630Y140100D03*
D79*
X581830Y140100D03*
D83*
X576830Y140100D03*
D84*
X571630Y140100D03*
D75*
X565430Y140100D03*
X586630Y139700D03*
D79*
X581830Y139700D03*
D85*
X576630Y139700D03*
D84*
X571630Y139700D03*
D75*
X565430Y139700D03*
X586630Y139300D03*
D79*
X581830Y139300D03*
D76*
X576430Y139300D03*
D84*
X571630Y139300D03*
D75*
X565430Y139300D03*
X586630Y138900D03*
D79*
X581830Y138900D03*
D76*
X576430Y138900D03*
D84*
X571630Y138900D03*
D75*
X565430Y138900D03*
X586630Y138500D03*
D79*
X581830Y138500D03*
X576230Y138500D03*
D84*
X571630Y138500D03*
D75*
X565430Y138500D03*
X586630Y138100D03*
D79*
X581830Y138100D03*
D107*
X579030Y138100D03*
D80*
X576030Y138100D03*
D84*
X571630Y138100D03*
D81*
X565230Y138100D03*
D75*
X586630Y137700D03*
D79*
X581830Y137700D03*
D80*
X578830Y137700D03*
D107*
X575830Y137700D03*
D84*
X571630Y137700D03*
D77*
X565030Y137700D03*
D75*
X586630Y137300D03*
D79*
X581830Y137300D03*
D80*
X578830Y137300D03*
D84*
X571630Y137300D03*
D74*
X564830Y137300D03*
D75*
X586630Y136900D03*
D79*
X581830Y136900D03*
X578630Y136900D03*
D84*
X571630Y136900D03*
D71*
X564630Y136900D03*
D75*
X586630Y136500D03*
D79*
X581830Y136500D03*
D76*
X578430Y136500D03*
D84*
X571630Y136500D03*
D91*
X564430Y136500D03*
D75*
X586630Y136100D03*
D79*
X581830Y136100D03*
D85*
X578230Y136100D03*
D84*
X571630Y136100D03*
D87*
X564230Y136100D03*
D75*
X586630Y135700D03*
D79*
X581830Y135700D03*
D85*
X578230Y135700D03*
D84*
X571630Y135700D03*
D68*
X564030Y135700D03*
D75*
X586630Y135300D03*
D79*
X581830Y135300D03*
D83*
X578030Y135300D03*
D84*
X571630Y135300D03*
D90*
X563830Y135300D03*
D75*
X586630Y134900D03*
D79*
X581830Y134900D03*
D72*
X577830Y134900D03*
D84*
X571630Y134900D03*
D98*
X563630Y134900D03*
D75*
X586630Y134500D03*
D79*
X581830Y134500D03*
D78*
X577630Y134500D03*
D84*
X571630Y134500D03*
D69*
X563430Y134500D03*
D75*
X586630Y134100D03*
D79*
X581830Y134100D03*
D78*
X577630Y134100D03*
D84*
X571630Y134100D03*
D105*
X563230Y134100D03*
D81*
X586430Y133700D03*
D79*
X581830Y133700D03*
D84*
X577630Y133700D03*
D75*
X571830Y133700D03*
D104*
X563230Y133700D03*
D115*
X573430Y133300D03*
D111*
X573230Y132900D03*
D110*
X573030Y132500D03*
D109*
X572830Y132100D03*
D108*
X572630Y131700D03*
D10*
X535940Y96520D02*
X535940Y81280D01*
X551688Y101092D02*
X551821Y101090D01*
X551954Y101084D01*
X552086Y101075D01*
X552219Y101061D01*
X552351Y101044D01*
X552482Y101023D01*
X552613Y100998D01*
X552742Y100969D01*
X552871Y100936D01*
X552999Y100900D01*
X553126Y100860D01*
X553252Y100816D01*
X553376Y100769D01*
X553499Y100718D01*
X553620Y100664D01*
X553740Y100606D01*
X553858Y100544D01*
X553974Y100479D01*
X554088Y100411D01*
X554200Y100340D01*
X554310Y100265D01*
X554418Y100187D01*
X554524Y100106D01*
X554627Y100022D01*
X554727Y99935D01*
X554825Y99846D01*
X554921Y99753D01*
X555014Y99657D01*
X555103Y99559D01*
X555190Y99459D01*
X555274Y99356D01*
X555355Y99250D01*
X555433Y99142D01*
X555508Y99032D01*
X555579Y98920D01*
X555647Y98806D01*
X555712Y98690D01*
X555774Y98572D01*
X555832Y98452D01*
X555886Y98331D01*
X555937Y98208D01*
X555984Y98084D01*
X556028Y97958D01*
X556068Y97831D01*
X556104Y97703D01*
X556137Y97574D01*
X556166Y97445D01*
X556191Y97314D01*
X556212Y97183D01*
X556229Y97051D01*
X556243Y96918D01*
X556252Y96786D01*
X556258Y96653D01*
X556260Y96520D01*
X556260Y81280D02*
X556258Y81147D01*
X556252Y81014D01*
X556243Y80882D01*
X556229Y80749D01*
X556212Y80617D01*
X556191Y80486D01*
X556166Y80355D01*
X556137Y80226D01*
X556104Y80097D01*
X556068Y79969D01*
X556028Y79842D01*
X555984Y79716D01*
X555937Y79592D01*
X555886Y79469D01*
X555832Y79348D01*
X555774Y79228D01*
X555712Y79110D01*
X555647Y78994D01*
X555579Y78880D01*
X555508Y78768D01*
X555433Y78658D01*
X555355Y78550D01*
X555274Y78444D01*
X555190Y78341D01*
X555103Y78241D01*
X555014Y78143D01*
X554921Y78047D01*
X554825Y77954D01*
X554727Y77865D01*
X554627Y77778D01*
X554524Y77694D01*
X554418Y77613D01*
X554310Y77535D01*
X554200Y77460D01*
X554088Y77389D01*
X553974Y77321D01*
X553858Y77256D01*
X553740Y77194D01*
X553620Y77136D01*
X553499Y77082D01*
X553376Y77031D01*
X553252Y76984D01*
X553126Y76940D01*
X552999Y76900D01*
X552871Y76864D01*
X552742Y76831D01*
X552613Y76802D01*
X552482Y76777D01*
X552351Y76756D01*
X552219Y76739D01*
X552086Y76725D01*
X551954Y76716D01*
X551821Y76710D01*
X551688Y76708D01*
X540512Y76708D02*
X540379Y76710D01*
X540246Y76716D01*
X540114Y76725D01*
X539981Y76739D01*
X539849Y76756D01*
X539718Y76777D01*
X539587Y76802D01*
X539458Y76831D01*
X539329Y76864D01*
X539201Y76900D01*
X539074Y76940D01*
X538948Y76984D01*
X538824Y77031D01*
X538701Y77082D01*
X538580Y77136D01*
X538460Y77194D01*
X538342Y77256D01*
X538226Y77321D01*
X538112Y77389D01*
X538000Y77460D01*
X537890Y77535D01*
X537782Y77613D01*
X537676Y77694D01*
X537573Y77778D01*
X537473Y77865D01*
X537375Y77954D01*
X537279Y78047D01*
X537186Y78143D01*
X537097Y78241D01*
X537010Y78341D01*
X536926Y78444D01*
X536845Y78550D01*
X536767Y78658D01*
X536692Y78768D01*
X536621Y78880D01*
X536553Y78994D01*
X536488Y79110D01*
X536426Y79228D01*
X536368Y79348D01*
X536314Y79469D01*
X536263Y79592D01*
X536216Y79716D01*
X536172Y79842D01*
X536132Y79969D01*
X536096Y80097D01*
X536063Y80226D01*
X536034Y80355D01*
X536009Y80486D01*
X535988Y80617D01*
X535971Y80749D01*
X535957Y80882D01*
X535948Y81014D01*
X535942Y81147D01*
X535940Y81280D01*
X535940Y96520D02*
X535942Y96653D01*
X535948Y96786D01*
X535957Y96918D01*
X535971Y97051D01*
X535988Y97183D01*
X536009Y97314D01*
X536034Y97445D01*
X536063Y97574D01*
X536096Y97703D01*
X536132Y97831D01*
X536172Y97958D01*
X536216Y98084D01*
X536263Y98208D01*
X536314Y98331D01*
X536368Y98452D01*
X536426Y98572D01*
X536488Y98690D01*
X536553Y98806D01*
X536621Y98920D01*
X536692Y99032D01*
X536767Y99142D01*
X536845Y99250D01*
X536926Y99356D01*
X537010Y99459D01*
X537097Y99559D01*
X537186Y99657D01*
X537279Y99753D01*
X537375Y99846D01*
X537473Y99935D01*
X537573Y100022D01*
X537676Y100106D01*
X537782Y100187D01*
X537890Y100265D01*
X538000Y100340D01*
X538112Y100411D01*
X538226Y100479D01*
X538342Y100544D01*
X538460Y100606D01*
X538580Y100664D01*
X538701Y100718D01*
X538824Y100769D01*
X538948Y100816D01*
X539074Y100860D01*
X539201Y100900D01*
X539329Y100936D01*
X539458Y100969D01*
X539587Y100998D01*
X539718Y101023D01*
X539849Y101044D01*
X539981Y101061D01*
X540114Y101075D01*
X540246Y101084D01*
X540379Y101090D01*
X540512Y101092D01*
X551688Y101092D01*
X551688Y76708D02*
X540512Y76708D01*
X556260Y81280D02*
X556260Y96520D01*
X401320Y175260D02*
X386080Y175260D01*
X405892Y159512D02*
X405890Y159379D01*
X405884Y159246D01*
X405875Y159114D01*
X405861Y158981D01*
X405844Y158849D01*
X405823Y158718D01*
X405798Y158587D01*
X405769Y158458D01*
X405736Y158329D01*
X405700Y158201D01*
X405660Y158074D01*
X405616Y157948D01*
X405569Y157824D01*
X405518Y157701D01*
X405464Y157580D01*
X405406Y157460D01*
X405344Y157342D01*
X405279Y157226D01*
X405211Y157112D01*
X405140Y157000D01*
X405065Y156890D01*
X404987Y156782D01*
X404906Y156676D01*
X404822Y156573D01*
X404735Y156473D01*
X404646Y156375D01*
X404553Y156279D01*
X404457Y156186D01*
X404359Y156097D01*
X404259Y156010D01*
X404156Y155926D01*
X404050Y155845D01*
X403942Y155767D01*
X403832Y155692D01*
X403720Y155621D01*
X403606Y155553D01*
X403490Y155488D01*
X403372Y155426D01*
X403252Y155368D01*
X403131Y155314D01*
X403008Y155263D01*
X402884Y155216D01*
X402758Y155172D01*
X402631Y155132D01*
X402503Y155096D01*
X402374Y155063D01*
X402245Y155034D01*
X402114Y155009D01*
X401983Y154988D01*
X401851Y154971D01*
X401718Y154957D01*
X401586Y154948D01*
X401453Y154942D01*
X401320Y154940D01*
X386080Y154940D02*
X385947Y154942D01*
X385814Y154948D01*
X385682Y154957D01*
X385549Y154971D01*
X385417Y154988D01*
X385286Y155009D01*
X385155Y155034D01*
X385026Y155063D01*
X384897Y155096D01*
X384769Y155132D01*
X384642Y155172D01*
X384516Y155216D01*
X384392Y155263D01*
X384269Y155314D01*
X384148Y155368D01*
X384028Y155426D01*
X383910Y155488D01*
X383794Y155553D01*
X383680Y155621D01*
X383568Y155692D01*
X383458Y155767D01*
X383350Y155845D01*
X383244Y155926D01*
X383141Y156010D01*
X383041Y156097D01*
X382943Y156186D01*
X382847Y156279D01*
X382754Y156375D01*
X382665Y156473D01*
X382578Y156573D01*
X382494Y156676D01*
X382413Y156782D01*
X382335Y156890D01*
X382260Y157000D01*
X382189Y157112D01*
X382121Y157226D01*
X382056Y157342D01*
X381994Y157460D01*
X381936Y157580D01*
X381882Y157701D01*
X381831Y157824D01*
X381784Y157948D01*
X381740Y158074D01*
X381700Y158201D01*
X381664Y158329D01*
X381631Y158458D01*
X381602Y158587D01*
X381577Y158718D01*
X381556Y158849D01*
X381539Y158981D01*
X381525Y159114D01*
X381516Y159246D01*
X381510Y159379D01*
X381508Y159512D01*
X381508Y170688D02*
X381510Y170821D01*
X381516Y170954D01*
X381525Y171086D01*
X381539Y171219D01*
X381556Y171351D01*
X381577Y171482D01*
X381602Y171613D01*
X381631Y171742D01*
X381664Y171871D01*
X381700Y171999D01*
X381740Y172126D01*
X381784Y172252D01*
X381831Y172376D01*
X381882Y172499D01*
X381936Y172620D01*
X381994Y172740D01*
X382056Y172858D01*
X382121Y172974D01*
X382189Y173088D01*
X382260Y173200D01*
X382335Y173310D01*
X382413Y173418D01*
X382494Y173524D01*
X382578Y173627D01*
X382665Y173727D01*
X382754Y173825D01*
X382847Y173921D01*
X382943Y174014D01*
X383041Y174103D01*
X383141Y174190D01*
X383244Y174274D01*
X383350Y174355D01*
X383458Y174433D01*
X383568Y174508D01*
X383680Y174579D01*
X383794Y174647D01*
X383910Y174712D01*
X384028Y174774D01*
X384148Y174832D01*
X384269Y174886D01*
X384392Y174937D01*
X384516Y174984D01*
X384642Y175028D01*
X384769Y175068D01*
X384897Y175104D01*
X385026Y175137D01*
X385155Y175166D01*
X385286Y175191D01*
X385417Y175212D01*
X385549Y175229D01*
X385682Y175243D01*
X385814Y175252D01*
X385947Y175258D01*
X386080Y175260D01*
X401320Y175260D02*
X401453Y175258D01*
X401586Y175252D01*
X401718Y175243D01*
X401851Y175229D01*
X401983Y175212D01*
X402114Y175191D01*
X402245Y175166D01*
X402374Y175137D01*
X402503Y175104D01*
X402631Y175068D01*
X402758Y175028D01*
X402884Y174984D01*
X403008Y174937D01*
X403131Y174886D01*
X403252Y174832D01*
X403372Y174774D01*
X403490Y174712D01*
X403606Y174647D01*
X403720Y174579D01*
X403832Y174508D01*
X403942Y174433D01*
X404050Y174355D01*
X404156Y174274D01*
X404259Y174190D01*
X404359Y174103D01*
X404457Y174014D01*
X404553Y173921D01*
X404646Y173825D01*
X404735Y173727D01*
X404822Y173627D01*
X404906Y173524D01*
X404987Y173418D01*
X405065Y173310D01*
X405140Y173200D01*
X405211Y173088D01*
X405279Y172974D01*
X405344Y172858D01*
X405406Y172740D01*
X405464Y172620D01*
X405518Y172499D01*
X405569Y172376D01*
X405616Y172252D01*
X405660Y172126D01*
X405700Y171999D01*
X405736Y171871D01*
X405769Y171742D01*
X405798Y171613D01*
X405823Y171482D01*
X405844Y171351D01*
X405861Y171219D01*
X405875Y171086D01*
X405884Y170954D01*
X405890Y170821D01*
X405892Y170688D01*
X405892Y159512D01*
X381508Y159512D02*
X381508Y170688D01*
X386080Y154940D02*
X401320Y154940D01*
X401320Y200660D02*
X386080Y200660D01*
X405892Y184912D02*
X405890Y184779D01*
X405884Y184646D01*
X405875Y184514D01*
X405861Y184381D01*
X405844Y184249D01*
X405823Y184118D01*
X405798Y183987D01*
X405769Y183858D01*
X405736Y183729D01*
X405700Y183601D01*
X405660Y183474D01*
X405616Y183348D01*
X405569Y183224D01*
X405518Y183101D01*
X405464Y182980D01*
X405406Y182860D01*
X405344Y182742D01*
X405279Y182626D01*
X405211Y182512D01*
X405140Y182400D01*
X405065Y182290D01*
X404987Y182182D01*
X404906Y182076D01*
X404822Y181973D01*
X404735Y181873D01*
X404646Y181775D01*
X404553Y181679D01*
X404457Y181586D01*
X404359Y181497D01*
X404259Y181410D01*
X404156Y181326D01*
X404050Y181245D01*
X403942Y181167D01*
X403832Y181092D01*
X403720Y181021D01*
X403606Y180953D01*
X403490Y180888D01*
X403372Y180826D01*
X403252Y180768D01*
X403131Y180714D01*
X403008Y180663D01*
X402884Y180616D01*
X402758Y180572D01*
X402631Y180532D01*
X402503Y180496D01*
X402374Y180463D01*
X402245Y180434D01*
X402114Y180409D01*
X401983Y180388D01*
X401851Y180371D01*
X401718Y180357D01*
X401586Y180348D01*
X401453Y180342D01*
X401320Y180340D01*
X386080Y180340D02*
X385947Y180342D01*
X385814Y180348D01*
X385682Y180357D01*
X385549Y180371D01*
X385417Y180388D01*
X385286Y180409D01*
X385155Y180434D01*
X385026Y180463D01*
X384897Y180496D01*
X384769Y180532D01*
X384642Y180572D01*
X384516Y180616D01*
X384392Y180663D01*
X384269Y180714D01*
X384148Y180768D01*
X384028Y180826D01*
X383910Y180888D01*
X383794Y180953D01*
X383680Y181021D01*
X383568Y181092D01*
X383458Y181167D01*
X383350Y181245D01*
X383244Y181326D01*
X383141Y181410D01*
X383041Y181497D01*
X382943Y181586D01*
X382847Y181679D01*
X382754Y181775D01*
X382665Y181873D01*
X382578Y181973D01*
X382494Y182076D01*
X382413Y182182D01*
X382335Y182290D01*
X382260Y182400D01*
X382189Y182512D01*
X382121Y182626D01*
X382056Y182742D01*
X381994Y182860D01*
X381936Y182980D01*
X381882Y183101D01*
X381831Y183224D01*
X381784Y183348D01*
X381740Y183474D01*
X381700Y183601D01*
X381664Y183729D01*
X381631Y183858D01*
X381602Y183987D01*
X381577Y184118D01*
X381556Y184249D01*
X381539Y184381D01*
X381525Y184514D01*
X381516Y184646D01*
X381510Y184779D01*
X381508Y184912D01*
X381508Y196088D02*
X381510Y196221D01*
X381516Y196354D01*
X381525Y196486D01*
X381539Y196619D01*
X381556Y196751D01*
X381577Y196882D01*
X381602Y197013D01*
X381631Y197142D01*
X381664Y197271D01*
X381700Y197399D01*
X381740Y197526D01*
X381784Y197652D01*
X381831Y197776D01*
X381882Y197899D01*
X381936Y198020D01*
X381994Y198140D01*
X382056Y198258D01*
X382121Y198374D01*
X382189Y198488D01*
X382260Y198600D01*
X382335Y198710D01*
X382413Y198818D01*
X382494Y198924D01*
X382578Y199027D01*
X382665Y199127D01*
X382754Y199225D01*
X382847Y199321D01*
X382943Y199414D01*
X383041Y199503D01*
X383141Y199590D01*
X383244Y199674D01*
X383350Y199755D01*
X383458Y199833D01*
X383568Y199908D01*
X383680Y199979D01*
X383794Y200047D01*
X383910Y200112D01*
X384028Y200174D01*
X384148Y200232D01*
X384269Y200286D01*
X384392Y200337D01*
X384516Y200384D01*
X384642Y200428D01*
X384769Y200468D01*
X384897Y200504D01*
X385026Y200537D01*
X385155Y200566D01*
X385286Y200591D01*
X385417Y200612D01*
X385549Y200629D01*
X385682Y200643D01*
X385814Y200652D01*
X385947Y200658D01*
X386080Y200660D01*
X401320Y200660D02*
X401453Y200658D01*
X401586Y200652D01*
X401718Y200643D01*
X401851Y200629D01*
X401983Y200612D01*
X402114Y200591D01*
X402245Y200566D01*
X402374Y200537D01*
X402503Y200504D01*
X402631Y200468D01*
X402758Y200428D01*
X402884Y200384D01*
X403008Y200337D01*
X403131Y200286D01*
X403252Y200232D01*
X403372Y200174D01*
X403490Y200112D01*
X403606Y200047D01*
X403720Y199979D01*
X403832Y199908D01*
X403942Y199833D01*
X404050Y199755D01*
X404156Y199674D01*
X404259Y199590D01*
X404359Y199503D01*
X404457Y199414D01*
X404553Y199321D01*
X404646Y199225D01*
X404735Y199127D01*
X404822Y199027D01*
X404906Y198924D01*
X404987Y198818D01*
X405065Y198710D01*
X405140Y198600D01*
X405211Y198488D01*
X405279Y198374D01*
X405344Y198258D01*
X405406Y198140D01*
X405464Y198020D01*
X405518Y197899D01*
X405569Y197776D01*
X405616Y197652D01*
X405660Y197526D01*
X405700Y197399D01*
X405736Y197271D01*
X405769Y197142D01*
X405798Y197013D01*
X405823Y196882D01*
X405844Y196751D01*
X405861Y196619D01*
X405875Y196486D01*
X405884Y196354D01*
X405890Y196221D01*
X405892Y196088D01*
X405892Y184912D01*
X381508Y184912D02*
X381508Y196088D01*
X386080Y180340D02*
X401320Y180340D01*
X401320Y226060D02*
X386080Y226060D01*
X405892Y210312D02*
X405890Y210179D01*
X405884Y210046D01*
X405875Y209914D01*
X405861Y209781D01*
X405844Y209649D01*
X405823Y209518D01*
X405798Y209387D01*
X405769Y209258D01*
X405736Y209129D01*
X405700Y209001D01*
X405660Y208874D01*
X405616Y208748D01*
X405569Y208624D01*
X405518Y208501D01*
X405464Y208380D01*
X405406Y208260D01*
X405344Y208142D01*
X405279Y208026D01*
X405211Y207912D01*
X405140Y207800D01*
X405065Y207690D01*
X404987Y207582D01*
X404906Y207476D01*
X404822Y207373D01*
X404735Y207273D01*
X404646Y207175D01*
X404553Y207079D01*
X404457Y206986D01*
X404359Y206897D01*
X404259Y206810D01*
X404156Y206726D01*
X404050Y206645D01*
X403942Y206567D01*
X403832Y206492D01*
X403720Y206421D01*
X403606Y206353D01*
X403490Y206288D01*
X403372Y206226D01*
X403252Y206168D01*
X403131Y206114D01*
X403008Y206063D01*
X402884Y206016D01*
X402758Y205972D01*
X402631Y205932D01*
X402503Y205896D01*
X402374Y205863D01*
X402245Y205834D01*
X402114Y205809D01*
X401983Y205788D01*
X401851Y205771D01*
X401718Y205757D01*
X401586Y205748D01*
X401453Y205742D01*
X401320Y205740D01*
X386080Y205740D02*
X385947Y205742D01*
X385814Y205748D01*
X385682Y205757D01*
X385549Y205771D01*
X385417Y205788D01*
X385286Y205809D01*
X385155Y205834D01*
X385026Y205863D01*
X384897Y205896D01*
X384769Y205932D01*
X384642Y205972D01*
X384516Y206016D01*
X384392Y206063D01*
X384269Y206114D01*
X384148Y206168D01*
X384028Y206226D01*
X383910Y206288D01*
X383794Y206353D01*
X383680Y206421D01*
X383568Y206492D01*
X383458Y206567D01*
X383350Y206645D01*
X383244Y206726D01*
X383141Y206810D01*
X383041Y206897D01*
X382943Y206986D01*
X382847Y207079D01*
X382754Y207175D01*
X382665Y207273D01*
X382578Y207373D01*
X382494Y207476D01*
X382413Y207582D01*
X382335Y207690D01*
X382260Y207800D01*
X382189Y207912D01*
X382121Y208026D01*
X382056Y208142D01*
X381994Y208260D01*
X381936Y208380D01*
X381882Y208501D01*
X381831Y208624D01*
X381784Y208748D01*
X381740Y208874D01*
X381700Y209001D01*
X381664Y209129D01*
X381631Y209258D01*
X381602Y209387D01*
X381577Y209518D01*
X381556Y209649D01*
X381539Y209781D01*
X381525Y209914D01*
X381516Y210046D01*
X381510Y210179D01*
X381508Y210312D01*
X381508Y221488D02*
X381510Y221621D01*
X381516Y221754D01*
X381525Y221886D01*
X381539Y222019D01*
X381556Y222151D01*
X381577Y222282D01*
X381602Y222413D01*
X381631Y222542D01*
X381664Y222671D01*
X381700Y222799D01*
X381740Y222926D01*
X381784Y223052D01*
X381831Y223176D01*
X381882Y223299D01*
X381936Y223420D01*
X381994Y223540D01*
X382056Y223658D01*
X382121Y223774D01*
X382189Y223888D01*
X382260Y224000D01*
X382335Y224110D01*
X382413Y224218D01*
X382494Y224324D01*
X382578Y224427D01*
X382665Y224527D01*
X382754Y224625D01*
X382847Y224721D01*
X382943Y224814D01*
X383041Y224903D01*
X383141Y224990D01*
X383244Y225074D01*
X383350Y225155D01*
X383458Y225233D01*
X383568Y225308D01*
X383680Y225379D01*
X383794Y225447D01*
X383910Y225512D01*
X384028Y225574D01*
X384148Y225632D01*
X384269Y225686D01*
X384392Y225737D01*
X384516Y225784D01*
X384642Y225828D01*
X384769Y225868D01*
X384897Y225904D01*
X385026Y225937D01*
X385155Y225966D01*
X385286Y225991D01*
X385417Y226012D01*
X385549Y226029D01*
X385682Y226043D01*
X385814Y226052D01*
X385947Y226058D01*
X386080Y226060D01*
X401320Y226060D02*
X401453Y226058D01*
X401586Y226052D01*
X401718Y226043D01*
X401851Y226029D01*
X401983Y226012D01*
X402114Y225991D01*
X402245Y225966D01*
X402374Y225937D01*
X402503Y225904D01*
X402631Y225868D01*
X402758Y225828D01*
X402884Y225784D01*
X403008Y225737D01*
X403131Y225686D01*
X403252Y225632D01*
X403372Y225574D01*
X403490Y225512D01*
X403606Y225447D01*
X403720Y225379D01*
X403832Y225308D01*
X403942Y225233D01*
X404050Y225155D01*
X404156Y225074D01*
X404259Y224990D01*
X404359Y224903D01*
X404457Y224814D01*
X404553Y224721D01*
X404646Y224625D01*
X404735Y224527D01*
X404822Y224427D01*
X404906Y224324D01*
X404987Y224218D01*
X405065Y224110D01*
X405140Y224000D01*
X405211Y223888D01*
X405279Y223774D01*
X405344Y223658D01*
X405406Y223540D01*
X405464Y223420D01*
X405518Y223299D01*
X405569Y223176D01*
X405616Y223052D01*
X405660Y222926D01*
X405700Y222799D01*
X405736Y222671D01*
X405769Y222542D01*
X405798Y222413D01*
X405823Y222282D01*
X405844Y222151D01*
X405861Y222019D01*
X405875Y221886D01*
X405884Y221754D01*
X405890Y221621D01*
X405892Y221488D01*
X405892Y210312D01*
X381508Y210312D02*
X381508Y221488D01*
X386080Y205740D02*
X401320Y205740D01*
X109220Y264160D02*
X93980Y264160D01*
X113792Y248412D02*
X113790Y248279D01*
X113784Y248146D01*
X113775Y248014D01*
X113761Y247881D01*
X113744Y247749D01*
X113723Y247618D01*
X113698Y247487D01*
X113669Y247358D01*
X113636Y247229D01*
X113600Y247101D01*
X113560Y246974D01*
X113516Y246848D01*
X113469Y246724D01*
X113418Y246601D01*
X113364Y246480D01*
X113306Y246360D01*
X113244Y246242D01*
X113179Y246126D01*
X113111Y246012D01*
X113040Y245900D01*
X112965Y245790D01*
X112887Y245682D01*
X112806Y245576D01*
X112722Y245473D01*
X112635Y245373D01*
X112546Y245275D01*
X112453Y245179D01*
X112357Y245086D01*
X112259Y244997D01*
X112159Y244910D01*
X112056Y244826D01*
X111950Y244745D01*
X111842Y244667D01*
X111732Y244592D01*
X111620Y244521D01*
X111506Y244453D01*
X111390Y244388D01*
X111272Y244326D01*
X111152Y244268D01*
X111031Y244214D01*
X110908Y244163D01*
X110784Y244116D01*
X110658Y244072D01*
X110531Y244032D01*
X110403Y243996D01*
X110274Y243963D01*
X110145Y243934D01*
X110014Y243909D01*
X109883Y243888D01*
X109751Y243871D01*
X109618Y243857D01*
X109486Y243848D01*
X109353Y243842D01*
X109220Y243840D01*
X93980Y243840D02*
X93847Y243842D01*
X93714Y243848D01*
X93582Y243857D01*
X93449Y243871D01*
X93317Y243888D01*
X93186Y243909D01*
X93055Y243934D01*
X92926Y243963D01*
X92797Y243996D01*
X92669Y244032D01*
X92542Y244072D01*
X92416Y244116D01*
X92292Y244163D01*
X92169Y244214D01*
X92048Y244268D01*
X91928Y244326D01*
X91810Y244388D01*
X91694Y244453D01*
X91580Y244521D01*
X91468Y244592D01*
X91358Y244667D01*
X91250Y244745D01*
X91144Y244826D01*
X91041Y244910D01*
X90941Y244997D01*
X90843Y245086D01*
X90747Y245179D01*
X90654Y245275D01*
X90565Y245373D01*
X90478Y245473D01*
X90394Y245576D01*
X90313Y245682D01*
X90235Y245790D01*
X90160Y245900D01*
X90089Y246012D01*
X90021Y246126D01*
X89956Y246242D01*
X89894Y246360D01*
X89836Y246480D01*
X89782Y246601D01*
X89731Y246724D01*
X89684Y246848D01*
X89640Y246974D01*
X89600Y247101D01*
X89564Y247229D01*
X89531Y247358D01*
X89502Y247487D01*
X89477Y247618D01*
X89456Y247749D01*
X89439Y247881D01*
X89425Y248014D01*
X89416Y248146D01*
X89410Y248279D01*
X89408Y248412D01*
X89408Y259588D02*
X89410Y259721D01*
X89416Y259854D01*
X89425Y259986D01*
X89439Y260119D01*
X89456Y260251D01*
X89477Y260382D01*
X89502Y260513D01*
X89531Y260642D01*
X89564Y260771D01*
X89600Y260899D01*
X89640Y261026D01*
X89684Y261152D01*
X89731Y261276D01*
X89782Y261399D01*
X89836Y261520D01*
X89894Y261640D01*
X89956Y261758D01*
X90021Y261874D01*
X90089Y261988D01*
X90160Y262100D01*
X90235Y262210D01*
X90313Y262318D01*
X90394Y262424D01*
X90478Y262527D01*
X90565Y262627D01*
X90654Y262725D01*
X90747Y262821D01*
X90843Y262914D01*
X90941Y263003D01*
X91041Y263090D01*
X91144Y263174D01*
X91250Y263255D01*
X91358Y263333D01*
X91468Y263408D01*
X91580Y263479D01*
X91694Y263547D01*
X91810Y263612D01*
X91928Y263674D01*
X92048Y263732D01*
X92169Y263786D01*
X92292Y263837D01*
X92416Y263884D01*
X92542Y263928D01*
X92669Y263968D01*
X92797Y264004D01*
X92926Y264037D01*
X93055Y264066D01*
X93186Y264091D01*
X93317Y264112D01*
X93449Y264129D01*
X93582Y264143D01*
X93714Y264152D01*
X93847Y264158D01*
X93980Y264160D01*
X109220Y264160D02*
X109353Y264158D01*
X109486Y264152D01*
X109618Y264143D01*
X109751Y264129D01*
X109883Y264112D01*
X110014Y264091D01*
X110145Y264066D01*
X110274Y264037D01*
X110403Y264004D01*
X110531Y263968D01*
X110658Y263928D01*
X110784Y263884D01*
X110908Y263837D01*
X111031Y263786D01*
X111152Y263732D01*
X111272Y263674D01*
X111390Y263612D01*
X111506Y263547D01*
X111620Y263479D01*
X111732Y263408D01*
X111842Y263333D01*
X111950Y263255D01*
X112056Y263174D01*
X112159Y263090D01*
X112259Y263003D01*
X112357Y262914D01*
X112453Y262821D01*
X112546Y262725D01*
X112635Y262627D01*
X112722Y262527D01*
X112806Y262424D01*
X112887Y262318D01*
X112965Y262210D01*
X113040Y262100D01*
X113111Y261988D01*
X113179Y261874D01*
X113244Y261758D01*
X113306Y261640D01*
X113364Y261520D01*
X113418Y261399D01*
X113469Y261276D01*
X113516Y261152D01*
X113560Y261026D01*
X113600Y260899D01*
X113636Y260771D01*
X113669Y260642D01*
X113698Y260513D01*
X113723Y260382D01*
X113744Y260251D01*
X113761Y260119D01*
X113775Y259986D01*
X113784Y259854D01*
X113790Y259721D01*
X113792Y259588D01*
X113792Y248412D01*
X89408Y248412D02*
X89408Y259588D01*
X93980Y243840D02*
X109220Y243840D01*
D116*
X36880Y319150D03*
D117*
X36880Y318750D03*
D112*
X36880Y318350D03*
D118*
X36880Y317950D03*
D115*
X36880Y317550D03*
D110*
X36880Y317150D03*
D108*
X36880Y316750D03*
D73*
X47280Y316350D03*
D68*
X35080Y316350D03*
D103*
X25280Y316350D03*
D90*
X50080Y315950D03*
D85*
X42880Y315950D03*
D77*
X35680Y315950D03*
D105*
X24280Y315950D03*
D90*
X50080Y315550D03*
D76*
X43080Y315550D03*
D84*
X35880Y315550D03*
D98*
X23880Y315550D03*
X50280Y315150D03*
D76*
X43080Y315150D03*
D78*
X35880Y315150D03*
D98*
X23480Y315150D03*
X50280Y314750D03*
D79*
X43280Y314750D03*
D72*
X36080Y314750D03*
D98*
X23480Y314750D03*
D69*
X50480Y314350D03*
D79*
X43280Y314350D03*
D80*
X39880Y314350D03*
D85*
X36080Y314350D03*
D69*
X23280Y314350D03*
X50480Y313950D03*
D79*
X43280Y313950D03*
D76*
X39880Y313950D03*
X36280Y313950D03*
D69*
X23280Y313950D03*
X50480Y313550D03*
D79*
X43280Y313550D03*
D76*
X39880Y313550D03*
D79*
X36480Y313550D03*
D72*
X30880Y313550D03*
D105*
X23480Y313550D03*
X50680Y313150D03*
D79*
X43280Y313150D03*
X40080Y313150D03*
X36480Y313150D03*
D89*
X30880Y313150D03*
D104*
X23480Y313150D03*
D105*
X50680Y312750D03*
D76*
X43080Y312750D03*
X40680Y312750D03*
X36680Y312750D03*
D119*
X25880Y312750D03*
D105*
X50680Y312350D03*
D89*
X42080Y312350D03*
D79*
X36880Y312350D03*
D120*
X26080Y312350D03*
D105*
X50680Y311950D03*
D72*
X42480Y311950D03*
D76*
X37080Y311950D03*
D120*
X26080Y311950D03*
D105*
X50680Y311550D03*
D85*
X42880Y311550D03*
X37280Y311550D03*
D121*
X26280Y311550D03*
D105*
X50680Y311150D03*
D76*
X43080Y311150D03*
D83*
X37480Y311150D03*
D121*
X26280Y311150D03*
D105*
X50680Y310750D03*
D79*
X43280Y310750D03*
D80*
X36680Y310750D03*
D121*
X26280Y310750D03*
D105*
X50680Y310350D03*
D79*
X43280Y310350D03*
D107*
X36480Y310350D03*
D121*
X26280Y310350D03*
D105*
X50680Y309950D03*
D79*
X43280Y309950D03*
D107*
X36480Y309950D03*
D120*
X26080Y309950D03*
D105*
X50680Y309550D03*
D79*
X43280Y309550D03*
D107*
X36480Y309550D03*
D120*
X26080Y309550D03*
D105*
X50680Y309150D03*
D76*
X43080Y309150D03*
D79*
X36480Y309150D03*
D119*
X25880Y309150D03*
D69*
X50480Y308750D03*
D98*
X39880Y308750D03*
D89*
X30880Y308750D03*
D88*
X23680Y308750D03*
D69*
X50480Y308350D03*
X39680Y308350D03*
D85*
X30880Y308350D03*
D105*
X23480Y308350D03*
D69*
X50480Y307950D03*
X39680Y307950D03*
X23280Y307950D03*
D98*
X50280Y307550D03*
D105*
X39480Y307550D03*
D98*
X23480Y307550D03*
X50280Y307150D03*
D88*
X39280Y307150D03*
D98*
X23480Y307150D03*
D90*
X50080Y306750D03*
D104*
X39080Y306750D03*
D90*
X23680Y306750D03*
X50080Y306350D03*
D102*
X38680Y306350D03*
D69*
X24080Y306350D03*
D90*
X49680Y305950D03*
D99*
X38480Y305950D03*
D105*
X24680Y305950D03*
D108*
X36880Y305550D03*
D110*
X36880Y305150D03*
D115*
X36880Y304750D03*
D118*
X36880Y304350D03*
D112*
X36880Y303950D03*
D117*
X36880Y303550D03*
D116*
X36880Y303150D03*
M02*
