G04 EAGLE Gerber RS-274X export*
G75*
%MOMM*%
%FSLAX34Y34*%
%LPD*%
%INSoldermask Top*%
%IPPOS*%
%AMOC8*
5,1,8,0,0,1.08239X$1,22.5*%
G01*
%ADD10C,3.505200*%
%ADD11C,1.203200*%
%ADD12R,2.203200X1.403200*%
%ADD13R,1.553200X0.803200*%
%ADD14R,1.203200X1.303200*%
%ADD15R,1.600200X0.850900*%
%ADD16R,1.303200X1.203200*%
%ADD17C,2.453200*%
%ADD18C,0.505344*%
%ADD19C,2.082800*%
%ADD20C,1.270000*%
%ADD21C,1.703200*%


D10*
X25400Y25400D03*
X584200Y25400D03*
D11*
X558800Y12700D03*
X50800Y368300D03*
D12*
X14050Y218500D03*
X14050Y162500D03*
D13*
X50800Y205500D03*
X50800Y195500D03*
X50800Y185500D03*
X50800Y175500D03*
D14*
X220980Y162950D03*
X220980Y179950D03*
D12*
X595550Y162500D03*
X595550Y218500D03*
D13*
X558800Y175500D03*
X558800Y185500D03*
X558800Y195500D03*
X558800Y205500D03*
D14*
X33020Y245500D03*
X33020Y262500D03*
X12700Y245500D03*
X12700Y262500D03*
D15*
X351300Y146050D03*
X351300Y158750D03*
X351300Y171450D03*
X351300Y184150D03*
X351300Y196850D03*
X351300Y209550D03*
X351300Y222250D03*
X351300Y234950D03*
X258300Y234950D03*
X258300Y222250D03*
X258300Y209550D03*
X258300Y196850D03*
X258300Y184150D03*
X258300Y171450D03*
X258300Y158750D03*
X258300Y146050D03*
D16*
X402200Y190500D03*
X385200Y190500D03*
X402200Y165100D03*
X385200Y165100D03*
D14*
X419100Y160900D03*
X419100Y143900D03*
D10*
X584200Y355600D03*
X25400Y355600D03*
D14*
X546100Y116450D03*
X546100Y99450D03*
D17*
X494100Y63500D03*
X444100Y63500D03*
X394100Y63500D03*
X344100Y63500D03*
X344100Y317500D03*
X394100Y317500D03*
X444100Y317500D03*
X494100Y317500D03*
D16*
X55000Y234950D03*
X72000Y234950D03*
D18*
X68780Y250510D02*
X68780Y257490D01*
X75760Y257490D01*
X75760Y250510D01*
X68780Y250510D01*
X68780Y255310D02*
X75760Y255310D01*
X51240Y257490D02*
X51240Y250510D01*
X51240Y257490D02*
X58220Y257490D01*
X58220Y250510D01*
X51240Y250510D01*
X51240Y255310D02*
X58220Y255310D01*
D17*
X115500Y317500D03*
X165500Y317500D03*
X215500Y317500D03*
X265500Y317500D03*
X265500Y63500D03*
X215500Y63500D03*
X165500Y63500D03*
X115500Y63500D03*
D19*
X596900Y139700D03*
X596900Y241300D03*
X596900Y266700D03*
X596900Y292100D03*
X596900Y317500D03*
D10*
X640080Y25400D03*
X1198880Y25400D03*
D11*
X1173480Y12700D03*
X665480Y368300D03*
D12*
X628730Y218500D03*
X628730Y162500D03*
D13*
X665480Y205500D03*
X665480Y195500D03*
X665480Y185500D03*
X665480Y175500D03*
D14*
X835660Y162950D03*
X835660Y179950D03*
D12*
X1210230Y162500D03*
X1210230Y218500D03*
D13*
X1173480Y175500D03*
X1173480Y185500D03*
X1173480Y195500D03*
X1173480Y205500D03*
D14*
X647700Y245500D03*
X647700Y262500D03*
X627380Y245500D03*
X627380Y262500D03*
D15*
X965980Y146050D03*
X965980Y158750D03*
X965980Y171450D03*
X965980Y184150D03*
X965980Y196850D03*
X965980Y209550D03*
X965980Y222250D03*
X965980Y234950D03*
X872980Y234950D03*
X872980Y222250D03*
X872980Y209550D03*
X872980Y196850D03*
X872980Y184150D03*
X872980Y171450D03*
X872980Y158750D03*
X872980Y146050D03*
D16*
X1016880Y190500D03*
X999880Y190500D03*
X1016880Y165100D03*
X999880Y165100D03*
D14*
X1033780Y160900D03*
X1033780Y143900D03*
D10*
X1198880Y355600D03*
X640080Y355600D03*
D14*
X1160780Y116450D03*
X1160780Y99450D03*
D17*
X1108780Y63500D03*
X1058780Y63500D03*
X1008780Y63500D03*
X958780Y63500D03*
X958780Y317500D03*
X1008780Y317500D03*
X1058780Y317500D03*
X1108780Y317500D03*
D16*
X669680Y234950D03*
X686680Y234950D03*
D18*
X683460Y250510D02*
X683460Y257490D01*
X690440Y257490D01*
X690440Y250510D01*
X683460Y250510D01*
X683460Y255310D02*
X690440Y255310D01*
X665920Y257490D02*
X665920Y250510D01*
X665920Y257490D02*
X672900Y257490D01*
X672900Y250510D01*
X665920Y250510D01*
X665920Y255310D02*
X672900Y255310D01*
D17*
X730180Y317500D03*
X780180Y317500D03*
X830180Y317500D03*
X880180Y317500D03*
X880180Y63500D03*
X830180Y63500D03*
X780180Y63500D03*
X730180Y63500D03*
D19*
X1211580Y139700D03*
X1211580Y241300D03*
X1211580Y266700D03*
X1211580Y292100D03*
X1211580Y317500D03*
D10*
X1254760Y25400D03*
X1813560Y25400D03*
D11*
X1788160Y12700D03*
X1280160Y368300D03*
D12*
X1243410Y218500D03*
X1243410Y162500D03*
D13*
X1280160Y205500D03*
X1280160Y195500D03*
X1280160Y185500D03*
X1280160Y175500D03*
D14*
X1450340Y162950D03*
X1450340Y179950D03*
D12*
X1824910Y162500D03*
X1824910Y218500D03*
D13*
X1788160Y175500D03*
X1788160Y185500D03*
X1788160Y195500D03*
X1788160Y205500D03*
D14*
X1262380Y245500D03*
X1262380Y262500D03*
X1242060Y245500D03*
X1242060Y262500D03*
D15*
X1580660Y146050D03*
X1580660Y158750D03*
X1580660Y171450D03*
X1580660Y184150D03*
X1580660Y196850D03*
X1580660Y209550D03*
X1580660Y222250D03*
X1580660Y234950D03*
X1487660Y234950D03*
X1487660Y222250D03*
X1487660Y209550D03*
X1487660Y196850D03*
X1487660Y184150D03*
X1487660Y171450D03*
X1487660Y158750D03*
X1487660Y146050D03*
D16*
X1631560Y190500D03*
X1614560Y190500D03*
X1631560Y165100D03*
X1614560Y165100D03*
D14*
X1648460Y160900D03*
X1648460Y143900D03*
D10*
X1813560Y355600D03*
X1254760Y355600D03*
D14*
X1775460Y116450D03*
X1775460Y99450D03*
D17*
X1723460Y63500D03*
X1673460Y63500D03*
X1623460Y63500D03*
X1573460Y63500D03*
X1573460Y317500D03*
X1623460Y317500D03*
X1673460Y317500D03*
X1723460Y317500D03*
D16*
X1284360Y234950D03*
X1301360Y234950D03*
D18*
X1298140Y250510D02*
X1298140Y257490D01*
X1305120Y257490D01*
X1305120Y250510D01*
X1298140Y250510D01*
X1298140Y255310D02*
X1305120Y255310D01*
X1280600Y257490D02*
X1280600Y250510D01*
X1280600Y257490D02*
X1287580Y257490D01*
X1287580Y250510D01*
X1280600Y250510D01*
X1280600Y255310D02*
X1287580Y255310D01*
D17*
X1344860Y317500D03*
X1394860Y317500D03*
X1444860Y317500D03*
X1494860Y317500D03*
X1494860Y63500D03*
X1444860Y63500D03*
X1394860Y63500D03*
X1344860Y63500D03*
D19*
X1826260Y139700D03*
X1826260Y241300D03*
X1826260Y266700D03*
X1826260Y292100D03*
X1826260Y317500D03*
D10*
X25400Y411480D03*
X584200Y411480D03*
D11*
X558800Y398780D03*
X50800Y754380D03*
D12*
X14050Y604580D03*
X14050Y548580D03*
D13*
X50800Y591580D03*
X50800Y581580D03*
X50800Y571580D03*
X50800Y561580D03*
D14*
X220980Y549030D03*
X220980Y566030D03*
D12*
X595550Y548580D03*
X595550Y604580D03*
D13*
X558800Y561580D03*
X558800Y571580D03*
X558800Y581580D03*
X558800Y591580D03*
D14*
X33020Y631580D03*
X33020Y648580D03*
X12700Y631580D03*
X12700Y648580D03*
D15*
X351300Y532130D03*
X351300Y544830D03*
X351300Y557530D03*
X351300Y570230D03*
X351300Y582930D03*
X351300Y595630D03*
X351300Y608330D03*
X351300Y621030D03*
X258300Y621030D03*
X258300Y608330D03*
X258300Y595630D03*
X258300Y582930D03*
X258300Y570230D03*
X258300Y557530D03*
X258300Y544830D03*
X258300Y532130D03*
D16*
X402200Y576580D03*
X385200Y576580D03*
X402200Y551180D03*
X385200Y551180D03*
D14*
X419100Y546980D03*
X419100Y529980D03*
D10*
X584200Y741680D03*
X25400Y741680D03*
D14*
X546100Y502530D03*
X546100Y485530D03*
D17*
X494100Y449580D03*
X444100Y449580D03*
X394100Y449580D03*
X344100Y449580D03*
X344100Y703580D03*
X394100Y703580D03*
X444100Y703580D03*
X494100Y703580D03*
D16*
X55000Y621030D03*
X72000Y621030D03*
D18*
X68780Y636590D02*
X68780Y643570D01*
X75760Y643570D01*
X75760Y636590D01*
X68780Y636590D01*
X68780Y641390D02*
X75760Y641390D01*
X51240Y643570D02*
X51240Y636590D01*
X51240Y643570D02*
X58220Y643570D01*
X58220Y636590D01*
X51240Y636590D01*
X51240Y641390D02*
X58220Y641390D01*
D17*
X115500Y703580D03*
X165500Y703580D03*
X215500Y703580D03*
X265500Y703580D03*
X265500Y449580D03*
X215500Y449580D03*
X165500Y449580D03*
X115500Y449580D03*
D19*
X596900Y525780D03*
X596900Y627380D03*
X596900Y652780D03*
X596900Y678180D03*
X596900Y703580D03*
D10*
X640080Y411480D03*
X1198880Y411480D03*
D11*
X1173480Y398780D03*
X665480Y754380D03*
D12*
X628730Y604580D03*
X628730Y548580D03*
D13*
X665480Y591580D03*
X665480Y581580D03*
X665480Y571580D03*
X665480Y561580D03*
D14*
X835660Y549030D03*
X835660Y566030D03*
D12*
X1210230Y548580D03*
X1210230Y604580D03*
D13*
X1173480Y561580D03*
X1173480Y571580D03*
X1173480Y581580D03*
X1173480Y591580D03*
D14*
X647700Y631580D03*
X647700Y648580D03*
X627380Y631580D03*
X627380Y648580D03*
D15*
X965980Y532130D03*
X965980Y544830D03*
X965980Y557530D03*
X965980Y570230D03*
X965980Y582930D03*
X965980Y595630D03*
X965980Y608330D03*
X965980Y621030D03*
X872980Y621030D03*
X872980Y608330D03*
X872980Y595630D03*
X872980Y582930D03*
X872980Y570230D03*
X872980Y557530D03*
X872980Y544830D03*
X872980Y532130D03*
D16*
X1016880Y576580D03*
X999880Y576580D03*
X1016880Y551180D03*
X999880Y551180D03*
D14*
X1033780Y546980D03*
X1033780Y529980D03*
D10*
X1198880Y741680D03*
X640080Y741680D03*
D14*
X1160780Y502530D03*
X1160780Y485530D03*
D17*
X1108780Y449580D03*
X1058780Y449580D03*
X1008780Y449580D03*
X958780Y449580D03*
X958780Y703580D03*
X1008780Y703580D03*
X1058780Y703580D03*
X1108780Y703580D03*
D16*
X669680Y621030D03*
X686680Y621030D03*
D18*
X683460Y636590D02*
X683460Y643570D01*
X690440Y643570D01*
X690440Y636590D01*
X683460Y636590D01*
X683460Y641390D02*
X690440Y641390D01*
X665920Y643570D02*
X665920Y636590D01*
X665920Y643570D02*
X672900Y643570D01*
X672900Y636590D01*
X665920Y636590D01*
X665920Y641390D02*
X672900Y641390D01*
D17*
X730180Y703580D03*
X780180Y703580D03*
X830180Y703580D03*
X880180Y703580D03*
X880180Y449580D03*
X830180Y449580D03*
X780180Y449580D03*
X730180Y449580D03*
D19*
X1211580Y525780D03*
X1211580Y627380D03*
X1211580Y652780D03*
X1211580Y678180D03*
X1211580Y703580D03*
D10*
X1254760Y411480D03*
X1813560Y411480D03*
D11*
X1788160Y398780D03*
X1280160Y754380D03*
D12*
X1243410Y604580D03*
X1243410Y548580D03*
D13*
X1280160Y591580D03*
X1280160Y581580D03*
X1280160Y571580D03*
X1280160Y561580D03*
D14*
X1450340Y549030D03*
X1450340Y566030D03*
D12*
X1824910Y548580D03*
X1824910Y604580D03*
D13*
X1788160Y561580D03*
X1788160Y571580D03*
X1788160Y581580D03*
X1788160Y591580D03*
D14*
X1262380Y631580D03*
X1262380Y648580D03*
X1242060Y631580D03*
X1242060Y648580D03*
D15*
X1580660Y532130D03*
X1580660Y544830D03*
X1580660Y557530D03*
X1580660Y570230D03*
X1580660Y582930D03*
X1580660Y595630D03*
X1580660Y608330D03*
X1580660Y621030D03*
X1487660Y621030D03*
X1487660Y608330D03*
X1487660Y595630D03*
X1487660Y582930D03*
X1487660Y570230D03*
X1487660Y557530D03*
X1487660Y544830D03*
X1487660Y532130D03*
D16*
X1631560Y576580D03*
X1614560Y576580D03*
X1631560Y551180D03*
X1614560Y551180D03*
D14*
X1648460Y546980D03*
X1648460Y529980D03*
D10*
X1813560Y741680D03*
X1254760Y741680D03*
D14*
X1775460Y502530D03*
X1775460Y485530D03*
D17*
X1723460Y449580D03*
X1673460Y449580D03*
X1623460Y449580D03*
X1573460Y449580D03*
X1573460Y703580D03*
X1623460Y703580D03*
X1673460Y703580D03*
X1723460Y703580D03*
D16*
X1284360Y621030D03*
X1301360Y621030D03*
D18*
X1298140Y636590D02*
X1298140Y643570D01*
X1305120Y643570D01*
X1305120Y636590D01*
X1298140Y636590D01*
X1298140Y641390D02*
X1305120Y641390D01*
X1280600Y643570D02*
X1280600Y636590D01*
X1280600Y643570D02*
X1287580Y643570D01*
X1287580Y636590D01*
X1280600Y636590D01*
X1280600Y641390D02*
X1287580Y641390D01*
D17*
X1344860Y703580D03*
X1394860Y703580D03*
X1444860Y703580D03*
X1494860Y703580D03*
X1494860Y449580D03*
X1444860Y449580D03*
X1394860Y449580D03*
X1344860Y449580D03*
D19*
X1826260Y525780D03*
X1826260Y627380D03*
X1826260Y652780D03*
X1826260Y678180D03*
X1826260Y703580D03*
D10*
X25400Y797560D03*
X584200Y797560D03*
D11*
X558800Y784860D03*
X50800Y1140460D03*
D12*
X14050Y990660D03*
X14050Y934660D03*
D13*
X50800Y977660D03*
X50800Y967660D03*
X50800Y957660D03*
X50800Y947660D03*
D14*
X220980Y935110D03*
X220980Y952110D03*
D12*
X595550Y934660D03*
X595550Y990660D03*
D13*
X558800Y947660D03*
X558800Y957660D03*
X558800Y967660D03*
X558800Y977660D03*
D14*
X33020Y1017660D03*
X33020Y1034660D03*
X12700Y1017660D03*
X12700Y1034660D03*
D15*
X351300Y918210D03*
X351300Y930910D03*
X351300Y943610D03*
X351300Y956310D03*
X351300Y969010D03*
X351300Y981710D03*
X351300Y994410D03*
X351300Y1007110D03*
X258300Y1007110D03*
X258300Y994410D03*
X258300Y981710D03*
X258300Y969010D03*
X258300Y956310D03*
X258300Y943610D03*
X258300Y930910D03*
X258300Y918210D03*
D16*
X402200Y962660D03*
X385200Y962660D03*
X402200Y937260D03*
X385200Y937260D03*
D14*
X419100Y933060D03*
X419100Y916060D03*
D10*
X584200Y1127760D03*
X25400Y1127760D03*
D14*
X546100Y888610D03*
X546100Y871610D03*
D17*
X494100Y835660D03*
X444100Y835660D03*
X394100Y835660D03*
X344100Y835660D03*
X344100Y1089660D03*
X394100Y1089660D03*
X444100Y1089660D03*
X494100Y1089660D03*
D16*
X55000Y1007110D03*
X72000Y1007110D03*
D18*
X68780Y1022670D02*
X68780Y1029650D01*
X75760Y1029650D01*
X75760Y1022670D01*
X68780Y1022670D01*
X68780Y1027470D02*
X75760Y1027470D01*
X51240Y1029650D02*
X51240Y1022670D01*
X51240Y1029650D02*
X58220Y1029650D01*
X58220Y1022670D01*
X51240Y1022670D01*
X51240Y1027470D02*
X58220Y1027470D01*
D17*
X115500Y1089660D03*
X165500Y1089660D03*
X215500Y1089660D03*
X265500Y1089660D03*
X265500Y835660D03*
X215500Y835660D03*
X165500Y835660D03*
X115500Y835660D03*
D19*
X596900Y911860D03*
X596900Y1013460D03*
X596900Y1038860D03*
X596900Y1064260D03*
X596900Y1089660D03*
D10*
X640080Y797560D03*
X1198880Y797560D03*
D11*
X1173480Y784860D03*
X665480Y1140460D03*
D12*
X628730Y990660D03*
X628730Y934660D03*
D13*
X665480Y977660D03*
X665480Y967660D03*
X665480Y957660D03*
X665480Y947660D03*
D14*
X835660Y935110D03*
X835660Y952110D03*
D12*
X1210230Y934660D03*
X1210230Y990660D03*
D13*
X1173480Y947660D03*
X1173480Y957660D03*
X1173480Y967660D03*
X1173480Y977660D03*
D14*
X647700Y1017660D03*
X647700Y1034660D03*
X627380Y1017660D03*
X627380Y1034660D03*
D15*
X965980Y918210D03*
X965980Y930910D03*
X965980Y943610D03*
X965980Y956310D03*
X965980Y969010D03*
X965980Y981710D03*
X965980Y994410D03*
X965980Y1007110D03*
X872980Y1007110D03*
X872980Y994410D03*
X872980Y981710D03*
X872980Y969010D03*
X872980Y956310D03*
X872980Y943610D03*
X872980Y930910D03*
X872980Y918210D03*
D16*
X1016880Y962660D03*
X999880Y962660D03*
X1016880Y937260D03*
X999880Y937260D03*
D14*
X1033780Y933060D03*
X1033780Y916060D03*
D10*
X1198880Y1127760D03*
X640080Y1127760D03*
D14*
X1160780Y888610D03*
X1160780Y871610D03*
D17*
X1108780Y835660D03*
X1058780Y835660D03*
X1008780Y835660D03*
X958780Y835660D03*
X958780Y1089660D03*
X1008780Y1089660D03*
X1058780Y1089660D03*
X1108780Y1089660D03*
D16*
X669680Y1007110D03*
X686680Y1007110D03*
D18*
X683460Y1022670D02*
X683460Y1029650D01*
X690440Y1029650D01*
X690440Y1022670D01*
X683460Y1022670D01*
X683460Y1027470D02*
X690440Y1027470D01*
X665920Y1029650D02*
X665920Y1022670D01*
X665920Y1029650D02*
X672900Y1029650D01*
X672900Y1022670D01*
X665920Y1022670D01*
X665920Y1027470D02*
X672900Y1027470D01*
D17*
X730180Y1089660D03*
X780180Y1089660D03*
X830180Y1089660D03*
X880180Y1089660D03*
X880180Y835660D03*
X830180Y835660D03*
X780180Y835660D03*
X730180Y835660D03*
D19*
X1211580Y911860D03*
X1211580Y1013460D03*
X1211580Y1038860D03*
X1211580Y1064260D03*
X1211580Y1089660D03*
D10*
X1254760Y797560D03*
X1813560Y797560D03*
D11*
X1788160Y784860D03*
X1280160Y1140460D03*
D12*
X1243410Y990660D03*
X1243410Y934660D03*
D13*
X1280160Y977660D03*
X1280160Y967660D03*
X1280160Y957660D03*
X1280160Y947660D03*
D14*
X1450340Y935110D03*
X1450340Y952110D03*
D12*
X1824910Y934660D03*
X1824910Y990660D03*
D13*
X1788160Y947660D03*
X1788160Y957660D03*
X1788160Y967660D03*
X1788160Y977660D03*
D14*
X1262380Y1017660D03*
X1262380Y1034660D03*
X1242060Y1017660D03*
X1242060Y1034660D03*
D15*
X1580660Y918210D03*
X1580660Y930910D03*
X1580660Y943610D03*
X1580660Y956310D03*
X1580660Y969010D03*
X1580660Y981710D03*
X1580660Y994410D03*
X1580660Y1007110D03*
X1487660Y1007110D03*
X1487660Y994410D03*
X1487660Y981710D03*
X1487660Y969010D03*
X1487660Y956310D03*
X1487660Y943610D03*
X1487660Y930910D03*
X1487660Y918210D03*
D16*
X1631560Y962660D03*
X1614560Y962660D03*
X1631560Y937260D03*
X1614560Y937260D03*
D14*
X1648460Y933060D03*
X1648460Y916060D03*
D10*
X1813560Y1127760D03*
X1254760Y1127760D03*
D14*
X1775460Y888610D03*
X1775460Y871610D03*
D17*
X1723460Y835660D03*
X1673460Y835660D03*
X1623460Y835660D03*
X1573460Y835660D03*
X1573460Y1089660D03*
X1623460Y1089660D03*
X1673460Y1089660D03*
X1723460Y1089660D03*
D16*
X1284360Y1007110D03*
X1301360Y1007110D03*
D18*
X1298140Y1022670D02*
X1298140Y1029650D01*
X1305120Y1029650D01*
X1305120Y1022670D01*
X1298140Y1022670D01*
X1298140Y1027470D02*
X1305120Y1027470D01*
X1280600Y1029650D02*
X1280600Y1022670D01*
X1280600Y1029650D02*
X1287580Y1029650D01*
X1287580Y1022670D01*
X1280600Y1022670D01*
X1280600Y1027470D02*
X1287580Y1027470D01*
D17*
X1344860Y1089660D03*
X1394860Y1089660D03*
X1444860Y1089660D03*
X1494860Y1089660D03*
X1494860Y835660D03*
X1444860Y835660D03*
X1394860Y835660D03*
X1344860Y835660D03*
D19*
X1826260Y911860D03*
X1826260Y1013460D03*
X1826260Y1038860D03*
X1826260Y1064260D03*
X1826260Y1089660D03*
D11*
X68580Y1174115D03*
X1769745Y1174115D03*
D20*
X59525Y-20955D02*
X59528Y-20733D01*
X59536Y-20511D01*
X59550Y-20289D01*
X59569Y-20067D01*
X59593Y-19847D01*
X59623Y-19626D01*
X59658Y-19407D01*
X59699Y-19188D01*
X59745Y-18971D01*
X59796Y-18755D01*
X59853Y-18540D01*
X59915Y-18326D01*
X59982Y-18115D01*
X60054Y-17904D01*
X60132Y-17696D01*
X60214Y-17490D01*
X60302Y-17286D01*
X60394Y-17083D01*
X60492Y-16884D01*
X60594Y-16687D01*
X60701Y-16492D01*
X60813Y-16300D01*
X60930Y-16111D01*
X61051Y-15924D01*
X61177Y-15741D01*
X61307Y-15561D01*
X61442Y-15384D01*
X61580Y-15211D01*
X61723Y-15041D01*
X61871Y-14874D01*
X62022Y-14711D01*
X62177Y-14552D01*
X62336Y-14397D01*
X62499Y-14246D01*
X62666Y-14098D01*
X62836Y-13955D01*
X63009Y-13817D01*
X63186Y-13682D01*
X63366Y-13552D01*
X63549Y-13426D01*
X63736Y-13305D01*
X63925Y-13188D01*
X64117Y-13076D01*
X64312Y-12969D01*
X64509Y-12867D01*
X64708Y-12769D01*
X64911Y-12677D01*
X65115Y-12589D01*
X65321Y-12507D01*
X65529Y-12429D01*
X65740Y-12357D01*
X65951Y-12290D01*
X66165Y-12228D01*
X66380Y-12171D01*
X66596Y-12120D01*
X66813Y-12074D01*
X67032Y-12033D01*
X67251Y-11998D01*
X67472Y-11968D01*
X67692Y-11944D01*
X67914Y-11925D01*
X68136Y-11911D01*
X68358Y-11903D01*
X68580Y-11900D01*
X68802Y-11903D01*
X69024Y-11911D01*
X69246Y-11925D01*
X69468Y-11944D01*
X69688Y-11968D01*
X69909Y-11998D01*
X70128Y-12033D01*
X70347Y-12074D01*
X70564Y-12120D01*
X70780Y-12171D01*
X70995Y-12228D01*
X71209Y-12290D01*
X71420Y-12357D01*
X71631Y-12429D01*
X71839Y-12507D01*
X72045Y-12589D01*
X72249Y-12677D01*
X72452Y-12769D01*
X72651Y-12867D01*
X72848Y-12969D01*
X73043Y-13076D01*
X73235Y-13188D01*
X73424Y-13305D01*
X73611Y-13426D01*
X73794Y-13552D01*
X73974Y-13682D01*
X74151Y-13817D01*
X74324Y-13955D01*
X74494Y-14098D01*
X74661Y-14246D01*
X74824Y-14397D01*
X74983Y-14552D01*
X75138Y-14711D01*
X75289Y-14874D01*
X75437Y-15041D01*
X75580Y-15211D01*
X75718Y-15384D01*
X75853Y-15561D01*
X75983Y-15741D01*
X76109Y-15924D01*
X76230Y-16111D01*
X76347Y-16300D01*
X76459Y-16492D01*
X76566Y-16687D01*
X76668Y-16884D01*
X76766Y-17083D01*
X76858Y-17286D01*
X76946Y-17490D01*
X77028Y-17696D01*
X77106Y-17904D01*
X77178Y-18115D01*
X77245Y-18326D01*
X77307Y-18540D01*
X77364Y-18755D01*
X77415Y-18971D01*
X77461Y-19188D01*
X77502Y-19407D01*
X77537Y-19626D01*
X77567Y-19847D01*
X77591Y-20067D01*
X77610Y-20289D01*
X77624Y-20511D01*
X77632Y-20733D01*
X77635Y-20955D01*
X77632Y-21177D01*
X77624Y-21399D01*
X77610Y-21621D01*
X77591Y-21843D01*
X77567Y-22063D01*
X77537Y-22284D01*
X77502Y-22503D01*
X77461Y-22722D01*
X77415Y-22939D01*
X77364Y-23155D01*
X77307Y-23370D01*
X77245Y-23584D01*
X77178Y-23795D01*
X77106Y-24006D01*
X77028Y-24214D01*
X76946Y-24420D01*
X76858Y-24624D01*
X76766Y-24827D01*
X76668Y-25026D01*
X76566Y-25223D01*
X76459Y-25418D01*
X76347Y-25610D01*
X76230Y-25799D01*
X76109Y-25986D01*
X75983Y-26169D01*
X75853Y-26349D01*
X75718Y-26526D01*
X75580Y-26699D01*
X75437Y-26869D01*
X75289Y-27036D01*
X75138Y-27199D01*
X74983Y-27358D01*
X74824Y-27513D01*
X74661Y-27664D01*
X74494Y-27812D01*
X74324Y-27955D01*
X74151Y-28093D01*
X73974Y-28228D01*
X73794Y-28358D01*
X73611Y-28484D01*
X73424Y-28605D01*
X73235Y-28722D01*
X73043Y-28834D01*
X72848Y-28941D01*
X72651Y-29043D01*
X72452Y-29141D01*
X72249Y-29233D01*
X72045Y-29321D01*
X71839Y-29403D01*
X71631Y-29481D01*
X71420Y-29553D01*
X71209Y-29620D01*
X70995Y-29682D01*
X70780Y-29739D01*
X70564Y-29790D01*
X70347Y-29836D01*
X70128Y-29877D01*
X69909Y-29912D01*
X69688Y-29942D01*
X69468Y-29966D01*
X69246Y-29985D01*
X69024Y-29999D01*
X68802Y-30007D01*
X68580Y-30010D01*
X68358Y-30007D01*
X68136Y-29999D01*
X67914Y-29985D01*
X67692Y-29966D01*
X67472Y-29942D01*
X67251Y-29912D01*
X67032Y-29877D01*
X66813Y-29836D01*
X66596Y-29790D01*
X66380Y-29739D01*
X66165Y-29682D01*
X65951Y-29620D01*
X65740Y-29553D01*
X65529Y-29481D01*
X65321Y-29403D01*
X65115Y-29321D01*
X64911Y-29233D01*
X64708Y-29141D01*
X64509Y-29043D01*
X64312Y-28941D01*
X64117Y-28834D01*
X63925Y-28722D01*
X63736Y-28605D01*
X63549Y-28484D01*
X63366Y-28358D01*
X63186Y-28228D01*
X63009Y-28093D01*
X62836Y-27955D01*
X62666Y-27812D01*
X62499Y-27664D01*
X62336Y-27513D01*
X62177Y-27358D01*
X62022Y-27199D01*
X61871Y-27036D01*
X61723Y-26869D01*
X61580Y-26699D01*
X61442Y-26526D01*
X61307Y-26349D01*
X61177Y-26169D01*
X61051Y-25986D01*
X60930Y-25799D01*
X60813Y-25610D01*
X60701Y-25418D01*
X60594Y-25223D01*
X60492Y-25026D01*
X60394Y-24827D01*
X60302Y-24624D01*
X60214Y-24420D01*
X60132Y-24214D01*
X60054Y-24006D01*
X59982Y-23795D01*
X59915Y-23584D01*
X59853Y-23370D01*
X59796Y-23155D01*
X59745Y-22939D01*
X59699Y-22722D01*
X59658Y-22503D01*
X59623Y-22284D01*
X59593Y-22063D01*
X59569Y-21843D01*
X59550Y-21621D01*
X59536Y-21399D01*
X59528Y-21177D01*
X59525Y-20955D01*
D21*
X68580Y-20955D03*
M02*
