G04 EAGLE Gerber RS-274X export*
G75*
%MOMM*%
%FSLAX34Y34*%
%LPD*%
%INSilkscreen Top*%
%IPPOS*%
%AMOC8*
5,1,8,0,0,1.08239X$1,22.5*%
G01*
%ADD10C,0.381000*%
%ADD11C,0.254000*%
%ADD12C,0.203200*%
%ADD13R,3.640000X0.040000*%
%ADD14R,0.720000X0.040000*%
%ADD15R,1.800000X0.040000*%
%ADD16R,0.600000X0.040000*%
%ADD17R,0.280000X0.040000*%
%ADD18R,0.560000X0.040000*%
%ADD19R,0.200000X0.040000*%
%ADD20R,0.520000X0.040000*%
%ADD21R,0.160000X0.040000*%
%ADD22R,0.480000X0.040000*%
%ADD23R,0.120000X0.040000*%
%ADD24R,0.080000X0.040000*%
%ADD25R,0.440000X0.040000*%
%ADD26R,0.400000X0.040000*%
%ADD27R,0.360000X0.040000*%
%ADD28R,0.320000X0.040000*%
%ADD29R,0.240000X0.040000*%
%ADD30R,0.880000X0.040000*%
%ADD31R,0.040000X0.040000*%
%ADD32R,0.760000X0.040000*%
%ADD33R,0.640000X0.040000*%
%ADD34R,3.880000X0.040000*%
%ADD35R,0.840000X0.040000*%
%ADD36R,2.800000X0.040000*%
%ADD37R,0.680000X0.040000*%
%ADD38R,0.800000X0.040000*%
%ADD39R,3.280000X0.040000*%
%ADD40R,3.400000X0.040000*%
%ADD41R,3.480000X0.040000*%
%ADD42R,3.560000X0.040000*%
%ADD43R,3.600000X0.040000*%
%ADD44R,3.680000X0.040000*%
%ADD45R,0.960000X0.040000*%
%ADD46R,1.560000X0.040000*%
%ADD47R,0.920000X0.040000*%
%ADD48R,1.000000X0.040000*%
%ADD49R,1.080000X0.040000*%
%ADD50R,1.240000X0.040000*%
%ADD51R,1.320000X0.040000*%
%ADD52R,3.520000X0.040000*%
%ADD53R,3.720000X0.040000*%
%ADD54R,3.800000X0.040000*%
%ADD55R,3.840000X0.040000*%
%ADD56R,3.920000X0.040000*%
%ADD57R,1.120000X0.040000*%
%ADD58R,1.360000X0.040000*%
%ADD59R,3.240000X0.040000*%
%ADD60R,3.200000X0.040000*%
%ADD61R,3.160000X0.040000*%
%ADD62R,3.120000X0.040000*%
%ADD63R,2.840000X0.040000*%
%ADD64R,2.760000X0.040000*%
%ADD65R,2.720000X0.040000*%
%ADD66R,3.080000X0.040000*%
%ADD67C,0.152400*%

G36*
X317447Y31787D02*
X317447Y31787D01*
X317443Y31792D01*
X317449Y31796D01*
X317549Y32896D01*
X317547Y32898D01*
X317549Y32900D01*
X317549Y96782D01*
X317558Y96783D01*
X317616Y96781D01*
X317698Y96803D01*
X317782Y96815D01*
X317835Y96839D01*
X317891Y96853D01*
X317964Y96896D01*
X318041Y96931D01*
X318086Y96969D01*
X318136Y96999D01*
X318194Y97060D01*
X318258Y97115D01*
X318290Y97163D01*
X318330Y97206D01*
X318369Y97281D01*
X318416Y97351D01*
X318433Y97407D01*
X318460Y97459D01*
X318471Y97527D01*
X318501Y97622D01*
X318504Y97722D01*
X318515Y97790D01*
X318515Y125985D01*
X368300Y125985D01*
X368358Y125993D01*
X368416Y125991D01*
X368498Y126013D01*
X368582Y126025D01*
X368635Y126049D01*
X368691Y126063D01*
X368764Y126106D01*
X368841Y126141D01*
X368886Y126179D01*
X368936Y126209D01*
X368994Y126270D01*
X369058Y126325D01*
X369090Y126373D01*
X369130Y126416D01*
X369169Y126491D01*
X369216Y126561D01*
X369233Y126617D01*
X369260Y126669D01*
X369271Y126737D01*
X369301Y126832D01*
X369304Y126932D01*
X369315Y127000D01*
X369315Y133350D01*
X369307Y133408D01*
X369309Y133466D01*
X369287Y133548D01*
X369275Y133632D01*
X369252Y133685D01*
X369237Y133741D01*
X369194Y133814D01*
X369159Y133891D01*
X369121Y133936D01*
X369092Y133986D01*
X369030Y134044D01*
X368976Y134108D01*
X368927Y134140D01*
X368884Y134180D01*
X368809Y134219D01*
X368739Y134266D01*
X368683Y134283D01*
X368631Y134310D01*
X368563Y134321D01*
X368468Y134351D01*
X368368Y134354D01*
X368300Y134365D01*
X241300Y134365D01*
X241242Y134357D01*
X241184Y134359D01*
X241102Y134337D01*
X241019Y134325D01*
X240965Y134302D01*
X240909Y134287D01*
X240836Y134244D01*
X240759Y134209D01*
X240714Y134171D01*
X240664Y134142D01*
X240606Y134080D01*
X240542Y134026D01*
X240510Y133977D01*
X240470Y133934D01*
X240431Y133859D01*
X240385Y133789D01*
X240367Y133733D01*
X240340Y133681D01*
X240329Y133613D01*
X240299Y133518D01*
X240296Y133418D01*
X240285Y133350D01*
X240285Y127000D01*
X240293Y126942D01*
X240291Y126884D01*
X240313Y126802D01*
X240325Y126719D01*
X240349Y126665D01*
X240363Y126609D01*
X240406Y126536D01*
X240441Y126459D01*
X240479Y126414D01*
X240509Y126364D01*
X240570Y126306D01*
X240625Y126242D01*
X240673Y126210D01*
X240716Y126170D01*
X240791Y126131D01*
X240861Y126085D01*
X240917Y126067D01*
X240969Y126040D01*
X241037Y126029D01*
X241132Y125999D01*
X241232Y125996D01*
X241300Y125985D01*
X291085Y125985D01*
X291085Y97790D01*
X291093Y97732D01*
X291091Y97674D01*
X291113Y97592D01*
X291125Y97509D01*
X291149Y97455D01*
X291163Y97399D01*
X291206Y97326D01*
X291241Y97249D01*
X291279Y97204D01*
X291309Y97154D01*
X291370Y97096D01*
X291425Y97032D01*
X291473Y97000D01*
X291516Y96960D01*
X291591Y96921D01*
X291661Y96875D01*
X291717Y96857D01*
X291769Y96830D01*
X291837Y96819D01*
X291932Y96789D01*
X292032Y96786D01*
X292051Y96783D01*
X292051Y31800D01*
X292087Y31753D01*
X292094Y31758D01*
X292100Y31751D01*
X317400Y31751D01*
X317447Y31787D01*
G37*
G36*
X317447Y285787D02*
X317447Y285787D01*
X317443Y285792D01*
X317449Y285796D01*
X317549Y286896D01*
X317547Y286898D01*
X317549Y286900D01*
X317549Y350782D01*
X317558Y350783D01*
X317616Y350781D01*
X317698Y350803D01*
X317782Y350815D01*
X317835Y350839D01*
X317891Y350853D01*
X317964Y350896D01*
X318041Y350931D01*
X318086Y350969D01*
X318136Y350999D01*
X318194Y351060D01*
X318258Y351115D01*
X318290Y351163D01*
X318330Y351206D01*
X318369Y351281D01*
X318416Y351351D01*
X318433Y351407D01*
X318460Y351459D01*
X318471Y351527D01*
X318501Y351622D01*
X318504Y351722D01*
X318515Y351790D01*
X318515Y381000D01*
X318507Y381058D01*
X318509Y381116D01*
X318487Y381198D01*
X318475Y381282D01*
X318452Y381335D01*
X318437Y381391D01*
X318394Y381464D01*
X318359Y381541D01*
X318321Y381586D01*
X318292Y381636D01*
X318230Y381694D01*
X318176Y381758D01*
X318127Y381790D01*
X318084Y381830D01*
X318009Y381869D01*
X317939Y381916D01*
X317883Y381933D01*
X317831Y381960D01*
X317763Y381971D01*
X317668Y382001D01*
X317568Y382004D01*
X317500Y382015D01*
X292100Y382015D01*
X292042Y382007D01*
X291984Y382009D01*
X291902Y381987D01*
X291819Y381975D01*
X291765Y381952D01*
X291709Y381937D01*
X291636Y381894D01*
X291559Y381859D01*
X291514Y381821D01*
X291464Y381792D01*
X291406Y381730D01*
X291342Y381676D01*
X291310Y381627D01*
X291270Y381584D01*
X291231Y381509D01*
X291185Y381439D01*
X291167Y381383D01*
X291140Y381331D01*
X291129Y381263D01*
X291099Y381168D01*
X291096Y381068D01*
X291085Y381000D01*
X291085Y351790D01*
X291093Y351732D01*
X291091Y351674D01*
X291113Y351592D01*
X291125Y351509D01*
X291149Y351455D01*
X291163Y351399D01*
X291206Y351326D01*
X291241Y351249D01*
X291279Y351204D01*
X291309Y351154D01*
X291370Y351096D01*
X291425Y351032D01*
X291473Y351000D01*
X291516Y350960D01*
X291591Y350921D01*
X291661Y350875D01*
X291717Y350857D01*
X291769Y350830D01*
X291837Y350819D01*
X291932Y350789D01*
X292032Y350786D01*
X292051Y350783D01*
X292051Y285800D01*
X292087Y285753D01*
X292094Y285758D01*
X292100Y285751D01*
X317400Y285751D01*
X317447Y285787D01*
G37*
G36*
X368358Y246643D02*
X368358Y246643D01*
X368416Y246641D01*
X368498Y246663D01*
X368582Y246675D01*
X368635Y246699D01*
X368691Y246713D01*
X368764Y246756D01*
X368841Y246791D01*
X368886Y246829D01*
X368936Y246859D01*
X368994Y246920D01*
X369058Y246975D01*
X369090Y247023D01*
X369130Y247066D01*
X369169Y247141D01*
X369216Y247211D01*
X369233Y247267D01*
X369260Y247319D01*
X369271Y247387D01*
X369301Y247482D01*
X369304Y247582D01*
X369315Y247650D01*
X369315Y254000D01*
X369307Y254058D01*
X369309Y254116D01*
X369287Y254198D01*
X369275Y254282D01*
X369252Y254335D01*
X369237Y254391D01*
X369194Y254464D01*
X369159Y254541D01*
X369121Y254586D01*
X369092Y254636D01*
X369030Y254694D01*
X368976Y254758D01*
X368927Y254790D01*
X368884Y254830D01*
X368809Y254869D01*
X368739Y254916D01*
X368683Y254933D01*
X368631Y254960D01*
X368563Y254971D01*
X368468Y255001D01*
X368368Y255004D01*
X368300Y255015D01*
X318474Y255015D01*
X318501Y255102D01*
X318504Y255202D01*
X318515Y255270D01*
X318515Y284480D01*
X318507Y284538D01*
X318509Y284596D01*
X318487Y284678D01*
X318475Y284762D01*
X318452Y284815D01*
X318437Y284871D01*
X318394Y284944D01*
X318359Y285021D01*
X318321Y285066D01*
X318292Y285116D01*
X318230Y285174D01*
X318176Y285238D01*
X318127Y285270D01*
X318084Y285310D01*
X318009Y285349D01*
X317939Y285396D01*
X317883Y285413D01*
X317831Y285440D01*
X317763Y285451D01*
X317668Y285481D01*
X317568Y285484D01*
X317500Y285495D01*
X292100Y285495D01*
X292042Y285487D01*
X291984Y285489D01*
X291902Y285467D01*
X291819Y285455D01*
X291765Y285432D01*
X291709Y285417D01*
X291636Y285374D01*
X291559Y285339D01*
X291514Y285301D01*
X291464Y285272D01*
X291406Y285210D01*
X291342Y285156D01*
X291310Y285107D01*
X291270Y285064D01*
X291231Y284989D01*
X291185Y284919D01*
X291167Y284863D01*
X291140Y284811D01*
X291129Y284743D01*
X291099Y284648D01*
X291096Y284548D01*
X291085Y284480D01*
X291085Y255270D01*
X291093Y255212D01*
X291091Y255154D01*
X291113Y255072D01*
X291121Y255015D01*
X241300Y255015D01*
X241242Y255007D01*
X241184Y255009D01*
X241102Y254987D01*
X241019Y254975D01*
X240965Y254952D01*
X240909Y254937D01*
X240836Y254894D01*
X240759Y254859D01*
X240714Y254821D01*
X240664Y254792D01*
X240606Y254730D01*
X240542Y254676D01*
X240510Y254627D01*
X240470Y254584D01*
X240431Y254509D01*
X240385Y254439D01*
X240367Y254383D01*
X240340Y254331D01*
X240329Y254263D01*
X240299Y254168D01*
X240296Y254068D01*
X240285Y254000D01*
X240285Y247650D01*
X240293Y247592D01*
X240291Y247534D01*
X240313Y247452D01*
X240325Y247369D01*
X240349Y247315D01*
X240363Y247259D01*
X240406Y247186D01*
X240441Y247109D01*
X240479Y247064D01*
X240509Y247014D01*
X240570Y246956D01*
X240625Y246892D01*
X240673Y246860D01*
X240716Y246820D01*
X240791Y246781D01*
X240861Y246735D01*
X240917Y246717D01*
X240969Y246690D01*
X241037Y246679D01*
X241132Y246649D01*
X241232Y246646D01*
X241300Y246635D01*
X368300Y246635D01*
X368358Y246643D01*
G37*
G36*
X26375Y58210D02*
X26375Y58210D01*
X26459Y58213D01*
X26460Y58213D01*
X26461Y58213D01*
X26539Y58256D01*
X26612Y58295D01*
X26612Y58296D01*
X26613Y58296D01*
X26617Y58302D01*
X26700Y58410D01*
X26773Y58555D01*
X27129Y58911D01*
X27136Y58922D01*
X27149Y58933D01*
X27749Y59633D01*
X27753Y59640D01*
X27760Y59647D01*
X28452Y60536D01*
X29343Y61526D01*
X29346Y61531D01*
X29352Y61537D01*
X30347Y62730D01*
X31440Y63923D01*
X32639Y65221D01*
X33939Y66621D01*
X33943Y66628D01*
X33950Y66634D01*
X35040Y67922D01*
X36122Y69004D01*
X37097Y69882D01*
X38049Y70548D01*
X39089Y71021D01*
X40111Y71300D01*
X43960Y71300D01*
X43980Y71305D01*
X44007Y71303D01*
X46407Y71603D01*
X46429Y71611D01*
X46460Y71613D01*
X48660Y72213D01*
X48683Y72225D01*
X48716Y72233D01*
X50716Y73133D01*
X50735Y73147D01*
X50763Y73159D01*
X52663Y74359D01*
X52674Y74369D01*
X52691Y74378D01*
X54391Y75678D01*
X54408Y75699D01*
X54437Y75720D01*
X55937Y77320D01*
X55945Y77334D01*
X55960Y77347D01*
X57360Y79147D01*
X57373Y79174D01*
X57398Y79206D01*
X59298Y82906D01*
X59306Y82937D01*
X59326Y82978D01*
X60326Y86578D01*
X60328Y86612D01*
X60340Y86658D01*
X60540Y90158D01*
X60534Y90190D01*
X60536Y90237D01*
X60036Y93537D01*
X60025Y93566D01*
X60018Y93608D01*
X59018Y96408D01*
X59004Y96429D01*
X58994Y96461D01*
X57694Y98861D01*
X57668Y98890D01*
X57629Y98949D01*
X55929Y100649D01*
X55899Y100667D01*
X55862Y100702D01*
X54262Y101702D01*
X54196Y101725D01*
X54132Y101753D01*
X54115Y101753D01*
X54098Y101758D01*
X54029Y101749D01*
X53959Y101747D01*
X53944Y101738D01*
X53926Y101736D01*
X53868Y101697D01*
X53807Y101664D01*
X53797Y101649D01*
X53782Y101639D01*
X53747Y101579D01*
X53707Y101522D01*
X53704Y101503D01*
X53696Y101489D01*
X53693Y101450D01*
X53680Y101380D01*
X53680Y100780D01*
X53687Y100750D01*
X53687Y100705D01*
X53773Y100274D01*
X53597Y99214D01*
X53358Y98816D01*
X52943Y98401D01*
X52382Y98160D01*
X51813Y98160D01*
X50498Y98536D01*
X49757Y98907D01*
X48395Y99880D01*
X47718Y100459D01*
X47259Y100918D01*
X46782Y101682D01*
X46779Y101685D01*
X46776Y101691D01*
X46409Y102242D01*
X46232Y102864D01*
X46145Y103380D01*
X46228Y103877D01*
X46407Y104324D01*
X46682Y104874D01*
X47036Y105316D01*
X47774Y105962D01*
X48152Y106151D01*
X48493Y106321D01*
X49227Y106505D01*
X50081Y106600D01*
X51313Y106600D01*
X51668Y106511D01*
X51704Y106511D01*
X51760Y106500D01*
X51860Y106500D01*
X51921Y106514D01*
X51984Y106520D01*
X52005Y106534D01*
X52029Y106539D01*
X52077Y106579D01*
X52130Y106613D01*
X52143Y106634D01*
X52162Y106649D01*
X52188Y106707D01*
X52221Y106760D01*
X52223Y106785D01*
X52233Y106808D01*
X52231Y106870D01*
X52237Y106933D01*
X52228Y106956D01*
X52227Y106981D01*
X52197Y107036D01*
X52174Y107095D01*
X52154Y107114D01*
X52144Y107133D01*
X52113Y107154D01*
X52071Y107196D01*
X51777Y107393D01*
X51081Y107889D01*
X51066Y107895D01*
X51052Y107908D01*
X49852Y108608D01*
X49828Y108616D01*
X49801Y108633D01*
X48301Y109233D01*
X48283Y109236D01*
X48262Y109246D01*
X46462Y109746D01*
X46428Y109748D01*
X46379Y109760D01*
X44379Y109860D01*
X44341Y109853D01*
X44276Y109851D01*
X42076Y109351D01*
X42042Y109334D01*
X41984Y109317D01*
X39684Y108117D01*
X39659Y108096D01*
X39618Y108074D01*
X37918Y106674D01*
X37895Y106643D01*
X37847Y106595D01*
X36747Y104995D01*
X36733Y104960D01*
X36701Y104907D01*
X36101Y103207D01*
X36098Y103172D01*
X36096Y103161D01*
X36087Y103142D01*
X36088Y103120D01*
X36080Y103080D01*
X36080Y101380D01*
X36089Y101342D01*
X36095Y101273D01*
X36595Y99573D01*
X36609Y99548D01*
X36620Y99510D01*
X37520Y97710D01*
X37539Y97687D01*
X37558Y97649D01*
X38858Y95949D01*
X38875Y95935D01*
X38891Y95911D01*
X40582Y94221D01*
X41838Y92771D01*
X42480Y91396D01*
X42480Y90137D01*
X42121Y88972D01*
X41309Y88070D01*
X40199Y87329D01*
X38907Y86960D01*
X37411Y86960D01*
X36371Y87244D01*
X35551Y87517D01*
X34918Y88059D01*
X34373Y88605D01*
X34116Y89118D01*
X33940Y89733D01*
X33940Y90318D01*
X34101Y90801D01*
X34348Y91130D01*
X34714Y91496D01*
X35193Y91879D01*
X35548Y92146D01*
X36001Y92327D01*
X36013Y92335D01*
X36030Y92340D01*
X36274Y92462D01*
X36630Y92640D01*
X36659Y92664D01*
X36729Y92711D01*
X36829Y92811D01*
X36842Y92833D01*
X36862Y92849D01*
X36888Y92906D01*
X36920Y92958D01*
X36923Y92984D01*
X36933Y93008D01*
X36931Y93069D01*
X36937Y93131D01*
X36928Y93155D01*
X36927Y93181D01*
X36897Y93235D01*
X36875Y93293D01*
X36856Y93310D01*
X36844Y93333D01*
X36794Y93368D01*
X36748Y93410D01*
X36723Y93418D01*
X36702Y93433D01*
X36618Y93449D01*
X36582Y93460D01*
X36572Y93458D01*
X36560Y93460D01*
X36522Y93460D01*
X36291Y93537D01*
X35801Y93733D01*
X35766Y93738D01*
X35714Y93756D01*
X35014Y93856D01*
X34990Y93854D01*
X34960Y93860D01*
X33160Y93860D01*
X33130Y93853D01*
X33085Y93853D01*
X32085Y93653D01*
X32075Y93648D01*
X32060Y93647D01*
X30960Y93347D01*
X30943Y93338D01*
X30919Y93333D01*
X29919Y92933D01*
X29892Y92914D01*
X29849Y92896D01*
X28949Y92296D01*
X28928Y92274D01*
X28891Y92249D01*
X28091Y91449D01*
X28080Y91431D01*
X28060Y91413D01*
X27360Y90513D01*
X27349Y90489D01*
X27326Y90462D01*
X26726Y89362D01*
X26717Y89329D01*
X26694Y89284D01*
X26294Y87884D01*
X26293Y87859D01*
X26283Y87827D01*
X26083Y86227D01*
X26084Y86215D01*
X26080Y86200D01*
X25980Y84300D01*
X25982Y84291D01*
X25980Y84280D01*
X25980Y58580D01*
X26000Y58495D01*
X26019Y58413D01*
X26019Y58412D01*
X26019Y58411D01*
X26076Y58343D01*
X26128Y58279D01*
X26129Y58278D01*
X26207Y58243D01*
X26286Y58207D01*
X26287Y58207D01*
X26288Y58207D01*
X26375Y58210D01*
G37*
G36*
X26809Y132579D02*
X26809Y132579D01*
X26831Y132583D01*
X26838Y132598D01*
X26847Y132604D01*
X26846Y132614D01*
X26853Y132630D01*
X26853Y138070D01*
X26849Y138076D01*
X26834Y138114D01*
X26824Y138124D01*
X26817Y138126D01*
X26816Y138127D01*
X26813Y138127D01*
X26796Y138131D01*
X26768Y138142D01*
X26763Y138138D01*
X26758Y138139D01*
X26751Y138130D01*
X26726Y138112D01*
X26656Y137992D01*
X26597Y137894D01*
X26502Y137760D01*
X26317Y137566D01*
X26090Y137378D01*
X25903Y137230D01*
X25688Y137094D01*
X25392Y136926D01*
X25118Y136809D01*
X24753Y136690D01*
X24468Y136622D01*
X24152Y136572D01*
X23796Y136533D01*
X23501Y136533D01*
X23204Y136543D01*
X22848Y136572D01*
X22244Y136671D01*
X21628Y136860D01*
X21622Y136858D01*
X21612Y136869D01*
X21315Y136978D01*
X21001Y137135D01*
X20655Y137352D01*
X20358Y137550D01*
X20063Y137806D01*
X19796Y138082D01*
X19579Y138330D01*
X19402Y138566D01*
X19164Y138943D01*
X19044Y139151D01*
X19032Y139158D01*
X19027Y139164D01*
X19027Y139176D01*
X18897Y139465D01*
X18749Y139803D01*
X18640Y140117D01*
X18531Y140604D01*
X18432Y141042D01*
X18382Y141357D01*
X18343Y142002D01*
X18333Y142261D01*
X18343Y142588D01*
X18331Y142607D01*
X18339Y142620D01*
X18348Y142627D01*
X18347Y142635D01*
X18353Y142645D01*
X18412Y143333D01*
X18452Y143619D01*
X18521Y143937D01*
X18600Y144263D01*
X18729Y144668D01*
X18857Y144975D01*
X19026Y145332D01*
X19214Y145677D01*
X19361Y145893D01*
X19589Y146190D01*
X19904Y146545D01*
X20428Y146970D01*
X20704Y147167D01*
X21060Y147365D01*
X21063Y147371D01*
X21067Y147369D01*
X21070Y147373D01*
X21076Y147373D01*
X21385Y147512D01*
X21729Y147650D01*
X22133Y147749D01*
X22628Y147838D01*
X23044Y147877D01*
X23511Y147897D01*
X23677Y147897D01*
X23984Y147868D01*
X24191Y147848D01*
X24486Y147789D01*
X24616Y147759D01*
X24851Y147700D01*
X25066Y147612D01*
X25353Y147493D01*
X25629Y147346D01*
X25884Y147188D01*
X26180Y146962D01*
X26427Y146735D01*
X26674Y146487D01*
X26753Y146398D01*
X26767Y146395D01*
X26774Y146383D01*
X26797Y146386D01*
X26819Y146380D01*
X26828Y146391D01*
X26841Y146393D01*
X26856Y146424D01*
X26862Y146432D01*
X26861Y146436D01*
X26863Y146440D01*
X26863Y147787D01*
X30457Y147787D01*
X30467Y132660D01*
X30479Y132641D01*
X30483Y132619D01*
X30498Y132612D01*
X30504Y132603D01*
X30514Y132604D01*
X30530Y132597D01*
X37700Y132597D01*
X37710Y132604D01*
X37714Y132604D01*
X37730Y132597D01*
X45171Y132607D01*
X45174Y132603D01*
X45184Y132604D01*
X45200Y132597D01*
X54080Y132597D01*
X54092Y132605D01*
X54094Y132603D01*
X54104Y132604D01*
X54120Y132597D01*
X64210Y132597D01*
X64211Y132598D01*
X64213Y132597D01*
X65113Y132647D01*
X65130Y132660D01*
X65136Y132658D01*
X66306Y132768D01*
X66311Y132771D01*
X66320Y132770D01*
X66499Y132830D01*
X67118Y133010D01*
X67818Y133220D01*
X67820Y133223D01*
X67825Y133222D01*
X68445Y133492D01*
X68446Y133494D01*
X68449Y133494D01*
X69019Y133794D01*
X69019Y133795D01*
X69020Y133795D01*
X69680Y134155D01*
X69682Y134159D01*
X69688Y134160D01*
X70308Y134630D01*
X70308Y134631D01*
X70310Y134632D01*
X71060Y135262D01*
X71061Y135265D01*
X71065Y135266D01*
X71495Y135706D01*
X71495Y135708D01*
X71498Y135710D01*
X72098Y136430D01*
X72099Y136439D01*
X72107Y136444D01*
X72106Y136454D01*
X72140Y136472D01*
X72360Y136762D01*
X72360Y136766D01*
X72364Y136769D01*
X72964Y137819D01*
X72964Y137820D01*
X72966Y137821D01*
X73356Y138571D01*
X73355Y138575D01*
X73359Y138579D01*
X73479Y138919D01*
X73479Y138920D01*
X73480Y138921D01*
X73660Y139501D01*
X73658Y139509D01*
X73660Y139511D01*
X73860Y140151D01*
X73859Y140155D01*
X73862Y140158D01*
X73952Y140628D01*
X73951Y140631D01*
X73952Y140634D01*
X74112Y142184D01*
X74110Y142188D01*
X74113Y142194D01*
X74053Y143064D01*
X74052Y143065D01*
X74052Y143067D01*
X73942Y144077D01*
X73942Y144078D01*
X73942Y144080D01*
X73892Y144400D01*
X73889Y144403D01*
X73890Y144408D01*
X73770Y144798D01*
X73731Y144946D01*
X73721Y144955D01*
X73721Y144958D01*
X73719Y144959D01*
X73718Y144965D01*
X73720Y144979D01*
X73440Y145859D01*
X73438Y145861D01*
X73438Y145864D01*
X73238Y146354D01*
X73236Y146356D01*
X73235Y146360D01*
X72845Y147080D01*
X72535Y147640D01*
X72531Y147642D01*
X72530Y147648D01*
X72290Y147968D01*
X72288Y147969D01*
X72287Y147971D01*
X72283Y147973D01*
X72279Y147989D01*
X71519Y148929D01*
X71517Y148930D01*
X71516Y148931D01*
X71516Y148933D01*
X71136Y149333D01*
X71132Y149334D01*
X71130Y149338D01*
X70730Y149668D01*
X70730Y149669D01*
X70290Y150029D01*
X69961Y150308D01*
X69956Y150308D01*
X69952Y150314D01*
X69522Y150574D01*
X69521Y150574D01*
X69520Y150575D01*
X68680Y151035D01*
X68679Y151035D01*
X68678Y151036D01*
X68028Y151366D01*
X68024Y151365D01*
X68019Y151370D01*
X67489Y151540D01*
X66559Y151830D01*
X66544Y151826D01*
X66542Y151827D01*
X66536Y151837D01*
X66528Y151836D01*
X66517Y151842D01*
X64377Y152092D01*
X64374Y152091D01*
X64370Y152093D01*
X59390Y152093D01*
X59377Y152085D01*
X59376Y152087D01*
X59366Y152086D01*
X59350Y152093D01*
X50899Y152083D01*
X50896Y152087D01*
X50884Y152085D01*
X50874Y152093D01*
X50861Y152088D01*
X50850Y152093D01*
X34840Y152093D01*
X34830Y152086D01*
X34826Y152086D01*
X34810Y152093D01*
X26810Y152093D01*
X26806Y152090D01*
X26800Y152093D01*
X24070Y152093D01*
X24068Y152091D01*
X24065Y152093D01*
X22425Y151963D01*
X22423Y151961D01*
X22420Y151962D01*
X21750Y151852D01*
X21747Y151849D01*
X21742Y151850D01*
X20492Y151480D01*
X20491Y151478D01*
X20488Y151479D01*
X19808Y151219D01*
X19805Y151216D01*
X19800Y151215D01*
X19190Y150885D01*
X19189Y150885D01*
X18530Y150515D01*
X18512Y150506D01*
X18501Y150488D01*
X18493Y150490D01*
X18488Y150484D01*
X18475Y150482D01*
X18125Y150242D01*
X18124Y150239D01*
X18120Y150239D01*
X17630Y149839D01*
X17630Y149838D01*
X17629Y149838D01*
X17349Y149598D01*
X17349Y149597D01*
X17109Y149387D01*
X17108Y149387D01*
X16928Y149227D01*
X16927Y149224D01*
X16923Y149222D01*
X16673Y148942D01*
X16673Y148941D01*
X16672Y148940D01*
X16322Y148520D01*
X16002Y148130D01*
X16001Y148129D01*
X16000Y148128D01*
X15780Y147838D01*
X15780Y147837D01*
X15779Y147836D01*
X15589Y147566D01*
X15589Y147564D01*
X15586Y147562D01*
X15406Y147252D01*
X15406Y147251D01*
X15405Y147250D01*
X15245Y146960D01*
X15245Y146959D01*
X15244Y146959D01*
X14844Y146179D01*
X14845Y146175D01*
X14841Y146171D01*
X14561Y145381D01*
X14561Y145379D01*
X14560Y145378D01*
X14494Y145152D01*
X14489Y145146D01*
X14219Y144146D01*
X14221Y144142D01*
X14218Y144136D01*
X14158Y143526D01*
X14088Y142846D01*
X14087Y142845D01*
X14057Y142445D01*
X14070Y142422D01*
X14071Y142417D01*
X14067Y142409D01*
X14077Y141979D01*
X14079Y141977D01*
X14078Y141974D01*
X14128Y141464D01*
X14128Y141463D01*
X14178Y140993D01*
X14218Y140604D01*
X14220Y140601D01*
X14219Y140597D01*
X14289Y140267D01*
X14290Y140266D01*
X14289Y140264D01*
X14469Y139604D01*
X14471Y139602D01*
X14470Y139600D01*
X14750Y138760D01*
X14752Y138759D01*
X14752Y138756D01*
X14972Y138216D01*
X14975Y138214D01*
X14975Y138210D01*
X15225Y137760D01*
X15495Y137260D01*
X15593Y137082D01*
X15588Y137072D01*
X15593Y137066D01*
X15591Y137058D01*
X15614Y137041D01*
X15616Y137038D01*
X15620Y137022D01*
X15980Y136542D01*
X15981Y136542D01*
X15982Y136540D01*
X16322Y136130D01*
X16942Y135390D01*
X16947Y135388D01*
X16950Y135381D01*
X18110Y134431D01*
X18112Y134431D01*
X18113Y134430D01*
X18343Y134260D01*
X18345Y134259D01*
X18347Y134256D01*
X18807Y133976D01*
X18809Y133976D01*
X18810Y133975D01*
X19220Y133755D01*
X19221Y133755D01*
X19560Y133575D01*
X19949Y133355D01*
X19971Y133357D01*
X19972Y133349D01*
X19984Y133346D01*
X20002Y133330D01*
X22002Y132740D01*
X22007Y132741D01*
X22014Y132738D01*
X23724Y132568D01*
X23726Y132569D01*
X23730Y132567D01*
X26790Y132567D01*
X26809Y132579D01*
G37*
G36*
X317558Y263D02*
X317558Y263D01*
X317616Y261D01*
X317698Y283D01*
X317782Y295D01*
X317835Y319D01*
X317891Y333D01*
X317964Y376D01*
X318041Y411D01*
X318086Y449D01*
X318136Y479D01*
X318194Y540D01*
X318258Y595D01*
X318290Y643D01*
X318330Y686D01*
X318369Y761D01*
X318416Y831D01*
X318433Y887D01*
X318460Y939D01*
X318471Y1007D01*
X318501Y1102D01*
X318504Y1202D01*
X318515Y1270D01*
X318515Y30480D01*
X318507Y30538D01*
X318509Y30596D01*
X318487Y30678D01*
X318475Y30762D01*
X318452Y30815D01*
X318437Y30871D01*
X318394Y30944D01*
X318359Y31021D01*
X318321Y31066D01*
X318292Y31116D01*
X318230Y31174D01*
X318176Y31238D01*
X318127Y31270D01*
X318084Y31310D01*
X318009Y31349D01*
X317939Y31396D01*
X317883Y31413D01*
X317831Y31440D01*
X317763Y31451D01*
X317668Y31481D01*
X317568Y31484D01*
X317500Y31495D01*
X292100Y31495D01*
X292042Y31487D01*
X291984Y31489D01*
X291902Y31467D01*
X291819Y31455D01*
X291765Y31432D01*
X291709Y31417D01*
X291636Y31374D01*
X291559Y31339D01*
X291514Y31301D01*
X291464Y31272D01*
X291406Y31210D01*
X291342Y31156D01*
X291310Y31107D01*
X291270Y31064D01*
X291231Y30989D01*
X291185Y30919D01*
X291167Y30863D01*
X291140Y30811D01*
X291129Y30743D01*
X291099Y30648D01*
X291096Y30548D01*
X291085Y30480D01*
X291085Y1270D01*
X291093Y1212D01*
X291091Y1154D01*
X291113Y1072D01*
X291125Y989D01*
X291149Y935D01*
X291163Y879D01*
X291206Y806D01*
X291241Y729D01*
X291279Y684D01*
X291309Y634D01*
X291370Y576D01*
X291425Y512D01*
X291473Y480D01*
X291516Y440D01*
X291591Y401D01*
X291661Y355D01*
X291717Y337D01*
X291769Y310D01*
X291837Y299D01*
X291932Y269D01*
X292032Y266D01*
X292100Y255D01*
X317500Y255D01*
X317558Y263D01*
G37*
%LPC*%
G36*
X297704Y312749D02*
X297704Y312749D01*
X296531Y312945D01*
X295948Y313915D01*
X295850Y315293D01*
X296242Y316372D01*
X297231Y317262D01*
X301329Y320260D01*
X304329Y322460D01*
X304330Y322462D01*
X304330Y322461D01*
X305730Y323561D01*
X305732Y323566D01*
X305735Y323565D01*
X306135Y323965D01*
X306137Y323979D01*
X306147Y323987D01*
X306139Y323997D01*
X306143Y324024D01*
X306116Y324028D01*
X306100Y324049D01*
X297023Y324049D01*
X295849Y325418D01*
X295849Y326789D01*
X296335Y327859D01*
X297408Y328151D01*
X298704Y328251D01*
X298743Y328285D01*
X298746Y328288D01*
X298748Y328289D01*
X298753Y328309D01*
X298777Y328257D01*
X298791Y328263D01*
X298800Y328251D01*
X311400Y328251D01*
X311447Y328287D01*
X311446Y328288D01*
X311447Y328289D01*
X311444Y328295D01*
X311449Y328299D01*
X311549Y332099D01*
X311515Y332147D01*
X311506Y332141D01*
X311500Y332149D01*
X299706Y332149D01*
X300640Y336351D01*
X308200Y336351D01*
X308205Y336354D01*
X308208Y336351D01*
X309408Y336551D01*
X309449Y336595D01*
X309446Y336598D01*
X309449Y336600D01*
X309449Y340400D01*
X309433Y340421D01*
X309435Y340435D01*
X309036Y340834D01*
X308237Y341733D01*
X308233Y341734D01*
X308233Y341737D01*
X307233Y342637D01*
X307222Y342638D01*
X307220Y342645D01*
X306120Y343145D01*
X306111Y343143D01*
X306108Y343149D01*
X304808Y343349D01*
X304798Y343343D01*
X304793Y343349D01*
X303493Y343149D01*
X303487Y343144D01*
X303483Y343146D01*
X302383Y342746D01*
X302377Y342737D01*
X302369Y342738D01*
X301369Y341938D01*
X301367Y341931D01*
X301362Y341931D01*
X300562Y340931D01*
X300561Y340924D01*
X300561Y340918D01*
X300553Y340916D01*
X300153Y339716D01*
X300156Y339707D01*
X300151Y339704D01*
X300051Y338404D01*
X300053Y338401D01*
X300051Y338400D01*
X300051Y337200D01*
X300062Y337185D01*
X300058Y337174D01*
X300547Y336391D01*
X299552Y332149D01*
X297507Y332149D01*
X296432Y332442D01*
X295948Y333216D01*
X295849Y334302D01*
X295849Y339396D01*
X296048Y340590D01*
X296347Y341784D01*
X296843Y342876D01*
X297539Y343970D01*
X298436Y344966D01*
X299330Y345860D01*
X300424Y346457D01*
X301518Y347054D01*
X302710Y347352D01*
X304004Y347551D01*
X305296Y347551D01*
X306590Y347352D01*
X307784Y347053D01*
X308876Y346557D01*
X309870Y345861D01*
X310866Y345064D01*
X311761Y344069D01*
X312458Y343074D01*
X313055Y341980D01*
X313452Y340789D01*
X313651Y339496D01*
X313651Y334403D01*
X313453Y333021D01*
X312874Y332346D01*
X311593Y332149D01*
X311556Y332111D01*
X311552Y332108D01*
X311553Y332108D01*
X311551Y332106D01*
X311554Y332103D01*
X311551Y332101D01*
X311451Y328301D01*
X311485Y328253D01*
X311492Y328257D01*
X311496Y328251D01*
X312581Y328152D01*
X313454Y327474D01*
X313651Y325999D01*
X313552Y324723D01*
X312469Y323738D01*
X306370Y319139D01*
X303570Y316939D01*
X303565Y316923D01*
X303553Y316913D01*
X303560Y316903D01*
X303555Y316881D01*
X303583Y316874D01*
X303600Y316851D01*
X312288Y316851D01*
X313260Y316365D01*
X313650Y315293D01*
X313552Y313620D01*
X312876Y312847D01*
X311698Y312749D01*
X297704Y312749D01*
G37*
%LPD*%
%LPC*%
G36*
X297704Y58749D02*
X297704Y58749D01*
X296531Y58945D01*
X295948Y59915D01*
X295850Y61293D01*
X296242Y62372D01*
X297231Y63262D01*
X301329Y66260D01*
X304329Y68460D01*
X304330Y68462D01*
X304330Y68461D01*
X305730Y69561D01*
X305732Y69566D01*
X305735Y69565D01*
X306135Y69965D01*
X306137Y69979D01*
X306147Y69987D01*
X306139Y69997D01*
X306143Y70024D01*
X306116Y70028D01*
X306100Y70049D01*
X297023Y70049D01*
X295849Y71418D01*
X295849Y72789D01*
X296335Y73859D01*
X297408Y74151D01*
X298704Y74251D01*
X298743Y74285D01*
X298746Y74288D01*
X298748Y74289D01*
X298753Y74309D01*
X298777Y74257D01*
X298791Y74263D01*
X298800Y74251D01*
X311400Y74251D01*
X311447Y74287D01*
X311446Y74288D01*
X311447Y74289D01*
X311444Y74295D01*
X311449Y74299D01*
X311549Y78099D01*
X311515Y78147D01*
X311506Y78141D01*
X311500Y78149D01*
X299706Y78149D01*
X300640Y82351D01*
X308200Y82351D01*
X308205Y82354D01*
X308208Y82351D01*
X309408Y82551D01*
X309449Y82595D01*
X309446Y82598D01*
X309449Y82600D01*
X309449Y86400D01*
X309433Y86421D01*
X309435Y86435D01*
X309036Y86834D01*
X308237Y87733D01*
X308233Y87734D01*
X308233Y87737D01*
X307233Y88637D01*
X307222Y88638D01*
X307220Y88645D01*
X306120Y89145D01*
X306111Y89143D01*
X306108Y89149D01*
X304808Y89349D01*
X304798Y89343D01*
X304793Y89349D01*
X303493Y89149D01*
X303487Y89144D01*
X303483Y89146D01*
X302383Y88746D01*
X302377Y88737D01*
X302369Y88738D01*
X301369Y87938D01*
X301367Y87931D01*
X301362Y87931D01*
X300562Y86931D01*
X300561Y86924D01*
X300561Y86918D01*
X300553Y86916D01*
X300153Y85716D01*
X300156Y85707D01*
X300151Y85704D01*
X300051Y84404D01*
X300053Y84401D01*
X300051Y84400D01*
X300051Y83200D01*
X300062Y83185D01*
X300058Y83174D01*
X300547Y82391D01*
X299552Y78149D01*
X297507Y78149D01*
X296432Y78442D01*
X295948Y79216D01*
X295849Y80302D01*
X295849Y85396D01*
X296048Y86590D01*
X296347Y87784D01*
X296843Y88876D01*
X297539Y89970D01*
X298436Y90966D01*
X299330Y91860D01*
X300424Y92457D01*
X301518Y93054D01*
X302710Y93352D01*
X304004Y93551D01*
X305296Y93551D01*
X306590Y93352D01*
X307784Y93053D01*
X308876Y92557D01*
X309870Y91861D01*
X310866Y91064D01*
X311761Y90069D01*
X312458Y89074D01*
X313055Y87980D01*
X313452Y86789D01*
X313651Y85496D01*
X313651Y80403D01*
X313453Y79021D01*
X312874Y78346D01*
X311593Y78149D01*
X311556Y78111D01*
X311552Y78108D01*
X311553Y78108D01*
X311551Y78106D01*
X311554Y78103D01*
X311551Y78101D01*
X311451Y74301D01*
X311485Y74253D01*
X311492Y74257D01*
X311496Y74251D01*
X312581Y74152D01*
X313454Y73474D01*
X313651Y71999D01*
X313552Y70723D01*
X312469Y69738D01*
X306370Y65139D01*
X303570Y62939D01*
X303565Y62923D01*
X303553Y62913D01*
X303560Y62903D01*
X303555Y62881D01*
X303583Y62874D01*
X303600Y62851D01*
X312288Y62851D01*
X313260Y62365D01*
X313650Y61293D01*
X313552Y59620D01*
X312876Y58847D01*
X311698Y58749D01*
X297704Y58749D01*
G37*
%LPD*%
G36*
X445354Y136531D02*
X445354Y136531D01*
X445359Y136536D01*
X445363Y136533D01*
X446463Y136833D01*
X446467Y136838D01*
X446472Y136836D01*
X447472Y137336D01*
X447476Y137344D01*
X447483Y137343D01*
X448383Y138143D01*
X448384Y138148D01*
X448387Y138148D01*
X449087Y138948D01*
X449088Y138955D01*
X449093Y138956D01*
X449593Y139856D01*
X449592Y139862D01*
X449593Y139862D01*
X449596Y139863D01*
X449996Y140963D01*
X449995Y140966D01*
X449998Y140967D01*
X450298Y142067D01*
X450296Y142071D01*
X450299Y142073D01*
X450499Y143373D01*
X450497Y143375D01*
X450499Y143376D01*
X450599Y144676D01*
X450598Y144679D01*
X450599Y144680D01*
X450599Y145980D01*
X450597Y145983D01*
X450599Y145984D01*
X450499Y147184D01*
X450497Y147187D01*
X450498Y147189D01*
X450298Y148289D01*
X450295Y148292D01*
X450297Y148296D01*
X449897Y149496D01*
X449896Y149496D01*
X449896Y149497D01*
X449496Y150597D01*
X449490Y150601D01*
X449492Y150605D01*
X448892Y151605D01*
X448884Y151609D01*
X448885Y151615D01*
X448085Y152415D01*
X448078Y152416D01*
X448078Y152420D01*
X447078Y153120D01*
X447071Y153120D01*
X447070Y153125D01*
X445970Y153625D01*
X445962Y153623D01*
X445959Y153628D01*
X444859Y153828D01*
X444853Y153825D01*
X444850Y153829D01*
X443550Y153829D01*
X443543Y153824D01*
X443538Y153828D01*
X442338Y153528D01*
X442335Y153524D01*
X442332Y153526D01*
X441332Y153126D01*
X441329Y153122D01*
X441326Y153123D01*
X440226Y152523D01*
X440221Y152511D01*
X440212Y152512D01*
X439712Y151912D01*
X439712Y151905D01*
X439707Y151904D01*
X439207Y151004D01*
X439207Y151001D01*
X439205Y151000D01*
X438705Y149900D01*
X438706Y149897D01*
X438703Y149896D01*
X438303Y148696D01*
X438304Y148694D01*
X438303Y148693D01*
X438003Y147593D01*
X438005Y147587D01*
X438001Y147584D01*
X437901Y146384D01*
X437801Y145084D01*
X437804Y145079D01*
X437801Y145076D01*
X437901Y143776D01*
X438001Y142576D01*
X438003Y142573D01*
X438002Y142571D01*
X438202Y141471D01*
X438206Y141467D01*
X438204Y141463D01*
X438604Y140363D01*
X438606Y140362D01*
X438605Y140360D01*
X439105Y139260D01*
X439110Y139257D01*
X439109Y139253D01*
X439709Y138353D01*
X439718Y138350D01*
X439717Y138343D01*
X440617Y137543D01*
X440626Y137543D01*
X440626Y137537D01*
X441726Y136937D01*
X441732Y136938D01*
X441733Y136934D01*
X442833Y136534D01*
X442842Y136537D01*
X442846Y136531D01*
X444046Y136431D01*
X444051Y136434D01*
X444054Y136431D01*
X445354Y136531D01*
G37*
%LPC*%
G36*
X302908Y38849D02*
X302908Y38849D01*
X301616Y39147D01*
X300522Y39644D01*
X299426Y40242D01*
X298433Y40937D01*
X297538Y41931D01*
X296741Y42927D01*
X296145Y44020D01*
X295747Y45214D01*
X295449Y46408D01*
X295349Y47602D01*
X295349Y48894D01*
X295647Y50086D01*
X296045Y51280D01*
X296642Y52374D01*
X297433Y53461D01*
X298400Y53945D01*
X299571Y53359D01*
X300555Y52375D01*
X300749Y51505D01*
X299755Y49119D01*
X299757Y49110D01*
X299751Y49108D01*
X299551Y47808D01*
X299555Y47800D01*
X299551Y47796D01*
X299651Y46596D01*
X299658Y46588D01*
X299655Y46581D01*
X300155Y45381D01*
X300161Y45377D01*
X300160Y45372D01*
X300860Y44372D01*
X300869Y44369D01*
X300869Y44362D01*
X301869Y43562D01*
X301881Y43561D01*
X301883Y43554D01*
X302983Y43154D01*
X302993Y43157D01*
X302997Y43151D01*
X304397Y43051D01*
X304401Y43054D01*
X304404Y43051D01*
X305704Y43151D01*
X305713Y43159D01*
X305720Y43155D01*
X306820Y43655D01*
X306824Y43661D01*
X306828Y43660D01*
X307828Y44360D01*
X307831Y44369D01*
X307838Y44369D01*
X308738Y45469D01*
X308738Y45477D01*
X308740Y45478D01*
X308740Y45479D01*
X308745Y45480D01*
X309245Y46580D01*
X309243Y46589D01*
X309249Y46592D01*
X309449Y47792D01*
X309443Y47802D01*
X309449Y47808D01*
X309249Y49108D01*
X309244Y49113D01*
X309246Y49117D01*
X308846Y50217D01*
X308804Y50244D01*
X308800Y50249D01*
X306200Y50249D01*
X306153Y50213D01*
X306158Y50207D01*
X306151Y50202D01*
X306051Y47619D01*
X305376Y46848D01*
X304109Y46750D01*
X303039Y47236D01*
X302649Y48309D01*
X302649Y52395D01*
X302944Y53772D01*
X303718Y54352D01*
X305002Y54451D01*
X310092Y54451D01*
X311272Y54057D01*
X312061Y53170D01*
X312657Y52276D01*
X313153Y51184D01*
X313452Y49891D01*
X313651Y48497D01*
X313651Y47104D01*
X313452Y45912D01*
X313054Y44718D01*
X312557Y43624D01*
X311860Y42529D01*
X311064Y41534D01*
X310070Y40639D01*
X308976Y39943D01*
X307881Y39446D01*
X306788Y39048D01*
X305494Y38849D01*
X304200Y38749D01*
X302908Y38849D01*
G37*
%LPD*%
%LPC*%
G36*
X302908Y292849D02*
X302908Y292849D01*
X301616Y293147D01*
X300522Y293644D01*
X299426Y294242D01*
X298433Y294937D01*
X297538Y295931D01*
X296741Y296927D01*
X296145Y298020D01*
X295747Y299214D01*
X295449Y300408D01*
X295349Y301602D01*
X295349Y302894D01*
X295647Y304086D01*
X296045Y305280D01*
X296642Y306374D01*
X297433Y307461D01*
X298400Y307945D01*
X299571Y307359D01*
X300555Y306375D01*
X300749Y305505D01*
X299755Y303119D01*
X299757Y303110D01*
X299751Y303108D01*
X299551Y301808D01*
X299555Y301800D01*
X299551Y301796D01*
X299651Y300596D01*
X299658Y300588D01*
X299655Y300581D01*
X300155Y299381D01*
X300161Y299377D01*
X300160Y299372D01*
X300860Y298372D01*
X300869Y298369D01*
X300869Y298362D01*
X301869Y297562D01*
X301881Y297561D01*
X301883Y297554D01*
X302983Y297154D01*
X302993Y297157D01*
X302997Y297151D01*
X304397Y297051D01*
X304401Y297054D01*
X304404Y297051D01*
X305704Y297151D01*
X305713Y297159D01*
X305720Y297155D01*
X306820Y297655D01*
X306824Y297661D01*
X306828Y297660D01*
X307828Y298360D01*
X307831Y298369D01*
X307838Y298369D01*
X308738Y299469D01*
X308738Y299477D01*
X308740Y299478D01*
X308740Y299479D01*
X308745Y299480D01*
X309245Y300580D01*
X309243Y300589D01*
X309249Y300592D01*
X309449Y301792D01*
X309443Y301802D01*
X309449Y301808D01*
X309249Y303108D01*
X309244Y303113D01*
X309246Y303117D01*
X308846Y304217D01*
X308804Y304244D01*
X308800Y304249D01*
X306200Y304249D01*
X306153Y304213D01*
X306158Y304207D01*
X306151Y304202D01*
X306051Y301619D01*
X305376Y300848D01*
X304109Y300750D01*
X303039Y301236D01*
X302649Y302309D01*
X302649Y306395D01*
X302944Y307772D01*
X303718Y308352D01*
X305002Y308451D01*
X310092Y308451D01*
X311272Y308057D01*
X312061Y307170D01*
X312657Y306276D01*
X313153Y305184D01*
X313452Y303891D01*
X313651Y302497D01*
X313651Y301104D01*
X313452Y299912D01*
X313054Y298718D01*
X312557Y297624D01*
X311860Y296529D01*
X311064Y295534D01*
X310070Y294639D01*
X308976Y293943D01*
X307881Y293446D01*
X306788Y293048D01*
X305494Y292849D01*
X304200Y292749D01*
X302908Y292849D01*
G37*
%LPD*%
G36*
X506745Y143545D02*
X506745Y143545D01*
X506749Y143542D01*
X507849Y143742D01*
X507865Y143759D01*
X507877Y143758D01*
X508477Y144458D01*
X508479Y144482D01*
X508489Y144490D01*
X508489Y146090D01*
X508483Y146098D01*
X508487Y146104D01*
X508187Y147104D01*
X508163Y147122D01*
X508160Y147135D01*
X507260Y147535D01*
X507246Y147532D01*
X507240Y147539D01*
X499184Y147539D01*
X501770Y149551D01*
X507470Y153851D01*
X507471Y153856D01*
X507475Y153855D01*
X508375Y154755D01*
X508378Y154776D01*
X508389Y154782D01*
X508589Y155982D01*
X508586Y155988D01*
X508585Y155989D01*
X508583Y155992D01*
X508589Y155997D01*
X508389Y157397D01*
X508370Y157416D01*
X508370Y157429D01*
X507570Y158029D01*
X507553Y158029D01*
X507549Y158038D01*
X506449Y158238D01*
X506443Y158235D01*
X506440Y158239D01*
X494640Y158239D01*
X494638Y158237D01*
X494636Y158239D01*
X493336Y158139D01*
X493330Y158134D01*
X493326Y158137D01*
X492326Y157837D01*
X492310Y157816D01*
X492297Y157814D01*
X491797Y156914D01*
X491798Y156905D01*
X491793Y156901D01*
X491797Y156895D01*
X491791Y156890D01*
X491791Y155590D01*
X491797Y155582D01*
X491793Y155577D01*
X492093Y154477D01*
X492121Y154455D01*
X492126Y154443D01*
X493126Y154143D01*
X493133Y154146D01*
X493136Y154141D01*
X494436Y154041D01*
X494439Y154043D01*
X494440Y154041D01*
X501390Y154041D01*
X499611Y152730D01*
X497811Y151430D01*
X497811Y151429D01*
X497810Y151429D01*
X493010Y147829D01*
X493010Y147826D01*
X493007Y147827D01*
X492107Y147027D01*
X492104Y147011D01*
X492096Y147004D01*
X492093Y147003D01*
X491793Y145903D01*
X491797Y145891D01*
X491791Y145886D01*
X491891Y144686D01*
X491903Y144673D01*
X491899Y144663D01*
X492499Y143763D01*
X492525Y143754D01*
X492531Y143742D01*
X493631Y143542D01*
X493637Y143545D01*
X493640Y143541D01*
X506740Y143541D01*
X506745Y143545D01*
G37*
G36*
X219953Y136433D02*
X219953Y136433D01*
X219954Y136431D01*
X221154Y136531D01*
X221167Y136543D01*
X221177Y136539D01*
X222077Y137139D01*
X222087Y137166D01*
X222099Y137172D01*
X222299Y138372D01*
X222294Y138380D01*
X222299Y138384D01*
X222199Y139584D01*
X222185Y139600D01*
X222187Y139612D01*
X221487Y140412D01*
X221461Y140418D01*
X221454Y140429D01*
X220254Y140529D01*
X220251Y140527D01*
X220250Y140529D01*
X216676Y140529D01*
X216523Y140759D01*
X217370Y141135D01*
X217372Y141139D01*
X217375Y141138D01*
X218375Y141738D01*
X218378Y141744D01*
X218383Y141743D01*
X219383Y142643D01*
X220283Y143443D01*
X220285Y143454D01*
X220292Y143455D01*
X220892Y144455D01*
X220892Y144459D01*
X220895Y144460D01*
X221395Y145560D01*
X221392Y145572D01*
X221399Y145576D01*
X221499Y146776D01*
X221497Y146779D01*
X221499Y146780D01*
X221499Y147980D01*
X221495Y147985D01*
X221498Y147989D01*
X221298Y149089D01*
X221292Y149095D01*
X221295Y149100D01*
X220795Y150200D01*
X220791Y150202D01*
X220792Y150205D01*
X220192Y151205D01*
X220186Y151208D01*
X220187Y151213D01*
X219387Y152113D01*
X219378Y152115D01*
X219377Y152121D01*
X218477Y152721D01*
X218471Y152721D01*
X218470Y152725D01*
X217370Y153225D01*
X217362Y153223D01*
X217359Y153228D01*
X216259Y153428D01*
X216253Y153425D01*
X216250Y153429D01*
X214950Y153429D01*
X214947Y153427D01*
X214946Y153429D01*
X213746Y153329D01*
X213740Y153324D01*
X213737Y153324D01*
X213733Y153326D01*
X212633Y152926D01*
X212629Y152920D01*
X212625Y152922D01*
X211625Y152322D01*
X211621Y152312D01*
X211613Y152313D01*
X210813Y151413D01*
X210813Y151408D01*
X210810Y151408D01*
X210110Y150408D01*
X210110Y150403D01*
X210106Y150402D01*
X209606Y149402D01*
X209607Y149399D01*
X209604Y149397D01*
X209606Y149394D01*
X209603Y149393D01*
X209303Y148293D01*
X209305Y148287D01*
X209301Y148284D01*
X209201Y147084D01*
X209206Y147076D01*
X209202Y147071D01*
X209402Y145971D01*
X209420Y145954D01*
X209420Y145941D01*
X210220Y145341D01*
X210240Y145341D01*
X210247Y145331D01*
X211747Y145231D01*
X211757Y145237D01*
X211763Y145233D01*
X212863Y145533D01*
X212882Y145557D01*
X212895Y145560D01*
X213295Y146460D01*
X213294Y146463D01*
X213296Y146464D01*
X213293Y146469D01*
X213299Y146472D01*
X213498Y147667D01*
X213890Y148648D01*
X214864Y149329D01*
X216033Y149232D01*
X216911Y148647D01*
X217399Y147574D01*
X217204Y146600D01*
X216512Y145612D01*
X215718Y144818D01*
X214723Y144121D01*
X211725Y142322D01*
X211722Y142316D01*
X211717Y142317D01*
X210817Y141517D01*
X210816Y141512D01*
X210813Y141513D01*
X210013Y140613D01*
X210013Y140606D01*
X210008Y140605D01*
X209408Y139605D01*
X209408Y139599D01*
X209404Y139596D01*
X209407Y139592D01*
X209402Y139589D01*
X209202Y138489D01*
X209210Y138473D01*
X209204Y138463D01*
X209604Y137363D01*
X209618Y137354D01*
X209617Y137343D01*
X210517Y136543D01*
X210539Y136541D01*
X210546Y136531D01*
X211746Y136431D01*
X211749Y136433D01*
X211750Y136431D01*
X219950Y136431D01*
X219953Y136433D01*
G37*
G36*
X391184Y227571D02*
X391184Y227571D01*
X391188Y227575D01*
X391191Y227572D01*
X392491Y227872D01*
X392492Y227873D01*
X392493Y227873D01*
X393593Y228173D01*
X393597Y228178D01*
X393602Y228176D01*
X394602Y228676D01*
X394604Y228680D01*
X394607Y228679D01*
X395507Y229279D01*
X395510Y229286D01*
X395515Y229285D01*
X396315Y230085D01*
X396315Y230087D01*
X396317Y230087D01*
X397117Y230987D01*
X397117Y230994D01*
X397122Y230995D01*
X397722Y231995D01*
X397722Y231998D01*
X397724Y231998D01*
X398224Y232998D01*
X398223Y233002D01*
X398226Y233003D01*
X398626Y234103D01*
X398626Y234105D01*
X398627Y234106D01*
X398625Y234109D01*
X398628Y234111D01*
X398828Y235211D01*
X398828Y235212D01*
X398829Y235212D01*
X399029Y236412D01*
X399027Y236415D01*
X399029Y236416D01*
X399129Y237716D01*
X399126Y237721D01*
X399129Y237724D01*
X399029Y239024D01*
X399027Y239026D01*
X399029Y239028D01*
X398829Y240228D01*
X398824Y240233D01*
X398826Y240237D01*
X398426Y241337D01*
X398419Y241342D01*
X398421Y241347D01*
X397821Y242247D01*
X397818Y242248D01*
X397819Y242250D01*
X397119Y243150D01*
X397110Y243153D01*
X397110Y243159D01*
X396210Y243859D01*
X396200Y243859D01*
X396198Y243866D01*
X395198Y244266D01*
X395193Y244264D01*
X395192Y244268D01*
X393992Y244568D01*
X393984Y244564D01*
X393980Y244569D01*
X392680Y244569D01*
X392675Y244566D01*
X392672Y244569D01*
X391472Y244369D01*
X391467Y244364D01*
X391463Y244366D01*
X390363Y243966D01*
X390359Y243960D01*
X390355Y243962D01*
X389355Y243362D01*
X389351Y243352D01*
X389343Y243353D01*
X388543Y242453D01*
X388543Y242448D01*
X388540Y242448D01*
X387840Y241448D01*
X387840Y241437D01*
X387833Y241434D01*
X387533Y240434D01*
X387534Y240430D01*
X387531Y240428D01*
X387331Y239228D01*
X387334Y239223D01*
X387331Y239220D01*
X387331Y238920D01*
X387337Y238912D01*
X387333Y238907D01*
X387633Y237807D01*
X387637Y237803D01*
X387635Y237800D01*
X388135Y236700D01*
X388145Y236695D01*
X388143Y236687D01*
X388943Y235787D01*
X388952Y235786D01*
X388952Y235780D01*
X389952Y235080D01*
X389957Y235080D01*
X389958Y235076D01*
X390958Y234576D01*
X390966Y234577D01*
X390968Y234572D01*
X392168Y234272D01*
X392176Y234276D01*
X392180Y234271D01*
X393280Y234271D01*
X393287Y234276D01*
X393292Y234272D01*
X394412Y234552D01*
X394235Y233844D01*
X393446Y232956D01*
X392556Y232264D01*
X391368Y231868D01*
X390174Y231669D01*
X388876Y231569D01*
X388862Y231556D01*
X388850Y231559D01*
X388050Y230959D01*
X388045Y230941D01*
X388032Y230932D01*
X388034Y230929D01*
X388031Y230928D01*
X387831Y229728D01*
X387836Y229720D01*
X387831Y229716D01*
X387931Y228516D01*
X387945Y228500D01*
X387943Y228488D01*
X388643Y227688D01*
X388666Y227683D01*
X388673Y227671D01*
X389973Y227471D01*
X389980Y227475D01*
X389984Y227471D01*
X391184Y227571D01*
G37*
G36*
X499205Y232231D02*
X499205Y232231D01*
X499211Y232237D01*
X499216Y232233D01*
X500416Y232633D01*
X500421Y232641D01*
X500426Y232638D01*
X501526Y233338D01*
X501530Y233348D01*
X501537Y233348D01*
X502237Y234148D01*
X502237Y234152D01*
X502241Y234153D01*
X502841Y235053D01*
X502841Y235059D01*
X502845Y235060D01*
X503345Y236160D01*
X503343Y236169D01*
X503349Y236172D01*
X503549Y237372D01*
X503547Y237375D01*
X503549Y237376D01*
X503649Y238576D01*
X503646Y238581D01*
X503649Y238584D01*
X503549Y239884D01*
X503544Y239889D01*
X503548Y239893D01*
X503248Y240993D01*
X503243Y240997D01*
X503245Y241000D01*
X502745Y242100D01*
X502740Y242103D01*
X502741Y242107D01*
X502141Y243007D01*
X502132Y243010D01*
X502133Y243017D01*
X501233Y243817D01*
X501228Y243817D01*
X501227Y243821D01*
X500327Y244421D01*
X500319Y244420D01*
X500317Y244426D01*
X499217Y244826D01*
X499207Y244823D01*
X499204Y244829D01*
X497904Y244929D01*
X497896Y244924D01*
X497891Y244928D01*
X496791Y244728D01*
X496783Y244719D01*
X496775Y244722D01*
X495775Y244122D01*
X495771Y244114D01*
X495765Y244115D01*
X494880Y243229D01*
X494222Y243229D01*
X493537Y244012D01*
X493523Y244015D01*
X493520Y244025D01*
X492420Y244525D01*
X492406Y244522D01*
X492400Y244529D01*
X491200Y244529D01*
X491195Y244525D01*
X491191Y244528D01*
X490091Y244328D01*
X490084Y244321D01*
X490078Y244324D01*
X489078Y243824D01*
X489075Y243817D01*
X489069Y243818D01*
X488069Y243018D01*
X488068Y243014D01*
X488065Y243015D01*
X486365Y241315D01*
X486362Y241288D01*
X486351Y241280D01*
X486351Y237780D01*
X486356Y237773D01*
X486352Y237768D01*
X486652Y236568D01*
X486655Y236566D01*
X486654Y236563D01*
X487054Y235463D01*
X487060Y235459D01*
X487058Y235455D01*
X487658Y234455D01*
X487669Y234450D01*
X487669Y234442D01*
X488669Y233642D01*
X488676Y233641D01*
X488676Y233637D01*
X489776Y233037D01*
X489786Y233038D01*
X489789Y233032D01*
X490689Y232832D01*
X490710Y232842D01*
X490722Y232836D01*
X491722Y233336D01*
X491731Y233354D01*
X491743Y233355D01*
X492443Y234555D01*
X492441Y234570D01*
X492449Y234575D01*
X492549Y235575D01*
X492537Y235595D01*
X492541Y235607D01*
X491941Y236507D01*
X491929Y236512D01*
X491928Y236520D01*
X490939Y237213D01*
X490449Y238192D01*
X490449Y239463D01*
X491124Y240331D01*
X492067Y240331D01*
X492451Y239369D01*
X492551Y237877D01*
X492560Y237866D01*
X492556Y237858D01*
X492956Y237058D01*
X492980Y237046D01*
X492984Y237033D01*
X494184Y236633D01*
X494197Y236638D01*
X494203Y236631D01*
X495703Y236731D01*
X495722Y236747D01*
X495735Y236745D01*
X496435Y237445D01*
X496438Y237465D01*
X496448Y237470D01*
X496648Y238470D01*
X496646Y238474D01*
X496649Y238476D01*
X496748Y239760D01*
X497524Y240633D01*
X498582Y240729D01*
X499356Y239954D01*
X499650Y238875D01*
X499552Y237595D01*
X498966Y236619D01*
X497781Y236125D01*
X497773Y236111D01*
X497763Y236112D01*
X497163Y235412D01*
X497162Y235401D01*
X497154Y235395D01*
X497158Y235388D01*
X497151Y235384D01*
X497051Y233984D01*
X497057Y233975D01*
X497052Y233969D01*
X497352Y232669D01*
X497373Y232652D01*
X497374Y232638D01*
X498174Y232138D01*
X498196Y232140D01*
X498205Y232131D01*
X499205Y232231D01*
G37*
G36*
X118205Y203021D02*
X118205Y203021D01*
X118211Y203027D01*
X118216Y203023D01*
X119416Y203423D01*
X119421Y203431D01*
X119426Y203428D01*
X120526Y204128D01*
X120530Y204138D01*
X120537Y204138D01*
X121237Y204938D01*
X121237Y204942D01*
X121241Y204943D01*
X121841Y205843D01*
X121841Y205849D01*
X121845Y205850D01*
X122345Y206950D01*
X122343Y206959D01*
X122349Y206962D01*
X122549Y208162D01*
X122547Y208165D01*
X122549Y208166D01*
X122649Y209366D01*
X122646Y209371D01*
X122649Y209374D01*
X122549Y210674D01*
X122544Y210679D01*
X122548Y210683D01*
X122248Y211783D01*
X122243Y211787D01*
X122245Y211790D01*
X121745Y212890D01*
X121740Y212893D01*
X121741Y212897D01*
X121141Y213797D01*
X121132Y213800D01*
X121133Y213807D01*
X120233Y214607D01*
X120228Y214607D01*
X120227Y214611D01*
X119327Y215211D01*
X119319Y215210D01*
X119317Y215216D01*
X118217Y215616D01*
X118207Y215613D01*
X118204Y215619D01*
X116904Y215719D01*
X116896Y215714D01*
X116891Y215718D01*
X115791Y215518D01*
X115783Y215509D01*
X115775Y215512D01*
X114775Y214912D01*
X114771Y214904D01*
X114765Y214905D01*
X113880Y214019D01*
X113222Y214019D01*
X112537Y214802D01*
X112523Y214805D01*
X112520Y214815D01*
X111420Y215315D01*
X111406Y215312D01*
X111400Y215319D01*
X110200Y215319D01*
X110195Y215315D01*
X110191Y215318D01*
X109091Y215118D01*
X109084Y215111D01*
X109078Y215114D01*
X108078Y214614D01*
X108075Y214607D01*
X108069Y214608D01*
X107069Y213808D01*
X107068Y213804D01*
X107065Y213805D01*
X105365Y212105D01*
X105362Y212078D01*
X105351Y212070D01*
X105351Y208570D01*
X105356Y208563D01*
X105352Y208558D01*
X105652Y207358D01*
X105655Y207356D01*
X105654Y207353D01*
X106054Y206253D01*
X106060Y206249D01*
X106058Y206245D01*
X106658Y205245D01*
X106669Y205240D01*
X106669Y205232D01*
X107669Y204432D01*
X107676Y204431D01*
X107676Y204427D01*
X108776Y203827D01*
X108786Y203828D01*
X108789Y203822D01*
X109689Y203622D01*
X109710Y203632D01*
X109722Y203626D01*
X110722Y204126D01*
X110731Y204144D01*
X110743Y204145D01*
X111443Y205345D01*
X111441Y205360D01*
X111449Y205365D01*
X111549Y206365D01*
X111537Y206385D01*
X111541Y206397D01*
X110941Y207297D01*
X110929Y207302D01*
X110928Y207310D01*
X109939Y208003D01*
X109449Y208982D01*
X109449Y210253D01*
X110124Y211121D01*
X111067Y211121D01*
X111451Y210159D01*
X111551Y208667D01*
X111560Y208656D01*
X111556Y208648D01*
X111956Y207848D01*
X111980Y207836D01*
X111984Y207823D01*
X113184Y207423D01*
X113197Y207428D01*
X113203Y207421D01*
X114703Y207521D01*
X114722Y207537D01*
X114735Y207535D01*
X115435Y208235D01*
X115438Y208255D01*
X115448Y208260D01*
X115648Y209260D01*
X115646Y209264D01*
X115649Y209266D01*
X115748Y210550D01*
X116524Y211423D01*
X117582Y211519D01*
X118356Y210744D01*
X118650Y209665D01*
X118552Y208385D01*
X117966Y207409D01*
X116781Y206915D01*
X116773Y206901D01*
X116763Y206902D01*
X116163Y206202D01*
X116162Y206191D01*
X116154Y206185D01*
X116158Y206178D01*
X116151Y206174D01*
X116051Y204774D01*
X116057Y204765D01*
X116052Y204759D01*
X116352Y203459D01*
X116373Y203442D01*
X116374Y203428D01*
X117174Y202928D01*
X117196Y202930D01*
X117205Y202921D01*
X118205Y203021D01*
G37*
G36*
X499205Y195431D02*
X499205Y195431D01*
X499209Y195435D01*
X499212Y195432D01*
X500412Y195732D01*
X500419Y195741D01*
X500426Y195738D01*
X501526Y196438D01*
X501530Y196448D01*
X501537Y196448D01*
X502237Y197248D01*
X502238Y197254D01*
X502242Y197255D01*
X502842Y198255D01*
X502842Y198258D01*
X502844Y198258D01*
X503344Y199258D01*
X503342Y199269D01*
X503349Y199272D01*
X503549Y200472D01*
X503547Y200475D01*
X503549Y200476D01*
X503649Y201776D01*
X503646Y201781D01*
X503649Y201784D01*
X503549Y202984D01*
X503545Y202989D01*
X503548Y202992D01*
X503248Y204192D01*
X503242Y204197D01*
X503244Y204202D01*
X502744Y205202D01*
X502740Y205204D01*
X502741Y205207D01*
X502141Y206107D01*
X502134Y206110D01*
X502135Y206115D01*
X501235Y207015D01*
X501228Y207016D01*
X501227Y207021D01*
X500327Y207621D01*
X500316Y207620D01*
X500313Y207628D01*
X499213Y207928D01*
X499206Y207925D01*
X499204Y207929D01*
X497904Y208029D01*
X497896Y208024D01*
X497891Y208028D01*
X496791Y207828D01*
X496783Y207819D01*
X496775Y207822D01*
X495775Y207222D01*
X495771Y207214D01*
X495765Y207215D01*
X494880Y206329D01*
X494224Y206329D01*
X493539Y207210D01*
X493520Y207215D01*
X493517Y207226D01*
X492417Y207626D01*
X492408Y207623D01*
X492404Y207629D01*
X491204Y207729D01*
X491194Y207722D01*
X491187Y207728D01*
X490087Y207428D01*
X490083Y207422D01*
X490078Y207424D01*
X489078Y206924D01*
X489075Y206917D01*
X489069Y206918D01*
X488069Y206118D01*
X488068Y206116D01*
X488066Y206116D01*
X486366Y204516D01*
X486362Y204488D01*
X486351Y204480D01*
X486351Y200880D01*
X486357Y200872D01*
X486353Y200867D01*
X486653Y199767D01*
X486654Y199766D01*
X486653Y199764D01*
X487053Y198564D01*
X487061Y198559D01*
X487059Y198553D01*
X487659Y197653D01*
X487668Y197650D01*
X487667Y197643D01*
X488667Y196743D01*
X488676Y196743D01*
X488676Y196737D01*
X489776Y196137D01*
X489790Y196139D01*
X489795Y196131D01*
X490695Y196031D01*
X490711Y196041D01*
X490722Y196036D01*
X491722Y196536D01*
X491730Y196553D01*
X491742Y196554D01*
X492442Y197654D01*
X492440Y197670D01*
X492449Y197675D01*
X492549Y198675D01*
X492537Y198695D01*
X492541Y198707D01*
X491941Y199607D01*
X491929Y199612D01*
X491928Y199620D01*
X490939Y200313D01*
X490449Y201292D01*
X490449Y202563D01*
X491124Y203431D01*
X492067Y203431D01*
X492451Y202469D01*
X492551Y201077D01*
X492559Y201067D01*
X492555Y201060D01*
X492955Y200160D01*
X492983Y200145D01*
X492988Y200132D01*
X494188Y199832D01*
X494198Y199837D01*
X494203Y199831D01*
X495703Y199931D01*
X495720Y199945D01*
X495732Y199943D01*
X496432Y200543D01*
X496437Y200565D01*
X496448Y200570D01*
X496648Y201570D01*
X496648Y201572D01*
X496647Y201574D01*
X496646Y201574D01*
X496649Y201576D01*
X496748Y202860D01*
X497524Y203733D01*
X498582Y203829D01*
X499356Y203054D01*
X499650Y201976D01*
X499552Y200794D01*
X498965Y199719D01*
X497781Y199225D01*
X497773Y199211D01*
X497763Y199212D01*
X497163Y198512D01*
X497162Y198501D01*
X497155Y198496D01*
X497160Y198489D01*
X497151Y198484D01*
X497051Y197084D01*
X497057Y197074D01*
X497052Y197068D01*
X497352Y195868D01*
X497373Y195852D01*
X497374Y195838D01*
X498174Y195338D01*
X498196Y195340D01*
X498205Y195331D01*
X499205Y195431D01*
G37*
G36*
X118205Y166221D02*
X118205Y166221D01*
X118209Y166225D01*
X118212Y166222D01*
X119412Y166522D01*
X119419Y166531D01*
X119426Y166528D01*
X120526Y167228D01*
X120530Y167238D01*
X120537Y167238D01*
X121237Y168038D01*
X121238Y168044D01*
X121242Y168045D01*
X121842Y169045D01*
X121842Y169048D01*
X121844Y169048D01*
X122344Y170048D01*
X122342Y170059D01*
X122349Y170062D01*
X122549Y171262D01*
X122547Y171265D01*
X122549Y171266D01*
X122649Y172566D01*
X122646Y172571D01*
X122649Y172574D01*
X122549Y173774D01*
X122545Y173779D01*
X122548Y173782D01*
X122248Y174982D01*
X122242Y174987D01*
X122244Y174992D01*
X121744Y175992D01*
X121740Y175994D01*
X121741Y175997D01*
X121141Y176897D01*
X121134Y176900D01*
X121135Y176905D01*
X120235Y177805D01*
X120228Y177806D01*
X120227Y177811D01*
X119327Y178411D01*
X119316Y178410D01*
X119313Y178418D01*
X118213Y178718D01*
X118206Y178715D01*
X118204Y178719D01*
X116904Y178819D01*
X116896Y178814D01*
X116891Y178818D01*
X115791Y178618D01*
X115783Y178609D01*
X115775Y178612D01*
X114775Y178012D01*
X114771Y178004D01*
X114765Y178005D01*
X113880Y177119D01*
X113224Y177119D01*
X112539Y178000D01*
X112520Y178005D01*
X112517Y178016D01*
X111417Y178416D01*
X111408Y178413D01*
X111404Y178419D01*
X110204Y178519D01*
X110194Y178512D01*
X110187Y178518D01*
X109087Y178218D01*
X109083Y178212D01*
X109078Y178214D01*
X108078Y177714D01*
X108075Y177707D01*
X108069Y177708D01*
X107069Y176908D01*
X107068Y176906D01*
X107066Y176906D01*
X105366Y175306D01*
X105362Y175278D01*
X105351Y175270D01*
X105351Y171670D01*
X105357Y171662D01*
X105353Y171657D01*
X105653Y170557D01*
X105654Y170556D01*
X105653Y170554D01*
X106053Y169354D01*
X106061Y169349D01*
X106059Y169343D01*
X106659Y168443D01*
X106668Y168440D01*
X106667Y168433D01*
X107667Y167533D01*
X107676Y167533D01*
X107676Y167527D01*
X108776Y166927D01*
X108790Y166929D01*
X108795Y166921D01*
X109695Y166821D01*
X109711Y166831D01*
X109722Y166826D01*
X110722Y167326D01*
X110730Y167343D01*
X110742Y167344D01*
X111442Y168444D01*
X111440Y168460D01*
X111449Y168465D01*
X111549Y169465D01*
X111537Y169485D01*
X111541Y169497D01*
X110941Y170397D01*
X110929Y170402D01*
X110928Y170410D01*
X109939Y171103D01*
X109449Y172082D01*
X109449Y173353D01*
X110124Y174221D01*
X111067Y174221D01*
X111451Y173259D01*
X111551Y171867D01*
X111559Y171857D01*
X111555Y171850D01*
X111955Y170950D01*
X111983Y170935D01*
X111988Y170922D01*
X113188Y170622D01*
X113198Y170627D01*
X113203Y170621D01*
X114703Y170721D01*
X114720Y170735D01*
X114732Y170733D01*
X115432Y171333D01*
X115437Y171355D01*
X115448Y171360D01*
X115648Y172360D01*
X115648Y172362D01*
X115647Y172364D01*
X115646Y172364D01*
X115649Y172366D01*
X115748Y173650D01*
X116524Y174523D01*
X117582Y174619D01*
X118356Y173844D01*
X118650Y172766D01*
X118552Y171584D01*
X117965Y170509D01*
X116781Y170015D01*
X116773Y170001D01*
X116763Y170002D01*
X116163Y169302D01*
X116162Y169291D01*
X116155Y169286D01*
X116160Y169279D01*
X116151Y169274D01*
X116051Y167874D01*
X116057Y167864D01*
X116052Y167858D01*
X116352Y166658D01*
X116373Y166642D01*
X116374Y166628D01*
X117174Y166128D01*
X117196Y166130D01*
X117205Y166121D01*
X118205Y166221D01*
G37*
G36*
X166154Y136531D02*
X166154Y136531D01*
X166159Y136535D01*
X166162Y136532D01*
X167362Y136832D01*
X167367Y136838D01*
X167372Y136836D01*
X168372Y137336D01*
X168374Y137340D01*
X168377Y137339D01*
X169277Y137939D01*
X169280Y137946D01*
X169285Y137945D01*
X170185Y138845D01*
X170186Y138852D01*
X170191Y138853D01*
X170791Y139753D01*
X170790Y139761D01*
X170797Y139766D01*
X170797Y139767D01*
X170798Y139767D01*
X171098Y140867D01*
X171095Y140874D01*
X171099Y140876D01*
X171199Y142176D01*
X171194Y142184D01*
X171198Y142189D01*
X170998Y143289D01*
X170989Y143297D01*
X170992Y143305D01*
X170392Y144305D01*
X170384Y144309D01*
X170385Y144315D01*
X169499Y145200D01*
X169499Y145856D01*
X170380Y146541D01*
X170384Y146557D01*
X170391Y146561D01*
X170396Y146563D01*
X170796Y147663D01*
X170793Y147672D01*
X170799Y147676D01*
X170899Y148876D01*
X170892Y148886D01*
X170898Y148893D01*
X170598Y149993D01*
X170592Y149997D01*
X170594Y150002D01*
X170094Y151002D01*
X170087Y151005D01*
X170088Y151011D01*
X169288Y152011D01*
X169286Y152012D01*
X169286Y152014D01*
X167686Y153714D01*
X167658Y153718D01*
X167650Y153729D01*
X164050Y153729D01*
X164042Y153723D01*
X164037Y153728D01*
X162937Y153428D01*
X162936Y153426D01*
X162934Y153427D01*
X161734Y153027D01*
X161729Y153019D01*
X161723Y153021D01*
X160823Y152421D01*
X160820Y152412D01*
X160813Y152413D01*
X159913Y151413D01*
X159913Y151405D01*
X159907Y151404D01*
X159307Y150304D01*
X159309Y150290D01*
X159301Y150285D01*
X159201Y149385D01*
X159211Y149369D01*
X159206Y149358D01*
X159706Y148358D01*
X159723Y148350D01*
X159724Y148338D01*
X160824Y147638D01*
X160840Y147640D01*
X160845Y147631D01*
X161845Y147531D01*
X161865Y147543D01*
X161877Y147539D01*
X162777Y148139D01*
X162782Y148151D01*
X162790Y148152D01*
X163483Y149142D01*
X164462Y149631D01*
X165733Y149631D01*
X166601Y148956D01*
X166601Y148013D01*
X165639Y147629D01*
X164247Y147529D01*
X164237Y147521D01*
X164230Y147525D01*
X163330Y147125D01*
X163315Y147097D01*
X163302Y147092D01*
X163002Y145892D01*
X163007Y145882D01*
X163001Y145877D01*
X163101Y144377D01*
X163115Y144360D01*
X163113Y144348D01*
X163713Y143648D01*
X163735Y143643D01*
X163740Y143632D01*
X164740Y143432D01*
X164744Y143434D01*
X164746Y143431D01*
X166030Y143332D01*
X166903Y142556D01*
X166999Y141498D01*
X166224Y140724D01*
X165146Y140430D01*
X163964Y140528D01*
X162889Y141115D01*
X162395Y142299D01*
X162381Y142307D01*
X162382Y142317D01*
X161682Y142917D01*
X161660Y142919D01*
X161654Y142929D01*
X160254Y143029D01*
X160244Y143023D01*
X160238Y143028D01*
X159038Y142728D01*
X159022Y142707D01*
X159008Y142706D01*
X158508Y141906D01*
X158510Y141884D01*
X158501Y141875D01*
X158601Y140875D01*
X158605Y140871D01*
X158602Y140868D01*
X158902Y139668D01*
X158911Y139661D01*
X158908Y139654D01*
X159608Y138554D01*
X159618Y138550D01*
X159618Y138543D01*
X160418Y137843D01*
X160424Y137842D01*
X160425Y137838D01*
X161425Y137238D01*
X161428Y137238D01*
X161428Y137236D01*
X162428Y136736D01*
X162439Y136738D01*
X162442Y136731D01*
X163642Y136531D01*
X163645Y136533D01*
X163646Y136531D01*
X164946Y136431D01*
X164951Y136434D01*
X164954Y136431D01*
X166154Y136531D01*
G37*
G36*
X218290Y227378D02*
X218290Y227378D01*
X218297Y227374D01*
X219397Y227774D01*
X219407Y227790D01*
X219419Y227790D01*
X220119Y228690D01*
X220119Y228703D01*
X220127Y228706D01*
X220327Y229406D01*
X220326Y229411D01*
X220329Y229412D01*
X221029Y233912D01*
X221027Y233915D01*
X221029Y233916D01*
X221229Y236216D01*
X221222Y236227D01*
X221227Y236234D01*
X221027Y236934D01*
X221009Y236948D01*
X221008Y236960D01*
X220008Y237660D01*
X220001Y237660D01*
X220000Y237665D01*
X218900Y238165D01*
X218880Y238160D01*
X218871Y238168D01*
X217771Y237968D01*
X217763Y237959D01*
X217755Y237962D01*
X216765Y237368D01*
X215594Y237271D01*
X214625Y237949D01*
X214431Y239013D01*
X214916Y239981D01*
X215888Y240370D01*
X217262Y240272D01*
X218150Y239581D01*
X218161Y239581D01*
X218163Y239574D01*
X219263Y239174D01*
X219285Y239180D01*
X219296Y239173D01*
X220196Y239473D01*
X220206Y239488D01*
X220216Y239487D01*
X221216Y240587D01*
X221218Y240599D01*
X221223Y240603D01*
X221227Y240604D01*
X221527Y241504D01*
X221517Y241533D01*
X221522Y241545D01*
X220922Y242545D01*
X220912Y242549D01*
X220913Y242557D01*
X220013Y243357D01*
X220004Y243357D01*
X220004Y243363D01*
X218904Y243963D01*
X218898Y243962D01*
X218897Y243966D01*
X217797Y244366D01*
X217790Y244364D01*
X217788Y244369D01*
X216588Y244569D01*
X216583Y244566D01*
X216580Y244569D01*
X215380Y244569D01*
X215373Y244564D01*
X215368Y244568D01*
X214168Y244268D01*
X214163Y244262D01*
X214158Y244264D01*
X213158Y243764D01*
X213156Y243759D01*
X213152Y243760D01*
X212152Y243060D01*
X212149Y243052D01*
X212143Y243053D01*
X211343Y242153D01*
X211343Y242144D01*
X211337Y242144D01*
X210737Y241044D01*
X210738Y241035D01*
X210733Y241033D01*
X210433Y239933D01*
X210434Y239929D01*
X210431Y239928D01*
X210231Y238728D01*
X210237Y238718D01*
X210231Y238712D01*
X210431Y237512D01*
X210434Y237509D01*
X210433Y237507D01*
X210733Y236407D01*
X210740Y236401D01*
X210738Y236395D01*
X211338Y235395D01*
X211346Y235391D01*
X211345Y235385D01*
X212245Y234485D01*
X212252Y234484D01*
X212252Y234480D01*
X213252Y233780D01*
X213259Y233780D01*
X213260Y233775D01*
X214360Y233275D01*
X214368Y233277D01*
X214371Y233272D01*
X215471Y233072D01*
X215477Y233075D01*
X215480Y233071D01*
X216627Y233071D01*
X216533Y231758D01*
X215872Y231569D01*
X212179Y231469D01*
X212171Y231463D01*
X212166Y231467D01*
X211166Y231167D01*
X211150Y231146D01*
X211137Y231144D01*
X210637Y230244D01*
X210637Y230241D01*
X210638Y230239D01*
X210640Y230225D01*
X210631Y230217D01*
X210731Y228617D01*
X210739Y228607D01*
X210735Y228600D01*
X211135Y227700D01*
X211161Y227686D01*
X211166Y227673D01*
X212166Y227373D01*
X212176Y227376D01*
X212180Y227371D01*
X218280Y227371D01*
X218290Y227378D01*
G37*
G36*
X162355Y227775D02*
X162355Y227775D01*
X162359Y227772D01*
X163459Y227972D01*
X163488Y228003D01*
X163498Y228007D01*
X163798Y229107D01*
X163794Y229116D01*
X163799Y229120D01*
X163799Y235013D01*
X164087Y235971D01*
X166346Y235971D01*
X167390Y235781D01*
X166002Y230032D01*
X166004Y230027D01*
X166001Y230025D01*
X165901Y229025D01*
X165916Y229001D01*
X165913Y228988D01*
X166613Y228188D01*
X166632Y228184D01*
X166636Y228173D01*
X167936Y227773D01*
X167946Y227777D01*
X167950Y227771D01*
X169150Y227771D01*
X169176Y227790D01*
X169189Y227790D01*
X169789Y228590D01*
X169789Y228602D01*
X169797Y228604D01*
X170197Y229804D01*
X170196Y229807D01*
X170198Y229808D01*
X171898Y236708D01*
X171896Y236713D01*
X171899Y236716D01*
X171999Y237816D01*
X171994Y237823D01*
X171999Y237828D01*
X171799Y239028D01*
X171777Y239048D01*
X171776Y239062D01*
X170976Y239562D01*
X170959Y239560D01*
X170954Y239569D01*
X169554Y239669D01*
X169551Y239668D01*
X169550Y239669D01*
X164852Y239669D01*
X163799Y239765D01*
X163799Y243320D01*
X163787Y243336D01*
X163791Y243347D01*
X163191Y244247D01*
X163168Y244255D01*
X163163Y244268D01*
X162063Y244568D01*
X162057Y244565D01*
X162050Y244565D01*
X162046Y244569D01*
X160746Y244469D01*
X160730Y244455D01*
X160718Y244457D01*
X159918Y243757D01*
X159915Y243744D01*
X159911Y243741D01*
X159914Y243738D01*
X159913Y243734D01*
X159901Y243728D01*
X159701Y242528D01*
X159704Y242523D01*
X159701Y242520D01*
X159701Y229520D01*
X159707Y229512D01*
X159703Y229507D01*
X160003Y228407D01*
X160023Y228391D01*
X160025Y228378D01*
X161025Y227778D01*
X161043Y227780D01*
X161050Y227771D01*
X162350Y227771D01*
X162355Y227775D01*
G37*
G36*
X489609Y211532D02*
X489609Y211532D01*
X489616Y211539D01*
X489622Y211536D01*
X502322Y217836D01*
X502325Y217843D01*
X502330Y217841D01*
X503230Y218541D01*
X503234Y218557D01*
X503235Y218557D01*
X503235Y218558D01*
X503235Y218560D01*
X503246Y218563D01*
X503646Y219663D01*
X503641Y219680D01*
X503649Y219688D01*
X503449Y220888D01*
X503435Y220901D01*
X503437Y220912D01*
X502737Y221712D01*
X502725Y221715D01*
X502724Y221723D01*
X501624Y222323D01*
X501622Y222323D01*
X501622Y222324D01*
X490022Y228024D01*
X490017Y228023D01*
X490016Y228027D01*
X488816Y228427D01*
X488798Y228421D01*
X488789Y228428D01*
X487889Y228228D01*
X487873Y228209D01*
X487860Y228209D01*
X487060Y227109D01*
X487060Y227096D01*
X487053Y227093D01*
X486753Y225993D01*
X486760Y225975D01*
X486753Y225966D01*
X487053Y224966D01*
X487076Y224949D01*
X487079Y224935D01*
X497724Y219961D01*
X497468Y219620D01*
X488280Y215525D01*
X488277Y215520D01*
X488274Y215522D01*
X487474Y215022D01*
X487470Y215012D01*
X487463Y215012D01*
X486763Y214212D01*
X486762Y214203D01*
X486759Y214201D01*
X486762Y214197D01*
X486761Y214184D01*
X486751Y214175D01*
X486851Y213175D01*
X486860Y213165D01*
X486857Y213157D01*
X487557Y211857D01*
X487574Y211849D01*
X487576Y211837D01*
X488476Y211337D01*
X488499Y211340D01*
X488509Y211332D01*
X489609Y211532D01*
G37*
G36*
X108609Y182322D02*
X108609Y182322D01*
X108616Y182329D01*
X108622Y182326D01*
X121322Y188626D01*
X121325Y188633D01*
X121330Y188631D01*
X122230Y189331D01*
X122234Y189347D01*
X122235Y189347D01*
X122235Y189348D01*
X122235Y189350D01*
X122246Y189353D01*
X122646Y190453D01*
X122641Y190470D01*
X122649Y190478D01*
X122449Y191678D01*
X122435Y191691D01*
X122437Y191702D01*
X121737Y192502D01*
X121725Y192505D01*
X121724Y192513D01*
X120624Y193113D01*
X120622Y193113D01*
X120622Y193114D01*
X109022Y198814D01*
X109017Y198813D01*
X109016Y198817D01*
X107816Y199217D01*
X107798Y199211D01*
X107789Y199218D01*
X106889Y199018D01*
X106873Y198999D01*
X106860Y198999D01*
X106060Y197899D01*
X106060Y197886D01*
X106053Y197883D01*
X105753Y196783D01*
X105760Y196765D01*
X105753Y196756D01*
X106053Y195756D01*
X106076Y195739D01*
X106079Y195725D01*
X116724Y190751D01*
X116468Y190410D01*
X107280Y186315D01*
X107277Y186310D01*
X107274Y186312D01*
X106474Y185812D01*
X106470Y185802D01*
X106463Y185802D01*
X105763Y185002D01*
X105762Y184993D01*
X105759Y184991D01*
X105762Y184987D01*
X105761Y184974D01*
X105751Y184965D01*
X105851Y183965D01*
X105860Y183955D01*
X105857Y183947D01*
X106557Y182647D01*
X106574Y182639D01*
X106576Y182627D01*
X107476Y182127D01*
X107499Y182130D01*
X107509Y182122D01*
X108609Y182322D01*
G37*
%LPC*%
G36*
X37700Y136663D02*
X37700Y136663D01*
X35234Y136663D01*
X31166Y147787D01*
X34791Y147787D01*
X37000Y140242D01*
X37014Y140230D01*
X37019Y140212D01*
X37037Y140210D01*
X37051Y140198D01*
X37068Y140206D01*
X37086Y140203D01*
X37102Y140221D01*
X37113Y140226D01*
X37114Y140235D01*
X37120Y140242D01*
X39325Y147784D01*
X42746Y147782D01*
X44940Y140262D01*
X44954Y140250D01*
X44959Y140233D01*
X44977Y140230D01*
X44991Y140218D01*
X45008Y140226D01*
X45026Y140223D01*
X45042Y140241D01*
X45053Y140246D01*
X45054Y140255D01*
X45060Y140262D01*
X47286Y147779D01*
X50781Y147777D01*
X46703Y136663D01*
X45200Y136663D01*
X45190Y136656D01*
X45186Y136656D01*
X45170Y136663D01*
X43149Y136663D01*
X41040Y143469D01*
X41038Y143470D01*
X41039Y143472D01*
X41029Y143479D01*
X41027Y143491D01*
X40996Y143505D01*
X40988Y143512D01*
X40986Y143511D01*
X40984Y143513D01*
X40982Y143512D01*
X40980Y143513D01*
X40974Y143509D01*
X40936Y143494D01*
X40926Y143484D01*
X40924Y143477D01*
X40923Y143476D01*
X40923Y143473D01*
X40910Y143458D01*
X38840Y136663D01*
X37730Y136663D01*
X37720Y136656D01*
X37716Y136656D01*
X37700Y136663D01*
G37*
%LPD*%
G36*
X494260Y161156D02*
X494260Y161156D01*
X494272Y161153D01*
X495072Y161853D01*
X495075Y161866D01*
X495078Y161879D01*
X495089Y161886D01*
X495189Y163186D01*
X495188Y163189D01*
X495189Y163190D01*
X495189Y166760D01*
X495952Y167141D01*
X506640Y167141D01*
X506643Y167143D01*
X506644Y167141D01*
X507744Y167241D01*
X507765Y167260D01*
X507779Y167260D01*
X508479Y168160D01*
X508479Y168168D01*
X508482Y168170D01*
X508479Y168175D01*
X508479Y168180D01*
X508489Y168186D01*
X508589Y169486D01*
X508583Y169496D01*
X508588Y169503D01*
X508288Y170603D01*
X508262Y170623D01*
X508258Y170636D01*
X507258Y171036D01*
X507248Y171033D01*
X507244Y171039D01*
X505944Y171139D01*
X505943Y171139D01*
X505941Y171139D01*
X505940Y171139D01*
X495285Y171139D01*
X495189Y172192D01*
X495189Y175790D01*
X495180Y175803D01*
X495184Y175812D01*
X494684Y176812D01*
X494655Y176826D01*
X494649Y176838D01*
X493549Y177038D01*
X493540Y177034D01*
X493536Y177039D01*
X492336Y176939D01*
X492310Y176916D01*
X492297Y176914D01*
X491797Y176014D01*
X491799Y175997D01*
X491791Y175990D01*
X491791Y162790D01*
X491794Y162785D01*
X491791Y162782D01*
X491991Y161582D01*
X492018Y161556D01*
X492022Y161544D01*
X493022Y161144D01*
X493035Y161148D01*
X493040Y161141D01*
X494240Y161141D01*
X494260Y161156D01*
G37*
G36*
X449457Y227776D02*
X449457Y227776D01*
X449462Y227772D01*
X450662Y228072D01*
X450677Y228090D01*
X450689Y228090D01*
X451289Y228890D01*
X451289Y228910D01*
X451299Y228916D01*
X451399Y230216D01*
X451394Y230224D01*
X451398Y230229D01*
X451198Y231329D01*
X451176Y231350D01*
X451174Y231363D01*
X450274Y231863D01*
X450257Y231861D01*
X450250Y231869D01*
X444318Y231869D01*
X444595Y232698D01*
X445191Y233593D01*
X445191Y233594D01*
X445192Y233594D01*
X445890Y234692D01*
X446589Y235590D01*
X446589Y235594D01*
X446592Y235595D01*
X447192Y236595D01*
X447192Y236599D01*
X447195Y236600D01*
X447694Y237699D01*
X448194Y238698D01*
X448193Y238703D01*
X448197Y238704D01*
X448597Y239904D01*
X448596Y239907D01*
X448598Y239908D01*
X448898Y241108D01*
X448896Y241113D01*
X448899Y241116D01*
X448999Y242216D01*
X448997Y242218D01*
X448999Y242220D01*
X448999Y243420D01*
X448989Y243434D01*
X448993Y243444D01*
X448493Y244344D01*
X448465Y244356D01*
X448459Y244368D01*
X447359Y244568D01*
X447352Y244565D01*
X447350Y244565D01*
X447346Y244569D01*
X446046Y244469D01*
X446033Y244457D01*
X446023Y244461D01*
X445123Y243861D01*
X445116Y243843D01*
X445112Y243840D01*
X445114Y243837D01*
X445114Y243835D01*
X445102Y243829D01*
X444902Y242729D01*
X444903Y242726D01*
X444901Y242725D01*
X444802Y241830D01*
X444503Y240835D01*
X444105Y239741D01*
X443408Y238545D01*
X442108Y236345D01*
X440308Y233345D01*
X440308Y233341D01*
X440305Y233340D01*
X439805Y232240D01*
X439805Y232239D01*
X439305Y231039D01*
X439305Y231036D01*
X439303Y231035D01*
X439307Y231029D01*
X439301Y231025D01*
X439201Y230025D01*
X439205Y230019D01*
X439201Y230016D01*
X439301Y228816D01*
X439314Y228802D01*
X439311Y228790D01*
X439911Y227990D01*
X439936Y227983D01*
X439943Y227971D01*
X441243Y227771D01*
X441248Y227774D01*
X441250Y227771D01*
X449450Y227771D01*
X449457Y227776D01*
G37*
G36*
X395427Y136631D02*
X395427Y136631D01*
X395444Y136649D01*
X395457Y136648D01*
X396057Y137348D01*
X396059Y137369D01*
X396069Y137376D01*
X396169Y138576D01*
X396167Y138579D01*
X396169Y138580D01*
X396169Y151580D01*
X396165Y151585D01*
X396168Y151589D01*
X395968Y152689D01*
X395943Y152712D01*
X395940Y152725D01*
X395040Y153125D01*
X395029Y153122D01*
X395026Y153127D01*
X395024Y153129D01*
X393824Y153229D01*
X393818Y153225D01*
X393812Y153225D01*
X393805Y153219D01*
X393796Y153223D01*
X392696Y152623D01*
X392694Y152618D01*
X392690Y152619D01*
X391790Y151919D01*
X391789Y151915D01*
X391786Y151916D01*
X389286Y149516D01*
X389286Y149515D01*
X389285Y149515D01*
X388385Y148615D01*
X388383Y148598D01*
X388373Y148594D01*
X388073Y147594D01*
X388083Y147567D01*
X388078Y147555D01*
X388678Y146555D01*
X388688Y146551D01*
X388687Y146543D01*
X389687Y145643D01*
X389708Y145642D01*
X389709Y145641D01*
X389713Y145641D01*
X389720Y145631D01*
X390620Y145631D01*
X390633Y145641D01*
X390635Y145641D01*
X390644Y145637D01*
X391702Y146214D01*
X391971Y145766D01*
X391971Y138680D01*
X391973Y138677D01*
X391971Y138676D01*
X392071Y137576D01*
X392084Y137561D01*
X392081Y137550D01*
X392681Y136750D01*
X392704Y136744D01*
X392709Y136732D01*
X394009Y136432D01*
X394021Y136437D01*
X394027Y136431D01*
X395427Y136631D01*
G37*
G36*
X67321Y261961D02*
X67321Y261961D01*
X67332Y261956D01*
X67932Y262256D01*
X67939Y262269D01*
X67948Y262269D01*
X68348Y262769D01*
X68349Y262782D01*
X68357Y262784D01*
X70757Y269884D01*
X70756Y269886D01*
X70757Y269886D01*
X70957Y270586D01*
X70948Y270610D01*
X70954Y270622D01*
X70754Y271022D01*
X70736Y271031D01*
X70734Y271043D01*
X70034Y271443D01*
X70026Y271442D01*
X70024Y271447D01*
X69324Y271647D01*
X69292Y271635D01*
X69279Y271638D01*
X68779Y271238D01*
X68775Y271224D01*
X68775Y271223D01*
X68775Y271220D01*
X68764Y271217D01*
X67167Y266827D01*
X67032Y266691D01*
X65757Y270516D01*
X65557Y271116D01*
X65538Y271128D01*
X65537Y271141D01*
X64937Y271541D01*
X64912Y271539D01*
X64903Y271549D01*
X64203Y271449D01*
X64193Y271439D01*
X64185Y271442D01*
X63685Y271142D01*
X63677Y271122D01*
X63665Y271119D01*
X63365Y270419D01*
X63365Y270417D01*
X63363Y270416D01*
X62089Y266691D01*
X61953Y266827D01*
X60657Y270716D01*
X60652Y270719D01*
X60654Y270722D01*
X60354Y271322D01*
X60337Y271331D01*
X60335Y271342D01*
X59835Y271642D01*
X59807Y271639D01*
X59796Y271647D01*
X59096Y271447D01*
X59091Y271440D01*
X59086Y271443D01*
X58386Y271043D01*
X58374Y271016D01*
X58362Y271010D01*
X58262Y270510D01*
X58269Y270495D01*
X58263Y270486D01*
X58463Y269786D01*
X58464Y269785D01*
X58463Y269784D01*
X60863Y262684D01*
X60874Y262677D01*
X60872Y262669D01*
X61272Y262169D01*
X61292Y262164D01*
X61296Y262153D01*
X61996Y261953D01*
X62011Y261958D01*
X62018Y261951D01*
X62618Y262051D01*
X62635Y262069D01*
X62648Y262068D01*
X63148Y262668D01*
X63148Y262676D01*
X63149Y262676D01*
X63148Y262677D01*
X63148Y262681D01*
X63157Y262684D01*
X63957Y264984D01*
X63956Y264984D01*
X63957Y264984D01*
X64610Y266944D01*
X66063Y262584D01*
X66077Y262575D01*
X66075Y262565D01*
X66575Y262065D01*
X66597Y262062D01*
X66603Y262051D01*
X67303Y261951D01*
X67321Y261961D01*
G37*
G36*
X506946Y135945D02*
X506946Y135945D01*
X506950Y135942D01*
X507950Y136142D01*
X507970Y136164D01*
X507983Y136166D01*
X508483Y137066D01*
X508481Y137083D01*
X508489Y137090D01*
X508489Y138590D01*
X508483Y138598D01*
X508488Y138603D01*
X508188Y139703D01*
X508159Y139725D01*
X508154Y139737D01*
X507154Y140037D01*
X507144Y140034D01*
X507140Y140039D01*
X492840Y140039D01*
X492826Y140029D01*
X492822Y140026D01*
X492810Y140029D01*
X492010Y139429D01*
X492005Y139411D01*
X491992Y139402D01*
X491994Y139399D01*
X491991Y139398D01*
X491791Y138198D01*
X491795Y138191D01*
X491791Y138187D01*
X491891Y136687D01*
X491909Y136666D01*
X491908Y136653D01*
X492608Y136053D01*
X492629Y136051D01*
X492636Y136041D01*
X493836Y135941D01*
X493839Y135943D01*
X493840Y135941D01*
X506940Y135941D01*
X506946Y135945D01*
G37*
G36*
X75016Y262051D02*
X75016Y262051D01*
X75030Y262064D01*
X75041Y262062D01*
X75541Y262462D01*
X75545Y262477D01*
X75548Y262479D01*
X75546Y262482D01*
X75547Y262486D01*
X75559Y262492D01*
X75659Y263092D01*
X75656Y263097D01*
X75659Y263100D01*
X75659Y264467D01*
X76119Y264651D01*
X77383Y264651D01*
X77866Y263877D01*
X78565Y262280D01*
X78583Y262270D01*
X78585Y262258D01*
X79085Y261958D01*
X79108Y261960D01*
X79117Y261951D01*
X79817Y262051D01*
X79826Y262061D01*
X79834Y262057D01*
X80534Y262457D01*
X80543Y262478D01*
X80556Y262482D01*
X80756Y262982D01*
X80750Y263003D01*
X80757Y263014D01*
X80557Y263714D01*
X80556Y263715D01*
X80557Y263716D01*
X80457Y264016D01*
X80453Y264018D01*
X80455Y264021D01*
X79857Y265315D01*
X79763Y265784D01*
X80245Y266265D01*
X80247Y266281D01*
X80257Y266284D01*
X80457Y266884D01*
X80456Y266886D01*
X80457Y266886D01*
X80657Y267586D01*
X80654Y267596D01*
X80659Y267600D01*
X80659Y268300D01*
X80656Y268304D01*
X80659Y268307D01*
X80559Y269007D01*
X80554Y269012D01*
X80557Y269016D01*
X80357Y269616D01*
X80352Y269619D01*
X80354Y269622D01*
X80054Y270222D01*
X80041Y270229D01*
X80041Y270238D01*
X79541Y270638D01*
X79520Y270639D01*
X79546Y270666D01*
X79552Y270725D01*
X79538Y270727D01*
X79537Y270741D01*
X78937Y271141D01*
X78933Y271141D01*
X78932Y271144D01*
X78332Y271444D01*
X78321Y271442D01*
X78317Y271449D01*
X77618Y271549D01*
X77018Y271649D01*
X77013Y271646D01*
X77010Y271649D01*
X74210Y271649D01*
X74202Y271643D01*
X74196Y271647D01*
X73496Y271447D01*
X73477Y271422D01*
X73464Y271418D01*
X73264Y270918D01*
X73268Y270905D01*
X73261Y270900D01*
X73261Y262700D01*
X73269Y262689D01*
X73264Y262682D01*
X73464Y262182D01*
X73492Y262165D01*
X73496Y262153D01*
X74196Y261953D01*
X74210Y261958D01*
X74216Y261951D01*
X75016Y262051D01*
G37*
G36*
X51031Y261967D02*
X51031Y261967D01*
X51045Y261965D01*
X51445Y262365D01*
X51446Y262377D01*
X51451Y262381D01*
X51448Y262386D01*
X51459Y262392D01*
X51559Y262992D01*
X51556Y262997D01*
X51559Y263000D01*
X51559Y264367D01*
X52019Y264551D01*
X53310Y264551D01*
X53314Y264554D01*
X53317Y264551D01*
X54017Y264651D01*
X54022Y264656D01*
X54026Y264653D01*
X54626Y264853D01*
X54631Y264861D01*
X54637Y264859D01*
X55237Y265259D01*
X55238Y265262D01*
X55241Y265262D01*
X55741Y265662D01*
X55743Y265669D01*
X55748Y265669D01*
X56148Y266169D01*
X56149Y266179D01*
X56155Y266181D01*
X56455Y266881D01*
X56455Y266884D01*
X56457Y266884D01*
X56657Y267484D01*
X56653Y267495D01*
X56659Y267500D01*
X56659Y268900D01*
X56650Y268913D01*
X56654Y268922D01*
X56254Y269722D01*
X56247Y269725D01*
X56248Y269731D01*
X55848Y270231D01*
X55844Y270232D01*
X55845Y270235D01*
X55345Y270735D01*
X55338Y270736D01*
X55337Y270741D01*
X54737Y271141D01*
X54733Y271141D01*
X54732Y271144D01*
X54132Y271444D01*
X54122Y271442D01*
X54118Y271449D01*
X53518Y271549D01*
X53513Y271546D01*
X53510Y271549D01*
X50010Y271549D01*
X50001Y271542D01*
X49994Y271547D01*
X49394Y271347D01*
X49377Y271322D01*
X49364Y271318D01*
X49164Y270818D01*
X49168Y270805D01*
X49161Y270800D01*
X49161Y262600D01*
X49174Y262582D01*
X49171Y262570D01*
X49471Y262170D01*
X49492Y262164D01*
X49496Y262153D01*
X50196Y261953D01*
X50206Y261956D01*
X50210Y261951D01*
X51010Y261951D01*
X51031Y261967D01*
G37*
%LPC*%
G36*
X66411Y136533D02*
X66411Y136533D01*
X65924Y136553D01*
X65498Y136592D01*
X65161Y136652D01*
X65156Y136650D01*
X65150Y136653D01*
X65139Y136653D01*
X65136Y136657D01*
X65126Y136656D01*
X65110Y136663D01*
X65056Y136663D01*
X63423Y136960D01*
X61635Y138086D01*
X60499Y139834D01*
X60113Y141896D01*
X60113Y142435D01*
X60460Y144476D01*
X61705Y146355D01*
X63334Y147421D01*
X64942Y147738D01*
X64963Y147758D01*
X64978Y147768D01*
X64979Y147768D01*
X65895Y147907D01*
X66487Y147907D01*
X66487Y144971D01*
X65906Y144933D01*
X65903Y144930D01*
X65898Y144932D01*
X65338Y144822D01*
X65335Y144819D01*
X65330Y144820D01*
X65030Y144720D01*
X65025Y144714D01*
X65014Y144712D01*
X64654Y144462D01*
X64653Y144458D01*
X64648Y144457D01*
X64268Y144117D01*
X64266Y144108D01*
X64254Y144099D01*
X64024Y143649D01*
X64024Y143646D01*
X64022Y143645D01*
X64022Y143644D01*
X63812Y143134D01*
X63813Y143127D01*
X63808Y143117D01*
X63718Y142367D01*
X63719Y142364D01*
X63717Y142360D01*
X63717Y141960D01*
X63720Y141956D01*
X63718Y141949D01*
X63878Y141039D01*
X63884Y141033D01*
X63884Y141021D01*
X64144Y140521D01*
X64147Y140519D01*
X64148Y140515D01*
X64418Y140115D01*
X64426Y140112D01*
X64432Y140100D01*
X64822Y139800D01*
X64829Y139800D01*
X64836Y139792D01*
X65356Y139572D01*
X65361Y139573D01*
X65368Y139568D01*
X65838Y139478D01*
X65843Y139480D01*
X65850Y139477D01*
X66487Y139477D01*
X66487Y136533D01*
X66411Y136533D01*
G37*
%LPD*%
%LPC*%
G36*
X54080Y136663D02*
X54080Y136663D01*
X51313Y136663D01*
X51313Y147767D01*
X54887Y147767D01*
X54887Y136663D01*
X54110Y136663D01*
X54105Y136660D01*
X54100Y136662D01*
X54094Y136656D01*
X54080Y136663D01*
G37*
%LPD*%
%LPC*%
G36*
X55733Y136663D02*
X55733Y136663D01*
X55733Y147767D01*
X59297Y147767D01*
X59297Y136663D01*
X55733Y136663D01*
G37*
%LPD*%
%LPC*%
G36*
X443373Y140725D02*
X443373Y140725D01*
X442691Y141310D01*
X442297Y142294D01*
X441999Y143785D01*
X441999Y145479D01*
X442099Y147171D01*
X442495Y148360D01*
X442986Y149244D01*
X443666Y149632D01*
X444541Y149729D01*
X445319Y149340D01*
X445906Y148655D01*
X446302Y147469D01*
X446501Y145977D01*
X446501Y144183D01*
X446302Y142692D01*
X445907Y141605D01*
X445321Y140922D01*
X444434Y140627D01*
X444148Y140531D01*
X443373Y140725D01*
G37*
%LPD*%
G36*
X24418Y139332D02*
X24418Y139332D01*
X24435Y139329D01*
X25455Y139579D01*
X25462Y139586D01*
X25478Y139590D01*
X25918Y139920D01*
X25919Y139925D01*
X25926Y139928D01*
X26256Y140288D01*
X26257Y140293D01*
X26264Y140298D01*
X26554Y140778D01*
X26554Y140784D01*
X26560Y140790D01*
X26720Y141270D01*
X26718Y141275D01*
X26722Y141280D01*
X26812Y141820D01*
X26810Y141823D01*
X26813Y141828D01*
X26833Y142388D01*
X26830Y142392D01*
X26832Y142399D01*
X26752Y142949D01*
X26750Y142951D01*
X26751Y142954D01*
X26651Y143384D01*
X26646Y143389D01*
X26645Y143400D01*
X26435Y143780D01*
X26433Y143782D01*
X26432Y143785D01*
X26072Y144315D01*
X26064Y144319D01*
X26062Y144323D01*
X26061Y144326D01*
X26060Y144327D01*
X26058Y144330D01*
X25648Y144640D01*
X25642Y144641D01*
X25636Y144647D01*
X25146Y144867D01*
X25140Y144866D01*
X25133Y144871D01*
X24643Y144971D01*
X24637Y144969D01*
X24630Y144973D01*
X24120Y144973D01*
X24115Y144969D01*
X24106Y144971D01*
X23586Y144851D01*
X23581Y144846D01*
X23571Y144845D01*
X23101Y144595D01*
X23098Y144591D01*
X23092Y144590D01*
X22672Y144270D01*
X22671Y144268D01*
X22669Y144267D01*
X22662Y144252D01*
X22655Y144248D01*
X22656Y144240D01*
X22647Y144220D01*
X22647Y144217D01*
X22126Y143352D01*
X22127Y143343D01*
X22118Y143331D01*
X21938Y142291D01*
X21941Y142283D01*
X21938Y142272D01*
X22078Y141232D01*
X22082Y141227D01*
X22082Y141217D01*
X22292Y140687D01*
X22296Y140684D01*
X22297Y140677D01*
X22587Y140207D01*
X22594Y140204D01*
X22599Y140193D01*
X23329Y139553D01*
X23340Y139551D01*
X23358Y139538D01*
X24408Y139328D01*
X24418Y139332D01*
G37*
%LPC*%
G36*
X393628Y237933D02*
X393628Y237933D01*
X393587Y237964D01*
X393584Y237969D01*
X392402Y238068D01*
X391629Y238840D01*
X391629Y239902D01*
X392304Y240673D01*
X393177Y240770D01*
X394445Y240478D01*
X394829Y239614D01*
X394636Y238551D01*
X393655Y237962D01*
X393642Y237931D01*
X393635Y237925D01*
X393638Y237921D01*
X393634Y237911D01*
X393634Y237910D01*
X393628Y237933D01*
G37*
%LPD*%
%LPC*%
G36*
X53553Y266924D02*
X53553Y266924D01*
X53517Y266940D01*
X53510Y266949D01*
X51559Y266949D01*
X51559Y268875D01*
X51926Y269151D01*
X53203Y269151D01*
X53876Y268959D01*
X54162Y268385D01*
X54258Y267714D01*
X53873Y267233D01*
X53575Y266935D01*
X53570Y266894D01*
X53553Y266924D01*
G37*
%LPD*%
%LPC*%
G36*
X75659Y267049D02*
X75659Y267049D01*
X75659Y268975D01*
X76026Y269251D01*
X77298Y269251D01*
X77888Y268956D01*
X77944Y268966D01*
X77946Y268966D01*
X77970Y268992D01*
X77969Y268984D01*
X77966Y268978D01*
X78261Y268388D01*
X78261Y267717D01*
X77881Y267242D01*
X77302Y267049D01*
X75659Y267049D01*
G37*
%LPD*%
D10*
X486410Y137160D02*
X486410Y175260D01*
X114300Y220980D02*
X114300Y250190D01*
X114300Y161290D02*
X114300Y132080D01*
D11*
X354330Y138430D02*
X354332Y138501D01*
X354338Y138572D01*
X354348Y138643D01*
X354362Y138713D01*
X354380Y138782D01*
X354401Y138849D01*
X354427Y138916D01*
X354456Y138981D01*
X354488Y139044D01*
X354525Y139106D01*
X354564Y139165D01*
X354607Y139222D01*
X354653Y139276D01*
X354702Y139328D01*
X354754Y139377D01*
X354808Y139423D01*
X354865Y139466D01*
X354924Y139505D01*
X354986Y139542D01*
X355049Y139574D01*
X355114Y139603D01*
X355181Y139629D01*
X355248Y139650D01*
X355317Y139668D01*
X355387Y139682D01*
X355458Y139692D01*
X355529Y139698D01*
X355600Y139700D01*
X355671Y139698D01*
X355742Y139692D01*
X355813Y139682D01*
X355883Y139668D01*
X355952Y139650D01*
X356019Y139629D01*
X356086Y139603D01*
X356151Y139574D01*
X356214Y139542D01*
X356276Y139505D01*
X356335Y139466D01*
X356392Y139423D01*
X356446Y139377D01*
X356498Y139328D01*
X356547Y139276D01*
X356593Y139222D01*
X356636Y139165D01*
X356675Y139106D01*
X356712Y139044D01*
X356744Y138981D01*
X356773Y138916D01*
X356799Y138849D01*
X356820Y138782D01*
X356838Y138713D01*
X356852Y138643D01*
X356862Y138572D01*
X356868Y138501D01*
X356870Y138430D01*
X356868Y138359D01*
X356862Y138288D01*
X356852Y138217D01*
X356838Y138147D01*
X356820Y138078D01*
X356799Y138011D01*
X356773Y137944D01*
X356744Y137879D01*
X356712Y137816D01*
X356675Y137754D01*
X356636Y137695D01*
X356593Y137638D01*
X356547Y137584D01*
X356498Y137532D01*
X356446Y137483D01*
X356392Y137437D01*
X356335Y137394D01*
X356276Y137355D01*
X356214Y137318D01*
X356151Y137286D01*
X356086Y137257D01*
X356019Y137231D01*
X355952Y137210D01*
X355883Y137192D01*
X355813Y137178D01*
X355742Y137168D01*
X355671Y137162D01*
X355600Y137160D01*
X355529Y137162D01*
X355458Y137168D01*
X355387Y137178D01*
X355317Y137192D01*
X355248Y137210D01*
X355181Y137231D01*
X355114Y137257D01*
X355049Y137286D01*
X354986Y137318D01*
X354924Y137355D01*
X354865Y137394D01*
X354808Y137437D01*
X354754Y137483D01*
X354702Y137532D01*
X354653Y137584D01*
X354607Y137638D01*
X354564Y137695D01*
X354525Y137754D01*
X354488Y137816D01*
X354456Y137879D01*
X354427Y137944D01*
X354401Y138011D01*
X354380Y138078D01*
X354362Y138147D01*
X354348Y138217D01*
X354338Y138288D01*
X354332Y138359D01*
X354330Y138430D01*
D12*
X4800Y175500D02*
X4800Y205500D01*
X30800Y220500D02*
X47300Y220500D01*
X47300Y168000D02*
X47300Y160500D01*
X30800Y160500D01*
X47300Y213000D02*
X47300Y220500D01*
X52784Y215500D02*
X52786Y215563D01*
X52792Y215626D01*
X52802Y215689D01*
X52815Y215750D01*
X52833Y215811D01*
X52854Y215870D01*
X52879Y215929D01*
X52907Y215985D01*
X52939Y216040D01*
X52974Y216092D01*
X53013Y216142D01*
X53054Y216190D01*
X53099Y216235D01*
X53146Y216277D01*
X53195Y216316D01*
X53247Y216352D01*
X53301Y216385D01*
X53357Y216414D01*
X53415Y216440D01*
X53474Y216462D01*
X53534Y216481D01*
X53596Y216495D01*
X53658Y216506D01*
X53721Y216513D01*
X53784Y216516D01*
X53847Y216515D01*
X53910Y216510D01*
X53973Y216501D01*
X54035Y216488D01*
X54096Y216472D01*
X54156Y216452D01*
X54214Y216428D01*
X54271Y216400D01*
X54326Y216369D01*
X54379Y216335D01*
X54430Y216297D01*
X54478Y216256D01*
X54524Y216213D01*
X54567Y216166D01*
X54607Y216117D01*
X54644Y216066D01*
X54677Y216013D01*
X54707Y215957D01*
X54734Y215900D01*
X54757Y215841D01*
X54776Y215781D01*
X54792Y215719D01*
X54804Y215657D01*
X54812Y215595D01*
X54816Y215532D01*
X54816Y215468D01*
X54812Y215405D01*
X54804Y215343D01*
X54792Y215281D01*
X54776Y215219D01*
X54757Y215159D01*
X54734Y215100D01*
X54707Y215043D01*
X54677Y214987D01*
X54644Y214934D01*
X54607Y214883D01*
X54567Y214834D01*
X54524Y214787D01*
X54478Y214744D01*
X54430Y214703D01*
X54379Y214665D01*
X54326Y214631D01*
X54271Y214600D01*
X54214Y214572D01*
X54156Y214548D01*
X54096Y214528D01*
X54035Y214512D01*
X53973Y214499D01*
X53910Y214490D01*
X53847Y214485D01*
X53784Y214484D01*
X53721Y214487D01*
X53658Y214494D01*
X53596Y214505D01*
X53534Y214519D01*
X53474Y214538D01*
X53415Y214560D01*
X53357Y214586D01*
X53301Y214615D01*
X53247Y214648D01*
X53195Y214684D01*
X53146Y214723D01*
X53099Y214765D01*
X53054Y214810D01*
X53013Y214858D01*
X52974Y214908D01*
X52939Y214960D01*
X52907Y215015D01*
X52879Y215071D01*
X52854Y215130D01*
X52833Y215189D01*
X52815Y215250D01*
X52802Y215311D01*
X52792Y215374D01*
X52786Y215437D01*
X52784Y215500D01*
X604800Y205500D02*
X604800Y175500D01*
X578800Y160500D02*
X562300Y160500D01*
X562300Y213000D02*
X562300Y220500D01*
X578800Y220500D01*
X562300Y168000D02*
X562300Y160500D01*
X554784Y165500D02*
X554786Y165563D01*
X554792Y165626D01*
X554802Y165689D01*
X554815Y165750D01*
X554833Y165811D01*
X554854Y165870D01*
X554879Y165929D01*
X554907Y165985D01*
X554939Y166040D01*
X554974Y166092D01*
X555013Y166142D01*
X555054Y166190D01*
X555099Y166235D01*
X555146Y166277D01*
X555195Y166316D01*
X555247Y166352D01*
X555301Y166385D01*
X555357Y166414D01*
X555415Y166440D01*
X555474Y166462D01*
X555534Y166481D01*
X555596Y166495D01*
X555658Y166506D01*
X555721Y166513D01*
X555784Y166516D01*
X555847Y166515D01*
X555910Y166510D01*
X555973Y166501D01*
X556035Y166488D01*
X556096Y166472D01*
X556156Y166452D01*
X556214Y166428D01*
X556271Y166400D01*
X556326Y166369D01*
X556379Y166335D01*
X556430Y166297D01*
X556478Y166256D01*
X556524Y166213D01*
X556567Y166166D01*
X556607Y166117D01*
X556644Y166066D01*
X556677Y166013D01*
X556707Y165957D01*
X556734Y165900D01*
X556757Y165841D01*
X556776Y165781D01*
X556792Y165719D01*
X556804Y165657D01*
X556812Y165595D01*
X556816Y165532D01*
X556816Y165468D01*
X556812Y165405D01*
X556804Y165343D01*
X556792Y165281D01*
X556776Y165219D01*
X556757Y165159D01*
X556734Y165100D01*
X556707Y165043D01*
X556677Y164987D01*
X556644Y164934D01*
X556607Y164883D01*
X556567Y164834D01*
X556524Y164787D01*
X556478Y164744D01*
X556430Y164703D01*
X556379Y164665D01*
X556326Y164631D01*
X556271Y164600D01*
X556214Y164572D01*
X556156Y164548D01*
X556096Y164528D01*
X556035Y164512D01*
X555973Y164499D01*
X555910Y164490D01*
X555847Y164485D01*
X555784Y164484D01*
X555721Y164487D01*
X555658Y164494D01*
X555596Y164505D01*
X555534Y164519D01*
X555474Y164538D01*
X555415Y164560D01*
X555357Y164586D01*
X555301Y164615D01*
X555247Y164648D01*
X555195Y164684D01*
X555146Y164723D01*
X555099Y164765D01*
X555054Y164810D01*
X555013Y164858D01*
X554974Y164908D01*
X554939Y164960D01*
X554907Y165015D01*
X554879Y165071D01*
X554854Y165130D01*
X554833Y165189D01*
X554815Y165250D01*
X554802Y165311D01*
X554792Y165374D01*
X554786Y165437D01*
X554784Y165500D01*
X346710Y133350D02*
X346712Y133450D01*
X346718Y133551D01*
X346728Y133650D01*
X346742Y133750D01*
X346759Y133849D01*
X346781Y133947D01*
X346807Y134044D01*
X346836Y134140D01*
X346869Y134234D01*
X346906Y134328D01*
X346946Y134420D01*
X346990Y134510D01*
X347038Y134598D01*
X347089Y134685D01*
X347143Y134769D01*
X347201Y134851D01*
X347262Y134931D01*
X347326Y135008D01*
X347393Y135083D01*
X347463Y135155D01*
X347536Y135224D01*
X347611Y135290D01*
X347689Y135354D01*
X347769Y135414D01*
X347852Y135471D01*
X347937Y135524D01*
X348024Y135574D01*
X348113Y135621D01*
X348203Y135664D01*
X348295Y135704D01*
X348389Y135740D01*
X348484Y135772D01*
X348580Y135800D01*
X348678Y135825D01*
X348776Y135845D01*
X348875Y135862D01*
X348975Y135875D01*
X349074Y135884D01*
X349175Y135889D01*
X349275Y135890D01*
X349375Y135887D01*
X349476Y135880D01*
X349575Y135869D01*
X349675Y135854D01*
X349773Y135836D01*
X349871Y135813D01*
X349968Y135786D01*
X350063Y135756D01*
X350158Y135722D01*
X350251Y135684D01*
X350342Y135643D01*
X350432Y135598D01*
X350520Y135550D01*
X350606Y135498D01*
X350690Y135443D01*
X350771Y135384D01*
X350850Y135322D01*
X350927Y135258D01*
X351001Y135190D01*
X351072Y135119D01*
X351141Y135046D01*
X351206Y134970D01*
X351269Y134891D01*
X351328Y134810D01*
X351384Y134727D01*
X351437Y134642D01*
X351486Y134554D01*
X351532Y134465D01*
X351574Y134374D01*
X351613Y134281D01*
X351648Y134187D01*
X351679Y134092D01*
X351707Y133995D01*
X351730Y133898D01*
X351750Y133799D01*
X351766Y133700D01*
X351778Y133601D01*
X351786Y133500D01*
X351790Y133400D01*
X351790Y133300D01*
X351786Y133200D01*
X351778Y133099D01*
X351766Y133000D01*
X351750Y132901D01*
X351730Y132802D01*
X351707Y132705D01*
X351679Y132608D01*
X351648Y132513D01*
X351613Y132419D01*
X351574Y132326D01*
X351532Y132235D01*
X351486Y132146D01*
X351437Y132058D01*
X351384Y131973D01*
X351328Y131890D01*
X351269Y131809D01*
X351206Y131730D01*
X351141Y131654D01*
X351072Y131581D01*
X351001Y131510D01*
X350927Y131442D01*
X350850Y131378D01*
X350771Y131316D01*
X350690Y131257D01*
X350606Y131202D01*
X350520Y131150D01*
X350432Y131102D01*
X350342Y131057D01*
X350251Y131016D01*
X350158Y130978D01*
X350063Y130944D01*
X349968Y130914D01*
X349871Y130887D01*
X349773Y130864D01*
X349675Y130846D01*
X349575Y130831D01*
X349476Y130820D01*
X349375Y130813D01*
X349275Y130810D01*
X349175Y130811D01*
X349074Y130816D01*
X348975Y130825D01*
X348875Y130838D01*
X348776Y130855D01*
X348678Y130875D01*
X348580Y130900D01*
X348484Y130928D01*
X348389Y130960D01*
X348295Y130996D01*
X348203Y131036D01*
X348113Y131079D01*
X348024Y131126D01*
X347937Y131176D01*
X347852Y131229D01*
X347769Y131286D01*
X347689Y131346D01*
X347611Y131410D01*
X347536Y131476D01*
X347463Y131545D01*
X347393Y131617D01*
X347326Y131692D01*
X347262Y131769D01*
X347201Y131849D01*
X347143Y131931D01*
X347089Y132015D01*
X347038Y132102D01*
X346990Y132190D01*
X346946Y132280D01*
X346906Y132372D01*
X346869Y132466D01*
X346836Y132560D01*
X346807Y132656D01*
X346781Y132753D01*
X346759Y132851D01*
X346742Y132950D01*
X346728Y133050D01*
X346718Y133149D01*
X346712Y133250D01*
X346710Y133350D01*
X342300Y138000D02*
X267300Y138000D01*
X342300Y138000D02*
X342300Y243000D01*
X267300Y243000D01*
X267300Y138000D01*
D13*
X569500Y274700D03*
X569500Y274300D03*
X569500Y273900D03*
X569500Y273500D03*
X569500Y273100D03*
X569500Y272700D03*
X569500Y272300D03*
D14*
X554900Y271900D03*
D15*
X569500Y271900D03*
D14*
X584100Y271900D03*
D16*
X554300Y271500D03*
D17*
X563100Y271500D03*
D16*
X569500Y271500D03*
D17*
X575900Y271500D03*
D16*
X584700Y271500D03*
D18*
X554100Y271100D03*
D19*
X563100Y271100D03*
D16*
X569500Y271100D03*
D19*
X575900Y271100D03*
D18*
X584900Y271100D03*
D20*
X553900Y270700D03*
D21*
X563300Y270700D03*
D20*
X569500Y270700D03*
D21*
X575700Y270700D03*
D20*
X585100Y270700D03*
D22*
X553700Y270300D03*
D23*
X563500Y270300D03*
D20*
X569500Y270300D03*
D23*
X575500Y270300D03*
D22*
X585300Y270300D03*
X553700Y269900D03*
D21*
X563700Y269900D03*
D22*
X569700Y269900D03*
D21*
X575300Y269900D03*
D22*
X585300Y269900D03*
X553700Y269500D03*
D24*
X559700Y269500D03*
D23*
X563900Y269500D03*
D25*
X569500Y269500D03*
D21*
X575300Y269500D03*
D24*
X579700Y269500D03*
D25*
X585500Y269500D03*
D22*
X553700Y269100D03*
D19*
X559500Y269100D03*
D21*
X564100Y269100D03*
D26*
X569700Y269100D03*
D19*
X575100Y269100D03*
X579500Y269100D03*
D25*
X585500Y269100D03*
D22*
X553700Y268700D03*
D17*
X559500Y268700D03*
D21*
X564100Y268700D03*
D27*
X569500Y268700D03*
D19*
X575100Y268700D03*
D17*
X579500Y268700D03*
D25*
X585500Y268700D03*
D18*
X554100Y268300D03*
D17*
X559100Y268300D03*
D19*
X564300Y268300D03*
D28*
X569700Y268300D03*
X575300Y268300D03*
D17*
X579100Y268300D03*
D25*
X585500Y268300D03*
D14*
X554900Y267900D03*
D29*
X564100Y267900D03*
D17*
X569500Y267900D03*
D22*
X576100Y267900D03*
X585300Y267900D03*
D14*
X554900Y267500D03*
D17*
X564300Y267500D03*
X569500Y267500D03*
D20*
X575900Y267500D03*
D22*
X585300Y267500D03*
D14*
X554900Y267100D03*
D28*
X564100Y267100D03*
D19*
X569500Y267100D03*
D20*
X575900Y267100D03*
X585100Y267100D03*
D14*
X554900Y266700D03*
D26*
X564100Y266700D03*
D19*
X569500Y266700D03*
D18*
X575700Y266700D03*
X584900Y266700D03*
D14*
X554900Y266300D03*
D28*
X564500Y266300D03*
D23*
X569500Y266300D03*
D18*
X575700Y266300D03*
D22*
X585300Y266300D03*
D14*
X554900Y265900D03*
D27*
X564700Y265900D03*
D23*
X569500Y265900D03*
D16*
X575500Y265900D03*
D22*
X585300Y265900D03*
D30*
X555700Y265500D03*
D28*
X564900Y265500D03*
D31*
X569500Y265500D03*
D32*
X576300Y265500D03*
D25*
X585500Y265500D03*
D22*
X553700Y265100D03*
D28*
X559300Y265100D03*
D27*
X565100Y265100D03*
D31*
X569500Y265100D03*
D26*
X574100Y265100D03*
D28*
X579300Y265100D03*
D25*
X585500Y265100D03*
X553500Y264700D03*
D17*
X559500Y264700D03*
D27*
X565100Y264700D03*
X573900Y264700D03*
D17*
X579500Y264700D03*
D25*
X585500Y264700D03*
X553500Y264300D03*
D17*
X559500Y264300D03*
D26*
X565300Y264300D03*
X573700Y264300D03*
D17*
X579500Y264300D03*
D25*
X585500Y264300D03*
X553500Y263900D03*
D19*
X559500Y263900D03*
D26*
X565300Y263900D03*
X573700Y263900D03*
D19*
X579500Y263900D03*
D25*
X585500Y263900D03*
X553500Y263500D03*
X565500Y263500D03*
X573500Y263500D03*
X585500Y263500D03*
X553500Y263100D03*
X565500Y263100D03*
X573500Y263100D03*
X585500Y263100D03*
D22*
X553700Y262700D03*
D20*
X565500Y262700D03*
X573500Y262700D03*
D22*
X585300Y262700D03*
D20*
X553900Y262300D03*
D18*
X565300Y262300D03*
X573700Y262300D03*
D20*
X585100Y262300D03*
D18*
X554100Y261900D03*
D33*
X565300Y261900D03*
X573700Y261900D03*
D18*
X584900Y261900D03*
D33*
X554500Y261500D03*
D32*
X565100Y261500D03*
X573900Y261500D03*
D33*
X584500Y261500D03*
D13*
X569500Y261100D03*
X569500Y260700D03*
X569500Y260300D03*
X569500Y259900D03*
X569500Y259500D03*
X569500Y259100D03*
X569500Y258700D03*
D34*
X570300Y249300D03*
X570300Y248900D03*
X570300Y248500D03*
X570300Y248100D03*
X570300Y247700D03*
X570300Y247300D03*
X570300Y246900D03*
D35*
X555100Y246500D03*
D36*
X575700Y246500D03*
D32*
X554700Y246100D03*
D28*
X564500Y246100D03*
D22*
X570500Y246100D03*
D21*
X575700Y246100D03*
D32*
X585900Y246100D03*
D37*
X554300Y245700D03*
D19*
X564700Y245700D03*
D26*
X570500Y245700D03*
D23*
X575500Y245700D03*
D37*
X586300Y245700D03*
D33*
X554100Y245300D03*
D21*
X564900Y245300D03*
D27*
X570700Y245300D03*
D23*
X575500Y245300D03*
D33*
X586500Y245300D03*
D18*
X553700Y244900D03*
D21*
X564900Y244900D03*
D27*
X570700Y244900D03*
D23*
X575500Y244900D03*
D16*
X586700Y244900D03*
D18*
X553700Y244500D03*
D21*
X564900Y244500D03*
D28*
X570900Y244500D03*
D23*
X575500Y244500D03*
D18*
X586900Y244500D03*
D20*
X553500Y244100D03*
D21*
X564900Y244100D03*
D17*
X571100Y244100D03*
D23*
X575500Y244100D03*
D20*
X587100Y244100D03*
D22*
X553300Y243700D03*
D17*
X560700Y243700D03*
D19*
X564700Y243700D03*
D29*
X571300Y243700D03*
D23*
X575500Y243700D03*
D29*
X580100Y243700D03*
D22*
X587300Y243700D03*
X553300Y243300D03*
D14*
X562100Y243300D03*
D29*
X571300Y243300D03*
D23*
X575500Y243300D03*
D17*
X580300Y243300D03*
D22*
X587300Y243300D03*
X553300Y242900D03*
D32*
X561900Y242900D03*
D19*
X571500Y242900D03*
D23*
X575500Y242900D03*
D28*
X580500Y242900D03*
D25*
X587500Y242900D03*
X553100Y242500D03*
D32*
X561900Y242500D03*
D21*
X571700Y242500D03*
D23*
X575500Y242500D03*
D27*
X580700Y242500D03*
D25*
X587500Y242500D03*
X553100Y242100D03*
D17*
X559100Y242100D03*
D21*
X564900Y242100D03*
D23*
X571900Y242100D03*
X575500Y242100D03*
D26*
X580900Y242100D03*
D25*
X587500Y242100D03*
X553100Y241700D03*
D29*
X558900Y241700D03*
D23*
X565100Y241700D03*
X571900Y241700D03*
X575500Y241700D03*
D26*
X580900Y241700D03*
D25*
X587500Y241700D03*
X553100Y241300D03*
D29*
X558900Y241300D03*
D23*
X565100Y241300D03*
D31*
X568700Y241300D03*
D24*
X572100Y241300D03*
D23*
X575500Y241300D03*
D26*
X580900Y241300D03*
D25*
X587500Y241300D03*
X553100Y240900D03*
D29*
X558900Y240900D03*
D23*
X565100Y240900D03*
D24*
X568900Y240900D03*
D31*
X572300Y240900D03*
D23*
X575500Y240900D03*
D26*
X580900Y240900D03*
D25*
X587500Y240900D03*
X553100Y240500D03*
D29*
X558900Y240500D03*
D23*
X565100Y240500D03*
D24*
X568900Y240500D03*
D23*
X575500Y240500D03*
D26*
X580900Y240500D03*
D25*
X587500Y240500D03*
X553100Y240100D03*
D26*
X560100Y240100D03*
D23*
X565100Y240100D03*
X569100Y240100D03*
X575500Y240100D03*
D27*
X580700Y240100D03*
D25*
X587500Y240100D03*
D22*
X553300Y239700D03*
D26*
X560100Y239700D03*
D23*
X565100Y239700D03*
D21*
X569300Y239700D03*
D23*
X575500Y239700D03*
D27*
X580700Y239700D03*
D25*
X587500Y239700D03*
D22*
X553300Y239300D03*
D27*
X560300Y239300D03*
D23*
X565100Y239300D03*
D19*
X569500Y239300D03*
D23*
X575500Y239300D03*
D28*
X580500Y239300D03*
D22*
X587300Y239300D03*
X553300Y238900D03*
D28*
X560500Y238900D03*
D23*
X565100Y238900D03*
D19*
X569500Y238900D03*
D23*
X575500Y238900D03*
D17*
X580300Y238900D03*
D22*
X587300Y238900D03*
D20*
X553500Y238500D03*
D19*
X560700Y238500D03*
D23*
X565100Y238500D03*
D29*
X569700Y238500D03*
D23*
X575500Y238500D03*
D21*
X579700Y238500D03*
D20*
X587100Y238500D03*
X553500Y238100D03*
D23*
X565100Y238100D03*
D17*
X569900Y238100D03*
D23*
X575500Y238100D03*
D20*
X587100Y238100D03*
D18*
X553700Y237700D03*
D23*
X565100Y237700D03*
D28*
X570100Y237700D03*
D23*
X575500Y237700D03*
D18*
X586900Y237700D03*
D16*
X553900Y237300D03*
D23*
X565100Y237300D03*
D28*
X570100Y237300D03*
D23*
X575500Y237300D03*
D16*
X586700Y237300D03*
D33*
X554100Y236900D03*
D21*
X564900Y236900D03*
D27*
X570300Y236900D03*
D23*
X575500Y236900D03*
D33*
X586500Y236900D03*
D14*
X554500Y236500D03*
D29*
X564900Y236500D03*
D25*
X570300Y236500D03*
D21*
X575700Y236500D03*
D14*
X586100Y236500D03*
D38*
X554900Y236100D03*
D28*
X564500Y236100D03*
D22*
X570500Y236100D03*
D19*
X575500Y236100D03*
D35*
X585500Y236100D03*
D34*
X570300Y235700D03*
X570300Y235300D03*
X570300Y234900D03*
X570300Y234500D03*
X570300Y234100D03*
X570300Y233700D03*
X570300Y233300D03*
D39*
X571840Y325500D03*
D40*
X571240Y325100D03*
D41*
X570840Y324700D03*
D42*
X570440Y324300D03*
D43*
X570240Y323900D03*
D13*
X570040Y323500D03*
D44*
X569840Y323100D03*
D45*
X555840Y322700D03*
D35*
X566840Y322700D03*
D46*
X580440Y322700D03*
D30*
X555040Y322300D03*
D16*
X566840Y322300D03*
D17*
X575240Y322300D03*
D45*
X583440Y322300D03*
D35*
X554840Y321900D03*
D25*
X566840Y321900D03*
D21*
X575440Y321900D03*
D45*
X583440Y321900D03*
D35*
X554440Y321500D03*
D28*
X566640Y321500D03*
D23*
X575640Y321500D03*
D47*
X583640Y321500D03*
D35*
X554440Y321100D03*
D17*
X566440Y321100D03*
D24*
X575840Y321100D03*
D47*
X583640Y321100D03*
D35*
X554040Y320700D03*
D17*
X566040Y320700D03*
D24*
X575840Y320700D03*
D47*
X583640Y320700D03*
D35*
X554040Y320300D03*
D21*
X561840Y320300D03*
D29*
X565840Y320300D03*
D23*
X575640Y320300D03*
D47*
X583640Y320300D03*
D35*
X554040Y319900D03*
D29*
X561840Y319900D03*
D17*
X565640Y319900D03*
X571640Y319900D03*
D21*
X575440Y319900D03*
D47*
X583640Y319900D03*
D30*
X553840Y319500D03*
D16*
X563640Y319500D03*
D26*
X571840Y319500D03*
D19*
X575240Y319500D03*
D47*
X583640Y319500D03*
D30*
X553840Y319100D03*
D18*
X563840Y319100D03*
D37*
X572840Y319100D03*
D47*
X583640Y319100D03*
D30*
X553840Y318700D03*
D22*
X564240Y318700D03*
D14*
X572640Y318700D03*
D47*
X583640Y318700D03*
D30*
X553840Y318300D03*
D17*
X564840Y318300D03*
D14*
X572640Y318300D03*
D47*
X583640Y318300D03*
X554040Y317900D03*
D19*
X565240Y317900D03*
D14*
X572640Y317900D03*
D47*
X583640Y317900D03*
D45*
X554240Y317500D03*
D23*
X565640Y317500D03*
D14*
X572640Y317500D03*
D47*
X583640Y317500D03*
D48*
X554440Y317100D03*
D23*
X565640Y317100D03*
D14*
X572640Y317100D03*
D47*
X583640Y317100D03*
D49*
X554840Y316700D03*
D24*
X565840Y316700D03*
D14*
X572640Y316700D03*
D47*
X583640Y316700D03*
D50*
X555640Y316300D03*
D23*
X566040Y316300D03*
D14*
X572640Y316300D03*
D47*
X583640Y316300D03*
D51*
X556040Y315900D03*
D23*
X566040Y315900D03*
D14*
X572640Y315900D03*
D47*
X583640Y315900D03*
X554040Y315500D03*
D28*
X561440Y315500D03*
D23*
X566040Y315500D03*
D37*
X572840Y315500D03*
D47*
X583640Y315500D03*
D35*
X554040Y315100D03*
D17*
X561640Y315100D03*
D21*
X566240Y315100D03*
D27*
X571640Y315100D03*
D21*
X575440Y315100D03*
D47*
X583640Y315100D03*
D35*
X554040Y314700D03*
D29*
X561840Y314700D03*
D21*
X566240Y314700D03*
D19*
X571640Y314700D03*
D23*
X575640Y314700D03*
D47*
X583640Y314700D03*
D38*
X553840Y314300D03*
D19*
X566440Y314300D03*
D23*
X575640Y314300D03*
D47*
X583640Y314300D03*
D38*
X554240Y313900D03*
D19*
X566440Y313900D03*
D24*
X575840Y313900D03*
D25*
X586040Y313900D03*
D38*
X554240Y313500D03*
D17*
X566440Y313500D03*
D24*
X575840Y313500D03*
D25*
X586040Y313500D03*
D38*
X554640Y313100D03*
D26*
X566640Y313100D03*
D23*
X575640Y313100D03*
D25*
X586040Y313100D03*
D30*
X555040Y312700D03*
D22*
X566640Y312700D03*
D29*
X575440Y312700D03*
D25*
X586040Y312700D03*
D30*
X555440Y312300D03*
D33*
X566640Y312300D03*
D28*
X575040Y312300D03*
D22*
X585840Y312300D03*
D44*
X569840Y311900D03*
D13*
X570040Y311500D03*
D43*
X570240Y311100D03*
D42*
X570440Y310700D03*
D41*
X570840Y310300D03*
D40*
X571240Y309900D03*
D39*
X571840Y309500D03*
D52*
X570500Y300100D03*
D13*
X569900Y299700D03*
D53*
X569500Y299300D03*
D54*
X569100Y298900D03*
D55*
X568900Y298500D03*
D34*
X568700Y298100D03*
D56*
X568500Y297700D03*
D45*
X553300Y297300D03*
D36*
X574100Y297300D03*
D47*
X552700Y296900D03*
D17*
X562700Y296900D03*
D38*
X573700Y296900D03*
D30*
X583700Y296900D03*
D35*
X552300Y296500D03*
D19*
X563100Y296500D03*
D37*
X573900Y296500D03*
D35*
X583900Y296500D03*
X551900Y296100D03*
D21*
X563300Y296100D03*
D18*
X574100Y296100D03*
D35*
X583900Y296100D03*
X551900Y295700D03*
D21*
X563300Y295700D03*
D20*
X574300Y295700D03*
D38*
X584100Y295700D03*
D35*
X551500Y295300D03*
D21*
X563300Y295300D03*
D25*
X574300Y295300D03*
D38*
X584100Y295300D03*
D35*
X551500Y294900D03*
D21*
X559300Y294900D03*
D19*
X563100Y294900D03*
D26*
X574500Y294900D03*
D32*
X584300Y294900D03*
D35*
X551500Y294500D03*
D29*
X559300Y294500D03*
X562900Y294500D03*
X567700Y294500D03*
D26*
X574500Y294500D03*
D32*
X584300Y294500D03*
D30*
X551300Y294100D03*
D16*
X561100Y294100D03*
D28*
X568100Y294100D03*
X574500Y294100D03*
D32*
X584300Y294100D03*
D30*
X551300Y293700D03*
D18*
X561300Y293700D03*
D27*
X568300Y293700D03*
D28*
X574500Y293700D03*
D14*
X584500Y293700D03*
D30*
X551300Y293300D03*
D22*
X561700Y293300D03*
D26*
X568500Y293300D03*
D29*
X574500Y293300D03*
D14*
X584500Y293300D03*
D47*
X551500Y292900D03*
D28*
X562500Y292900D03*
D26*
X568500Y292900D03*
D29*
X574500Y292900D03*
D37*
X584700Y292900D03*
D47*
X551500Y292500D03*
D19*
X563100Y292500D03*
D25*
X568700Y292500D03*
D19*
X574300Y292500D03*
D24*
X578500Y292500D03*
D37*
X584700Y292500D03*
D45*
X551700Y292100D03*
D21*
X563300Y292100D03*
D25*
X568700Y292100D03*
D19*
X574300Y292100D03*
D24*
X578500Y292100D03*
D33*
X584900Y292100D03*
D48*
X551900Y291700D03*
D23*
X563500Y291700D03*
D25*
X568700Y291700D03*
D21*
X574100Y291700D03*
D23*
X578300Y291700D03*
D33*
X584900Y291700D03*
D57*
X552500Y291300D03*
D23*
X563500Y291300D03*
D26*
X568500Y291300D03*
D21*
X574100Y291300D03*
X578500Y291300D03*
D16*
X585100Y291300D03*
D50*
X553100Y290900D03*
D23*
X563500Y290900D03*
D26*
X568500Y290900D03*
D23*
X573900Y290900D03*
D16*
X585100Y290900D03*
D58*
X553700Y290500D03*
D23*
X563500Y290500D03*
D26*
X568500Y290500D03*
D21*
X573700Y290500D03*
D18*
X585300Y290500D03*
D47*
X551500Y290100D03*
D28*
X558900Y290100D03*
D24*
X563700Y290100D03*
D27*
X568300Y290100D03*
D23*
X573500Y290100D03*
D18*
X585300Y290100D03*
D35*
X551500Y289700D03*
D17*
X559100Y289700D03*
D23*
X563500Y289700D03*
D28*
X568100Y289700D03*
D23*
X573500Y289700D03*
D20*
X585500Y289700D03*
D35*
X551500Y289300D03*
D29*
X559300Y289300D03*
D23*
X563500Y289300D03*
D21*
X567700Y289300D03*
D23*
X573100Y289300D03*
D20*
X585500Y289300D03*
D35*
X551500Y288900D03*
D23*
X563500Y288900D03*
D21*
X572900Y288900D03*
D26*
X578500Y288900D03*
D22*
X585700Y288900D03*
D38*
X551700Y288500D03*
D23*
X563500Y288500D03*
D21*
X572500Y288500D03*
D25*
X578300Y288500D03*
D22*
X585700Y288500D03*
D35*
X551900Y288100D03*
D21*
X563300Y288100D03*
X572500Y288100D03*
D22*
X578500Y288100D03*
D25*
X585900Y288100D03*
D38*
X552100Y287700D03*
D19*
X563100Y287700D03*
D29*
X572100Y287700D03*
D20*
X578300Y287700D03*
D25*
X585900Y287700D03*
D30*
X552500Y287300D03*
D29*
X562900Y287300D03*
D17*
X571900Y287300D03*
D18*
X578500Y287300D03*
D25*
X585900Y287300D03*
D47*
X553100Y286900D03*
D27*
X562700Y286900D03*
D25*
X571500Y286900D03*
D16*
X578300Y286900D03*
D20*
X585500Y286900D03*
D56*
X568500Y286500D03*
D34*
X568700Y286100D03*
D55*
X568900Y285700D03*
D54*
X569100Y285300D03*
D53*
X569500Y284900D03*
D13*
X569900Y284500D03*
D52*
X570500Y284100D03*
D59*
X572720Y147700D03*
D60*
X572920Y147300D03*
D61*
X573120Y146900D03*
D62*
X573320Y146500D03*
D37*
X561520Y146100D03*
D22*
X586520Y146100D03*
D16*
X561520Y145700D03*
D25*
X586720Y145700D03*
D18*
X561720Y145300D03*
D26*
X586920Y145300D03*
D20*
X561920Y144900D03*
D26*
X586920Y144900D03*
D22*
X562120Y144500D03*
D25*
X586720Y144500D03*
D22*
X562520Y144100D03*
X586520Y144100D03*
D63*
X574720Y143700D03*
D36*
X574920Y143300D03*
D64*
X575120Y142900D03*
D65*
X575320Y142500D03*
D28*
X563720Y142100D03*
D21*
X567720Y142100D03*
D26*
X571720Y142100D03*
D23*
X575920Y142100D03*
D25*
X586720Y142100D03*
D29*
X563720Y141700D03*
D23*
X567520Y141700D03*
D27*
X571920Y141700D03*
D24*
X576120Y141700D03*
D26*
X586920Y141700D03*
D19*
X563920Y141300D03*
D23*
X567520Y141300D03*
D28*
X572120Y141300D03*
D24*
X576120Y141300D03*
D26*
X586920Y141300D03*
D21*
X564120Y140900D03*
D23*
X567520Y140900D03*
D17*
X572320Y140900D03*
D24*
X576120Y140900D03*
D26*
X586920Y140900D03*
D21*
X564120Y140500D03*
D23*
X567520Y140500D03*
D17*
X572320Y140500D03*
D27*
X577520Y140500D03*
D14*
X585320Y140500D03*
D21*
X564120Y140100D03*
D23*
X567520Y140100D03*
D29*
X572520Y140100D03*
D26*
X577720Y140100D03*
D14*
X585320Y140100D03*
D21*
X564120Y139700D03*
D23*
X567520Y139700D03*
D19*
X572720Y139700D03*
D26*
X577720Y139700D03*
D14*
X585320Y139700D03*
D21*
X564120Y139300D03*
D23*
X567520Y139300D03*
D21*
X572920Y139300D03*
D26*
X577720Y139300D03*
D14*
X585320Y139300D03*
D21*
X564120Y138900D03*
D23*
X567520Y138900D03*
D21*
X572920Y138900D03*
D26*
X577720Y138900D03*
D14*
X585320Y138900D03*
D21*
X564120Y138500D03*
D23*
X567520Y138500D03*
X573120Y138500D03*
D26*
X577720Y138500D03*
D14*
X585320Y138500D03*
D19*
X563920Y138100D03*
D23*
X567520Y138100D03*
D31*
X570320Y138100D03*
D24*
X573320Y138100D03*
D26*
X577720Y138100D03*
D14*
X585320Y138100D03*
D29*
X563720Y137700D03*
D23*
X567520Y137700D03*
D24*
X570520Y137700D03*
D31*
X573520Y137700D03*
D26*
X577720Y137700D03*
D14*
X585320Y137700D03*
D17*
X563520Y137300D03*
D23*
X567520Y137300D03*
D24*
X570520Y137300D03*
D26*
X577720Y137300D03*
D14*
X585320Y137300D03*
D28*
X563320Y136900D03*
D23*
X567520Y136900D03*
X570720Y136900D03*
D26*
X577720Y136900D03*
D14*
X585320Y136900D03*
D27*
X563120Y136500D03*
D23*
X567520Y136500D03*
D21*
X570920Y136500D03*
D26*
X577720Y136500D03*
D14*
X585320Y136500D03*
D26*
X562920Y136100D03*
D23*
X567520Y136100D03*
D19*
X571120Y136100D03*
D26*
X577720Y136100D03*
D14*
X585320Y136100D03*
D25*
X562720Y135700D03*
D23*
X567520Y135700D03*
D19*
X571120Y135700D03*
D26*
X577720Y135700D03*
D14*
X585320Y135700D03*
D22*
X562520Y135300D03*
D23*
X567520Y135300D03*
D29*
X571320Y135300D03*
D26*
X577720Y135300D03*
D14*
X585320Y135300D03*
D20*
X562320Y134900D03*
D23*
X567520Y134900D03*
D17*
X571520Y134900D03*
D26*
X577720Y134900D03*
D14*
X585320Y134900D03*
D18*
X562120Y134500D03*
D23*
X567520Y134500D03*
D28*
X571720Y134500D03*
D26*
X577720Y134500D03*
D14*
X585320Y134500D03*
D16*
X561920Y134100D03*
D23*
X567520Y134100D03*
D28*
X571720Y134100D03*
D26*
X577720Y134100D03*
D14*
X585320Y134100D03*
D37*
X561920Y133700D03*
D23*
X567520Y133700D03*
D26*
X571720Y133700D03*
D25*
X577520Y133700D03*
D32*
X585120Y133700D03*
D66*
X573520Y133300D03*
D62*
X573320Y132900D03*
D61*
X573120Y132500D03*
D60*
X572920Y132100D03*
D59*
X572720Y131700D03*
D67*
X520100Y126500D02*
X318100Y126500D01*
X520100Y126500D02*
X520100Y500D01*
X318100Y500D01*
X318100Y126500D01*
X318100Y254500D02*
X520100Y254500D01*
X318100Y254500D02*
X318100Y380500D01*
X520100Y380500D01*
X520100Y254500D01*
D12*
X79375Y258763D02*
X79375Y249238D01*
D67*
X89500Y254500D02*
X291500Y254500D01*
X89500Y254500D02*
X89500Y380500D01*
X291500Y380500D01*
X291500Y254500D01*
X291500Y126500D02*
X89500Y126500D01*
X291500Y126500D02*
X291500Y500D01*
X89500Y500D01*
X89500Y126500D01*
M02*
