G04 EAGLE Gerber RS-274X export*
G75*
%MOMM*%
%FSLAX34Y34*%
%LPD*%
%INSoldermask Bottom*%
%IPPOS*%
%AMOC8*
5,1,8,0,0,1.08239X$1,22.5*%
G01*
%ADD10C,3.505200*%
%ADD11R,0.863600X1.473200*%
%ADD12C,1.203200*%
%ADD13C,2.453200*%
%ADD14R,1.473200X0.863600*%
%ADD15C,2.082800*%

G36*
X547435Y86372D02*
X547435Y86372D01*
X547501Y86374D01*
X547544Y86392D01*
X547591Y86400D01*
X547648Y86434D01*
X547708Y86459D01*
X547743Y86490D01*
X547784Y86515D01*
X547826Y86566D01*
X547874Y86610D01*
X547896Y86652D01*
X547925Y86689D01*
X547946Y86751D01*
X547977Y86810D01*
X547985Y86864D01*
X547997Y86901D01*
X547996Y86941D01*
X548004Y86995D01*
X548004Y90805D01*
X547993Y90870D01*
X547991Y90936D01*
X547973Y90979D01*
X547965Y91026D01*
X547931Y91083D01*
X547906Y91143D01*
X547875Y91178D01*
X547850Y91219D01*
X547799Y91261D01*
X547755Y91309D01*
X547713Y91331D01*
X547676Y91360D01*
X547614Y91381D01*
X547555Y91412D01*
X547501Y91420D01*
X547464Y91432D01*
X547424Y91431D01*
X547370Y91439D01*
X544830Y91439D01*
X544765Y91428D01*
X544699Y91426D01*
X544656Y91408D01*
X544609Y91400D01*
X544552Y91366D01*
X544492Y91341D01*
X544457Y91310D01*
X544416Y91285D01*
X544375Y91234D01*
X544326Y91190D01*
X544304Y91148D01*
X544275Y91111D01*
X544254Y91049D01*
X544223Y90990D01*
X544215Y90936D01*
X544203Y90899D01*
X544203Y90895D01*
X544203Y90894D01*
X544204Y90859D01*
X544196Y90805D01*
X544196Y86995D01*
X544207Y86930D01*
X544209Y86864D01*
X544227Y86821D01*
X544235Y86774D01*
X544269Y86717D01*
X544294Y86657D01*
X544325Y86622D01*
X544350Y86581D01*
X544401Y86540D01*
X544445Y86491D01*
X544487Y86469D01*
X544524Y86440D01*
X544586Y86419D01*
X544645Y86388D01*
X544699Y86380D01*
X544736Y86368D01*
X544776Y86369D01*
X544830Y86361D01*
X547370Y86361D01*
X547435Y86372D01*
G37*
G36*
X1776795Y86372D02*
X1776795Y86372D01*
X1776861Y86374D01*
X1776904Y86392D01*
X1776951Y86400D01*
X1777008Y86434D01*
X1777068Y86459D01*
X1777103Y86490D01*
X1777144Y86515D01*
X1777186Y86566D01*
X1777234Y86610D01*
X1777256Y86652D01*
X1777285Y86689D01*
X1777306Y86751D01*
X1777337Y86810D01*
X1777345Y86864D01*
X1777357Y86901D01*
X1777356Y86941D01*
X1777364Y86995D01*
X1777364Y90805D01*
X1777353Y90870D01*
X1777351Y90936D01*
X1777333Y90979D01*
X1777325Y91026D01*
X1777291Y91083D01*
X1777266Y91143D01*
X1777235Y91178D01*
X1777210Y91219D01*
X1777159Y91261D01*
X1777115Y91309D01*
X1777073Y91331D01*
X1777036Y91360D01*
X1776974Y91381D01*
X1776915Y91412D01*
X1776861Y91420D01*
X1776824Y91432D01*
X1776784Y91431D01*
X1776730Y91439D01*
X1774190Y91439D01*
X1774125Y91428D01*
X1774059Y91426D01*
X1774016Y91408D01*
X1773969Y91400D01*
X1773912Y91366D01*
X1773852Y91341D01*
X1773817Y91310D01*
X1773776Y91285D01*
X1773735Y91234D01*
X1773686Y91190D01*
X1773664Y91148D01*
X1773635Y91111D01*
X1773614Y91049D01*
X1773583Y90990D01*
X1773575Y90936D01*
X1773563Y90899D01*
X1773563Y90895D01*
X1773563Y90894D01*
X1773564Y90859D01*
X1773556Y90805D01*
X1773556Y86995D01*
X1773567Y86930D01*
X1773569Y86864D01*
X1773587Y86821D01*
X1773595Y86774D01*
X1773629Y86717D01*
X1773654Y86657D01*
X1773685Y86622D01*
X1773710Y86581D01*
X1773761Y86540D01*
X1773805Y86491D01*
X1773847Y86469D01*
X1773884Y86440D01*
X1773946Y86419D01*
X1774005Y86388D01*
X1774059Y86380D01*
X1774096Y86368D01*
X1774136Y86369D01*
X1774190Y86361D01*
X1776730Y86361D01*
X1776795Y86372D01*
G37*
G36*
X1162115Y86372D02*
X1162115Y86372D01*
X1162181Y86374D01*
X1162224Y86392D01*
X1162271Y86400D01*
X1162328Y86434D01*
X1162388Y86459D01*
X1162423Y86490D01*
X1162464Y86515D01*
X1162506Y86566D01*
X1162554Y86610D01*
X1162576Y86652D01*
X1162605Y86689D01*
X1162626Y86751D01*
X1162657Y86810D01*
X1162665Y86864D01*
X1162677Y86901D01*
X1162676Y86941D01*
X1162684Y86995D01*
X1162684Y90805D01*
X1162673Y90870D01*
X1162671Y90936D01*
X1162653Y90979D01*
X1162645Y91026D01*
X1162611Y91083D01*
X1162586Y91143D01*
X1162555Y91178D01*
X1162530Y91219D01*
X1162479Y91261D01*
X1162435Y91309D01*
X1162393Y91331D01*
X1162356Y91360D01*
X1162294Y91381D01*
X1162235Y91412D01*
X1162181Y91420D01*
X1162144Y91432D01*
X1162104Y91431D01*
X1162050Y91439D01*
X1159510Y91439D01*
X1159445Y91428D01*
X1159379Y91426D01*
X1159336Y91408D01*
X1159289Y91400D01*
X1159232Y91366D01*
X1159172Y91341D01*
X1159137Y91310D01*
X1159096Y91285D01*
X1159055Y91234D01*
X1159006Y91190D01*
X1158984Y91148D01*
X1158955Y91111D01*
X1158934Y91049D01*
X1158903Y90990D01*
X1158895Y90936D01*
X1158883Y90899D01*
X1158883Y90895D01*
X1158883Y90894D01*
X1158884Y90859D01*
X1158876Y90805D01*
X1158876Y86995D01*
X1158887Y86930D01*
X1158889Y86864D01*
X1158907Y86821D01*
X1158915Y86774D01*
X1158949Y86717D01*
X1158974Y86657D01*
X1159005Y86622D01*
X1159030Y86581D01*
X1159081Y86540D01*
X1159125Y86491D01*
X1159167Y86469D01*
X1159204Y86440D01*
X1159266Y86419D01*
X1159325Y86388D01*
X1159379Y86380D01*
X1159416Y86368D01*
X1159456Y86369D01*
X1159510Y86361D01*
X1162050Y86361D01*
X1162115Y86372D01*
G37*
G36*
X1162115Y858532D02*
X1162115Y858532D01*
X1162181Y858534D01*
X1162224Y858552D01*
X1162271Y858560D01*
X1162328Y858594D01*
X1162388Y858619D01*
X1162423Y858650D01*
X1162464Y858675D01*
X1162506Y858726D01*
X1162554Y858770D01*
X1162576Y858812D01*
X1162605Y858849D01*
X1162626Y858911D01*
X1162657Y858970D01*
X1162665Y859024D01*
X1162677Y859061D01*
X1162676Y859101D01*
X1162684Y859155D01*
X1162684Y862965D01*
X1162673Y863030D01*
X1162671Y863096D01*
X1162653Y863139D01*
X1162645Y863186D01*
X1162611Y863243D01*
X1162586Y863303D01*
X1162555Y863338D01*
X1162530Y863379D01*
X1162479Y863421D01*
X1162435Y863469D01*
X1162393Y863491D01*
X1162356Y863520D01*
X1162294Y863541D01*
X1162235Y863572D01*
X1162181Y863580D01*
X1162144Y863592D01*
X1162104Y863591D01*
X1162050Y863599D01*
X1159510Y863599D01*
X1159445Y863588D01*
X1159379Y863586D01*
X1159336Y863568D01*
X1159289Y863560D01*
X1159232Y863526D01*
X1159172Y863501D01*
X1159137Y863470D01*
X1159096Y863445D01*
X1159055Y863394D01*
X1159006Y863350D01*
X1158984Y863308D01*
X1158955Y863271D01*
X1158934Y863209D01*
X1158903Y863150D01*
X1158895Y863096D01*
X1158883Y863059D01*
X1158883Y863055D01*
X1158883Y863054D01*
X1158884Y863019D01*
X1158876Y862965D01*
X1158876Y859155D01*
X1158887Y859090D01*
X1158889Y859024D01*
X1158907Y858981D01*
X1158915Y858934D01*
X1158949Y858877D01*
X1158974Y858817D01*
X1159005Y858782D01*
X1159030Y858741D01*
X1159081Y858700D01*
X1159125Y858651D01*
X1159167Y858629D01*
X1159204Y858600D01*
X1159266Y858579D01*
X1159325Y858548D01*
X1159379Y858540D01*
X1159416Y858528D01*
X1159456Y858529D01*
X1159510Y858521D01*
X1162050Y858521D01*
X1162115Y858532D01*
G37*
G36*
X1776795Y858532D02*
X1776795Y858532D01*
X1776861Y858534D01*
X1776904Y858552D01*
X1776951Y858560D01*
X1777008Y858594D01*
X1777068Y858619D01*
X1777103Y858650D01*
X1777144Y858675D01*
X1777186Y858726D01*
X1777234Y858770D01*
X1777256Y858812D01*
X1777285Y858849D01*
X1777306Y858911D01*
X1777337Y858970D01*
X1777345Y859024D01*
X1777357Y859061D01*
X1777356Y859101D01*
X1777364Y859155D01*
X1777364Y862965D01*
X1777353Y863030D01*
X1777351Y863096D01*
X1777333Y863139D01*
X1777325Y863186D01*
X1777291Y863243D01*
X1777266Y863303D01*
X1777235Y863338D01*
X1777210Y863379D01*
X1777159Y863421D01*
X1777115Y863469D01*
X1777073Y863491D01*
X1777036Y863520D01*
X1776974Y863541D01*
X1776915Y863572D01*
X1776861Y863580D01*
X1776824Y863592D01*
X1776784Y863591D01*
X1776730Y863599D01*
X1774190Y863599D01*
X1774125Y863588D01*
X1774059Y863586D01*
X1774016Y863568D01*
X1773969Y863560D01*
X1773912Y863526D01*
X1773852Y863501D01*
X1773817Y863470D01*
X1773776Y863445D01*
X1773735Y863394D01*
X1773686Y863350D01*
X1773664Y863308D01*
X1773635Y863271D01*
X1773614Y863209D01*
X1773583Y863150D01*
X1773575Y863096D01*
X1773563Y863059D01*
X1773563Y863055D01*
X1773563Y863054D01*
X1773564Y863019D01*
X1773556Y862965D01*
X1773556Y859155D01*
X1773567Y859090D01*
X1773569Y859024D01*
X1773587Y858981D01*
X1773595Y858934D01*
X1773629Y858877D01*
X1773654Y858817D01*
X1773685Y858782D01*
X1773710Y858741D01*
X1773761Y858700D01*
X1773805Y858651D01*
X1773847Y858629D01*
X1773884Y858600D01*
X1773946Y858579D01*
X1774005Y858548D01*
X1774059Y858540D01*
X1774096Y858528D01*
X1774136Y858529D01*
X1774190Y858521D01*
X1776730Y858521D01*
X1776795Y858532D01*
G37*
G36*
X547435Y858532D02*
X547435Y858532D01*
X547501Y858534D01*
X547544Y858552D01*
X547591Y858560D01*
X547648Y858594D01*
X547708Y858619D01*
X547743Y858650D01*
X547784Y858675D01*
X547826Y858726D01*
X547874Y858770D01*
X547896Y858812D01*
X547925Y858849D01*
X547946Y858911D01*
X547977Y858970D01*
X547985Y859024D01*
X547997Y859061D01*
X547996Y859101D01*
X548004Y859155D01*
X548004Y862965D01*
X547993Y863030D01*
X547991Y863096D01*
X547973Y863139D01*
X547965Y863186D01*
X547931Y863243D01*
X547906Y863303D01*
X547875Y863338D01*
X547850Y863379D01*
X547799Y863421D01*
X547755Y863469D01*
X547713Y863491D01*
X547676Y863520D01*
X547614Y863541D01*
X547555Y863572D01*
X547501Y863580D01*
X547464Y863592D01*
X547424Y863591D01*
X547370Y863599D01*
X544830Y863599D01*
X544765Y863588D01*
X544699Y863586D01*
X544656Y863568D01*
X544609Y863560D01*
X544552Y863526D01*
X544492Y863501D01*
X544457Y863470D01*
X544416Y863445D01*
X544375Y863394D01*
X544326Y863350D01*
X544304Y863308D01*
X544275Y863271D01*
X544254Y863209D01*
X544223Y863150D01*
X544215Y863096D01*
X544203Y863059D01*
X544203Y863055D01*
X544203Y863054D01*
X544204Y863019D01*
X544196Y862965D01*
X544196Y859155D01*
X544207Y859090D01*
X544209Y859024D01*
X544227Y858981D01*
X544235Y858934D01*
X544269Y858877D01*
X544294Y858817D01*
X544325Y858782D01*
X544350Y858741D01*
X544401Y858700D01*
X544445Y858651D01*
X544487Y858629D01*
X544524Y858600D01*
X544586Y858579D01*
X544645Y858548D01*
X544699Y858540D01*
X544736Y858528D01*
X544776Y858529D01*
X544830Y858521D01*
X547370Y858521D01*
X547435Y858532D01*
G37*
G36*
X1776795Y472452D02*
X1776795Y472452D01*
X1776861Y472454D01*
X1776904Y472472D01*
X1776951Y472480D01*
X1777008Y472514D01*
X1777068Y472539D01*
X1777103Y472570D01*
X1777144Y472595D01*
X1777186Y472646D01*
X1777234Y472690D01*
X1777256Y472732D01*
X1777285Y472769D01*
X1777306Y472831D01*
X1777337Y472890D01*
X1777345Y472944D01*
X1777357Y472981D01*
X1777356Y473021D01*
X1777364Y473075D01*
X1777364Y476885D01*
X1777353Y476950D01*
X1777351Y477016D01*
X1777333Y477059D01*
X1777325Y477106D01*
X1777291Y477163D01*
X1777266Y477223D01*
X1777235Y477258D01*
X1777210Y477299D01*
X1777159Y477341D01*
X1777115Y477389D01*
X1777073Y477411D01*
X1777036Y477440D01*
X1776974Y477461D01*
X1776915Y477492D01*
X1776861Y477500D01*
X1776824Y477512D01*
X1776784Y477511D01*
X1776730Y477519D01*
X1774190Y477519D01*
X1774125Y477508D01*
X1774059Y477506D01*
X1774016Y477488D01*
X1773969Y477480D01*
X1773912Y477446D01*
X1773852Y477421D01*
X1773817Y477390D01*
X1773776Y477365D01*
X1773735Y477314D01*
X1773686Y477270D01*
X1773664Y477228D01*
X1773635Y477191D01*
X1773614Y477129D01*
X1773583Y477070D01*
X1773575Y477016D01*
X1773563Y476979D01*
X1773563Y476975D01*
X1773563Y476974D01*
X1773564Y476939D01*
X1773556Y476885D01*
X1773556Y473075D01*
X1773567Y473010D01*
X1773569Y472944D01*
X1773587Y472901D01*
X1773595Y472854D01*
X1773629Y472797D01*
X1773654Y472737D01*
X1773685Y472702D01*
X1773710Y472661D01*
X1773761Y472620D01*
X1773805Y472571D01*
X1773847Y472549D01*
X1773884Y472520D01*
X1773946Y472499D01*
X1774005Y472468D01*
X1774059Y472460D01*
X1774096Y472448D01*
X1774136Y472449D01*
X1774190Y472441D01*
X1776730Y472441D01*
X1776795Y472452D01*
G37*
G36*
X547435Y472452D02*
X547435Y472452D01*
X547501Y472454D01*
X547544Y472472D01*
X547591Y472480D01*
X547648Y472514D01*
X547708Y472539D01*
X547743Y472570D01*
X547784Y472595D01*
X547826Y472646D01*
X547874Y472690D01*
X547896Y472732D01*
X547925Y472769D01*
X547946Y472831D01*
X547977Y472890D01*
X547985Y472944D01*
X547997Y472981D01*
X547996Y473021D01*
X548004Y473075D01*
X548004Y476885D01*
X547993Y476950D01*
X547991Y477016D01*
X547973Y477059D01*
X547965Y477106D01*
X547931Y477163D01*
X547906Y477223D01*
X547875Y477258D01*
X547850Y477299D01*
X547799Y477341D01*
X547755Y477389D01*
X547713Y477411D01*
X547676Y477440D01*
X547614Y477461D01*
X547555Y477492D01*
X547501Y477500D01*
X547464Y477512D01*
X547424Y477511D01*
X547370Y477519D01*
X544830Y477519D01*
X544765Y477508D01*
X544699Y477506D01*
X544656Y477488D01*
X544609Y477480D01*
X544552Y477446D01*
X544492Y477421D01*
X544457Y477390D01*
X544416Y477365D01*
X544375Y477314D01*
X544326Y477270D01*
X544304Y477228D01*
X544275Y477191D01*
X544254Y477129D01*
X544223Y477070D01*
X544215Y477016D01*
X544203Y476979D01*
X544203Y476975D01*
X544203Y476974D01*
X544204Y476939D01*
X544196Y476885D01*
X544196Y473075D01*
X544207Y473010D01*
X544209Y472944D01*
X544227Y472901D01*
X544235Y472854D01*
X544269Y472797D01*
X544294Y472737D01*
X544325Y472702D01*
X544350Y472661D01*
X544401Y472620D01*
X544445Y472571D01*
X544487Y472549D01*
X544524Y472520D01*
X544586Y472499D01*
X544645Y472468D01*
X544699Y472460D01*
X544736Y472448D01*
X544776Y472449D01*
X544830Y472441D01*
X547370Y472441D01*
X547435Y472452D01*
G37*
G36*
X1162115Y472452D02*
X1162115Y472452D01*
X1162181Y472454D01*
X1162224Y472472D01*
X1162271Y472480D01*
X1162328Y472514D01*
X1162388Y472539D01*
X1162423Y472570D01*
X1162464Y472595D01*
X1162506Y472646D01*
X1162554Y472690D01*
X1162576Y472732D01*
X1162605Y472769D01*
X1162626Y472831D01*
X1162657Y472890D01*
X1162665Y472944D01*
X1162677Y472981D01*
X1162676Y473021D01*
X1162684Y473075D01*
X1162684Y476885D01*
X1162673Y476950D01*
X1162671Y477016D01*
X1162653Y477059D01*
X1162645Y477106D01*
X1162611Y477163D01*
X1162586Y477223D01*
X1162555Y477258D01*
X1162530Y477299D01*
X1162479Y477341D01*
X1162435Y477389D01*
X1162393Y477411D01*
X1162356Y477440D01*
X1162294Y477461D01*
X1162235Y477492D01*
X1162181Y477500D01*
X1162144Y477512D01*
X1162104Y477511D01*
X1162050Y477519D01*
X1159510Y477519D01*
X1159445Y477508D01*
X1159379Y477506D01*
X1159336Y477488D01*
X1159289Y477480D01*
X1159232Y477446D01*
X1159172Y477421D01*
X1159137Y477390D01*
X1159096Y477365D01*
X1159055Y477314D01*
X1159006Y477270D01*
X1158984Y477228D01*
X1158955Y477191D01*
X1158934Y477129D01*
X1158903Y477070D01*
X1158895Y477016D01*
X1158883Y476979D01*
X1158883Y476975D01*
X1158883Y476974D01*
X1158884Y476939D01*
X1158876Y476885D01*
X1158876Y473075D01*
X1158887Y473010D01*
X1158889Y472944D01*
X1158907Y472901D01*
X1158915Y472854D01*
X1158949Y472797D01*
X1158974Y472737D01*
X1159005Y472702D01*
X1159030Y472661D01*
X1159081Y472620D01*
X1159125Y472571D01*
X1159167Y472549D01*
X1159204Y472520D01*
X1159266Y472499D01*
X1159325Y472468D01*
X1159379Y472460D01*
X1159416Y472448D01*
X1159456Y472449D01*
X1159510Y472441D01*
X1162050Y472441D01*
X1162115Y472452D01*
G37*
G36*
X103570Y252107D02*
X103570Y252107D01*
X103636Y252109D01*
X103679Y252127D01*
X103726Y252135D01*
X103783Y252169D01*
X103843Y252194D01*
X103878Y252225D01*
X103919Y252250D01*
X103961Y252301D01*
X104009Y252345D01*
X104031Y252387D01*
X104060Y252424D01*
X104081Y252486D01*
X104112Y252545D01*
X104120Y252599D01*
X104132Y252636D01*
X104131Y252676D01*
X104139Y252730D01*
X104139Y255270D01*
X104128Y255335D01*
X104126Y255401D01*
X104108Y255444D01*
X104100Y255491D01*
X104066Y255548D01*
X104041Y255608D01*
X104010Y255643D01*
X103985Y255684D01*
X103934Y255726D01*
X103890Y255774D01*
X103848Y255796D01*
X103811Y255825D01*
X103749Y255846D01*
X103690Y255877D01*
X103636Y255885D01*
X103599Y255897D01*
X103559Y255896D01*
X103505Y255904D01*
X99695Y255904D01*
X99630Y255893D01*
X99564Y255891D01*
X99521Y255873D01*
X99474Y255865D01*
X99417Y255831D01*
X99357Y255806D01*
X99322Y255775D01*
X99281Y255750D01*
X99240Y255699D01*
X99191Y255655D01*
X99169Y255613D01*
X99140Y255576D01*
X99119Y255514D01*
X99088Y255455D01*
X99080Y255401D01*
X99068Y255364D01*
X99068Y255361D01*
X99069Y255324D01*
X99061Y255270D01*
X99061Y252730D01*
X99072Y252665D01*
X99074Y252599D01*
X99092Y252556D01*
X99100Y252509D01*
X99134Y252452D01*
X99159Y252392D01*
X99190Y252357D01*
X99215Y252316D01*
X99266Y252275D01*
X99310Y252226D01*
X99352Y252204D01*
X99389Y252175D01*
X99451Y252154D01*
X99510Y252123D01*
X99564Y252115D01*
X99601Y252103D01*
X99641Y252104D01*
X99695Y252096D01*
X103505Y252096D01*
X103570Y252107D01*
G37*
G36*
X718250Y252107D02*
X718250Y252107D01*
X718316Y252109D01*
X718359Y252127D01*
X718406Y252135D01*
X718463Y252169D01*
X718523Y252194D01*
X718558Y252225D01*
X718599Y252250D01*
X718641Y252301D01*
X718689Y252345D01*
X718711Y252387D01*
X718740Y252424D01*
X718761Y252486D01*
X718792Y252545D01*
X718800Y252599D01*
X718812Y252636D01*
X718811Y252676D01*
X718819Y252730D01*
X718819Y255270D01*
X718808Y255335D01*
X718806Y255401D01*
X718788Y255444D01*
X718780Y255491D01*
X718746Y255548D01*
X718721Y255608D01*
X718690Y255643D01*
X718665Y255684D01*
X718614Y255726D01*
X718570Y255774D01*
X718528Y255796D01*
X718491Y255825D01*
X718429Y255846D01*
X718370Y255877D01*
X718316Y255885D01*
X718279Y255897D01*
X718239Y255896D01*
X718185Y255904D01*
X714375Y255904D01*
X714310Y255893D01*
X714244Y255891D01*
X714201Y255873D01*
X714154Y255865D01*
X714097Y255831D01*
X714037Y255806D01*
X714002Y255775D01*
X713961Y255750D01*
X713920Y255699D01*
X713871Y255655D01*
X713849Y255613D01*
X713820Y255576D01*
X713799Y255514D01*
X713768Y255455D01*
X713760Y255401D01*
X713748Y255364D01*
X713748Y255361D01*
X713749Y255324D01*
X713741Y255270D01*
X713741Y252730D01*
X713752Y252665D01*
X713754Y252599D01*
X713772Y252556D01*
X713780Y252509D01*
X713814Y252452D01*
X713839Y252392D01*
X713870Y252357D01*
X713895Y252316D01*
X713946Y252275D01*
X713990Y252226D01*
X714032Y252204D01*
X714069Y252175D01*
X714131Y252154D01*
X714190Y252123D01*
X714244Y252115D01*
X714281Y252103D01*
X714321Y252104D01*
X714375Y252096D01*
X718185Y252096D01*
X718250Y252107D01*
G37*
G36*
X1332930Y252107D02*
X1332930Y252107D01*
X1332996Y252109D01*
X1333039Y252127D01*
X1333086Y252135D01*
X1333143Y252169D01*
X1333203Y252194D01*
X1333238Y252225D01*
X1333279Y252250D01*
X1333321Y252301D01*
X1333369Y252345D01*
X1333391Y252387D01*
X1333420Y252424D01*
X1333441Y252486D01*
X1333472Y252545D01*
X1333480Y252599D01*
X1333492Y252636D01*
X1333491Y252676D01*
X1333499Y252730D01*
X1333499Y255270D01*
X1333488Y255335D01*
X1333486Y255401D01*
X1333468Y255444D01*
X1333460Y255491D01*
X1333426Y255548D01*
X1333401Y255608D01*
X1333370Y255643D01*
X1333345Y255684D01*
X1333294Y255726D01*
X1333250Y255774D01*
X1333208Y255796D01*
X1333171Y255825D01*
X1333109Y255846D01*
X1333050Y255877D01*
X1332996Y255885D01*
X1332959Y255897D01*
X1332919Y255896D01*
X1332865Y255904D01*
X1329055Y255904D01*
X1328990Y255893D01*
X1328924Y255891D01*
X1328881Y255873D01*
X1328834Y255865D01*
X1328777Y255831D01*
X1328717Y255806D01*
X1328682Y255775D01*
X1328641Y255750D01*
X1328600Y255699D01*
X1328551Y255655D01*
X1328529Y255613D01*
X1328500Y255576D01*
X1328479Y255514D01*
X1328448Y255455D01*
X1328440Y255401D01*
X1328428Y255364D01*
X1328428Y255361D01*
X1328429Y255324D01*
X1328421Y255270D01*
X1328421Y252730D01*
X1328432Y252665D01*
X1328434Y252599D01*
X1328452Y252556D01*
X1328460Y252509D01*
X1328494Y252452D01*
X1328519Y252392D01*
X1328550Y252357D01*
X1328575Y252316D01*
X1328626Y252275D01*
X1328670Y252226D01*
X1328712Y252204D01*
X1328749Y252175D01*
X1328811Y252154D01*
X1328870Y252123D01*
X1328924Y252115D01*
X1328961Y252103D01*
X1329001Y252104D01*
X1329055Y252096D01*
X1332865Y252096D01*
X1332930Y252107D01*
G37*
G36*
X1625030Y986167D02*
X1625030Y986167D01*
X1625096Y986169D01*
X1625139Y986187D01*
X1625186Y986195D01*
X1625243Y986229D01*
X1625303Y986254D01*
X1625338Y986285D01*
X1625379Y986310D01*
X1625421Y986361D01*
X1625469Y986405D01*
X1625491Y986447D01*
X1625520Y986484D01*
X1625541Y986546D01*
X1625572Y986605D01*
X1625580Y986659D01*
X1625592Y986696D01*
X1625591Y986736D01*
X1625599Y986790D01*
X1625599Y989330D01*
X1625588Y989395D01*
X1625586Y989461D01*
X1625568Y989504D01*
X1625560Y989551D01*
X1625526Y989608D01*
X1625501Y989668D01*
X1625470Y989703D01*
X1625445Y989744D01*
X1625394Y989786D01*
X1625350Y989834D01*
X1625308Y989856D01*
X1625271Y989885D01*
X1625209Y989906D01*
X1625150Y989937D01*
X1625096Y989945D01*
X1625059Y989957D01*
X1625019Y989956D01*
X1624965Y989964D01*
X1621155Y989964D01*
X1621090Y989953D01*
X1621024Y989951D01*
X1620981Y989933D01*
X1620934Y989925D01*
X1620877Y989891D01*
X1620817Y989866D01*
X1620782Y989835D01*
X1620741Y989810D01*
X1620700Y989759D01*
X1620651Y989715D01*
X1620629Y989673D01*
X1620600Y989636D01*
X1620579Y989574D01*
X1620548Y989515D01*
X1620540Y989461D01*
X1620528Y989424D01*
X1620528Y989421D01*
X1620529Y989384D01*
X1620521Y989330D01*
X1620521Y986790D01*
X1620532Y986725D01*
X1620534Y986659D01*
X1620552Y986616D01*
X1620560Y986569D01*
X1620594Y986512D01*
X1620619Y986452D01*
X1620650Y986417D01*
X1620675Y986376D01*
X1620726Y986335D01*
X1620770Y986286D01*
X1620812Y986264D01*
X1620849Y986235D01*
X1620911Y986214D01*
X1620970Y986183D01*
X1621024Y986175D01*
X1621061Y986163D01*
X1621101Y986164D01*
X1621155Y986156D01*
X1624965Y986156D01*
X1625030Y986167D01*
G37*
G36*
X1010350Y986167D02*
X1010350Y986167D01*
X1010416Y986169D01*
X1010459Y986187D01*
X1010506Y986195D01*
X1010563Y986229D01*
X1010623Y986254D01*
X1010658Y986285D01*
X1010699Y986310D01*
X1010741Y986361D01*
X1010789Y986405D01*
X1010811Y986447D01*
X1010840Y986484D01*
X1010861Y986546D01*
X1010892Y986605D01*
X1010900Y986659D01*
X1010912Y986696D01*
X1010911Y986736D01*
X1010919Y986790D01*
X1010919Y989330D01*
X1010908Y989395D01*
X1010906Y989461D01*
X1010888Y989504D01*
X1010880Y989551D01*
X1010846Y989608D01*
X1010821Y989668D01*
X1010790Y989703D01*
X1010765Y989744D01*
X1010714Y989786D01*
X1010670Y989834D01*
X1010628Y989856D01*
X1010591Y989885D01*
X1010529Y989906D01*
X1010470Y989937D01*
X1010416Y989945D01*
X1010379Y989957D01*
X1010339Y989956D01*
X1010285Y989964D01*
X1006475Y989964D01*
X1006410Y989953D01*
X1006344Y989951D01*
X1006301Y989933D01*
X1006254Y989925D01*
X1006197Y989891D01*
X1006137Y989866D01*
X1006102Y989835D01*
X1006061Y989810D01*
X1006020Y989759D01*
X1005971Y989715D01*
X1005949Y989673D01*
X1005920Y989636D01*
X1005899Y989574D01*
X1005868Y989515D01*
X1005860Y989461D01*
X1005848Y989424D01*
X1005848Y989421D01*
X1005849Y989384D01*
X1005841Y989330D01*
X1005841Y986790D01*
X1005852Y986725D01*
X1005854Y986659D01*
X1005872Y986616D01*
X1005880Y986569D01*
X1005914Y986512D01*
X1005939Y986452D01*
X1005970Y986417D01*
X1005995Y986376D01*
X1006046Y986335D01*
X1006090Y986286D01*
X1006132Y986264D01*
X1006169Y986235D01*
X1006231Y986214D01*
X1006290Y986183D01*
X1006344Y986175D01*
X1006381Y986163D01*
X1006421Y986164D01*
X1006475Y986156D01*
X1010285Y986156D01*
X1010350Y986167D01*
G37*
G36*
X395670Y986167D02*
X395670Y986167D01*
X395736Y986169D01*
X395779Y986187D01*
X395826Y986195D01*
X395883Y986229D01*
X395943Y986254D01*
X395978Y986285D01*
X396019Y986310D01*
X396061Y986361D01*
X396109Y986405D01*
X396131Y986447D01*
X396160Y986484D01*
X396181Y986546D01*
X396212Y986605D01*
X396220Y986659D01*
X396232Y986696D01*
X396231Y986736D01*
X396239Y986790D01*
X396239Y989330D01*
X396228Y989395D01*
X396226Y989461D01*
X396208Y989504D01*
X396200Y989551D01*
X396166Y989608D01*
X396141Y989668D01*
X396110Y989703D01*
X396085Y989744D01*
X396034Y989786D01*
X395990Y989834D01*
X395948Y989856D01*
X395911Y989885D01*
X395849Y989906D01*
X395790Y989937D01*
X395736Y989945D01*
X395699Y989957D01*
X395659Y989956D01*
X395605Y989964D01*
X391795Y989964D01*
X391730Y989953D01*
X391664Y989951D01*
X391621Y989933D01*
X391574Y989925D01*
X391517Y989891D01*
X391457Y989866D01*
X391422Y989835D01*
X391381Y989810D01*
X391340Y989759D01*
X391291Y989715D01*
X391269Y989673D01*
X391240Y989636D01*
X391219Y989574D01*
X391188Y989515D01*
X391180Y989461D01*
X391168Y989424D01*
X391168Y989421D01*
X391169Y989384D01*
X391161Y989330D01*
X391161Y986790D01*
X391172Y986725D01*
X391174Y986659D01*
X391192Y986616D01*
X391200Y986569D01*
X391234Y986512D01*
X391259Y986452D01*
X391290Y986417D01*
X391315Y986376D01*
X391366Y986335D01*
X391410Y986286D01*
X391452Y986264D01*
X391489Y986235D01*
X391551Y986214D01*
X391610Y986183D01*
X391664Y986175D01*
X391701Y986163D01*
X391741Y986164D01*
X391795Y986156D01*
X395605Y986156D01*
X395670Y986167D01*
G37*
G36*
X395670Y960767D02*
X395670Y960767D01*
X395736Y960769D01*
X395779Y960787D01*
X395826Y960795D01*
X395883Y960829D01*
X395943Y960854D01*
X395978Y960885D01*
X396019Y960910D01*
X396061Y960961D01*
X396109Y961005D01*
X396131Y961047D01*
X396160Y961084D01*
X396181Y961146D01*
X396212Y961205D01*
X396220Y961259D01*
X396232Y961296D01*
X396231Y961336D01*
X396239Y961390D01*
X396239Y963930D01*
X396228Y963995D01*
X396226Y964061D01*
X396208Y964104D01*
X396200Y964151D01*
X396166Y964208D01*
X396141Y964268D01*
X396110Y964303D01*
X396085Y964344D01*
X396034Y964386D01*
X395990Y964434D01*
X395948Y964456D01*
X395911Y964485D01*
X395849Y964506D01*
X395790Y964537D01*
X395736Y964545D01*
X395699Y964557D01*
X395659Y964556D01*
X395605Y964564D01*
X391795Y964564D01*
X391730Y964553D01*
X391664Y964551D01*
X391621Y964533D01*
X391574Y964525D01*
X391517Y964491D01*
X391457Y964466D01*
X391422Y964435D01*
X391381Y964410D01*
X391340Y964359D01*
X391291Y964315D01*
X391269Y964273D01*
X391240Y964236D01*
X391219Y964174D01*
X391188Y964115D01*
X391180Y964061D01*
X391168Y964024D01*
X391168Y964021D01*
X391169Y963984D01*
X391161Y963930D01*
X391161Y961390D01*
X391172Y961325D01*
X391174Y961259D01*
X391192Y961216D01*
X391200Y961169D01*
X391234Y961112D01*
X391259Y961052D01*
X391290Y961017D01*
X391315Y960976D01*
X391366Y960935D01*
X391410Y960886D01*
X391452Y960864D01*
X391489Y960835D01*
X391551Y960814D01*
X391610Y960783D01*
X391664Y960775D01*
X391701Y960763D01*
X391741Y960764D01*
X391795Y960756D01*
X395605Y960756D01*
X395670Y960767D01*
G37*
G36*
X1625030Y960767D02*
X1625030Y960767D01*
X1625096Y960769D01*
X1625139Y960787D01*
X1625186Y960795D01*
X1625243Y960829D01*
X1625303Y960854D01*
X1625338Y960885D01*
X1625379Y960910D01*
X1625421Y960961D01*
X1625469Y961005D01*
X1625491Y961047D01*
X1625520Y961084D01*
X1625541Y961146D01*
X1625572Y961205D01*
X1625580Y961259D01*
X1625592Y961296D01*
X1625591Y961336D01*
X1625599Y961390D01*
X1625599Y963930D01*
X1625588Y963995D01*
X1625586Y964061D01*
X1625568Y964104D01*
X1625560Y964151D01*
X1625526Y964208D01*
X1625501Y964268D01*
X1625470Y964303D01*
X1625445Y964344D01*
X1625394Y964386D01*
X1625350Y964434D01*
X1625308Y964456D01*
X1625271Y964485D01*
X1625209Y964506D01*
X1625150Y964537D01*
X1625096Y964545D01*
X1625059Y964557D01*
X1625019Y964556D01*
X1624965Y964564D01*
X1621155Y964564D01*
X1621090Y964553D01*
X1621024Y964551D01*
X1620981Y964533D01*
X1620934Y964525D01*
X1620877Y964491D01*
X1620817Y964466D01*
X1620782Y964435D01*
X1620741Y964410D01*
X1620700Y964359D01*
X1620651Y964315D01*
X1620629Y964273D01*
X1620600Y964236D01*
X1620579Y964174D01*
X1620548Y964115D01*
X1620540Y964061D01*
X1620528Y964024D01*
X1620528Y964021D01*
X1620529Y963984D01*
X1620521Y963930D01*
X1620521Y961390D01*
X1620532Y961325D01*
X1620534Y961259D01*
X1620552Y961216D01*
X1620560Y961169D01*
X1620594Y961112D01*
X1620619Y961052D01*
X1620650Y961017D01*
X1620675Y960976D01*
X1620726Y960935D01*
X1620770Y960886D01*
X1620812Y960864D01*
X1620849Y960835D01*
X1620911Y960814D01*
X1620970Y960783D01*
X1621024Y960775D01*
X1621061Y960763D01*
X1621101Y960764D01*
X1621155Y960756D01*
X1624965Y960756D01*
X1625030Y960767D01*
G37*
G36*
X1010350Y960767D02*
X1010350Y960767D01*
X1010416Y960769D01*
X1010459Y960787D01*
X1010506Y960795D01*
X1010563Y960829D01*
X1010623Y960854D01*
X1010658Y960885D01*
X1010699Y960910D01*
X1010741Y960961D01*
X1010789Y961005D01*
X1010811Y961047D01*
X1010840Y961084D01*
X1010861Y961146D01*
X1010892Y961205D01*
X1010900Y961259D01*
X1010912Y961296D01*
X1010911Y961336D01*
X1010919Y961390D01*
X1010919Y963930D01*
X1010908Y963995D01*
X1010906Y964061D01*
X1010888Y964104D01*
X1010880Y964151D01*
X1010846Y964208D01*
X1010821Y964268D01*
X1010790Y964303D01*
X1010765Y964344D01*
X1010714Y964386D01*
X1010670Y964434D01*
X1010628Y964456D01*
X1010591Y964485D01*
X1010529Y964506D01*
X1010470Y964537D01*
X1010416Y964545D01*
X1010379Y964557D01*
X1010339Y964556D01*
X1010285Y964564D01*
X1006475Y964564D01*
X1006410Y964553D01*
X1006344Y964551D01*
X1006301Y964533D01*
X1006254Y964525D01*
X1006197Y964491D01*
X1006137Y964466D01*
X1006102Y964435D01*
X1006061Y964410D01*
X1006020Y964359D01*
X1005971Y964315D01*
X1005949Y964273D01*
X1005920Y964236D01*
X1005899Y964174D01*
X1005868Y964115D01*
X1005860Y964061D01*
X1005848Y964024D01*
X1005848Y964021D01*
X1005849Y963984D01*
X1005841Y963930D01*
X1005841Y961390D01*
X1005852Y961325D01*
X1005854Y961259D01*
X1005872Y961216D01*
X1005880Y961169D01*
X1005914Y961112D01*
X1005939Y961052D01*
X1005970Y961017D01*
X1005995Y960976D01*
X1006046Y960935D01*
X1006090Y960886D01*
X1006132Y960864D01*
X1006169Y960835D01*
X1006231Y960814D01*
X1006290Y960783D01*
X1006344Y960775D01*
X1006381Y960763D01*
X1006421Y960764D01*
X1006475Y960756D01*
X1010285Y960756D01*
X1010350Y960767D01*
G37*
G36*
X1625030Y935367D02*
X1625030Y935367D01*
X1625096Y935369D01*
X1625139Y935387D01*
X1625186Y935395D01*
X1625243Y935429D01*
X1625303Y935454D01*
X1625338Y935485D01*
X1625379Y935510D01*
X1625421Y935561D01*
X1625469Y935605D01*
X1625491Y935647D01*
X1625520Y935684D01*
X1625541Y935746D01*
X1625572Y935805D01*
X1625580Y935859D01*
X1625592Y935896D01*
X1625591Y935936D01*
X1625599Y935990D01*
X1625599Y938530D01*
X1625588Y938595D01*
X1625586Y938661D01*
X1625568Y938704D01*
X1625560Y938751D01*
X1625526Y938808D01*
X1625501Y938868D01*
X1625470Y938903D01*
X1625445Y938944D01*
X1625394Y938986D01*
X1625350Y939034D01*
X1625308Y939056D01*
X1625271Y939085D01*
X1625209Y939106D01*
X1625150Y939137D01*
X1625096Y939145D01*
X1625059Y939157D01*
X1625019Y939156D01*
X1624965Y939164D01*
X1621155Y939164D01*
X1621090Y939153D01*
X1621024Y939151D01*
X1620981Y939133D01*
X1620934Y939125D01*
X1620877Y939091D01*
X1620817Y939066D01*
X1620782Y939035D01*
X1620741Y939010D01*
X1620700Y938959D01*
X1620651Y938915D01*
X1620629Y938873D01*
X1620600Y938836D01*
X1620579Y938774D01*
X1620548Y938715D01*
X1620540Y938661D01*
X1620528Y938624D01*
X1620528Y938621D01*
X1620529Y938584D01*
X1620521Y938530D01*
X1620521Y935990D01*
X1620532Y935925D01*
X1620534Y935859D01*
X1620552Y935816D01*
X1620560Y935769D01*
X1620594Y935712D01*
X1620619Y935652D01*
X1620650Y935617D01*
X1620675Y935576D01*
X1620726Y935535D01*
X1620770Y935486D01*
X1620812Y935464D01*
X1620849Y935435D01*
X1620911Y935414D01*
X1620970Y935383D01*
X1621024Y935375D01*
X1621061Y935363D01*
X1621101Y935364D01*
X1621155Y935356D01*
X1624965Y935356D01*
X1625030Y935367D01*
G37*
G36*
X395670Y935367D02*
X395670Y935367D01*
X395736Y935369D01*
X395779Y935387D01*
X395826Y935395D01*
X395883Y935429D01*
X395943Y935454D01*
X395978Y935485D01*
X396019Y935510D01*
X396061Y935561D01*
X396109Y935605D01*
X396131Y935647D01*
X396160Y935684D01*
X396181Y935746D01*
X396212Y935805D01*
X396220Y935859D01*
X396232Y935896D01*
X396231Y935936D01*
X396239Y935990D01*
X396239Y938530D01*
X396228Y938595D01*
X396226Y938661D01*
X396208Y938704D01*
X396200Y938751D01*
X396166Y938808D01*
X396141Y938868D01*
X396110Y938903D01*
X396085Y938944D01*
X396034Y938986D01*
X395990Y939034D01*
X395948Y939056D01*
X395911Y939085D01*
X395849Y939106D01*
X395790Y939137D01*
X395736Y939145D01*
X395699Y939157D01*
X395659Y939156D01*
X395605Y939164D01*
X391795Y939164D01*
X391730Y939153D01*
X391664Y939151D01*
X391621Y939133D01*
X391574Y939125D01*
X391517Y939091D01*
X391457Y939066D01*
X391422Y939035D01*
X391381Y939010D01*
X391340Y938959D01*
X391291Y938915D01*
X391269Y938873D01*
X391240Y938836D01*
X391219Y938774D01*
X391188Y938715D01*
X391180Y938661D01*
X391168Y938624D01*
X391168Y938621D01*
X391169Y938584D01*
X391161Y938530D01*
X391161Y935990D01*
X391172Y935925D01*
X391174Y935859D01*
X391192Y935816D01*
X391200Y935769D01*
X391234Y935712D01*
X391259Y935652D01*
X391290Y935617D01*
X391315Y935576D01*
X391366Y935535D01*
X391410Y935486D01*
X391452Y935464D01*
X391489Y935435D01*
X391551Y935414D01*
X391610Y935383D01*
X391664Y935375D01*
X391701Y935363D01*
X391741Y935364D01*
X391795Y935356D01*
X395605Y935356D01*
X395670Y935367D01*
G37*
G36*
X1010350Y935367D02*
X1010350Y935367D01*
X1010416Y935369D01*
X1010459Y935387D01*
X1010506Y935395D01*
X1010563Y935429D01*
X1010623Y935454D01*
X1010658Y935485D01*
X1010699Y935510D01*
X1010741Y935561D01*
X1010789Y935605D01*
X1010811Y935647D01*
X1010840Y935684D01*
X1010861Y935746D01*
X1010892Y935805D01*
X1010900Y935859D01*
X1010912Y935896D01*
X1010911Y935936D01*
X1010919Y935990D01*
X1010919Y938530D01*
X1010908Y938595D01*
X1010906Y938661D01*
X1010888Y938704D01*
X1010880Y938751D01*
X1010846Y938808D01*
X1010821Y938868D01*
X1010790Y938903D01*
X1010765Y938944D01*
X1010714Y938986D01*
X1010670Y939034D01*
X1010628Y939056D01*
X1010591Y939085D01*
X1010529Y939106D01*
X1010470Y939137D01*
X1010416Y939145D01*
X1010379Y939157D01*
X1010339Y939156D01*
X1010285Y939164D01*
X1006475Y939164D01*
X1006410Y939153D01*
X1006344Y939151D01*
X1006301Y939133D01*
X1006254Y939125D01*
X1006197Y939091D01*
X1006137Y939066D01*
X1006102Y939035D01*
X1006061Y939010D01*
X1006020Y938959D01*
X1005971Y938915D01*
X1005949Y938873D01*
X1005920Y938836D01*
X1005899Y938774D01*
X1005868Y938715D01*
X1005860Y938661D01*
X1005848Y938624D01*
X1005848Y938621D01*
X1005849Y938584D01*
X1005841Y938530D01*
X1005841Y935990D01*
X1005852Y935925D01*
X1005854Y935859D01*
X1005872Y935816D01*
X1005880Y935769D01*
X1005914Y935712D01*
X1005939Y935652D01*
X1005970Y935617D01*
X1005995Y935576D01*
X1006046Y935535D01*
X1006090Y935486D01*
X1006132Y935464D01*
X1006169Y935435D01*
X1006231Y935414D01*
X1006290Y935383D01*
X1006344Y935375D01*
X1006381Y935363D01*
X1006421Y935364D01*
X1006475Y935356D01*
X1010285Y935356D01*
X1010350Y935367D01*
G37*
G36*
X649670Y676287D02*
X649670Y676287D01*
X649736Y676289D01*
X649779Y676307D01*
X649826Y676315D01*
X649883Y676349D01*
X649943Y676374D01*
X649978Y676405D01*
X650019Y676430D01*
X650061Y676481D01*
X650109Y676525D01*
X650131Y676567D01*
X650160Y676604D01*
X650181Y676666D01*
X650212Y676725D01*
X650220Y676779D01*
X650232Y676816D01*
X650231Y676856D01*
X650239Y676910D01*
X650239Y679450D01*
X650228Y679515D01*
X650226Y679581D01*
X650208Y679624D01*
X650200Y679671D01*
X650166Y679728D01*
X650141Y679788D01*
X650110Y679823D01*
X650085Y679864D01*
X650034Y679906D01*
X649990Y679954D01*
X649948Y679976D01*
X649911Y680005D01*
X649849Y680026D01*
X649790Y680057D01*
X649736Y680065D01*
X649699Y680077D01*
X649659Y680076D01*
X649605Y680084D01*
X645795Y680084D01*
X645730Y680073D01*
X645664Y680071D01*
X645621Y680053D01*
X645574Y680045D01*
X645517Y680011D01*
X645457Y679986D01*
X645422Y679955D01*
X645381Y679930D01*
X645340Y679879D01*
X645291Y679835D01*
X645269Y679793D01*
X645240Y679756D01*
X645219Y679694D01*
X645188Y679635D01*
X645180Y679581D01*
X645168Y679544D01*
X645168Y679541D01*
X645169Y679504D01*
X645161Y679450D01*
X645161Y676910D01*
X645172Y676845D01*
X645174Y676779D01*
X645192Y676736D01*
X645200Y676689D01*
X645234Y676632D01*
X645259Y676572D01*
X645290Y676537D01*
X645315Y676496D01*
X645366Y676455D01*
X645410Y676406D01*
X645452Y676384D01*
X645489Y676355D01*
X645551Y676334D01*
X645610Y676303D01*
X645664Y676295D01*
X645701Y676283D01*
X645741Y676284D01*
X645795Y676276D01*
X649605Y676276D01*
X649670Y676287D01*
G37*
G36*
X34990Y676287D02*
X34990Y676287D01*
X35056Y676289D01*
X35099Y676307D01*
X35146Y676315D01*
X35203Y676349D01*
X35263Y676374D01*
X35298Y676405D01*
X35339Y676430D01*
X35381Y676481D01*
X35429Y676525D01*
X35451Y676567D01*
X35480Y676604D01*
X35501Y676666D01*
X35532Y676725D01*
X35540Y676779D01*
X35552Y676816D01*
X35551Y676856D01*
X35559Y676910D01*
X35559Y679450D01*
X35548Y679515D01*
X35546Y679581D01*
X35528Y679624D01*
X35520Y679671D01*
X35486Y679728D01*
X35461Y679788D01*
X35430Y679823D01*
X35405Y679864D01*
X35354Y679906D01*
X35310Y679954D01*
X35268Y679976D01*
X35231Y680005D01*
X35169Y680026D01*
X35110Y680057D01*
X35056Y680065D01*
X35019Y680077D01*
X34979Y680076D01*
X34925Y680084D01*
X31115Y680084D01*
X31050Y680073D01*
X30984Y680071D01*
X30941Y680053D01*
X30894Y680045D01*
X30837Y680011D01*
X30777Y679986D01*
X30742Y679955D01*
X30701Y679930D01*
X30660Y679879D01*
X30611Y679835D01*
X30589Y679793D01*
X30560Y679756D01*
X30539Y679694D01*
X30508Y679635D01*
X30500Y679581D01*
X30488Y679544D01*
X30488Y679541D01*
X30489Y679504D01*
X30481Y679450D01*
X30481Y676910D01*
X30492Y676845D01*
X30494Y676779D01*
X30512Y676736D01*
X30520Y676689D01*
X30554Y676632D01*
X30579Y676572D01*
X30610Y676537D01*
X30635Y676496D01*
X30686Y676455D01*
X30730Y676406D01*
X30772Y676384D01*
X30809Y676355D01*
X30871Y676334D01*
X30930Y676303D01*
X30984Y676295D01*
X31021Y676283D01*
X31061Y676284D01*
X31115Y676276D01*
X34925Y676276D01*
X34990Y676287D01*
G37*
G36*
X659830Y676287D02*
X659830Y676287D01*
X659896Y676289D01*
X659939Y676307D01*
X659986Y676315D01*
X660043Y676349D01*
X660103Y676374D01*
X660138Y676405D01*
X660179Y676430D01*
X660221Y676481D01*
X660269Y676525D01*
X660291Y676567D01*
X660320Y676604D01*
X660341Y676666D01*
X660372Y676725D01*
X660380Y676779D01*
X660392Y676816D01*
X660391Y676856D01*
X660399Y676910D01*
X660399Y679450D01*
X660388Y679515D01*
X660386Y679581D01*
X660368Y679624D01*
X660360Y679671D01*
X660326Y679728D01*
X660301Y679788D01*
X660270Y679823D01*
X660245Y679864D01*
X660194Y679906D01*
X660150Y679954D01*
X660108Y679976D01*
X660071Y680005D01*
X660009Y680026D01*
X659950Y680057D01*
X659896Y680065D01*
X659859Y680077D01*
X659819Y680076D01*
X659765Y680084D01*
X655955Y680084D01*
X655890Y680073D01*
X655824Y680071D01*
X655781Y680053D01*
X655734Y680045D01*
X655677Y680011D01*
X655617Y679986D01*
X655582Y679955D01*
X655541Y679930D01*
X655500Y679879D01*
X655451Y679835D01*
X655429Y679793D01*
X655400Y679756D01*
X655379Y679694D01*
X655348Y679635D01*
X655340Y679581D01*
X655328Y679544D01*
X655328Y679541D01*
X655329Y679504D01*
X655321Y679450D01*
X655321Y676910D01*
X655332Y676845D01*
X655334Y676779D01*
X655352Y676736D01*
X655360Y676689D01*
X655394Y676632D01*
X655419Y676572D01*
X655450Y676537D01*
X655475Y676496D01*
X655526Y676455D01*
X655570Y676406D01*
X655612Y676384D01*
X655649Y676355D01*
X655711Y676334D01*
X655770Y676303D01*
X655824Y676295D01*
X655861Y676283D01*
X655901Y676284D01*
X655955Y676276D01*
X659765Y676276D01*
X659830Y676287D01*
G37*
G36*
X1264350Y676287D02*
X1264350Y676287D01*
X1264416Y676289D01*
X1264459Y676307D01*
X1264506Y676315D01*
X1264563Y676349D01*
X1264623Y676374D01*
X1264658Y676405D01*
X1264699Y676430D01*
X1264741Y676481D01*
X1264789Y676525D01*
X1264811Y676567D01*
X1264840Y676604D01*
X1264861Y676666D01*
X1264892Y676725D01*
X1264900Y676779D01*
X1264912Y676816D01*
X1264911Y676856D01*
X1264919Y676910D01*
X1264919Y679450D01*
X1264908Y679515D01*
X1264906Y679581D01*
X1264888Y679624D01*
X1264880Y679671D01*
X1264846Y679728D01*
X1264821Y679788D01*
X1264790Y679823D01*
X1264765Y679864D01*
X1264714Y679906D01*
X1264670Y679954D01*
X1264628Y679976D01*
X1264591Y680005D01*
X1264529Y680026D01*
X1264470Y680057D01*
X1264416Y680065D01*
X1264379Y680077D01*
X1264339Y680076D01*
X1264285Y680084D01*
X1260475Y680084D01*
X1260410Y680073D01*
X1260344Y680071D01*
X1260301Y680053D01*
X1260254Y680045D01*
X1260197Y680011D01*
X1260137Y679986D01*
X1260102Y679955D01*
X1260061Y679930D01*
X1260020Y679879D01*
X1259971Y679835D01*
X1259949Y679793D01*
X1259920Y679756D01*
X1259899Y679694D01*
X1259868Y679635D01*
X1259860Y679581D01*
X1259848Y679544D01*
X1259848Y679541D01*
X1259849Y679504D01*
X1259841Y679450D01*
X1259841Y676910D01*
X1259852Y676845D01*
X1259854Y676779D01*
X1259872Y676736D01*
X1259880Y676689D01*
X1259914Y676632D01*
X1259939Y676572D01*
X1259970Y676537D01*
X1259995Y676496D01*
X1260046Y676455D01*
X1260090Y676406D01*
X1260132Y676384D01*
X1260169Y676355D01*
X1260231Y676334D01*
X1260290Y676303D01*
X1260344Y676295D01*
X1260381Y676283D01*
X1260421Y676284D01*
X1260475Y676276D01*
X1264285Y676276D01*
X1264350Y676287D01*
G37*
G36*
X1274510Y676287D02*
X1274510Y676287D01*
X1274576Y676289D01*
X1274619Y676307D01*
X1274666Y676315D01*
X1274723Y676349D01*
X1274783Y676374D01*
X1274818Y676405D01*
X1274859Y676430D01*
X1274901Y676481D01*
X1274949Y676525D01*
X1274971Y676567D01*
X1275000Y676604D01*
X1275021Y676666D01*
X1275052Y676725D01*
X1275060Y676779D01*
X1275072Y676816D01*
X1275071Y676856D01*
X1275079Y676910D01*
X1275079Y679450D01*
X1275068Y679515D01*
X1275066Y679581D01*
X1275048Y679624D01*
X1275040Y679671D01*
X1275006Y679728D01*
X1274981Y679788D01*
X1274950Y679823D01*
X1274925Y679864D01*
X1274874Y679906D01*
X1274830Y679954D01*
X1274788Y679976D01*
X1274751Y680005D01*
X1274689Y680026D01*
X1274630Y680057D01*
X1274576Y680065D01*
X1274539Y680077D01*
X1274499Y680076D01*
X1274445Y680084D01*
X1270635Y680084D01*
X1270570Y680073D01*
X1270504Y680071D01*
X1270461Y680053D01*
X1270414Y680045D01*
X1270357Y680011D01*
X1270297Y679986D01*
X1270262Y679955D01*
X1270221Y679930D01*
X1270180Y679879D01*
X1270131Y679835D01*
X1270109Y679793D01*
X1270080Y679756D01*
X1270059Y679694D01*
X1270028Y679635D01*
X1270020Y679581D01*
X1270008Y679544D01*
X1270008Y679541D01*
X1270009Y679504D01*
X1270001Y679450D01*
X1270001Y676910D01*
X1270012Y676845D01*
X1270014Y676779D01*
X1270032Y676736D01*
X1270040Y676689D01*
X1270074Y676632D01*
X1270099Y676572D01*
X1270130Y676537D01*
X1270155Y676496D01*
X1270206Y676455D01*
X1270250Y676406D01*
X1270292Y676384D01*
X1270329Y676355D01*
X1270391Y676334D01*
X1270450Y676303D01*
X1270504Y676295D01*
X1270541Y676283D01*
X1270581Y676284D01*
X1270635Y676276D01*
X1274445Y676276D01*
X1274510Y676287D01*
G37*
G36*
X45150Y676287D02*
X45150Y676287D01*
X45216Y676289D01*
X45259Y676307D01*
X45306Y676315D01*
X45363Y676349D01*
X45423Y676374D01*
X45458Y676405D01*
X45499Y676430D01*
X45541Y676481D01*
X45589Y676525D01*
X45611Y676567D01*
X45640Y676604D01*
X45661Y676666D01*
X45692Y676725D01*
X45700Y676779D01*
X45712Y676816D01*
X45711Y676856D01*
X45719Y676910D01*
X45719Y679450D01*
X45708Y679515D01*
X45706Y679581D01*
X45688Y679624D01*
X45680Y679671D01*
X45646Y679728D01*
X45621Y679788D01*
X45590Y679823D01*
X45565Y679864D01*
X45514Y679906D01*
X45470Y679954D01*
X45428Y679976D01*
X45391Y680005D01*
X45329Y680026D01*
X45270Y680057D01*
X45216Y680065D01*
X45179Y680077D01*
X45139Y680076D01*
X45085Y680084D01*
X41275Y680084D01*
X41210Y680073D01*
X41144Y680071D01*
X41101Y680053D01*
X41054Y680045D01*
X40997Y680011D01*
X40937Y679986D01*
X40902Y679955D01*
X40861Y679930D01*
X40820Y679879D01*
X40771Y679835D01*
X40749Y679793D01*
X40720Y679756D01*
X40699Y679694D01*
X40668Y679635D01*
X40660Y679581D01*
X40648Y679544D01*
X40648Y679541D01*
X40649Y679504D01*
X40641Y679450D01*
X40641Y676910D01*
X40652Y676845D01*
X40654Y676779D01*
X40672Y676736D01*
X40680Y676689D01*
X40714Y676632D01*
X40739Y676572D01*
X40770Y676537D01*
X40795Y676496D01*
X40846Y676455D01*
X40890Y676406D01*
X40932Y676384D01*
X40969Y676355D01*
X41031Y676334D01*
X41090Y676303D01*
X41144Y676295D01*
X41181Y676283D01*
X41221Y676284D01*
X41275Y676276D01*
X45085Y676276D01*
X45150Y676287D01*
G37*
G36*
X718250Y638187D02*
X718250Y638187D01*
X718316Y638189D01*
X718359Y638207D01*
X718406Y638215D01*
X718463Y638249D01*
X718523Y638274D01*
X718558Y638305D01*
X718599Y638330D01*
X718641Y638381D01*
X718689Y638425D01*
X718711Y638467D01*
X718740Y638504D01*
X718761Y638566D01*
X718792Y638625D01*
X718800Y638679D01*
X718812Y638716D01*
X718811Y638756D01*
X718819Y638810D01*
X718819Y641350D01*
X718808Y641415D01*
X718806Y641481D01*
X718788Y641524D01*
X718780Y641571D01*
X718746Y641628D01*
X718721Y641688D01*
X718690Y641723D01*
X718665Y641764D01*
X718614Y641806D01*
X718570Y641854D01*
X718528Y641876D01*
X718491Y641905D01*
X718429Y641926D01*
X718370Y641957D01*
X718316Y641965D01*
X718279Y641977D01*
X718239Y641976D01*
X718185Y641984D01*
X714375Y641984D01*
X714310Y641973D01*
X714244Y641971D01*
X714201Y641953D01*
X714154Y641945D01*
X714097Y641911D01*
X714037Y641886D01*
X714002Y641855D01*
X713961Y641830D01*
X713920Y641779D01*
X713871Y641735D01*
X713849Y641693D01*
X713820Y641656D01*
X713799Y641594D01*
X713768Y641535D01*
X713760Y641481D01*
X713748Y641444D01*
X713748Y641441D01*
X713749Y641404D01*
X713741Y641350D01*
X713741Y638810D01*
X713752Y638745D01*
X713754Y638679D01*
X713772Y638636D01*
X713780Y638589D01*
X713814Y638532D01*
X713839Y638472D01*
X713870Y638437D01*
X713895Y638396D01*
X713946Y638355D01*
X713990Y638306D01*
X714032Y638284D01*
X714069Y638255D01*
X714131Y638234D01*
X714190Y638203D01*
X714244Y638195D01*
X714281Y638183D01*
X714321Y638184D01*
X714375Y638176D01*
X718185Y638176D01*
X718250Y638187D01*
G37*
G36*
X1332930Y638187D02*
X1332930Y638187D01*
X1332996Y638189D01*
X1333039Y638207D01*
X1333086Y638215D01*
X1333143Y638249D01*
X1333203Y638274D01*
X1333238Y638305D01*
X1333279Y638330D01*
X1333321Y638381D01*
X1333369Y638425D01*
X1333391Y638467D01*
X1333420Y638504D01*
X1333441Y638566D01*
X1333472Y638625D01*
X1333480Y638679D01*
X1333492Y638716D01*
X1333491Y638756D01*
X1333499Y638810D01*
X1333499Y641350D01*
X1333488Y641415D01*
X1333486Y641481D01*
X1333468Y641524D01*
X1333460Y641571D01*
X1333426Y641628D01*
X1333401Y641688D01*
X1333370Y641723D01*
X1333345Y641764D01*
X1333294Y641806D01*
X1333250Y641854D01*
X1333208Y641876D01*
X1333171Y641905D01*
X1333109Y641926D01*
X1333050Y641957D01*
X1332996Y641965D01*
X1332959Y641977D01*
X1332919Y641976D01*
X1332865Y641984D01*
X1329055Y641984D01*
X1328990Y641973D01*
X1328924Y641971D01*
X1328881Y641953D01*
X1328834Y641945D01*
X1328777Y641911D01*
X1328717Y641886D01*
X1328682Y641855D01*
X1328641Y641830D01*
X1328600Y641779D01*
X1328551Y641735D01*
X1328529Y641693D01*
X1328500Y641656D01*
X1328479Y641594D01*
X1328448Y641535D01*
X1328440Y641481D01*
X1328428Y641444D01*
X1328428Y641441D01*
X1328429Y641404D01*
X1328421Y641350D01*
X1328421Y638810D01*
X1328432Y638745D01*
X1328434Y638679D01*
X1328452Y638636D01*
X1328460Y638589D01*
X1328494Y638532D01*
X1328519Y638472D01*
X1328550Y638437D01*
X1328575Y638396D01*
X1328626Y638355D01*
X1328670Y638306D01*
X1328712Y638284D01*
X1328749Y638255D01*
X1328811Y638234D01*
X1328870Y638203D01*
X1328924Y638195D01*
X1328961Y638183D01*
X1329001Y638184D01*
X1329055Y638176D01*
X1332865Y638176D01*
X1332930Y638187D01*
G37*
G36*
X103570Y638187D02*
X103570Y638187D01*
X103636Y638189D01*
X103679Y638207D01*
X103726Y638215D01*
X103783Y638249D01*
X103843Y638274D01*
X103878Y638305D01*
X103919Y638330D01*
X103961Y638381D01*
X104009Y638425D01*
X104031Y638467D01*
X104060Y638504D01*
X104081Y638566D01*
X104112Y638625D01*
X104120Y638679D01*
X104132Y638716D01*
X104131Y638756D01*
X104139Y638810D01*
X104139Y641350D01*
X104128Y641415D01*
X104126Y641481D01*
X104108Y641524D01*
X104100Y641571D01*
X104066Y641628D01*
X104041Y641688D01*
X104010Y641723D01*
X103985Y641764D01*
X103934Y641806D01*
X103890Y641854D01*
X103848Y641876D01*
X103811Y641905D01*
X103749Y641926D01*
X103690Y641957D01*
X103636Y641965D01*
X103599Y641977D01*
X103559Y641976D01*
X103505Y641984D01*
X99695Y641984D01*
X99630Y641973D01*
X99564Y641971D01*
X99521Y641953D01*
X99474Y641945D01*
X99417Y641911D01*
X99357Y641886D01*
X99322Y641855D01*
X99281Y641830D01*
X99240Y641779D01*
X99191Y641735D01*
X99169Y641693D01*
X99140Y641656D01*
X99119Y641594D01*
X99088Y641535D01*
X99080Y641481D01*
X99068Y641444D01*
X99068Y641441D01*
X99069Y641404D01*
X99061Y641350D01*
X99061Y638810D01*
X99072Y638745D01*
X99074Y638679D01*
X99092Y638636D01*
X99100Y638589D01*
X99134Y638532D01*
X99159Y638472D01*
X99190Y638437D01*
X99215Y638396D01*
X99266Y638355D01*
X99310Y638306D01*
X99352Y638284D01*
X99389Y638255D01*
X99451Y638234D01*
X99510Y638203D01*
X99564Y638195D01*
X99601Y638183D01*
X99641Y638184D01*
X99695Y638176D01*
X103505Y638176D01*
X103570Y638187D01*
G37*
G36*
X395670Y600087D02*
X395670Y600087D01*
X395736Y600089D01*
X395779Y600107D01*
X395826Y600115D01*
X395883Y600149D01*
X395943Y600174D01*
X395978Y600205D01*
X396019Y600230D01*
X396061Y600281D01*
X396109Y600325D01*
X396131Y600367D01*
X396160Y600404D01*
X396181Y600466D01*
X396212Y600525D01*
X396220Y600579D01*
X396232Y600616D01*
X396231Y600656D01*
X396239Y600710D01*
X396239Y603250D01*
X396228Y603315D01*
X396226Y603381D01*
X396208Y603424D01*
X396200Y603471D01*
X396166Y603528D01*
X396141Y603588D01*
X396110Y603623D01*
X396085Y603664D01*
X396034Y603706D01*
X395990Y603754D01*
X395948Y603776D01*
X395911Y603805D01*
X395849Y603826D01*
X395790Y603857D01*
X395736Y603865D01*
X395699Y603877D01*
X395659Y603876D01*
X395605Y603884D01*
X391795Y603884D01*
X391730Y603873D01*
X391664Y603871D01*
X391621Y603853D01*
X391574Y603845D01*
X391517Y603811D01*
X391457Y603786D01*
X391422Y603755D01*
X391381Y603730D01*
X391340Y603679D01*
X391291Y603635D01*
X391269Y603593D01*
X391240Y603556D01*
X391219Y603494D01*
X391188Y603435D01*
X391180Y603381D01*
X391168Y603344D01*
X391168Y603341D01*
X391169Y603304D01*
X391161Y603250D01*
X391161Y600710D01*
X391172Y600645D01*
X391174Y600579D01*
X391192Y600536D01*
X391200Y600489D01*
X391234Y600432D01*
X391259Y600372D01*
X391290Y600337D01*
X391315Y600296D01*
X391366Y600255D01*
X391410Y600206D01*
X391452Y600184D01*
X391489Y600155D01*
X391551Y600134D01*
X391610Y600103D01*
X391664Y600095D01*
X391701Y600083D01*
X391741Y600084D01*
X391795Y600076D01*
X395605Y600076D01*
X395670Y600087D01*
G37*
G36*
X1332930Y1024267D02*
X1332930Y1024267D01*
X1332996Y1024269D01*
X1333039Y1024287D01*
X1333086Y1024295D01*
X1333143Y1024329D01*
X1333203Y1024354D01*
X1333238Y1024385D01*
X1333279Y1024410D01*
X1333321Y1024461D01*
X1333369Y1024505D01*
X1333391Y1024547D01*
X1333420Y1024584D01*
X1333441Y1024646D01*
X1333472Y1024705D01*
X1333480Y1024759D01*
X1333492Y1024796D01*
X1333491Y1024836D01*
X1333499Y1024890D01*
X1333499Y1027430D01*
X1333488Y1027495D01*
X1333486Y1027561D01*
X1333468Y1027604D01*
X1333460Y1027651D01*
X1333426Y1027708D01*
X1333401Y1027768D01*
X1333370Y1027803D01*
X1333345Y1027844D01*
X1333294Y1027886D01*
X1333250Y1027934D01*
X1333208Y1027956D01*
X1333171Y1027985D01*
X1333109Y1028006D01*
X1333050Y1028037D01*
X1332996Y1028045D01*
X1332959Y1028057D01*
X1332919Y1028056D01*
X1332865Y1028064D01*
X1329055Y1028064D01*
X1328990Y1028053D01*
X1328924Y1028051D01*
X1328881Y1028033D01*
X1328834Y1028025D01*
X1328777Y1027991D01*
X1328717Y1027966D01*
X1328682Y1027935D01*
X1328641Y1027910D01*
X1328600Y1027859D01*
X1328551Y1027815D01*
X1328529Y1027773D01*
X1328500Y1027736D01*
X1328479Y1027674D01*
X1328448Y1027615D01*
X1328440Y1027561D01*
X1328428Y1027524D01*
X1328428Y1027521D01*
X1328429Y1027484D01*
X1328421Y1027430D01*
X1328421Y1024890D01*
X1328432Y1024825D01*
X1328434Y1024759D01*
X1328452Y1024716D01*
X1328460Y1024669D01*
X1328494Y1024612D01*
X1328519Y1024552D01*
X1328550Y1024517D01*
X1328575Y1024476D01*
X1328626Y1024435D01*
X1328670Y1024386D01*
X1328712Y1024364D01*
X1328749Y1024335D01*
X1328811Y1024314D01*
X1328870Y1024283D01*
X1328924Y1024275D01*
X1328961Y1024263D01*
X1329001Y1024264D01*
X1329055Y1024256D01*
X1332865Y1024256D01*
X1332930Y1024267D01*
G37*
G36*
X1010350Y600087D02*
X1010350Y600087D01*
X1010416Y600089D01*
X1010459Y600107D01*
X1010506Y600115D01*
X1010563Y600149D01*
X1010623Y600174D01*
X1010658Y600205D01*
X1010699Y600230D01*
X1010741Y600281D01*
X1010789Y600325D01*
X1010811Y600367D01*
X1010840Y600404D01*
X1010861Y600466D01*
X1010892Y600525D01*
X1010900Y600579D01*
X1010912Y600616D01*
X1010911Y600656D01*
X1010919Y600710D01*
X1010919Y603250D01*
X1010908Y603315D01*
X1010906Y603381D01*
X1010888Y603424D01*
X1010880Y603471D01*
X1010846Y603528D01*
X1010821Y603588D01*
X1010790Y603623D01*
X1010765Y603664D01*
X1010714Y603706D01*
X1010670Y603754D01*
X1010628Y603776D01*
X1010591Y603805D01*
X1010529Y603826D01*
X1010470Y603857D01*
X1010416Y603865D01*
X1010379Y603877D01*
X1010339Y603876D01*
X1010285Y603884D01*
X1006475Y603884D01*
X1006410Y603873D01*
X1006344Y603871D01*
X1006301Y603853D01*
X1006254Y603845D01*
X1006197Y603811D01*
X1006137Y603786D01*
X1006102Y603755D01*
X1006061Y603730D01*
X1006020Y603679D01*
X1005971Y603635D01*
X1005949Y603593D01*
X1005920Y603556D01*
X1005899Y603494D01*
X1005868Y603435D01*
X1005860Y603381D01*
X1005848Y603344D01*
X1005848Y603341D01*
X1005849Y603304D01*
X1005841Y603250D01*
X1005841Y600710D01*
X1005852Y600645D01*
X1005854Y600579D01*
X1005872Y600536D01*
X1005880Y600489D01*
X1005914Y600432D01*
X1005939Y600372D01*
X1005970Y600337D01*
X1005995Y600296D01*
X1006046Y600255D01*
X1006090Y600206D01*
X1006132Y600184D01*
X1006169Y600155D01*
X1006231Y600134D01*
X1006290Y600103D01*
X1006344Y600095D01*
X1006381Y600083D01*
X1006421Y600084D01*
X1006475Y600076D01*
X1010285Y600076D01*
X1010350Y600087D01*
G37*
G36*
X1625030Y574687D02*
X1625030Y574687D01*
X1625096Y574689D01*
X1625139Y574707D01*
X1625186Y574715D01*
X1625243Y574749D01*
X1625303Y574774D01*
X1625338Y574805D01*
X1625379Y574830D01*
X1625421Y574881D01*
X1625469Y574925D01*
X1625491Y574967D01*
X1625520Y575004D01*
X1625541Y575066D01*
X1625572Y575125D01*
X1625580Y575179D01*
X1625592Y575216D01*
X1625591Y575256D01*
X1625599Y575310D01*
X1625599Y577850D01*
X1625588Y577915D01*
X1625586Y577981D01*
X1625568Y578024D01*
X1625560Y578071D01*
X1625526Y578128D01*
X1625501Y578188D01*
X1625470Y578223D01*
X1625445Y578264D01*
X1625394Y578306D01*
X1625350Y578354D01*
X1625308Y578376D01*
X1625271Y578405D01*
X1625209Y578426D01*
X1625150Y578457D01*
X1625096Y578465D01*
X1625059Y578477D01*
X1625019Y578476D01*
X1624965Y578484D01*
X1621155Y578484D01*
X1621090Y578473D01*
X1621024Y578471D01*
X1620981Y578453D01*
X1620934Y578445D01*
X1620877Y578411D01*
X1620817Y578386D01*
X1620782Y578355D01*
X1620741Y578330D01*
X1620700Y578279D01*
X1620651Y578235D01*
X1620629Y578193D01*
X1620600Y578156D01*
X1620579Y578094D01*
X1620548Y578035D01*
X1620540Y577981D01*
X1620528Y577944D01*
X1620528Y577941D01*
X1620529Y577904D01*
X1620521Y577850D01*
X1620521Y575310D01*
X1620532Y575245D01*
X1620534Y575179D01*
X1620552Y575136D01*
X1620560Y575089D01*
X1620594Y575032D01*
X1620619Y574972D01*
X1620650Y574937D01*
X1620675Y574896D01*
X1620726Y574855D01*
X1620770Y574806D01*
X1620812Y574784D01*
X1620849Y574755D01*
X1620911Y574734D01*
X1620970Y574703D01*
X1621024Y574695D01*
X1621061Y574683D01*
X1621101Y574684D01*
X1621155Y574676D01*
X1624965Y574676D01*
X1625030Y574687D01*
G37*
G36*
X1010350Y574687D02*
X1010350Y574687D01*
X1010416Y574689D01*
X1010459Y574707D01*
X1010506Y574715D01*
X1010563Y574749D01*
X1010623Y574774D01*
X1010658Y574805D01*
X1010699Y574830D01*
X1010741Y574881D01*
X1010789Y574925D01*
X1010811Y574967D01*
X1010840Y575004D01*
X1010861Y575066D01*
X1010892Y575125D01*
X1010900Y575179D01*
X1010912Y575216D01*
X1010911Y575256D01*
X1010919Y575310D01*
X1010919Y577850D01*
X1010908Y577915D01*
X1010906Y577981D01*
X1010888Y578024D01*
X1010880Y578071D01*
X1010846Y578128D01*
X1010821Y578188D01*
X1010790Y578223D01*
X1010765Y578264D01*
X1010714Y578306D01*
X1010670Y578354D01*
X1010628Y578376D01*
X1010591Y578405D01*
X1010529Y578426D01*
X1010470Y578457D01*
X1010416Y578465D01*
X1010379Y578477D01*
X1010339Y578476D01*
X1010285Y578484D01*
X1006475Y578484D01*
X1006410Y578473D01*
X1006344Y578471D01*
X1006301Y578453D01*
X1006254Y578445D01*
X1006197Y578411D01*
X1006137Y578386D01*
X1006102Y578355D01*
X1006061Y578330D01*
X1006020Y578279D01*
X1005971Y578235D01*
X1005949Y578193D01*
X1005920Y578156D01*
X1005899Y578094D01*
X1005868Y578035D01*
X1005860Y577981D01*
X1005848Y577944D01*
X1005848Y577941D01*
X1005849Y577904D01*
X1005841Y577850D01*
X1005841Y575310D01*
X1005852Y575245D01*
X1005854Y575179D01*
X1005872Y575136D01*
X1005880Y575089D01*
X1005914Y575032D01*
X1005939Y574972D01*
X1005970Y574937D01*
X1005995Y574896D01*
X1006046Y574855D01*
X1006090Y574806D01*
X1006132Y574784D01*
X1006169Y574755D01*
X1006231Y574734D01*
X1006290Y574703D01*
X1006344Y574695D01*
X1006381Y574683D01*
X1006421Y574684D01*
X1006475Y574676D01*
X1010285Y574676D01*
X1010350Y574687D01*
G37*
G36*
X395670Y574687D02*
X395670Y574687D01*
X395736Y574689D01*
X395779Y574707D01*
X395826Y574715D01*
X395883Y574749D01*
X395943Y574774D01*
X395978Y574805D01*
X396019Y574830D01*
X396061Y574881D01*
X396109Y574925D01*
X396131Y574967D01*
X396160Y575004D01*
X396181Y575066D01*
X396212Y575125D01*
X396220Y575179D01*
X396232Y575216D01*
X396231Y575256D01*
X396239Y575310D01*
X396239Y577850D01*
X396228Y577915D01*
X396226Y577981D01*
X396208Y578024D01*
X396200Y578071D01*
X396166Y578128D01*
X396141Y578188D01*
X396110Y578223D01*
X396085Y578264D01*
X396034Y578306D01*
X395990Y578354D01*
X395948Y578376D01*
X395911Y578405D01*
X395849Y578426D01*
X395790Y578457D01*
X395736Y578465D01*
X395699Y578477D01*
X395659Y578476D01*
X395605Y578484D01*
X391795Y578484D01*
X391730Y578473D01*
X391664Y578471D01*
X391621Y578453D01*
X391574Y578445D01*
X391517Y578411D01*
X391457Y578386D01*
X391422Y578355D01*
X391381Y578330D01*
X391340Y578279D01*
X391291Y578235D01*
X391269Y578193D01*
X391240Y578156D01*
X391219Y578094D01*
X391188Y578035D01*
X391180Y577981D01*
X391168Y577944D01*
X391168Y577941D01*
X391169Y577904D01*
X391161Y577850D01*
X391161Y575310D01*
X391172Y575245D01*
X391174Y575179D01*
X391192Y575136D01*
X391200Y575089D01*
X391234Y575032D01*
X391259Y574972D01*
X391290Y574937D01*
X391315Y574896D01*
X391366Y574855D01*
X391410Y574806D01*
X391452Y574784D01*
X391489Y574755D01*
X391551Y574734D01*
X391610Y574703D01*
X391664Y574695D01*
X391701Y574683D01*
X391741Y574684D01*
X391795Y574676D01*
X395605Y574676D01*
X395670Y574687D01*
G37*
G36*
X1010350Y549287D02*
X1010350Y549287D01*
X1010416Y549289D01*
X1010459Y549307D01*
X1010506Y549315D01*
X1010563Y549349D01*
X1010623Y549374D01*
X1010658Y549405D01*
X1010699Y549430D01*
X1010741Y549481D01*
X1010789Y549525D01*
X1010811Y549567D01*
X1010840Y549604D01*
X1010861Y549666D01*
X1010892Y549725D01*
X1010900Y549779D01*
X1010912Y549816D01*
X1010911Y549856D01*
X1010919Y549910D01*
X1010919Y552450D01*
X1010908Y552515D01*
X1010906Y552581D01*
X1010888Y552624D01*
X1010880Y552671D01*
X1010846Y552728D01*
X1010821Y552788D01*
X1010790Y552823D01*
X1010765Y552864D01*
X1010714Y552906D01*
X1010670Y552954D01*
X1010628Y552976D01*
X1010591Y553005D01*
X1010529Y553026D01*
X1010470Y553057D01*
X1010416Y553065D01*
X1010379Y553077D01*
X1010339Y553076D01*
X1010285Y553084D01*
X1006475Y553084D01*
X1006410Y553073D01*
X1006344Y553071D01*
X1006301Y553053D01*
X1006254Y553045D01*
X1006197Y553011D01*
X1006137Y552986D01*
X1006102Y552955D01*
X1006061Y552930D01*
X1006020Y552879D01*
X1005971Y552835D01*
X1005949Y552793D01*
X1005920Y552756D01*
X1005899Y552694D01*
X1005868Y552635D01*
X1005860Y552581D01*
X1005848Y552544D01*
X1005848Y552541D01*
X1005849Y552504D01*
X1005841Y552450D01*
X1005841Y549910D01*
X1005852Y549845D01*
X1005854Y549779D01*
X1005872Y549736D01*
X1005880Y549689D01*
X1005914Y549632D01*
X1005939Y549572D01*
X1005970Y549537D01*
X1005995Y549496D01*
X1006046Y549455D01*
X1006090Y549406D01*
X1006132Y549384D01*
X1006169Y549355D01*
X1006231Y549334D01*
X1006290Y549303D01*
X1006344Y549295D01*
X1006381Y549283D01*
X1006421Y549284D01*
X1006475Y549276D01*
X1010285Y549276D01*
X1010350Y549287D01*
G37*
G36*
X1625030Y549287D02*
X1625030Y549287D01*
X1625096Y549289D01*
X1625139Y549307D01*
X1625186Y549315D01*
X1625243Y549349D01*
X1625303Y549374D01*
X1625338Y549405D01*
X1625379Y549430D01*
X1625421Y549481D01*
X1625469Y549525D01*
X1625491Y549567D01*
X1625520Y549604D01*
X1625541Y549666D01*
X1625572Y549725D01*
X1625580Y549779D01*
X1625592Y549816D01*
X1625591Y549856D01*
X1625599Y549910D01*
X1625599Y552450D01*
X1625588Y552515D01*
X1625586Y552581D01*
X1625568Y552624D01*
X1625560Y552671D01*
X1625526Y552728D01*
X1625501Y552788D01*
X1625470Y552823D01*
X1625445Y552864D01*
X1625394Y552906D01*
X1625350Y552954D01*
X1625308Y552976D01*
X1625271Y553005D01*
X1625209Y553026D01*
X1625150Y553057D01*
X1625096Y553065D01*
X1625059Y553077D01*
X1625019Y553076D01*
X1624965Y553084D01*
X1621155Y553084D01*
X1621090Y553073D01*
X1621024Y553071D01*
X1620981Y553053D01*
X1620934Y553045D01*
X1620877Y553011D01*
X1620817Y552986D01*
X1620782Y552955D01*
X1620741Y552930D01*
X1620700Y552879D01*
X1620651Y552835D01*
X1620629Y552793D01*
X1620600Y552756D01*
X1620579Y552694D01*
X1620548Y552635D01*
X1620540Y552581D01*
X1620528Y552544D01*
X1620528Y552541D01*
X1620529Y552504D01*
X1620521Y552450D01*
X1620521Y549910D01*
X1620532Y549845D01*
X1620534Y549779D01*
X1620552Y549736D01*
X1620560Y549689D01*
X1620594Y549632D01*
X1620619Y549572D01*
X1620650Y549537D01*
X1620675Y549496D01*
X1620726Y549455D01*
X1620770Y549406D01*
X1620812Y549384D01*
X1620849Y549355D01*
X1620911Y549334D01*
X1620970Y549303D01*
X1621024Y549295D01*
X1621061Y549283D01*
X1621101Y549284D01*
X1621155Y549276D01*
X1624965Y549276D01*
X1625030Y549287D01*
G37*
G36*
X395670Y549287D02*
X395670Y549287D01*
X395736Y549289D01*
X395779Y549307D01*
X395826Y549315D01*
X395883Y549349D01*
X395943Y549374D01*
X395978Y549405D01*
X396019Y549430D01*
X396061Y549481D01*
X396109Y549525D01*
X396131Y549567D01*
X396160Y549604D01*
X396181Y549666D01*
X396212Y549725D01*
X396220Y549779D01*
X396232Y549816D01*
X396231Y549856D01*
X396239Y549910D01*
X396239Y552450D01*
X396228Y552515D01*
X396226Y552581D01*
X396208Y552624D01*
X396200Y552671D01*
X396166Y552728D01*
X396141Y552788D01*
X396110Y552823D01*
X396085Y552864D01*
X396034Y552906D01*
X395990Y552954D01*
X395948Y552976D01*
X395911Y553005D01*
X395849Y553026D01*
X395790Y553057D01*
X395736Y553065D01*
X395699Y553077D01*
X395659Y553076D01*
X395605Y553084D01*
X391795Y553084D01*
X391730Y553073D01*
X391664Y553071D01*
X391621Y553053D01*
X391574Y553045D01*
X391517Y553011D01*
X391457Y552986D01*
X391422Y552955D01*
X391381Y552930D01*
X391340Y552879D01*
X391291Y552835D01*
X391269Y552793D01*
X391240Y552756D01*
X391219Y552694D01*
X391188Y552635D01*
X391180Y552581D01*
X391168Y552544D01*
X391168Y552541D01*
X391169Y552504D01*
X391161Y552450D01*
X391161Y549910D01*
X391172Y549845D01*
X391174Y549779D01*
X391192Y549736D01*
X391200Y549689D01*
X391234Y549632D01*
X391259Y549572D01*
X391290Y549537D01*
X391315Y549496D01*
X391366Y549455D01*
X391410Y549406D01*
X391452Y549384D01*
X391489Y549355D01*
X391551Y549334D01*
X391610Y549303D01*
X391664Y549295D01*
X391701Y549283D01*
X391741Y549284D01*
X391795Y549276D01*
X395605Y549276D01*
X395670Y549287D01*
G37*
G36*
X659830Y1062367D02*
X659830Y1062367D01*
X659896Y1062369D01*
X659939Y1062387D01*
X659986Y1062395D01*
X660043Y1062429D01*
X660103Y1062454D01*
X660138Y1062485D01*
X660179Y1062510D01*
X660221Y1062561D01*
X660269Y1062605D01*
X660291Y1062647D01*
X660320Y1062684D01*
X660341Y1062746D01*
X660372Y1062805D01*
X660380Y1062859D01*
X660392Y1062896D01*
X660391Y1062936D01*
X660399Y1062990D01*
X660399Y1065530D01*
X660388Y1065595D01*
X660386Y1065661D01*
X660368Y1065704D01*
X660360Y1065751D01*
X660326Y1065808D01*
X660301Y1065868D01*
X660270Y1065903D01*
X660245Y1065944D01*
X660194Y1065986D01*
X660150Y1066034D01*
X660108Y1066056D01*
X660071Y1066085D01*
X660009Y1066106D01*
X659950Y1066137D01*
X659896Y1066145D01*
X659859Y1066157D01*
X659819Y1066156D01*
X659765Y1066164D01*
X655955Y1066164D01*
X655890Y1066153D01*
X655824Y1066151D01*
X655781Y1066133D01*
X655734Y1066125D01*
X655677Y1066091D01*
X655617Y1066066D01*
X655582Y1066035D01*
X655541Y1066010D01*
X655500Y1065959D01*
X655451Y1065915D01*
X655429Y1065873D01*
X655400Y1065836D01*
X655379Y1065774D01*
X655348Y1065715D01*
X655340Y1065661D01*
X655328Y1065624D01*
X655328Y1065621D01*
X655329Y1065584D01*
X655321Y1065530D01*
X655321Y1062990D01*
X655332Y1062925D01*
X655334Y1062859D01*
X655352Y1062816D01*
X655360Y1062769D01*
X655394Y1062712D01*
X655419Y1062652D01*
X655450Y1062617D01*
X655475Y1062576D01*
X655526Y1062535D01*
X655570Y1062486D01*
X655612Y1062464D01*
X655649Y1062435D01*
X655711Y1062414D01*
X655770Y1062383D01*
X655824Y1062375D01*
X655861Y1062363D01*
X655901Y1062364D01*
X655955Y1062356D01*
X659765Y1062356D01*
X659830Y1062367D01*
G37*
G36*
X649670Y1062367D02*
X649670Y1062367D01*
X649736Y1062369D01*
X649779Y1062387D01*
X649826Y1062395D01*
X649883Y1062429D01*
X649943Y1062454D01*
X649978Y1062485D01*
X650019Y1062510D01*
X650061Y1062561D01*
X650109Y1062605D01*
X650131Y1062647D01*
X650160Y1062684D01*
X650181Y1062746D01*
X650212Y1062805D01*
X650220Y1062859D01*
X650232Y1062896D01*
X650231Y1062936D01*
X650239Y1062990D01*
X650239Y1065530D01*
X650228Y1065595D01*
X650226Y1065661D01*
X650208Y1065704D01*
X650200Y1065751D01*
X650166Y1065808D01*
X650141Y1065868D01*
X650110Y1065903D01*
X650085Y1065944D01*
X650034Y1065986D01*
X649990Y1066034D01*
X649948Y1066056D01*
X649911Y1066085D01*
X649849Y1066106D01*
X649790Y1066137D01*
X649736Y1066145D01*
X649699Y1066157D01*
X649659Y1066156D01*
X649605Y1066164D01*
X645795Y1066164D01*
X645730Y1066153D01*
X645664Y1066151D01*
X645621Y1066133D01*
X645574Y1066125D01*
X645517Y1066091D01*
X645457Y1066066D01*
X645422Y1066035D01*
X645381Y1066010D01*
X645340Y1065959D01*
X645291Y1065915D01*
X645269Y1065873D01*
X645240Y1065836D01*
X645219Y1065774D01*
X645188Y1065715D01*
X645180Y1065661D01*
X645168Y1065624D01*
X645168Y1065621D01*
X645169Y1065584D01*
X645161Y1065530D01*
X645161Y1062990D01*
X645172Y1062925D01*
X645174Y1062859D01*
X645192Y1062816D01*
X645200Y1062769D01*
X645234Y1062712D01*
X645259Y1062652D01*
X645290Y1062617D01*
X645315Y1062576D01*
X645366Y1062535D01*
X645410Y1062486D01*
X645452Y1062464D01*
X645489Y1062435D01*
X645551Y1062414D01*
X645610Y1062383D01*
X645664Y1062375D01*
X645701Y1062363D01*
X645741Y1062364D01*
X645795Y1062356D01*
X649605Y1062356D01*
X649670Y1062367D01*
G37*
G36*
X34990Y1062367D02*
X34990Y1062367D01*
X35056Y1062369D01*
X35099Y1062387D01*
X35146Y1062395D01*
X35203Y1062429D01*
X35263Y1062454D01*
X35298Y1062485D01*
X35339Y1062510D01*
X35381Y1062561D01*
X35429Y1062605D01*
X35451Y1062647D01*
X35480Y1062684D01*
X35501Y1062746D01*
X35532Y1062805D01*
X35540Y1062859D01*
X35552Y1062896D01*
X35551Y1062936D01*
X35559Y1062990D01*
X35559Y1065530D01*
X35548Y1065595D01*
X35546Y1065661D01*
X35528Y1065704D01*
X35520Y1065751D01*
X35486Y1065808D01*
X35461Y1065868D01*
X35430Y1065903D01*
X35405Y1065944D01*
X35354Y1065986D01*
X35310Y1066034D01*
X35268Y1066056D01*
X35231Y1066085D01*
X35169Y1066106D01*
X35110Y1066137D01*
X35056Y1066145D01*
X35019Y1066157D01*
X34979Y1066156D01*
X34925Y1066164D01*
X31115Y1066164D01*
X31050Y1066153D01*
X30984Y1066151D01*
X30941Y1066133D01*
X30894Y1066125D01*
X30837Y1066091D01*
X30777Y1066066D01*
X30742Y1066035D01*
X30701Y1066010D01*
X30660Y1065959D01*
X30611Y1065915D01*
X30589Y1065873D01*
X30560Y1065836D01*
X30539Y1065774D01*
X30508Y1065715D01*
X30500Y1065661D01*
X30488Y1065624D01*
X30488Y1065621D01*
X30489Y1065584D01*
X30481Y1065530D01*
X30481Y1062990D01*
X30492Y1062925D01*
X30494Y1062859D01*
X30512Y1062816D01*
X30520Y1062769D01*
X30554Y1062712D01*
X30579Y1062652D01*
X30610Y1062617D01*
X30635Y1062576D01*
X30686Y1062535D01*
X30730Y1062486D01*
X30772Y1062464D01*
X30809Y1062435D01*
X30871Y1062414D01*
X30930Y1062383D01*
X30984Y1062375D01*
X31021Y1062363D01*
X31061Y1062364D01*
X31115Y1062356D01*
X34925Y1062356D01*
X34990Y1062367D01*
G37*
G36*
X659830Y290207D02*
X659830Y290207D01*
X659896Y290209D01*
X659939Y290227D01*
X659986Y290235D01*
X660043Y290269D01*
X660103Y290294D01*
X660138Y290325D01*
X660179Y290350D01*
X660221Y290401D01*
X660269Y290445D01*
X660291Y290487D01*
X660320Y290524D01*
X660341Y290586D01*
X660372Y290645D01*
X660380Y290699D01*
X660392Y290736D01*
X660391Y290776D01*
X660399Y290830D01*
X660399Y293370D01*
X660388Y293435D01*
X660386Y293501D01*
X660368Y293544D01*
X660360Y293591D01*
X660326Y293648D01*
X660301Y293708D01*
X660270Y293743D01*
X660245Y293784D01*
X660194Y293826D01*
X660150Y293874D01*
X660108Y293896D01*
X660071Y293925D01*
X660009Y293946D01*
X659950Y293977D01*
X659896Y293985D01*
X659859Y293997D01*
X659819Y293996D01*
X659765Y294004D01*
X655955Y294004D01*
X655890Y293993D01*
X655824Y293991D01*
X655781Y293973D01*
X655734Y293965D01*
X655677Y293931D01*
X655617Y293906D01*
X655582Y293875D01*
X655541Y293850D01*
X655500Y293799D01*
X655451Y293755D01*
X655429Y293713D01*
X655400Y293676D01*
X655379Y293614D01*
X655348Y293555D01*
X655340Y293501D01*
X655328Y293464D01*
X655328Y293461D01*
X655329Y293424D01*
X655321Y293370D01*
X655321Y290830D01*
X655332Y290765D01*
X655334Y290699D01*
X655352Y290656D01*
X655360Y290609D01*
X655394Y290552D01*
X655419Y290492D01*
X655450Y290457D01*
X655475Y290416D01*
X655526Y290375D01*
X655570Y290326D01*
X655612Y290304D01*
X655649Y290275D01*
X655711Y290254D01*
X655770Y290223D01*
X655824Y290215D01*
X655861Y290203D01*
X655901Y290204D01*
X655955Y290196D01*
X659765Y290196D01*
X659830Y290207D01*
G37*
G36*
X649670Y290207D02*
X649670Y290207D01*
X649736Y290209D01*
X649779Y290227D01*
X649826Y290235D01*
X649883Y290269D01*
X649943Y290294D01*
X649978Y290325D01*
X650019Y290350D01*
X650061Y290401D01*
X650109Y290445D01*
X650131Y290487D01*
X650160Y290524D01*
X650181Y290586D01*
X650212Y290645D01*
X650220Y290699D01*
X650232Y290736D01*
X650231Y290776D01*
X650239Y290830D01*
X650239Y293370D01*
X650228Y293435D01*
X650226Y293501D01*
X650208Y293544D01*
X650200Y293591D01*
X650166Y293648D01*
X650141Y293708D01*
X650110Y293743D01*
X650085Y293784D01*
X650034Y293826D01*
X649990Y293874D01*
X649948Y293896D01*
X649911Y293925D01*
X649849Y293946D01*
X649790Y293977D01*
X649736Y293985D01*
X649699Y293997D01*
X649659Y293996D01*
X649605Y294004D01*
X645795Y294004D01*
X645730Y293993D01*
X645664Y293991D01*
X645621Y293973D01*
X645574Y293965D01*
X645517Y293931D01*
X645457Y293906D01*
X645422Y293875D01*
X645381Y293850D01*
X645340Y293799D01*
X645291Y293755D01*
X645269Y293713D01*
X645240Y293676D01*
X645219Y293614D01*
X645188Y293555D01*
X645180Y293501D01*
X645168Y293464D01*
X645168Y293461D01*
X645169Y293424D01*
X645161Y293370D01*
X645161Y290830D01*
X645172Y290765D01*
X645174Y290699D01*
X645192Y290656D01*
X645200Y290609D01*
X645234Y290552D01*
X645259Y290492D01*
X645290Y290457D01*
X645315Y290416D01*
X645366Y290375D01*
X645410Y290326D01*
X645452Y290304D01*
X645489Y290275D01*
X645551Y290254D01*
X645610Y290223D01*
X645664Y290215D01*
X645701Y290203D01*
X645741Y290204D01*
X645795Y290196D01*
X649605Y290196D01*
X649670Y290207D01*
G37*
G36*
X45150Y290207D02*
X45150Y290207D01*
X45216Y290209D01*
X45259Y290227D01*
X45306Y290235D01*
X45363Y290269D01*
X45423Y290294D01*
X45458Y290325D01*
X45499Y290350D01*
X45541Y290401D01*
X45589Y290445D01*
X45611Y290487D01*
X45640Y290524D01*
X45661Y290586D01*
X45692Y290645D01*
X45700Y290699D01*
X45712Y290736D01*
X45711Y290776D01*
X45719Y290830D01*
X45719Y293370D01*
X45708Y293435D01*
X45706Y293501D01*
X45688Y293544D01*
X45680Y293591D01*
X45646Y293648D01*
X45621Y293708D01*
X45590Y293743D01*
X45565Y293784D01*
X45514Y293826D01*
X45470Y293874D01*
X45428Y293896D01*
X45391Y293925D01*
X45329Y293946D01*
X45270Y293977D01*
X45216Y293985D01*
X45179Y293997D01*
X45139Y293996D01*
X45085Y294004D01*
X41275Y294004D01*
X41210Y293993D01*
X41144Y293991D01*
X41101Y293973D01*
X41054Y293965D01*
X40997Y293931D01*
X40937Y293906D01*
X40902Y293875D01*
X40861Y293850D01*
X40820Y293799D01*
X40771Y293755D01*
X40749Y293713D01*
X40720Y293676D01*
X40699Y293614D01*
X40668Y293555D01*
X40660Y293501D01*
X40648Y293464D01*
X40648Y293461D01*
X40649Y293424D01*
X40641Y293370D01*
X40641Y290830D01*
X40652Y290765D01*
X40654Y290699D01*
X40672Y290656D01*
X40680Y290609D01*
X40714Y290552D01*
X40739Y290492D01*
X40770Y290457D01*
X40795Y290416D01*
X40846Y290375D01*
X40890Y290326D01*
X40932Y290304D01*
X40969Y290275D01*
X41031Y290254D01*
X41090Y290223D01*
X41144Y290215D01*
X41181Y290203D01*
X41221Y290204D01*
X41275Y290196D01*
X45085Y290196D01*
X45150Y290207D01*
G37*
G36*
X34990Y290207D02*
X34990Y290207D01*
X35056Y290209D01*
X35099Y290227D01*
X35146Y290235D01*
X35203Y290269D01*
X35263Y290294D01*
X35298Y290325D01*
X35339Y290350D01*
X35381Y290401D01*
X35429Y290445D01*
X35451Y290487D01*
X35480Y290524D01*
X35501Y290586D01*
X35532Y290645D01*
X35540Y290699D01*
X35552Y290736D01*
X35551Y290776D01*
X35559Y290830D01*
X35559Y293370D01*
X35548Y293435D01*
X35546Y293501D01*
X35528Y293544D01*
X35520Y293591D01*
X35486Y293648D01*
X35461Y293708D01*
X35430Y293743D01*
X35405Y293784D01*
X35354Y293826D01*
X35310Y293874D01*
X35268Y293896D01*
X35231Y293925D01*
X35169Y293946D01*
X35110Y293977D01*
X35056Y293985D01*
X35019Y293997D01*
X34979Y293996D01*
X34925Y294004D01*
X31115Y294004D01*
X31050Y293993D01*
X30984Y293991D01*
X30941Y293973D01*
X30894Y293965D01*
X30837Y293931D01*
X30777Y293906D01*
X30742Y293875D01*
X30701Y293850D01*
X30660Y293799D01*
X30611Y293755D01*
X30589Y293713D01*
X30560Y293676D01*
X30539Y293614D01*
X30508Y293555D01*
X30500Y293501D01*
X30488Y293464D01*
X30488Y293461D01*
X30489Y293424D01*
X30481Y293370D01*
X30481Y290830D01*
X30492Y290765D01*
X30494Y290699D01*
X30512Y290656D01*
X30520Y290609D01*
X30554Y290552D01*
X30579Y290492D01*
X30610Y290457D01*
X30635Y290416D01*
X30686Y290375D01*
X30730Y290326D01*
X30772Y290304D01*
X30809Y290275D01*
X30871Y290254D01*
X30930Y290223D01*
X30984Y290215D01*
X31021Y290203D01*
X31061Y290204D01*
X31115Y290196D01*
X34925Y290196D01*
X34990Y290207D01*
G37*
G36*
X1264350Y290207D02*
X1264350Y290207D01*
X1264416Y290209D01*
X1264459Y290227D01*
X1264506Y290235D01*
X1264563Y290269D01*
X1264623Y290294D01*
X1264658Y290325D01*
X1264699Y290350D01*
X1264741Y290401D01*
X1264789Y290445D01*
X1264811Y290487D01*
X1264840Y290524D01*
X1264861Y290586D01*
X1264892Y290645D01*
X1264900Y290699D01*
X1264912Y290736D01*
X1264911Y290776D01*
X1264919Y290830D01*
X1264919Y293370D01*
X1264908Y293435D01*
X1264906Y293501D01*
X1264888Y293544D01*
X1264880Y293591D01*
X1264846Y293648D01*
X1264821Y293708D01*
X1264790Y293743D01*
X1264765Y293784D01*
X1264714Y293826D01*
X1264670Y293874D01*
X1264628Y293896D01*
X1264591Y293925D01*
X1264529Y293946D01*
X1264470Y293977D01*
X1264416Y293985D01*
X1264379Y293997D01*
X1264339Y293996D01*
X1264285Y294004D01*
X1260475Y294004D01*
X1260410Y293993D01*
X1260344Y293991D01*
X1260301Y293973D01*
X1260254Y293965D01*
X1260197Y293931D01*
X1260137Y293906D01*
X1260102Y293875D01*
X1260061Y293850D01*
X1260020Y293799D01*
X1259971Y293755D01*
X1259949Y293713D01*
X1259920Y293676D01*
X1259899Y293614D01*
X1259868Y293555D01*
X1259860Y293501D01*
X1259848Y293464D01*
X1259848Y293461D01*
X1259849Y293424D01*
X1259841Y293370D01*
X1259841Y290830D01*
X1259852Y290765D01*
X1259854Y290699D01*
X1259872Y290656D01*
X1259880Y290609D01*
X1259914Y290552D01*
X1259939Y290492D01*
X1259970Y290457D01*
X1259995Y290416D01*
X1260046Y290375D01*
X1260090Y290326D01*
X1260132Y290304D01*
X1260169Y290275D01*
X1260231Y290254D01*
X1260290Y290223D01*
X1260344Y290215D01*
X1260381Y290203D01*
X1260421Y290204D01*
X1260475Y290196D01*
X1264285Y290196D01*
X1264350Y290207D01*
G37*
G36*
X1274510Y290207D02*
X1274510Y290207D01*
X1274576Y290209D01*
X1274619Y290227D01*
X1274666Y290235D01*
X1274723Y290269D01*
X1274783Y290294D01*
X1274818Y290325D01*
X1274859Y290350D01*
X1274901Y290401D01*
X1274949Y290445D01*
X1274971Y290487D01*
X1275000Y290524D01*
X1275021Y290586D01*
X1275052Y290645D01*
X1275060Y290699D01*
X1275072Y290736D01*
X1275071Y290776D01*
X1275079Y290830D01*
X1275079Y293370D01*
X1275068Y293435D01*
X1275066Y293501D01*
X1275048Y293544D01*
X1275040Y293591D01*
X1275006Y293648D01*
X1274981Y293708D01*
X1274950Y293743D01*
X1274925Y293784D01*
X1274874Y293826D01*
X1274830Y293874D01*
X1274788Y293896D01*
X1274751Y293925D01*
X1274689Y293946D01*
X1274630Y293977D01*
X1274576Y293985D01*
X1274539Y293997D01*
X1274499Y293996D01*
X1274445Y294004D01*
X1270635Y294004D01*
X1270570Y293993D01*
X1270504Y293991D01*
X1270461Y293973D01*
X1270414Y293965D01*
X1270357Y293931D01*
X1270297Y293906D01*
X1270262Y293875D01*
X1270221Y293850D01*
X1270180Y293799D01*
X1270131Y293755D01*
X1270109Y293713D01*
X1270080Y293676D01*
X1270059Y293614D01*
X1270028Y293555D01*
X1270020Y293501D01*
X1270008Y293464D01*
X1270008Y293461D01*
X1270009Y293424D01*
X1270001Y293370D01*
X1270001Y290830D01*
X1270012Y290765D01*
X1270014Y290699D01*
X1270032Y290656D01*
X1270040Y290609D01*
X1270074Y290552D01*
X1270099Y290492D01*
X1270130Y290457D01*
X1270155Y290416D01*
X1270206Y290375D01*
X1270250Y290326D01*
X1270292Y290304D01*
X1270329Y290275D01*
X1270391Y290254D01*
X1270450Y290223D01*
X1270504Y290215D01*
X1270541Y290203D01*
X1270581Y290204D01*
X1270635Y290196D01*
X1274445Y290196D01*
X1274510Y290207D01*
G37*
G36*
X1264350Y1062367D02*
X1264350Y1062367D01*
X1264416Y1062369D01*
X1264459Y1062387D01*
X1264506Y1062395D01*
X1264563Y1062429D01*
X1264623Y1062454D01*
X1264658Y1062485D01*
X1264699Y1062510D01*
X1264741Y1062561D01*
X1264789Y1062605D01*
X1264811Y1062647D01*
X1264840Y1062684D01*
X1264861Y1062746D01*
X1264892Y1062805D01*
X1264900Y1062859D01*
X1264912Y1062896D01*
X1264911Y1062936D01*
X1264919Y1062990D01*
X1264919Y1065530D01*
X1264908Y1065595D01*
X1264906Y1065661D01*
X1264888Y1065704D01*
X1264880Y1065751D01*
X1264846Y1065808D01*
X1264821Y1065868D01*
X1264790Y1065903D01*
X1264765Y1065944D01*
X1264714Y1065986D01*
X1264670Y1066034D01*
X1264628Y1066056D01*
X1264591Y1066085D01*
X1264529Y1066106D01*
X1264470Y1066137D01*
X1264416Y1066145D01*
X1264379Y1066157D01*
X1264339Y1066156D01*
X1264285Y1066164D01*
X1260475Y1066164D01*
X1260410Y1066153D01*
X1260344Y1066151D01*
X1260301Y1066133D01*
X1260254Y1066125D01*
X1260197Y1066091D01*
X1260137Y1066066D01*
X1260102Y1066035D01*
X1260061Y1066010D01*
X1260020Y1065959D01*
X1259971Y1065915D01*
X1259949Y1065873D01*
X1259920Y1065836D01*
X1259899Y1065774D01*
X1259868Y1065715D01*
X1259860Y1065661D01*
X1259848Y1065624D01*
X1259848Y1065621D01*
X1259849Y1065584D01*
X1259841Y1065530D01*
X1259841Y1062990D01*
X1259852Y1062925D01*
X1259854Y1062859D01*
X1259872Y1062816D01*
X1259880Y1062769D01*
X1259914Y1062712D01*
X1259939Y1062652D01*
X1259970Y1062617D01*
X1259995Y1062576D01*
X1260046Y1062535D01*
X1260090Y1062486D01*
X1260132Y1062464D01*
X1260169Y1062435D01*
X1260231Y1062414D01*
X1260290Y1062383D01*
X1260344Y1062375D01*
X1260381Y1062363D01*
X1260421Y1062364D01*
X1260475Y1062356D01*
X1264285Y1062356D01*
X1264350Y1062367D01*
G37*
G36*
X1274510Y1062367D02*
X1274510Y1062367D01*
X1274576Y1062369D01*
X1274619Y1062387D01*
X1274666Y1062395D01*
X1274723Y1062429D01*
X1274783Y1062454D01*
X1274818Y1062485D01*
X1274859Y1062510D01*
X1274901Y1062561D01*
X1274949Y1062605D01*
X1274971Y1062647D01*
X1275000Y1062684D01*
X1275021Y1062746D01*
X1275052Y1062805D01*
X1275060Y1062859D01*
X1275072Y1062896D01*
X1275071Y1062936D01*
X1275079Y1062990D01*
X1275079Y1065530D01*
X1275068Y1065595D01*
X1275066Y1065661D01*
X1275048Y1065704D01*
X1275040Y1065751D01*
X1275006Y1065808D01*
X1274981Y1065868D01*
X1274950Y1065903D01*
X1274925Y1065944D01*
X1274874Y1065986D01*
X1274830Y1066034D01*
X1274788Y1066056D01*
X1274751Y1066085D01*
X1274689Y1066106D01*
X1274630Y1066137D01*
X1274576Y1066145D01*
X1274539Y1066157D01*
X1274499Y1066156D01*
X1274445Y1066164D01*
X1270635Y1066164D01*
X1270570Y1066153D01*
X1270504Y1066151D01*
X1270461Y1066133D01*
X1270414Y1066125D01*
X1270357Y1066091D01*
X1270297Y1066066D01*
X1270262Y1066035D01*
X1270221Y1066010D01*
X1270180Y1065959D01*
X1270131Y1065915D01*
X1270109Y1065873D01*
X1270080Y1065836D01*
X1270059Y1065774D01*
X1270028Y1065715D01*
X1270020Y1065661D01*
X1270008Y1065624D01*
X1270008Y1065621D01*
X1270009Y1065584D01*
X1270001Y1065530D01*
X1270001Y1062990D01*
X1270012Y1062925D01*
X1270014Y1062859D01*
X1270032Y1062816D01*
X1270040Y1062769D01*
X1270074Y1062712D01*
X1270099Y1062652D01*
X1270130Y1062617D01*
X1270155Y1062576D01*
X1270206Y1062535D01*
X1270250Y1062486D01*
X1270292Y1062464D01*
X1270329Y1062435D01*
X1270391Y1062414D01*
X1270450Y1062383D01*
X1270504Y1062375D01*
X1270541Y1062363D01*
X1270581Y1062364D01*
X1270635Y1062356D01*
X1274445Y1062356D01*
X1274510Y1062367D01*
G37*
G36*
X45150Y1062367D02*
X45150Y1062367D01*
X45216Y1062369D01*
X45259Y1062387D01*
X45306Y1062395D01*
X45363Y1062429D01*
X45423Y1062454D01*
X45458Y1062485D01*
X45499Y1062510D01*
X45541Y1062561D01*
X45589Y1062605D01*
X45611Y1062647D01*
X45640Y1062684D01*
X45661Y1062746D01*
X45692Y1062805D01*
X45700Y1062859D01*
X45712Y1062896D01*
X45711Y1062936D01*
X45719Y1062990D01*
X45719Y1065530D01*
X45708Y1065595D01*
X45706Y1065661D01*
X45688Y1065704D01*
X45680Y1065751D01*
X45646Y1065808D01*
X45621Y1065868D01*
X45590Y1065903D01*
X45565Y1065944D01*
X45514Y1065986D01*
X45470Y1066034D01*
X45428Y1066056D01*
X45391Y1066085D01*
X45329Y1066106D01*
X45270Y1066137D01*
X45216Y1066145D01*
X45179Y1066157D01*
X45139Y1066156D01*
X45085Y1066164D01*
X41275Y1066164D01*
X41210Y1066153D01*
X41144Y1066151D01*
X41101Y1066133D01*
X41054Y1066125D01*
X40997Y1066091D01*
X40937Y1066066D01*
X40902Y1066035D01*
X40861Y1066010D01*
X40820Y1065959D01*
X40771Y1065915D01*
X40749Y1065873D01*
X40720Y1065836D01*
X40699Y1065774D01*
X40668Y1065715D01*
X40660Y1065661D01*
X40648Y1065624D01*
X40648Y1065621D01*
X40649Y1065584D01*
X40641Y1065530D01*
X40641Y1062990D01*
X40652Y1062925D01*
X40654Y1062859D01*
X40672Y1062816D01*
X40680Y1062769D01*
X40714Y1062712D01*
X40739Y1062652D01*
X40770Y1062617D01*
X40795Y1062576D01*
X40846Y1062535D01*
X40890Y1062486D01*
X40932Y1062464D01*
X40969Y1062435D01*
X41031Y1062414D01*
X41090Y1062383D01*
X41144Y1062375D01*
X41181Y1062363D01*
X41221Y1062364D01*
X41275Y1062356D01*
X45085Y1062356D01*
X45150Y1062367D01*
G37*
G36*
X395670Y214007D02*
X395670Y214007D01*
X395736Y214009D01*
X395779Y214027D01*
X395826Y214035D01*
X395883Y214069D01*
X395943Y214094D01*
X395978Y214125D01*
X396019Y214150D01*
X396061Y214201D01*
X396109Y214245D01*
X396131Y214287D01*
X396160Y214324D01*
X396181Y214386D01*
X396212Y214445D01*
X396220Y214499D01*
X396232Y214536D01*
X396231Y214576D01*
X396239Y214630D01*
X396239Y217170D01*
X396228Y217235D01*
X396226Y217301D01*
X396208Y217344D01*
X396200Y217391D01*
X396166Y217448D01*
X396141Y217508D01*
X396110Y217543D01*
X396085Y217584D01*
X396034Y217626D01*
X395990Y217674D01*
X395948Y217696D01*
X395911Y217725D01*
X395849Y217746D01*
X395790Y217777D01*
X395736Y217785D01*
X395699Y217797D01*
X395659Y217796D01*
X395605Y217804D01*
X391795Y217804D01*
X391730Y217793D01*
X391664Y217791D01*
X391621Y217773D01*
X391574Y217765D01*
X391517Y217731D01*
X391457Y217706D01*
X391422Y217675D01*
X391381Y217650D01*
X391340Y217599D01*
X391291Y217555D01*
X391269Y217513D01*
X391240Y217476D01*
X391219Y217414D01*
X391188Y217355D01*
X391180Y217301D01*
X391168Y217264D01*
X391168Y217261D01*
X391169Y217224D01*
X391161Y217170D01*
X391161Y214630D01*
X391172Y214565D01*
X391174Y214499D01*
X391192Y214456D01*
X391200Y214409D01*
X391234Y214352D01*
X391259Y214292D01*
X391290Y214257D01*
X391315Y214216D01*
X391366Y214175D01*
X391410Y214126D01*
X391452Y214104D01*
X391489Y214075D01*
X391551Y214054D01*
X391610Y214023D01*
X391664Y214015D01*
X391701Y214003D01*
X391741Y214004D01*
X391795Y213996D01*
X395605Y213996D01*
X395670Y214007D01*
G37*
G36*
X1010350Y214007D02*
X1010350Y214007D01*
X1010416Y214009D01*
X1010459Y214027D01*
X1010506Y214035D01*
X1010563Y214069D01*
X1010623Y214094D01*
X1010658Y214125D01*
X1010699Y214150D01*
X1010741Y214201D01*
X1010789Y214245D01*
X1010811Y214287D01*
X1010840Y214324D01*
X1010861Y214386D01*
X1010892Y214445D01*
X1010900Y214499D01*
X1010912Y214536D01*
X1010911Y214576D01*
X1010919Y214630D01*
X1010919Y217170D01*
X1010908Y217235D01*
X1010906Y217301D01*
X1010888Y217344D01*
X1010880Y217391D01*
X1010846Y217448D01*
X1010821Y217508D01*
X1010790Y217543D01*
X1010765Y217584D01*
X1010714Y217626D01*
X1010670Y217674D01*
X1010628Y217696D01*
X1010591Y217725D01*
X1010529Y217746D01*
X1010470Y217777D01*
X1010416Y217785D01*
X1010379Y217797D01*
X1010339Y217796D01*
X1010285Y217804D01*
X1006475Y217804D01*
X1006410Y217793D01*
X1006344Y217791D01*
X1006301Y217773D01*
X1006254Y217765D01*
X1006197Y217731D01*
X1006137Y217706D01*
X1006102Y217675D01*
X1006061Y217650D01*
X1006020Y217599D01*
X1005971Y217555D01*
X1005949Y217513D01*
X1005920Y217476D01*
X1005899Y217414D01*
X1005868Y217355D01*
X1005860Y217301D01*
X1005848Y217264D01*
X1005848Y217261D01*
X1005849Y217224D01*
X1005841Y217170D01*
X1005841Y214630D01*
X1005852Y214565D01*
X1005854Y214499D01*
X1005872Y214456D01*
X1005880Y214409D01*
X1005914Y214352D01*
X1005939Y214292D01*
X1005970Y214257D01*
X1005995Y214216D01*
X1006046Y214175D01*
X1006090Y214126D01*
X1006132Y214104D01*
X1006169Y214075D01*
X1006231Y214054D01*
X1006290Y214023D01*
X1006344Y214015D01*
X1006381Y214003D01*
X1006421Y214004D01*
X1006475Y213996D01*
X1010285Y213996D01*
X1010350Y214007D01*
G37*
G36*
X1625030Y214007D02*
X1625030Y214007D01*
X1625096Y214009D01*
X1625139Y214027D01*
X1625186Y214035D01*
X1625243Y214069D01*
X1625303Y214094D01*
X1625338Y214125D01*
X1625379Y214150D01*
X1625421Y214201D01*
X1625469Y214245D01*
X1625491Y214287D01*
X1625520Y214324D01*
X1625541Y214386D01*
X1625572Y214445D01*
X1625580Y214499D01*
X1625592Y214536D01*
X1625591Y214576D01*
X1625599Y214630D01*
X1625599Y217170D01*
X1625588Y217235D01*
X1625586Y217301D01*
X1625568Y217344D01*
X1625560Y217391D01*
X1625526Y217448D01*
X1625501Y217508D01*
X1625470Y217543D01*
X1625445Y217584D01*
X1625394Y217626D01*
X1625350Y217674D01*
X1625308Y217696D01*
X1625271Y217725D01*
X1625209Y217746D01*
X1625150Y217777D01*
X1625096Y217785D01*
X1625059Y217797D01*
X1625019Y217796D01*
X1624965Y217804D01*
X1621155Y217804D01*
X1621090Y217793D01*
X1621024Y217791D01*
X1620981Y217773D01*
X1620934Y217765D01*
X1620877Y217731D01*
X1620817Y217706D01*
X1620782Y217675D01*
X1620741Y217650D01*
X1620700Y217599D01*
X1620651Y217555D01*
X1620629Y217513D01*
X1620600Y217476D01*
X1620579Y217414D01*
X1620548Y217355D01*
X1620540Y217301D01*
X1620528Y217264D01*
X1620528Y217261D01*
X1620529Y217224D01*
X1620521Y217170D01*
X1620521Y214630D01*
X1620532Y214565D01*
X1620534Y214499D01*
X1620552Y214456D01*
X1620560Y214409D01*
X1620594Y214352D01*
X1620619Y214292D01*
X1620650Y214257D01*
X1620675Y214216D01*
X1620726Y214175D01*
X1620770Y214126D01*
X1620812Y214104D01*
X1620849Y214075D01*
X1620911Y214054D01*
X1620970Y214023D01*
X1621024Y214015D01*
X1621061Y214003D01*
X1621101Y214004D01*
X1621155Y213996D01*
X1624965Y213996D01*
X1625030Y214007D01*
G37*
G36*
X1010350Y188607D02*
X1010350Y188607D01*
X1010416Y188609D01*
X1010459Y188627D01*
X1010506Y188635D01*
X1010563Y188669D01*
X1010623Y188694D01*
X1010658Y188725D01*
X1010699Y188750D01*
X1010741Y188801D01*
X1010789Y188845D01*
X1010811Y188887D01*
X1010840Y188924D01*
X1010861Y188986D01*
X1010892Y189045D01*
X1010900Y189099D01*
X1010912Y189136D01*
X1010911Y189176D01*
X1010919Y189230D01*
X1010919Y191770D01*
X1010908Y191835D01*
X1010906Y191901D01*
X1010888Y191944D01*
X1010880Y191991D01*
X1010846Y192048D01*
X1010821Y192108D01*
X1010790Y192143D01*
X1010765Y192184D01*
X1010714Y192226D01*
X1010670Y192274D01*
X1010628Y192296D01*
X1010591Y192325D01*
X1010529Y192346D01*
X1010470Y192377D01*
X1010416Y192385D01*
X1010379Y192397D01*
X1010339Y192396D01*
X1010285Y192404D01*
X1006475Y192404D01*
X1006410Y192393D01*
X1006344Y192391D01*
X1006301Y192373D01*
X1006254Y192365D01*
X1006197Y192331D01*
X1006137Y192306D01*
X1006102Y192275D01*
X1006061Y192250D01*
X1006020Y192199D01*
X1005971Y192155D01*
X1005949Y192113D01*
X1005920Y192076D01*
X1005899Y192014D01*
X1005868Y191955D01*
X1005860Y191901D01*
X1005848Y191864D01*
X1005848Y191861D01*
X1005849Y191824D01*
X1005841Y191770D01*
X1005841Y189230D01*
X1005852Y189165D01*
X1005854Y189099D01*
X1005872Y189056D01*
X1005880Y189009D01*
X1005914Y188952D01*
X1005939Y188892D01*
X1005970Y188857D01*
X1005995Y188816D01*
X1006046Y188775D01*
X1006090Y188726D01*
X1006132Y188704D01*
X1006169Y188675D01*
X1006231Y188654D01*
X1006290Y188623D01*
X1006344Y188615D01*
X1006381Y188603D01*
X1006421Y188604D01*
X1006475Y188596D01*
X1010285Y188596D01*
X1010350Y188607D01*
G37*
G36*
X1625030Y600087D02*
X1625030Y600087D01*
X1625096Y600089D01*
X1625139Y600107D01*
X1625186Y600115D01*
X1625243Y600149D01*
X1625303Y600174D01*
X1625338Y600205D01*
X1625379Y600230D01*
X1625421Y600281D01*
X1625469Y600325D01*
X1625491Y600367D01*
X1625520Y600404D01*
X1625541Y600466D01*
X1625572Y600525D01*
X1625580Y600579D01*
X1625592Y600616D01*
X1625591Y600656D01*
X1625599Y600710D01*
X1625599Y603250D01*
X1625588Y603315D01*
X1625586Y603381D01*
X1625568Y603424D01*
X1625560Y603471D01*
X1625526Y603528D01*
X1625501Y603588D01*
X1625470Y603623D01*
X1625445Y603664D01*
X1625394Y603706D01*
X1625350Y603754D01*
X1625308Y603776D01*
X1625271Y603805D01*
X1625209Y603826D01*
X1625150Y603857D01*
X1625096Y603865D01*
X1625059Y603877D01*
X1625019Y603876D01*
X1624965Y603884D01*
X1621155Y603884D01*
X1621090Y603873D01*
X1621024Y603871D01*
X1620981Y603853D01*
X1620934Y603845D01*
X1620877Y603811D01*
X1620817Y603786D01*
X1620782Y603755D01*
X1620741Y603730D01*
X1620700Y603679D01*
X1620651Y603635D01*
X1620629Y603593D01*
X1620600Y603556D01*
X1620579Y603494D01*
X1620548Y603435D01*
X1620540Y603381D01*
X1620528Y603344D01*
X1620528Y603341D01*
X1620529Y603304D01*
X1620521Y603250D01*
X1620521Y600710D01*
X1620532Y600645D01*
X1620534Y600579D01*
X1620552Y600536D01*
X1620560Y600489D01*
X1620594Y600432D01*
X1620619Y600372D01*
X1620650Y600337D01*
X1620675Y600296D01*
X1620726Y600255D01*
X1620770Y600206D01*
X1620812Y600184D01*
X1620849Y600155D01*
X1620911Y600134D01*
X1620970Y600103D01*
X1621024Y600095D01*
X1621061Y600083D01*
X1621101Y600084D01*
X1621155Y600076D01*
X1624965Y600076D01*
X1625030Y600087D01*
G37*
G36*
X1625030Y188607D02*
X1625030Y188607D01*
X1625096Y188609D01*
X1625139Y188627D01*
X1625186Y188635D01*
X1625243Y188669D01*
X1625303Y188694D01*
X1625338Y188725D01*
X1625379Y188750D01*
X1625421Y188801D01*
X1625469Y188845D01*
X1625491Y188887D01*
X1625520Y188924D01*
X1625541Y188986D01*
X1625572Y189045D01*
X1625580Y189099D01*
X1625592Y189136D01*
X1625591Y189176D01*
X1625599Y189230D01*
X1625599Y191770D01*
X1625588Y191835D01*
X1625586Y191901D01*
X1625568Y191944D01*
X1625560Y191991D01*
X1625526Y192048D01*
X1625501Y192108D01*
X1625470Y192143D01*
X1625445Y192184D01*
X1625394Y192226D01*
X1625350Y192274D01*
X1625308Y192296D01*
X1625271Y192325D01*
X1625209Y192346D01*
X1625150Y192377D01*
X1625096Y192385D01*
X1625059Y192397D01*
X1625019Y192396D01*
X1624965Y192404D01*
X1621155Y192404D01*
X1621090Y192393D01*
X1621024Y192391D01*
X1620981Y192373D01*
X1620934Y192365D01*
X1620877Y192331D01*
X1620817Y192306D01*
X1620782Y192275D01*
X1620741Y192250D01*
X1620700Y192199D01*
X1620651Y192155D01*
X1620629Y192113D01*
X1620600Y192076D01*
X1620579Y192014D01*
X1620548Y191955D01*
X1620540Y191901D01*
X1620528Y191864D01*
X1620528Y191861D01*
X1620529Y191824D01*
X1620521Y191770D01*
X1620521Y189230D01*
X1620532Y189165D01*
X1620534Y189099D01*
X1620552Y189056D01*
X1620560Y189009D01*
X1620594Y188952D01*
X1620619Y188892D01*
X1620650Y188857D01*
X1620675Y188816D01*
X1620726Y188775D01*
X1620770Y188726D01*
X1620812Y188704D01*
X1620849Y188675D01*
X1620911Y188654D01*
X1620970Y188623D01*
X1621024Y188615D01*
X1621061Y188603D01*
X1621101Y188604D01*
X1621155Y188596D01*
X1624965Y188596D01*
X1625030Y188607D01*
G37*
G36*
X1010350Y163207D02*
X1010350Y163207D01*
X1010416Y163209D01*
X1010459Y163227D01*
X1010506Y163235D01*
X1010563Y163269D01*
X1010623Y163294D01*
X1010658Y163325D01*
X1010699Y163350D01*
X1010741Y163401D01*
X1010789Y163445D01*
X1010811Y163487D01*
X1010840Y163524D01*
X1010861Y163586D01*
X1010892Y163645D01*
X1010900Y163699D01*
X1010912Y163736D01*
X1010911Y163776D01*
X1010919Y163830D01*
X1010919Y166370D01*
X1010908Y166435D01*
X1010906Y166501D01*
X1010888Y166544D01*
X1010880Y166591D01*
X1010846Y166648D01*
X1010821Y166708D01*
X1010790Y166743D01*
X1010765Y166784D01*
X1010714Y166826D01*
X1010670Y166874D01*
X1010628Y166896D01*
X1010591Y166925D01*
X1010529Y166946D01*
X1010470Y166977D01*
X1010416Y166985D01*
X1010379Y166997D01*
X1010339Y166996D01*
X1010285Y167004D01*
X1006475Y167004D01*
X1006410Y166993D01*
X1006344Y166991D01*
X1006301Y166973D01*
X1006254Y166965D01*
X1006197Y166931D01*
X1006137Y166906D01*
X1006102Y166875D01*
X1006061Y166850D01*
X1006020Y166799D01*
X1005971Y166755D01*
X1005949Y166713D01*
X1005920Y166676D01*
X1005899Y166614D01*
X1005868Y166555D01*
X1005860Y166501D01*
X1005848Y166464D01*
X1005848Y166461D01*
X1005849Y166424D01*
X1005841Y166370D01*
X1005841Y163830D01*
X1005852Y163765D01*
X1005854Y163699D01*
X1005872Y163656D01*
X1005880Y163609D01*
X1005914Y163552D01*
X1005939Y163492D01*
X1005970Y163457D01*
X1005995Y163416D01*
X1006046Y163375D01*
X1006090Y163326D01*
X1006132Y163304D01*
X1006169Y163275D01*
X1006231Y163254D01*
X1006290Y163223D01*
X1006344Y163215D01*
X1006381Y163203D01*
X1006421Y163204D01*
X1006475Y163196D01*
X1010285Y163196D01*
X1010350Y163207D01*
G37*
G36*
X395670Y163207D02*
X395670Y163207D01*
X395736Y163209D01*
X395779Y163227D01*
X395826Y163235D01*
X395883Y163269D01*
X395943Y163294D01*
X395978Y163325D01*
X396019Y163350D01*
X396061Y163401D01*
X396109Y163445D01*
X396131Y163487D01*
X396160Y163524D01*
X396181Y163586D01*
X396212Y163645D01*
X396220Y163699D01*
X396232Y163736D01*
X396231Y163776D01*
X396239Y163830D01*
X396239Y166370D01*
X396228Y166435D01*
X396226Y166501D01*
X396208Y166544D01*
X396200Y166591D01*
X396166Y166648D01*
X396141Y166708D01*
X396110Y166743D01*
X396085Y166784D01*
X396034Y166826D01*
X395990Y166874D01*
X395948Y166896D01*
X395911Y166925D01*
X395849Y166946D01*
X395790Y166977D01*
X395736Y166985D01*
X395699Y166997D01*
X395659Y166996D01*
X395605Y167004D01*
X391795Y167004D01*
X391730Y166993D01*
X391664Y166991D01*
X391621Y166973D01*
X391574Y166965D01*
X391517Y166931D01*
X391457Y166906D01*
X391422Y166875D01*
X391381Y166850D01*
X391340Y166799D01*
X391291Y166755D01*
X391269Y166713D01*
X391240Y166676D01*
X391219Y166614D01*
X391188Y166555D01*
X391180Y166501D01*
X391168Y166464D01*
X391168Y166461D01*
X391169Y166424D01*
X391161Y166370D01*
X391161Y163830D01*
X391172Y163765D01*
X391174Y163699D01*
X391192Y163656D01*
X391200Y163609D01*
X391234Y163552D01*
X391259Y163492D01*
X391290Y163457D01*
X391315Y163416D01*
X391366Y163375D01*
X391410Y163326D01*
X391452Y163304D01*
X391489Y163275D01*
X391551Y163254D01*
X391610Y163223D01*
X391664Y163215D01*
X391701Y163203D01*
X391741Y163204D01*
X391795Y163196D01*
X395605Y163196D01*
X395670Y163207D01*
G37*
G36*
X1625030Y163207D02*
X1625030Y163207D01*
X1625096Y163209D01*
X1625139Y163227D01*
X1625186Y163235D01*
X1625243Y163269D01*
X1625303Y163294D01*
X1625338Y163325D01*
X1625379Y163350D01*
X1625421Y163401D01*
X1625469Y163445D01*
X1625491Y163487D01*
X1625520Y163524D01*
X1625541Y163586D01*
X1625572Y163645D01*
X1625580Y163699D01*
X1625592Y163736D01*
X1625591Y163776D01*
X1625599Y163830D01*
X1625599Y166370D01*
X1625588Y166435D01*
X1625586Y166501D01*
X1625568Y166544D01*
X1625560Y166591D01*
X1625526Y166648D01*
X1625501Y166708D01*
X1625470Y166743D01*
X1625445Y166784D01*
X1625394Y166826D01*
X1625350Y166874D01*
X1625308Y166896D01*
X1625271Y166925D01*
X1625209Y166946D01*
X1625150Y166977D01*
X1625096Y166985D01*
X1625059Y166997D01*
X1625019Y166996D01*
X1624965Y167004D01*
X1621155Y167004D01*
X1621090Y166993D01*
X1621024Y166991D01*
X1620981Y166973D01*
X1620934Y166965D01*
X1620877Y166931D01*
X1620817Y166906D01*
X1620782Y166875D01*
X1620741Y166850D01*
X1620700Y166799D01*
X1620651Y166755D01*
X1620629Y166713D01*
X1620600Y166676D01*
X1620579Y166614D01*
X1620548Y166555D01*
X1620540Y166501D01*
X1620528Y166464D01*
X1620528Y166461D01*
X1620529Y166424D01*
X1620521Y166370D01*
X1620521Y163830D01*
X1620532Y163765D01*
X1620534Y163699D01*
X1620552Y163656D01*
X1620560Y163609D01*
X1620594Y163552D01*
X1620619Y163492D01*
X1620650Y163457D01*
X1620675Y163416D01*
X1620726Y163375D01*
X1620770Y163326D01*
X1620812Y163304D01*
X1620849Y163275D01*
X1620911Y163254D01*
X1620970Y163223D01*
X1621024Y163215D01*
X1621061Y163203D01*
X1621101Y163204D01*
X1621155Y163196D01*
X1624965Y163196D01*
X1625030Y163207D01*
G37*
G36*
X718250Y1024267D02*
X718250Y1024267D01*
X718316Y1024269D01*
X718359Y1024287D01*
X718406Y1024295D01*
X718463Y1024329D01*
X718523Y1024354D01*
X718558Y1024385D01*
X718599Y1024410D01*
X718641Y1024461D01*
X718689Y1024505D01*
X718711Y1024547D01*
X718740Y1024584D01*
X718761Y1024646D01*
X718792Y1024705D01*
X718800Y1024759D01*
X718812Y1024796D01*
X718811Y1024836D01*
X718819Y1024890D01*
X718819Y1027430D01*
X718808Y1027495D01*
X718806Y1027561D01*
X718788Y1027604D01*
X718780Y1027651D01*
X718746Y1027708D01*
X718721Y1027768D01*
X718690Y1027803D01*
X718665Y1027844D01*
X718614Y1027886D01*
X718570Y1027934D01*
X718528Y1027956D01*
X718491Y1027985D01*
X718429Y1028006D01*
X718370Y1028037D01*
X718316Y1028045D01*
X718279Y1028057D01*
X718239Y1028056D01*
X718185Y1028064D01*
X714375Y1028064D01*
X714310Y1028053D01*
X714244Y1028051D01*
X714201Y1028033D01*
X714154Y1028025D01*
X714097Y1027991D01*
X714037Y1027966D01*
X714002Y1027935D01*
X713961Y1027910D01*
X713920Y1027859D01*
X713871Y1027815D01*
X713849Y1027773D01*
X713820Y1027736D01*
X713799Y1027674D01*
X713768Y1027615D01*
X713760Y1027561D01*
X713748Y1027524D01*
X713748Y1027521D01*
X713749Y1027484D01*
X713741Y1027430D01*
X713741Y1024890D01*
X713752Y1024825D01*
X713754Y1024759D01*
X713772Y1024716D01*
X713780Y1024669D01*
X713814Y1024612D01*
X713839Y1024552D01*
X713870Y1024517D01*
X713895Y1024476D01*
X713946Y1024435D01*
X713990Y1024386D01*
X714032Y1024364D01*
X714069Y1024335D01*
X714131Y1024314D01*
X714190Y1024283D01*
X714244Y1024275D01*
X714281Y1024263D01*
X714321Y1024264D01*
X714375Y1024256D01*
X718185Y1024256D01*
X718250Y1024267D01*
G37*
G36*
X103570Y1024267D02*
X103570Y1024267D01*
X103636Y1024269D01*
X103679Y1024287D01*
X103726Y1024295D01*
X103783Y1024329D01*
X103843Y1024354D01*
X103878Y1024385D01*
X103919Y1024410D01*
X103961Y1024461D01*
X104009Y1024505D01*
X104031Y1024547D01*
X104060Y1024584D01*
X104081Y1024646D01*
X104112Y1024705D01*
X104120Y1024759D01*
X104132Y1024796D01*
X104131Y1024836D01*
X104139Y1024890D01*
X104139Y1027430D01*
X104128Y1027495D01*
X104126Y1027561D01*
X104108Y1027604D01*
X104100Y1027651D01*
X104066Y1027708D01*
X104041Y1027768D01*
X104010Y1027803D01*
X103985Y1027844D01*
X103934Y1027886D01*
X103890Y1027934D01*
X103848Y1027956D01*
X103811Y1027985D01*
X103749Y1028006D01*
X103690Y1028037D01*
X103636Y1028045D01*
X103599Y1028057D01*
X103559Y1028056D01*
X103505Y1028064D01*
X99695Y1028064D01*
X99630Y1028053D01*
X99564Y1028051D01*
X99521Y1028033D01*
X99474Y1028025D01*
X99417Y1027991D01*
X99357Y1027966D01*
X99322Y1027935D01*
X99281Y1027910D01*
X99240Y1027859D01*
X99191Y1027815D01*
X99169Y1027773D01*
X99140Y1027736D01*
X99119Y1027674D01*
X99088Y1027615D01*
X99080Y1027561D01*
X99068Y1027524D01*
X99068Y1027521D01*
X99069Y1027484D01*
X99061Y1027430D01*
X99061Y1024890D01*
X99072Y1024825D01*
X99074Y1024759D01*
X99092Y1024716D01*
X99100Y1024669D01*
X99134Y1024612D01*
X99159Y1024552D01*
X99190Y1024517D01*
X99215Y1024476D01*
X99266Y1024435D01*
X99310Y1024386D01*
X99352Y1024364D01*
X99389Y1024335D01*
X99451Y1024314D01*
X99510Y1024283D01*
X99564Y1024275D01*
X99601Y1024263D01*
X99641Y1024264D01*
X99695Y1024256D01*
X103505Y1024256D01*
X103570Y1024267D01*
G37*
G36*
X395670Y188607D02*
X395670Y188607D01*
X395736Y188609D01*
X395779Y188627D01*
X395826Y188635D01*
X395883Y188669D01*
X395943Y188694D01*
X395978Y188725D01*
X396019Y188750D01*
X396061Y188801D01*
X396109Y188845D01*
X396131Y188887D01*
X396160Y188924D01*
X396181Y188986D01*
X396212Y189045D01*
X396220Y189099D01*
X396232Y189136D01*
X396231Y189176D01*
X396239Y189230D01*
X396239Y191770D01*
X396228Y191835D01*
X396226Y191901D01*
X396208Y191944D01*
X396200Y191991D01*
X396166Y192048D01*
X396141Y192108D01*
X396110Y192143D01*
X396085Y192184D01*
X396034Y192226D01*
X395990Y192274D01*
X395948Y192296D01*
X395911Y192325D01*
X395849Y192346D01*
X395790Y192377D01*
X395736Y192385D01*
X395699Y192397D01*
X395659Y192396D01*
X395605Y192404D01*
X391795Y192404D01*
X391730Y192393D01*
X391664Y192391D01*
X391621Y192373D01*
X391574Y192365D01*
X391517Y192331D01*
X391457Y192306D01*
X391422Y192275D01*
X391381Y192250D01*
X391340Y192199D01*
X391291Y192155D01*
X391269Y192113D01*
X391240Y192076D01*
X391219Y192014D01*
X391188Y191955D01*
X391180Y191901D01*
X391168Y191864D01*
X391168Y191861D01*
X391169Y191824D01*
X391161Y191770D01*
X391161Y189230D01*
X391172Y189165D01*
X391174Y189099D01*
X391192Y189056D01*
X391200Y189009D01*
X391234Y188952D01*
X391259Y188892D01*
X391290Y188857D01*
X391315Y188816D01*
X391366Y188775D01*
X391410Y188726D01*
X391452Y188704D01*
X391489Y188675D01*
X391551Y188654D01*
X391610Y188623D01*
X391664Y188615D01*
X391701Y188603D01*
X391741Y188604D01*
X391795Y188596D01*
X395605Y188596D01*
X395670Y188607D01*
G37*
D10*
X25400Y25400D03*
X584200Y25400D03*
D11*
X48514Y292100D03*
X38100Y292100D03*
X27686Y292100D03*
D12*
X50800Y368300D03*
X558800Y12700D03*
D10*
X584200Y355600D03*
X25400Y355600D03*
D13*
X494100Y63500D03*
X444100Y63500D03*
X394100Y63500D03*
X344100Y63500D03*
X344100Y317500D03*
X394100Y317500D03*
X444100Y317500D03*
X494100Y317500D03*
D14*
X546100Y83693D03*
X546100Y94107D03*
D11*
X388493Y165100D03*
X398907Y165100D03*
X388493Y190500D03*
X398907Y190500D03*
X388493Y215900D03*
X398907Y215900D03*
X96393Y254000D03*
X106807Y254000D03*
D13*
X115500Y317500D03*
X165500Y317500D03*
X215500Y317500D03*
X265500Y317500D03*
X265500Y63500D03*
X215500Y63500D03*
X165500Y63500D03*
X115500Y63500D03*
D15*
X596900Y139700D03*
X596900Y241300D03*
X596900Y266700D03*
X596900Y292100D03*
X596900Y317500D03*
D10*
X640080Y25400D03*
X1198880Y25400D03*
D11*
X663194Y292100D03*
X652780Y292100D03*
X642366Y292100D03*
D12*
X665480Y368300D03*
X1173480Y12700D03*
D10*
X1198880Y355600D03*
X640080Y355600D03*
D13*
X1108780Y63500D03*
X1058780Y63500D03*
X1008780Y63500D03*
X958780Y63500D03*
X958780Y317500D03*
X1008780Y317500D03*
X1058780Y317500D03*
X1108780Y317500D03*
D14*
X1160780Y83693D03*
X1160780Y94107D03*
D11*
X1003173Y165100D03*
X1013587Y165100D03*
X1003173Y190500D03*
X1013587Y190500D03*
X1003173Y215900D03*
X1013587Y215900D03*
X711073Y254000D03*
X721487Y254000D03*
D13*
X730180Y317500D03*
X780180Y317500D03*
X830180Y317500D03*
X880180Y317500D03*
X880180Y63500D03*
X830180Y63500D03*
X780180Y63500D03*
X730180Y63500D03*
D15*
X1211580Y139700D03*
X1211580Y241300D03*
X1211580Y266700D03*
X1211580Y292100D03*
X1211580Y317500D03*
D10*
X1254760Y25400D03*
X1813560Y25400D03*
D11*
X1277874Y292100D03*
X1267460Y292100D03*
X1257046Y292100D03*
D12*
X1280160Y368300D03*
X1788160Y12700D03*
D10*
X1813560Y355600D03*
X1254760Y355600D03*
D13*
X1723460Y63500D03*
X1673460Y63500D03*
X1623460Y63500D03*
X1573460Y63500D03*
X1573460Y317500D03*
X1623460Y317500D03*
X1673460Y317500D03*
X1723460Y317500D03*
D14*
X1775460Y83693D03*
X1775460Y94107D03*
D11*
X1617853Y165100D03*
X1628267Y165100D03*
X1617853Y190500D03*
X1628267Y190500D03*
X1617853Y215900D03*
X1628267Y215900D03*
X1325753Y254000D03*
X1336167Y254000D03*
D13*
X1344860Y317500D03*
X1394860Y317500D03*
X1444860Y317500D03*
X1494860Y317500D03*
X1494860Y63500D03*
X1444860Y63500D03*
X1394860Y63500D03*
X1344860Y63500D03*
D15*
X1826260Y139700D03*
X1826260Y241300D03*
X1826260Y266700D03*
X1826260Y292100D03*
X1826260Y317500D03*
D10*
X25400Y411480D03*
X584200Y411480D03*
D11*
X48514Y678180D03*
X38100Y678180D03*
X27686Y678180D03*
D12*
X50800Y754380D03*
X558800Y398780D03*
D10*
X584200Y741680D03*
X25400Y741680D03*
D13*
X494100Y449580D03*
X444100Y449580D03*
X394100Y449580D03*
X344100Y449580D03*
X344100Y703580D03*
X394100Y703580D03*
X444100Y703580D03*
X494100Y703580D03*
D14*
X546100Y469773D03*
X546100Y480187D03*
D11*
X388493Y551180D03*
X398907Y551180D03*
X388493Y576580D03*
X398907Y576580D03*
X388493Y601980D03*
X398907Y601980D03*
X96393Y640080D03*
X106807Y640080D03*
D13*
X115500Y703580D03*
X165500Y703580D03*
X215500Y703580D03*
X265500Y703580D03*
X265500Y449580D03*
X215500Y449580D03*
X165500Y449580D03*
X115500Y449580D03*
D15*
X596900Y525780D03*
X596900Y627380D03*
X596900Y652780D03*
X596900Y678180D03*
X596900Y703580D03*
D10*
X640080Y411480D03*
X1198880Y411480D03*
D11*
X663194Y678180D03*
X652780Y678180D03*
X642366Y678180D03*
D12*
X665480Y754380D03*
X1173480Y398780D03*
D10*
X1198880Y741680D03*
X640080Y741680D03*
D13*
X1108780Y449580D03*
X1058780Y449580D03*
X1008780Y449580D03*
X958780Y449580D03*
X958780Y703580D03*
X1008780Y703580D03*
X1058780Y703580D03*
X1108780Y703580D03*
D14*
X1160780Y469773D03*
X1160780Y480187D03*
D11*
X1003173Y551180D03*
X1013587Y551180D03*
X1003173Y576580D03*
X1013587Y576580D03*
X1003173Y601980D03*
X1013587Y601980D03*
X711073Y640080D03*
X721487Y640080D03*
D13*
X730180Y703580D03*
X780180Y703580D03*
X830180Y703580D03*
X880180Y703580D03*
X880180Y449580D03*
X830180Y449580D03*
X780180Y449580D03*
X730180Y449580D03*
D15*
X1211580Y525780D03*
X1211580Y627380D03*
X1211580Y652780D03*
X1211580Y678180D03*
X1211580Y703580D03*
D10*
X1254760Y411480D03*
X1813560Y411480D03*
D11*
X1277874Y678180D03*
X1267460Y678180D03*
X1257046Y678180D03*
D12*
X1280160Y754380D03*
X1788160Y398780D03*
D10*
X1813560Y741680D03*
X1254760Y741680D03*
D13*
X1723460Y449580D03*
X1673460Y449580D03*
X1623460Y449580D03*
X1573460Y449580D03*
X1573460Y703580D03*
X1623460Y703580D03*
X1673460Y703580D03*
X1723460Y703580D03*
D14*
X1775460Y469773D03*
X1775460Y480187D03*
D11*
X1617853Y551180D03*
X1628267Y551180D03*
X1617853Y576580D03*
X1628267Y576580D03*
X1617853Y601980D03*
X1628267Y601980D03*
X1325753Y640080D03*
X1336167Y640080D03*
D13*
X1344860Y703580D03*
X1394860Y703580D03*
X1444860Y703580D03*
X1494860Y703580D03*
X1494860Y449580D03*
X1444860Y449580D03*
X1394860Y449580D03*
X1344860Y449580D03*
D15*
X1826260Y525780D03*
X1826260Y627380D03*
X1826260Y652780D03*
X1826260Y678180D03*
X1826260Y703580D03*
D10*
X25400Y797560D03*
X584200Y797560D03*
D11*
X48514Y1064260D03*
X38100Y1064260D03*
X27686Y1064260D03*
D12*
X50800Y1140460D03*
X558800Y784860D03*
D10*
X584200Y1127760D03*
X25400Y1127760D03*
D13*
X494100Y835660D03*
X444100Y835660D03*
X394100Y835660D03*
X344100Y835660D03*
X344100Y1089660D03*
X394100Y1089660D03*
X444100Y1089660D03*
X494100Y1089660D03*
D14*
X546100Y855853D03*
X546100Y866267D03*
D11*
X388493Y937260D03*
X398907Y937260D03*
X388493Y962660D03*
X398907Y962660D03*
X388493Y988060D03*
X398907Y988060D03*
X96393Y1026160D03*
X106807Y1026160D03*
D13*
X115500Y1089660D03*
X165500Y1089660D03*
X215500Y1089660D03*
X265500Y1089660D03*
X265500Y835660D03*
X215500Y835660D03*
X165500Y835660D03*
X115500Y835660D03*
D15*
X596900Y911860D03*
X596900Y1013460D03*
X596900Y1038860D03*
X596900Y1064260D03*
X596900Y1089660D03*
D10*
X640080Y797560D03*
X1198880Y797560D03*
D11*
X663194Y1064260D03*
X652780Y1064260D03*
X642366Y1064260D03*
D12*
X665480Y1140460D03*
X1173480Y784860D03*
D10*
X1198880Y1127760D03*
X640080Y1127760D03*
D13*
X1108780Y835660D03*
X1058780Y835660D03*
X1008780Y835660D03*
X958780Y835660D03*
X958780Y1089660D03*
X1008780Y1089660D03*
X1058780Y1089660D03*
X1108780Y1089660D03*
D14*
X1160780Y855853D03*
X1160780Y866267D03*
D11*
X1003173Y937260D03*
X1013587Y937260D03*
X1003173Y962660D03*
X1013587Y962660D03*
X1003173Y988060D03*
X1013587Y988060D03*
X711073Y1026160D03*
X721487Y1026160D03*
D13*
X730180Y1089660D03*
X780180Y1089660D03*
X830180Y1089660D03*
X880180Y1089660D03*
X880180Y835660D03*
X830180Y835660D03*
X780180Y835660D03*
X730180Y835660D03*
D15*
X1211580Y911860D03*
X1211580Y1013460D03*
X1211580Y1038860D03*
X1211580Y1064260D03*
X1211580Y1089660D03*
D10*
X1254760Y797560D03*
X1813560Y797560D03*
D11*
X1277874Y1064260D03*
X1267460Y1064260D03*
X1257046Y1064260D03*
D12*
X1280160Y1140460D03*
X1788160Y784860D03*
D10*
X1813560Y1127760D03*
X1254760Y1127760D03*
D13*
X1723460Y835660D03*
X1673460Y835660D03*
X1623460Y835660D03*
X1573460Y835660D03*
X1573460Y1089660D03*
X1623460Y1089660D03*
X1673460Y1089660D03*
X1723460Y1089660D03*
D14*
X1775460Y855853D03*
X1775460Y866267D03*
D11*
X1617853Y937260D03*
X1628267Y937260D03*
X1617853Y962660D03*
X1628267Y962660D03*
X1617853Y988060D03*
X1628267Y988060D03*
X1325753Y1026160D03*
X1336167Y1026160D03*
D13*
X1344860Y1089660D03*
X1394860Y1089660D03*
X1444860Y1089660D03*
X1494860Y1089660D03*
X1494860Y835660D03*
X1444860Y835660D03*
X1394860Y835660D03*
X1344860Y835660D03*
D15*
X1826260Y911860D03*
X1826260Y1013460D03*
X1826260Y1038860D03*
X1826260Y1064260D03*
X1826260Y1089660D03*
D12*
X68580Y1174115D03*
X1769745Y1174115D03*
M02*
