G04 EAGLE Gerber RS-274X export*
G75*
%MOMM*%
%FSLAX34Y34*%
%LPD*%
%INSoldermask Top*%
%IPPOS*%
%AMOC8*
5,1,8,0,0,1.08239X$1,22.5*%
G01*
%ADD10C,3.505200*%
%ADD11C,1.203200*%
%ADD12R,2.203200X1.403200*%
%ADD13R,1.553200X0.803200*%
%ADD14R,1.203200X1.303200*%
%ADD15R,1.600200X0.850900*%
%ADD16R,1.303200X1.203200*%
%ADD17C,2.453200*%
%ADD18C,0.505344*%
%ADD19C,2.082800*%


D10*
X25400Y25400D03*
X584200Y25400D03*
D11*
X558800Y12700D03*
X50800Y368300D03*
D12*
X14050Y218500D03*
X14050Y162500D03*
D13*
X50800Y205500D03*
X50800Y195500D03*
X50800Y185500D03*
X50800Y175500D03*
D14*
X220980Y162950D03*
X220980Y179950D03*
D12*
X595550Y162500D03*
X595550Y218500D03*
D13*
X558800Y175500D03*
X558800Y185500D03*
X558800Y195500D03*
X558800Y205500D03*
D14*
X33020Y245500D03*
X33020Y262500D03*
X12700Y245500D03*
X12700Y262500D03*
D15*
X351300Y146050D03*
X351300Y158750D03*
X351300Y171450D03*
X351300Y184150D03*
X351300Y196850D03*
X351300Y209550D03*
X351300Y222250D03*
X351300Y234950D03*
X258300Y234950D03*
X258300Y222250D03*
X258300Y209550D03*
X258300Y196850D03*
X258300Y184150D03*
X258300Y171450D03*
X258300Y158750D03*
X258300Y146050D03*
D16*
X402200Y190500D03*
X385200Y190500D03*
X402200Y165100D03*
X385200Y165100D03*
D14*
X419100Y160900D03*
X419100Y143900D03*
D10*
X584200Y355600D03*
X25400Y355600D03*
D14*
X546100Y116450D03*
X546100Y99450D03*
D17*
X494100Y63500D03*
X444100Y63500D03*
X394100Y63500D03*
X344100Y63500D03*
X344100Y317500D03*
X394100Y317500D03*
X444100Y317500D03*
X494100Y317500D03*
D16*
X55000Y234950D03*
X72000Y234950D03*
D18*
X68780Y250510D02*
X68780Y257490D01*
X75760Y257490D01*
X75760Y250510D01*
X68780Y250510D01*
X68780Y255310D02*
X75760Y255310D01*
X51240Y257490D02*
X51240Y250510D01*
X51240Y257490D02*
X58220Y257490D01*
X58220Y250510D01*
X51240Y250510D01*
X51240Y255310D02*
X58220Y255310D01*
D17*
X115500Y317500D03*
X165500Y317500D03*
X215500Y317500D03*
X265500Y317500D03*
X265500Y63500D03*
X215500Y63500D03*
X165500Y63500D03*
X115500Y63500D03*
D19*
X596900Y139700D03*
X596900Y241300D03*
X596900Y266700D03*
X596900Y292100D03*
X596900Y317500D03*
M02*
